<?xml version="1.0" standalone="no"?><!DOCTYPE svg PUBLIC "-//W3C//DTD SVG 1.1//EN" "http://www.w3.org/Graphics/SVG/1.1/DTD/svg11.dtd" ><svg xmlns="http://www.w3.org/2000/svg"><metadata></metadata><defs><font id="fonteditor" horiz-adv-x="1207"><font-face font-family=" [W]åb?rHÑÿ^UFu(ÿ	^8ÄOS" font-weight="400" font-stretch="normal" units-per-em="1000" panose-1="0 0 0 0 0 0 0 0 0 0" ascent="880" descent="-120" x-height="0" bbox="-5 -348 1177 791" underline-thickness="50" underline-position="-75" unicode-range="U+0021-ff1f" /><missing-glyph horiz-adv-x="1000" d="M143 791 L845 791 L845 -86 L143 -86 L143 791 ZM773 748 L215 748 L494 389 L773 748 ZM801 -6 L801 712 L522 353 L801 -6 ZM773 -42 L494 317 L215 -42 L773 -42 ZM187 -6 L466 353 L187 712 L187 -6 Z" /><glyph glyph-name="numbersign" unicode="#" d="M742 616 L700 465 L803 465 L776 369 L673 369 L642 256 L766 256 L739 160 L616 160 L564 -27 L358 -27 L412 160 L348 160 L296 -27 L91 -27 L145 160 L30 160 L56 256 L172 256 L205 369 L67 369 L93 465 L232 465 L276 616 L474 616 L432 465 L500 465 L544 616 L742 616 ZM374 256 L440 256 L472 369 L405 369 L374 256 Z" /><glyph glyph-name="dollar" unicode="$" d="M244 -54 L244 36 L64 36 L64 129 L244 129 L244 250 L30 250 L30 526 L106 589 L244 589 L244 695 L438 695 L438 589 L617 589 L617 495 L438 495 L438 355 L651 355 L651 95 L588 36 L438 36 L438 -54 L244 -54 ZM202 355 L244 355 L244 495 L202 495 L202 355 ZM479 129 L479 250 L438 250 L438 129 L479 129 Z" /><glyph glyph-name="percent" unicode="%" d="M201 418 L271 418 L241 356 L30 356 L30 656 L440 656 L440 356 L273 356 L273 594 L201 594 L201 418 ZM803 59 L872 59 L842 -4 L631 -4 L631 297 L1041 297 L1041 -4 L874 -4 L874 234 L803 234 L803 59 ZM395 -33 L192 -33 L695 709 L898 709 L395 -33 Z" /><glyph glyph-name="ampersand" unicode="&amp;" d="M888 410 L888 232 L849 209 L779 170 L924 82 L798 -34 L616 76 L451 -19 L424 -34 L30 -34 L30 285 L70 308 L155 356 L67 409 L30 431 L30 701 L617 701 L617 430 L577 407 L479 352 L620 266 L689 306 L689 410 L888 410 ZM357 116 L457 173 L315 259 L230 211 L230 116 L357 116 ZM319 449 L417 504 L417 552 L230 552 L230 503 L319 449 Z" /><glyph glyph-name="quotesingle" unicode="&#39;" d="M159 694 L159 511 L30 511 L30 694 L159 694 Z" /><glyph glyph-name="parenleft" unicode="(" d="M143 -69 Q92 0 62.5 94.5 Q33 189 30.5 293.5 Q28 398 56.5 506 Q85 614 151 711 L382 711 Q316 623 282 520 Q248 417 247 313 Q246 209 277.5 110 Q309 11 374 -69 L143 -69 Z" /><glyph glyph-name="parenright" unicode=")" d="M38 -69 Q103 11 134.5 110 Q166 209 165 313 Q164 417 130 520 Q96 623 30 711 L261 711 Q327 614 355.5 506 Q384 398 381.5 293.5 Q379 189 349.5 94.5 Q320 0 269 -69 L38 -69 Z" /><glyph glyph-name="asterisk" unicode="*" d="M348 703 L348 577 L506 616 L544 529 L386 490 L483 389 L385 335 L287 437 L190 335 L91 389 L188 490 L30 529 L67 616 L227 577 L227 703 L348 703 Z" /><glyph glyph-name="plus" unicode="+" d="M253 80 L253 257 L30 257 L30 381 L253 381 L253 557 L443 557 L443 381 L666 381 L666 257 L443 257 L443 80 L253 80 Z" /><glyph glyph-name="comma" unicode="," d="M297 72 L216 -143 L30 -143 L112 72 L297 72 Z" /><glyph glyph-name="hyphen" unicode="-" d="M30 370 L425 370 L425 247 L30 247 L30 370 Z" /><glyph glyph-name="period" unicode="." d="M242 -134 L30 -134 L30 5 L242 5 L242 -134 Z" /><glyph glyph-name="slash" unicode="/" d="M191 -73 L30 -73 L435 675 L596 675 L191 -73 Z" /><glyph glyph-name="zero" unicode="0" d="M262 55 L422 55 L422 546 L262 546 L262 55 ZM670 -41 L24 -41 L24 642 L670 642 L670 -41 Z" /><glyph glyph-name="one" unicode="1" d="M155 -41 L155 533 L26 533 L81 642 L387 642 L387 -41 L155 -41 Z" /><glyph glyph-name="two" unicode="2" d="M671 382 L309 68 L684 68 L657 -41 L24 -41 L24 95 L427 437 L427 533 L24 533 L24 642 L671 642 L671 382 Z" /><glyph glyph-name="three" unicode="3" d="M39 259 L39 369 L372 369 L372 534 L39 534 L39 643 L499 643 L606 563 L606 357 L524 306 L606 252 L606 -41 L56 -41 L24 68 L372 68 L372 259 L39 259 Z" /><glyph glyph-name="four" unicode="4" d="M574 642 L574 221 L717 221 L662 112 L574 112 L574 -41 L321 -41 L321 112 L23 112 L23 642 L263 642 L263 221 L321 221 L321 642 L574 642 Z" /><glyph glyph-name="five" unicode="5" d="M24 643 L654 643 L654 534 L238 534 L238 354 L654 354 L654 20 L583 -41 L24 -41 L24 68 L419 68 L419 243 L24 243 L24 643 Z" /><glyph glyph-name="six" unicode="6" d="M256 373 L669 373 L669 -41 L460 -41 L460 263 L256 263 L256 68 L460 68 L411 -41 L24 -41 L24 642 L669 642 L669 533 L256 533 L256 373 Z" /><glyph glyph-name="seven" unicode="7" d="M429 536 L24 536 L24 642 L671 642 L671 536 L443 -41 L197 -41 L429 536 Z" /><glyph glyph-name="eight" unicode="8" d="M655 246 L655 41 L550 -41 L129 -41 L24 41 L24 246 L107 300 L24 354 L24 560 L129 642 L550 642 L655 560 L655 354 L573 300 L655 246 ZM262 70 L419 70 L419 246 L262 246 L262 70 ZM262 356 L419 356 L419 531 L262 531 L262 356 Z" /><glyph glyph-name="nine" unicode="9" d="M220 331 L444 331 L383 221 L103 221 L24 290 L24 642 L667 642 L667 -41 L75 -41 L24 68 L444 68 L444 533 L220 533 L220 331 Z" /><glyph glyph-name="colon" unicode=":" d="M218 -47 L32 -47 L32 83 L218 83 L218 -47 ZM218 319 L32 319 L32 448 L218 448 L218 319 Z" /><glyph glyph-name="semicolon" unicode=";" d="M301 122 L221 -119 L33 -119 L114 122 L301 122 ZM293 352 L108 352 L108 490 L293 490 L293 352 Z" /><glyph glyph-name="less" unicode="&lt;" d="M556 400 L231 299 L556 198 L556 55 L35 225 L35 372 L556 542 L556 400 Z" /><glyph glyph-name="equal" unicode="=" d="M610 324 L76 324 L76 438 L610 438 L610 324 ZM610 132 L76 132 L76 246 L610 246 L610 132 Z" /><glyph glyph-name="greater" unicode="&gt;" d="M35 542 L556 372 L556 225 L35 55 L35 198 L360 299 L35 400 L35 542 Z" /><glyph glyph-name="question" unicode="?" d="M455 -53 L241 -53 L241 94 L455 94 L455 -53 ZM660 380 L456 207 L456 135 L241 135 L241 265 L431 425 L431 517 L239 517 L239 410 L36 410 L36 552 L105 633 L587 633 L660 552 L660 380 Z" /><glyph glyph-name="A" unicode="a" d="M65 84 L370 643 L559 643 L839 84 L901 84 L840 -44 L698 -44 L612 121 L302 121 L207 -44 L30 -44 L30 84 L65 84 ZM373 246 L547 246 L465 405 L373 246 Z" /><glyph glyph-name="B" unicode="b" d="M667 -45 L30 -45 L30 634 L562 634 L667 555 L667 347 L582 294 L667 242 L667 -45 ZM318 245 L264 326 L264 80 L435 80 L435 245 L318 245 ZM264 370 L435 370 L435 509 L264 509 L264 370 Z" /><glyph glyph-name="C" unicode="c" d="M683 509 L263 509 L263 80 L688 80 L650 -45 L30 -45 L30 634 L683 634 L683 509 Z" /><glyph glyph-name="D" unicode="d" d="M267 84 L267 -41 L30 -41 L30 651 L656 651 L760 564 L760 -41 L316 -41 L267 84 ZM527 525 L267 525 L267 84 L527 84 L527 525 Z" /><glyph glyph-name="E" unicode="e" d="M692 517 L264 517 L264 354 L686 354 L686 229 L264 229 L264 82 L717 82 L679 -44 L30 -44 L30 643 L692 643 L692 517 Z" /><glyph glyph-name="F" unicode="f" d="M619 517 L264 517 L264 372 L619 372 L583 247 L264 247 L264 -43 L30 -43 L30 642 L619 642 L619 517 Z" /><glyph glyph-name="G" unicode="g" d="M760 517 L266 517 L266 82 L550 82 L511 -44 L30 -44 L30 643 L760 643 L760 517 ZM378 374 L760 374 L760 -44 L552 -44 L552 249 L378 249 L378 374 Z" /><glyph glyph-name="H" unicode="h" d="M265 370 L539 370 L480 244 L265 244 L265 -43 L30 -43 L30 644 L265 644 L265 370 ZM778 -43 L543 -43 L543 644 L778 644 L778 -43 Z" /><glyph glyph-name="I" unicode="i" d="M401 517 L323 517 L323 82 L430 82 L389 -44 L30 -44 L30 82 L109 82 L109 517 L30 517 L30 643 L401 643 L401 517 Z" /><glyph glyph-name="J" unicode="j" d="M385 645 L385 -43 L84 -43 L30 83 L161 83 L161 645 L385 645 Z" /><glyph glyph-name="L" unicode="l" d="M256 644 L256 83 L502 83 L448 -43 L30 -43 L30 644 L256 644 Z" /><glyph glyph-name="M" unicode="m" d="M30 -44 L30 97 L244 638 L498 638 L600 359 L702 638 L956 638 L1170 97 L1170 -44 L957 -44 L957 104 L827 400 L706 2 L494 2 L370 400 L243 104 L243 -44 L30 -44 Z" /><glyph glyph-name="N" unicode="n" d="M255 642 L628 186 L628 642 L822 642 L822 -44 L579 -44 L225 387 L225 -44 L30 -44 L30 642 L255 642 Z" /><glyph glyph-name="O" unicode="o" d="M252 84 L527 84 L527 516 L252 516 L252 84 ZM742 -44 L122 -44 L30 43 L30 643 L742 643 L742 -44 Z" /><glyph glyph-name="P" unicode="p" d="M317 176 L265 232 L265 -43 L30 -43 L30 644 L584 644 L688 566 L688 176 L317 176 ZM265 301 L475 301 L475 518 L265 518 L265 301 Z" /><glyph glyph-name="Q" unicode="q" d="M747 -111 L702 -202 L477 -202 L352 -52 L30 -52 L30 634 L258 634 L258 505 L342 634 L765 634 L765 -52 L614 -52 L663 -111 L747 -111 ZM258 76 L543 76 L543 505 L258 505 L258 76 Z" /><glyph glyph-name="R" unicode="r" d="M479 239 L646 55 L737 55 L701 -43 L465 -43 L267 192 L267 -43 L30 -43 L30 644 L587 644 L691 566 L691 239 L479 239 ZM267 364 L478 364 L478 518 L267 518 L267 364 Z" /><glyph glyph-name="S" unicode="s" d="M261 372 L609 372 L689 301 L689 -43 L85 -43 L30 83 L482 83 L482 247 L52 247 L52 648 L689 648 L689 520 L261 520 L261 372 Z" /><glyph glyph-name="T" unicode="t" d="M30 645 L743 645 L695 519 L510 519 L510 -43 L264 -43 L264 519 L30 519 L30 645 Z" /><glyph glyph-name="U" unicode="u" d="M768 642 L768 -44 L553 -44 L553 642 L768 642 ZM250 642 L250 83 L551 83 L486 -44 L30 -44 L30 642 L250 642 Z" /><glyph glyph-name="W" unicode="w" d="M243 643 L243 501 L370 194 L494 598 L706 598 L827 194 L957 501 L957 643 L1170 643 L1170 508 L956 -44 L702 -44 L600 235 L498 -44 L244 -44 L30 508 L30 643 L243 643 Z" /><glyph glyph-name="X" unicode="x" d="M880 60 L826 -45 L633 -45 Q588 7 544 59 Q500 111 455 165 L276 -45 L84 -45 L30 60 L99 60 Q156 125 211.5 190 Q267 255 323 321 Q278 375 233 427 Q188 479 142 531 L77 531 L77 636 L318 636 L453 476 L591 636 L833 636 L833 531 L768 531 Q722 479 676.5 426.5 Q631 374 586 320 Q642 254 698 189 Q754 124 811 60 L880 60 Z" /><glyph glyph-name="Y" unicode="y" d="M264 647 L264 585 L421 415 L577 585 L577 647 L813 647 L813 549 L548 260 L548 -43 L293 -43 L293 260 L30 549 L30 647 L264 647 Z" /><glyph glyph-name="bracketleft" unicode="[" d="M30 -53 L30 696 L292 696 L292 615 L188 615 L188 28 L292 28 L267 -53 L30 -53 Z" /><glyph glyph-name="backslash" unicode="\" d="M30 675 L191 675 L596 -73 L435 -73 L30 675 Z" /><glyph glyph-name="bracketright" unicode="]" d="M55 -53 L30 28 L134 28 L134 615 L30 615 L30 696 L291 696 L291 -53 L55 -53 Z" /><glyph glyph-name="underscore" unicode="_" d="M633 -141 L30 -141 L30 -46 L633 -46 L633 -141 Z" /><glyph glyph-name="grave" unicode="`" d="M108 489 L30 696 L196 696 L273 489 L108 489 Z" /><glyph glyph-name="a" unicode="a" d="M637 54 L705 54 L667 -42 L392 -42 L392 189 L247 189 L247 54 L392 54 L350 -42 L39 -42 L39 284 L392 284 L392 385 L53 385 L30 480 L637 480 L637 54 Z" /><glyph glyph-name="b" unicode="b" d="M276 475 L716 475 L716 -42 L493 -42 L493 381 L276 381 L276 53 L493 53 L439 -42 L30 -42 L30 741 L276 741 L276 475 Z" /><glyph glyph-name="c" unicode="c" d="M574 385 L237 385 L237 54 L574 54 L545 -42 L30 -42 L30 479 L574 479 L574 385 Z" /><glyph glyph-name="d" unicode="d" d="M276 378 L276 53 L470 53 L414 -42 L30 -42 L30 472 L470 472 L470 741 L716 741 L716 -42 L470 -42 L470 378 L276 378 Z" /><glyph glyph-name="e" unicode="e" d="M30 480 L624 480 L624 179 L321 179 L268 250 L268 52 L636 52 L611 -42 L30 -42 L30 480 ZM419 386 L268 386 L268 274 L419 274 L419 386 Z" /><glyph glyph-name="f" unicode="f" d="M581 387 L428 387 L428 -42 L169 -42 L169 387 L30 387 L30 486 L169 486 L169 741 L561 741 L561 639 L428 639 L428 486 L615 486 L581 387 Z" /><glyph glyph-name="g" unicode="g" d="M719 -348 L71 -348 L30 -244 L452 -244 L452 36 L394 -42 L39 -42 L39 479 L719 479 L719 -348 ZM272 63 L452 63 L452 373 L272 373 L272 63 Z" /><glyph glyph-name="h" unicode="h" d="M277 473 L691 473 L691 -42 L469 -42 L469 379 L277 379 L277 -42 L30 -42 L30 740 L277 740 L277 473 Z" /><glyph glyph-name="i" unicode="i" d="M271 480 L271 -42 L30 -42 L30 480 L271 480 ZM270 544 L31 544 L31 693 L270 693 L270 544 Z" /><glyph glyph-name="j" unicode="j" d="M415 476 L415 -250 L64 -249 L30 -158 L178 -158 L178 476 L415 476 ZM415 540 L178 540 L178 689 L415 689 L415 540 Z" /><glyph glyph-name="k" unicode="k" d="M490 485 L722 485 L463 248 L686 39 L746 39 L707 -42 L530 -42 L268 204 L268 -42 L30 -42 L30 741 L268 741 L268 297 L271 297 L490 485 Z" /><glyph glyph-name="l" unicode="l" d="M272 741 L272 53 L425 53 L387 -42 L30 -42 L30 741 L272 741 Z" /><glyph glyph-name="m" unicode="m" d="M1113 480 L1113 -42 L879 -42 L879 343 L696 343 L696 -42 L447 -42 L447 343 L265 343 L265 -42 L30 -42 L30 480 L265 480 L265 343 L330 480 L696 480 L696 343 L757 480 L1113 480 Z" /><glyph glyph-name="n" unicode="n" d="M693 -42 L454 -42 L454 345 L274 345 L274 -42 L30 -42 L30 482 L274 482 L274 345 L338 482 L693 482 L693 -42 Z" /><glyph glyph-name="o" unicode="o" d="M245 53 L477 53 L426 -42 L30 -42 L30 481 L684 481 L684 -42 L477 -42 L477 387 L245 387 L245 53 Z" /><glyph glyph-name="p" unicode="p" d="M269 -244 L30 -244 L30 481 L670 481 L670 -27 L321 -27 L269 63 L269 -244 ZM456 63 L456 391 L269 391 L269 63 L456 63 Z" /><glyph glyph-name="q" unicode="q" d="M428 391 L244 391 L244 63 L428 63 L375 -27 L30 -27 L30 481 L670 481 L670 -244 L428 -244 L428 391 Z" /><glyph glyph-name="r" unicode="r" d="M30 -42 L30 480 L389 480 L446 385 L274 385 L274 -42 L30 -42 Z" /><glyph glyph-name="s" unicode="s" d="M255 277 L558 277 L558 -42 L84 -42 L30 64 L354 64 L354 165 L54 165 L54 480 L558 480 L558 374 L255 374 L255 277 Z" /><glyph glyph-name="t" unicode="t" d="M550 348 L405 348 L405 54 L533 54 L504 -42 L162 -42 L162 348 L30 348 L30 443 L162 443 L162 591 L405 591 L405 443 L584 443 L550 348 Z" /><glyph glyph-name="u" unicode="u" d="M250 480 L250 53 L422 53 L380 -42 L30 -42 L30 480 L250 480 ZM651 480 L651 52 L719 52 L682 -42 L422 -42 L422 480 L651 480 Z" /><glyph glyph-name="v" unicode="v" d="M255 479 L255 388 L387 174 L518 388 L518 479 L743 479 L743 359 L493 -43 L281 -43 L30 359 L30 479 L255 479 Z" /><glyph glyph-name="w" unicode="w" d="M245 480 L372 197 L480 480 L726 480 L835 197 L962 480 L1177 480 L965 -42 L708 -42 L604 238 L499 -42 L242 -42 L30 480 L245 480 Z" /><glyph glyph-name="x" unicode="x" d="M248 481 L248 422 L356 329 L466 422 L466 481 L681 481 L681 383 L503 222 L681 62 L681 -42 L466 -42 L466 21 L356 114 L248 21 L248 -42 L30 -42 L30 62 L210 222 L30 383 L30 481 L248 481 Z" /><glyph glyph-name="y" unicode="y" d="M245 481 L245 402 L372 189 L498 402 L498 481 L725 481 L725 375 L353 -237 L122 -237 L80 -147 L153 -147 L257 14 L30 375 L30 481 L245 481 Z" /><glyph glyph-name="z" unicode="z" d="M581 312 L261 56 L607 56 L577 -42 L30 -42 L30 127 L350 383 L30 383 L30 481 L581 481 L581 312 Z" /><glyph glyph-name="braceleft" unicode="{" d="M112 -2 L112 234 L30 300 L112 366 L112 602 L158 675 L354 675 L395 596 L286 596 L286 342 L236 300 L286 259 L286 5 L395 5 L354 -74 L158 -74 L112 -2 Z" /><glyph glyph-name="bar" unicode="|" d="M209 705 L209 -69 L30 -69 L30 705 L209 705 Z" /><glyph glyph-name="braceright" unicode="}" d="M267 -74 L71 -74 L30 5 L139 5 L139 259 L189 300 L139 342 L139 596 L30 596 L71 675 L267 675 L313 602 L313 366 L395 300 L313 234 L313 -2 L267 -74 Z" /><glyph glyph-name="asciitilde" unicode="~" d="M398 331 L563 331 L563 210 L379 210 L185 291 L20 291 L20 412 L204 412 L398 331 Z" /><glyph glyph-name="cid97" unicode="&#x3001;" d="M297 121 L388 -119 L181 -119 L91 121 L297 121 Z" /><glyph glyph-name="quotedblleft" unicode="&#x201c;" d="M727 492 L804 699 L970 699 L892 492 L727 492 ZM530 492 L607 699 L773 699 L695 492 L530 492 Z" /><glyph glyph-name="quotedblright" unicode="&#x201d;" d="M227 492 L304 699 L470 699 L392 492 L227 492 ZM30 492 L107 699 L273 699 L195 492 L30 492 Z" /><glyph glyph-name="cid117" unicode="&#x300a;" d="M542 299 L747 -75 L603 -75 L397 299 L603 674 L747 674 L542 299 ZM759 299 L963 -75 L820 -75 L613 299 L820 674 L963 674 L759 299 Z" /><glyph glyph-name="cid118" unicode="&#x300b;" d="M254 674 L397 674 L603 299 L397 -75 L254 -75 L458 299 L254 674 ZM37 674 L181 674 L387 299 L181 -75 L37 -75 L242 299 L37 674 Z" /><glyph glyph-name="cid262" unicode="&#xff01;" d="M259 642 L259 141 L80 141 L80 642 L259 642 ZM259 -45 L80 -45 L80 87 L259 87 L259 -45 Z" /><glyph glyph-name="cid269" unicode="&#xff08;" d="M717 -71 Q666 -2 636.5 92.5 Q607 187 604.5 291.5 Q602 396 630.5 504 Q659 612 725 709 L956 709 Q890 621 856 518 Q822 415 821 311 Q820 207 851.5 108 Q883 9 948 -71 L717 -71 Z" /><glyph glyph-name="cid270" unicode="&#xff09;" d="M52 -71 Q117 9 148.5 108 Q180 207 179 311 Q178 415 144 518 Q110 621 44 709 L275 709 Q341 612 369.5 504 Q398 396 395.5 291.5 Q393 187 363.5 92.5 Q334 -2 283 -71 L52 -71 Z" /><glyph glyph-name="cid273" unicode="&#xff0c;" d="M328 121 L238 -119 L31 -119 L122 121 L328 121 Z" /><glyph glyph-name="cid287" unicode="&#xff1a;" d="M263 -49 L77 -49 L77 81 L263 81 L263 -49 ZM263 317 L77 317 L77 446 L263 446 L263 317 Z" /><glyph glyph-name="cid292" unicode="&#xff1f;" d="M427 -45 L213 -45 L213 102 L427 102 L427 -45 ZM632 388 L428 215 L428 143 L213 143 L213 273 L403 433 L403 525 L211 525 L211 418 L8 418 L8 560 L77 641 L559 641 L632 560 L632 388 Z" /><glyph glyph-name="cid941" unicode="&#x963f;" d="M238 309 L174 309 L174 398 L238 398 L238 620 L154 620 L154 -42 L10 -42 L10 698 L382 698 L382 20 L211 20 L174 101 L238 101 L238 309 ZM420 693 L989 693 L989 611 L965 611 L965 -39 L767 -39 L742 18 L806 18 L806 611 L420 611 L420 693 ZM636 128 L611 63 L438 63 L438 554 L771 554 L771 63 L636 63 L636 488 L576 488 L576 128 L636 128 Z" /><glyph glyph-name="cid951" unicode="&#x827e;" d="M976 -42 Q830 -22 712.5 8.5 Q595 39 498 84 Q401 41 284.5 10 Q168 -21 25 -41 L25 90 Q119 103 197.5 122 Q276 141 346 170 Q260 229 193 301 Q126 373 71 461 L281 461 Q332 395 385.5 343 Q439 291 499 251 Q559 291 613.5 342.5 Q668 394 721 461 L933 461 Q876 373 808 300.5 Q740 228 652 169 Q722 140 802 121 Q882 102 976 90 L976 -42 ZM11 648 L134 648 L134 699 L334 699 L334 648 L664 648 L664 699 L864 699 L864 648 L988 648 L988 558 L864 558 L864 498 L664 498 L664 558 L334 558 L334 498 L134 498 L134 558 L11 558 L11 648 Z" /><glyph glyph-name="cid953" unicode="&#x7231;" d="M107 509 L68 594 L248 594 L287 509 L426 509 L389 594 L569 594 L606 509 L700 509 L740 594 L920 594 L880 509 L994 509 L994 394 L796 394 L796 431 L203 431 L203 405 L341 405 L333 377 L971 377 L971 288 L308 288 L301 265 L966 265 L966 168 Q918 114 847 73 Q879 71 913.5 69.5 Q948 68 988 66 L988 -45 Q772 -40 623 -8 Q474 -40 259 -45 L259 66 Q298 68 332.5 70 Q367 72 398 74 Q364 93 336 115 Q308 137 285 163 L488 163 Q555 128 622 109 Q664 121 703.5 138 Q743 155 788 179 L277 179 L215 -45 L25 -45 L6 40 L54 40 L121 288 L28 288 L28 377 L145 377 L150 394 L6 394 L6 509 L107 509 ZM974 696 L936 611 L25 611 L25 696 L974 696 Z" /><glyph glyph-name="cid957" unicode="&#x5b89;" d="M994 -39 Q851 -37 726.5 -20 Q602 -3 499 26 Q396 -3 273 -20 Q150 -37 7 -39 L7 83 Q82 85 153.5 92 Q225 99 291 111 Q211 157 164 212.5 Q117 268 106 332 L6 332 L6 428 L103 428 L103 482 L284 482 L284 428 L712 428 L712 482 L893 482 L893 428 L994 428 L994 332 L890 332 Q879 268 832 212.5 Q785 157 706 111 Q773 99 845.5 92 Q918 85 994 83 L994 -39 ZM600 704 L600 657 L998 657 L998 496 L799 496 L799 571 L195 571 L195 496 L2 496 L2 657 L400 657 L400 704 L600 704 ZM498 167 Q579 198 633 239.5 Q687 281 704 332 L291 332 Q308 281 362.5 239.5 Q417 198 498 167 Z" /><glyph glyph-name="cid959" unicode="&#x6309;" d="M977 -41 Q896 -35 820 -18.5 Q744 -2 677 25 Q610 -2 534 -18.5 Q458 -35 378 -41 L378 68 Q422 71 463.5 79 Q505 87 543 99 Q486 142 453 197 Q420 252 420 320 L420 340 L361 340 L361 433 L420 433 L420 479 L585 479 L585 433 L770 433 L770 479 L935 479 L935 433 L996 433 L996 340 L935 340 L935 320 Q935 252 902 197.5 Q869 143 812 99 Q850 87 891 79 Q932 71 977 68 L977 -41 ZM317 617 L317 524 L246 524 L246 387 L317 405 L317 301 L246 283 L246 -40 L61 -40 L26 47 L83 47 L83 241 L4 221 L4 326 L83 346 L83 524 L4 524 L4 617 L83 617 L83 701 L246 701 L246 617 L317 617 ZM990 657 L990 515 L813 515 L813 564 L543 564 L543 515 L369 515 L369 657 L591 657 L591 703 L768 703 L768 657 L990 657 ZM770 340 L585 340 L585 318 Q585 273 609.5 234 Q634 195 677 164 Q721 195 745.5 234 Q770 273 770 318 L770 340 Z" /><glyph glyph-name="cid963" unicode="&#x6848;" d="M124 518 L124 549 L4 549 L4 668 L403 668 L403 704 L597 704 L597 668 L996 668 L996 548 L875 548 L875 518 L997 518 L997 437 L863 437 Q849 408 819.5 384 Q790 360 747 340 Q807 335 870 332.5 Q933 330 997 330 L997 228 Q866 226 738.5 235 Q611 244 499 265 Q387 244 260 235 Q133 226 3 228 L3 330 Q131 330 251 339 Q209 360 179.5 384 Q150 408 136 437 L3 437 L3 518 L124 518 ZM402 -42 L402 120 L3 120 L3 209 L402 209 L402 238 L597 238 L597 209 L997 209 L997 120 L597 120 L597 -42 L402 -42 ZM198 551 L291 551 L291 518 L708 518 L708 551 L798 551 L798 591 L198 591 L198 551 ZM775 -37 L700 102 L892 102 L922 45 L970 45 L955 -37 L775 -37 ZM45 -37 L30 45 L78 45 L108 102 L300 102 L224 -37 L45 -37 ZM499 376 Q553 388 594.5 403 Q636 418 664 437 L335 437 Q362 418 403.5 403 Q445 388 499 376 Z" /><glyph glyph-name="cid973" unicode="&#x5965;" d="M948 247 L767 247 L767 564 L234 564 L234 247 L53 247 L53 655 L117 655 L141 703 L324 703 L300 655 L948 655 L948 247 ZM11 64 Q55 63 101.5 65.5 Q148 68 191.5 74 Q235 80 274 90 Q313 100 342 114 L12 114 L12 212 L405 212 L405 256 L581 256 L581 212 L989 212 L989 114 L742 114 L922 48 L989 48 L961 -43 L811 -43 L536 80 Q478 20 346.5 -11.5 Q215 -43 11 -43 L11 64 ZM420 265 L420 382 L253 382 L253 457 L420 457 L420 547 L581 547 L581 457 L748 457 L748 382 L581 382 L581 265 L420 265 ZM714 371 L731 307 L748 307 L725 265 L618 265 L592 371 L714 371 ZM409 371 L383 265 L276 265 L253 307 L270 307 L287 371 L409 371 ZM373 552 L390 508 L409 508 L387 466 L280 466 L251 552 L373 552 ZM750 552 L721 466 L614 466 L592 508 L611 508 L628 552 L750 552 Z" /><glyph glyph-name="cid984" unicode="&#x5df4;" d="M753 354 L685 263 L208 263 L208 85 L986 85 L944 -33 L14 -33 L14 684 L947 684 L947 263 L753 263 L753 593 L577 593 L577 354 L753 354 ZM208 593 L208 354 L388 354 L388 593 L208 593 Z" /><glyph glyph-name="cid991" unicode="&#x9738;" d="M4 700 L998 700 L998 630 L594 630 L594 611 L979 611 L979 414 L794 414 L794 551 L594 551 L594 414 L408 414 L408 551 L208 551 L208 414 L22 414 L22 611 L408 611 L408 630 L4 630 L4 700 ZM528 -42 L528 384 L992 384 L992 -42 L815 -42 L788 3 L830 3 L830 64 L690 64 L690 -42 L528 -42 ZM2 376 L35 376 L35 396 L191 396 L191 376 L315 376 L315 396 L471 396 L471 376 L503 376 L503 323 L471 323 L471 250 L322 250 L322 231 L495 231 L495 72 L322 72 L322 51 L503 51 L503 -2 L322 -2 L322 -42 L183 -42 L183 -2 L2 -2 L2 51 L183 51 L183 72 L11 72 L11 231 L183 231 L183 250 L35 250 L35 323 L2 323 L2 376 ZM690 129 L830 129 L830 192 L690 192 L690 129 ZM690 258 L830 258 L830 318 L690 318 L690 258 ZM779 468 L755 419 L609 419 L609 468 L779 468 ZM779 533 L755 484 L609 484 L609 533 L779 533 ZM392 468 L369 419 L223 419 L223 468 L392 468 ZM392 533 L369 484 L223 484 L223 533 L392 533 ZM315 303 L315 323 L191 323 L191 303 L315 303 ZM149 126 L183 126 L183 178 L149 178 L149 126 ZM322 178 L322 126 L356 126 L356 178 L322 178 Z" /><glyph glyph-name="cid994" unicode="&#x2f69;&#x767d;" d="M746 65 L683 -36 L50 -36 L50 635 L164 635 L205 702 L421 702 L380 635 L949 635 L949 -36 L746 -36 L746 249 L252 249 L252 65 L746 65 ZM252 350 L746 350 L746 538 L252 538 L252 350 Z" /><glyph glyph-name="cid995" unicode="&#x67cf;" d="M823 44 L777 -40 L477 -40 L477 630 L595 630 L627 704 L809 704 L777 630 L993 630 L993 -40 L826 -40 L826 246 L646 246 L646 44 L823 44 ZM150 -42 L150 540 L7 540 L7 632 L150 632 L150 702 L300 702 L300 632 L443 632 L443 540 L300 540 L300 -42 L150 -42 ZM323 -10 L323 506 L436 506 L436 -10 L323 -10 ZM14 -10 L14 506 L126 506 L126 -10 L14 -10 ZM646 340 L826 340 L826 539 L646 539 L646 340 Z" /><glyph glyph-name="cid997" unicode="&#x6446;" d="M975 388 L975 309 L747 309 L747 255 L994 255 L994 175 L662 175 L551 37 L829 37 L804 148 L952 148 L994 -35 L846 -35 L829 36 L803 -35 L376 -35 L376 52 L477 175 L344 175 L344 255 L592 255 L592 309 L364 309 L364 388 L592 388 L592 439 L345 439 L345 685 L994 685 L994 439 L856 439 L856 502 L822 439 L747 439 L747 388 L975 388 ZM335 616 L335 523 L260 523 L260 386 L335 404 L335 299 L260 281 L260 -41 L65 -41 L29 46 L89 46 L89 240 L6 220 L6 325 L89 345 L89 523 L6 523 L6 616 L89 616 L89 700 L260 700 L260 616 L335 616 ZM856 502 L856 618 L823 618 L823 502 L856 502 ZM484 502 L516 502 L516 618 L484 618 L484 502 ZM656 502 L683 502 L683 618 L656 618 L656 502 Z" /><glyph glyph-name="cid999" unicode="&#x8d25;" d="M398 135 L453 24 L489 24 L476 -43 L325 -43 L264 79 Q226 27 162 -4 Q98 -35 5 -43 L5 76 Q52 88 82 101.5 Q112 115 131 135 L15 135 L15 701 L468 701 L468 135 L398 135 ZM497 469 L480 535 L520 535 L584 699 L767 699 L733 615 L994 615 L994 525 L954 525 Q946 425 917.5 347 Q889 269 845 206 Q913 147 994 105 L994 -40 Q929 -13 868 22 Q807 57 752 104 Q698 57 636.5 22.5 Q575 -12 509 -40 L509 103 Q553 128 588 153 Q623 178 651 204 Q609 253 575.5 311 Q542 369 516 438 L671 438 Q685 406 703 375.5 Q721 345 742 316 Q768 363 781.5 414 Q795 465 802 525 L696 525 L674 469 L497 469 ZM319 554 L319 270 Q319 255 318 241.5 Q317 228 315 214 L337 214 L337 625 L152 625 L152 165 Q169 205 169 279 L169 554 L319 554 Z" /><glyph glyph-name="cid1009" unicode="&#x7248;" d="M754 401 Q761 360 773.5 324 Q786 288 803 256 Q840 327 852 422 L613 422 L613 -41 L432 -41 L432 74 L461 74 L461 702 L990 702 L948 608 L613 608 L613 509 L993 509 Q990 403 963.5 313 Q937 223 885 149 Q931 107 990 77 L990 -41 Q882 -4 805 60 Q730 -4 629 -41 L629 77 Q655 94 678.5 111.5 Q702 129 722 149 Q644 256 618 401 L754 401 ZM6 -41 L6 74 L25 74 L25 697 L181 697 L181 507 L238 507 L238 697 L394 697 L394 507 L431 507 L431 431 L181 431 L181 357 L411 357 L411 -41 L255 -41 L255 277 L181 277 L181 -41 L6 -41 Z" /><glyph glyph-name="cid1017" unicode="&#x90a6;" d="M815 305 L753 305 L753 394 L815 394 L815 619 L733 619 L733 -41 L560 -41 L560 696 L988 696 L988 20 L790 20 L760 100 L815 100 L815 305 ZM197 634 L208 702 L382 702 L372 634 L536 634 L536 541 L359 541 L346 448 L529 448 L529 356 L333 356 L318 252 L536 252 L536 159 L305 159 L277 -43 L70 -43 L40 37 L104 37 L123 159 L12 159 L12 252 L137 252 L154 356 L20 356 L20 448 L168 448 L183 541 L12 541 L12 634 L197 634 Z" /><glyph glyph-name="cid1040" unicode="&#x62b1;" d="M632 247 L594 153 L544 153 L544 51 L999 51 L948 -42 L386 -42 L386 469 L782 469 L782 153 L632 153 L632 380 L544 380 L544 247 L632 247 ZM321 615 L321 522 L248 522 L248 384 L321 403 L321 298 L248 280 L248 -42 L58 -42 L22 45 L81 45 L81 239 L0 219 L0 323 L81 343 L81 522 L0 522 L0 615 L81 615 L81 699 L248 699 L248 615 L321 615 ZM991 646 L991 128 L808 128 L785 205 L820 205 L820 553 L536 553 L521 485 L345 485 L327 558 L362 558 L395 701 L571 701 L558 646 L991 646 Z" /><glyph glyph-name="cid1042" unicode="&#x66b4;" d="M179 316 L179 340 L6 340 L6 423 L179 423 L179 447 L370 447 L370 423 L629 423 L629 447 L820 447 L820 423 L993 423 L993 340 L820 340 L820 316 L997 316 L997 234 L903 234 Q923 227 945.5 224 Q968 221 997 219 L997 109 Q932 114 878 127 L839 75 L668 75 L634 137 L687 137 L722 181 L747 181 Q730 192 715.5 205 Q701 218 688 234 L310 234 Q285 203 251 181 L277 181 L312 137 L365 137 L331 75 L160 75 L120 127 Q66 113 2 109 L2 219 Q30 221 53 224 Q76 227 95 234 L2 234 L2 316 L179 316 ZM35 455 L35 701 L960 701 L960 455 L760 455 L760 544 L235 544 L235 525 L760 525 L712 455 L35 455 ZM414 -43 L378 33 L420 33 L420 214 L591 214 L591 -43 L414 -43 ZM80 -43 L46 19 L99 19 L135 64 L332 64 L251 -43 L80 -43 ZM748 -43 L667 64 L864 64 L900 19 L953 19 L919 -43 L748 -43 ZM235 611 L760 611 L760 630 L235 630 L235 611 ZM370 316 L629 316 L629 340 L370 340 L370 316 Z" /><glyph glyph-name="cid1045" unicode="&#x7206;" d="M400 418 L486 418 L486 444 L628 444 L628 418 L764 418 L764 444 L905 444 L905 418 L991 418 L991 347 L905 347 L905 315 L995 315 L995 245 L910 245 Q921 220 941.5 207 Q962 194 995 190 L995 83 Q949 85 915 96 L907 63 L782 63 L774 99 L794 99 L809 159 L818 159 Q788 193 776 245 L616 245 Q602 192 573 159 L582 159 L597 99 L617 99 L609 63 L484 63 L475 96 Q441 85 396 83 L396 190 Q459 197 481 245 L396 245 L396 315 L486 315 L486 347 L400 347 L400 418 ZM269 701 L269 383 Q269 354 266.5 324.5 Q264 295 258 266 L300 266 L371 38 L413 38 L387 -43 L258 -43 L208 124 Q179 70 131 27 Q83 -16 13 -43 L13 89 Q76 143 106 217.5 Q136 292 136 386 L136 701 L269 701 ZM830 453 L830 542 L562 542 L562 519 L830 519 L799 453 L420 453 L420 695 L972 695 L972 453 L830 453 ZM622 -45 L604 5 L632 5 L632 215 L761 215 L761 -45 L622 -45 ZM94 647 L105 368 L125 368 L107 303 L18 303 L4 647 L94 647 ZM399 647 L385 303 L296 303 L278 368 L298 368 L310 647 L399 647 ZM912 54 L961 -4 L989 -4 L977 -43 L847 -43 L771 54 L912 54 ZM620 54 L544 -43 L414 -43 L402 -4 L430 -4 L480 54 L620 54 ZM562 601 L830 601 L830 625 L562 625 L562 601 ZM628 315 L764 315 L764 347 L628 347 L628 315 Z" /><glyph glyph-name="cid1050" unicode="&#x5317;" d="M245 -43 L245 64 L12 34 L12 141 L245 171 L245 438 L12 438 L12 540 L245 540 L245 701 L422 701 L422 -43 L245 -43 ZM973 540 L973 438 L744 438 L744 51 L988 51 L939 -41 L567 -41 L567 701 L744 701 L744 540 L973 540 Z" /><glyph glyph-name="cid1053" unicode="&#x8d1d;" d="M89 683 L910 683 L910 165 L710 165 L710 599 L288 599 L288 165 L89 165 L89 683 ZM985 54 L959 -52 L726 -52 L524 71 L499 50 Q463 22 413.5 3.5 Q364 -15 304.5 -26.5 Q245 -38 177 -42.5 Q109 -47 36 -47 L36 90 Q132 91 200.5 100 Q269 109 313.5 127.5 Q358 146 378.5 173.5 Q399 201 399 239 L399 520 L599 520 L599 239 Q599 234 599 230 Q599 226 598 221 L882 54 L985 54 Z" /><glyph glyph-name="cid1060" unicode="&#x88ab;" d="M725 307 Q740 250 780 199 Q823 254 838 328 L577 328 L577 -42 L399 -42 L399 44 L429 44 L429 651 L643 651 L643 701 L798 701 L798 651 L995 651 L995 469 L853 469 L853 569 L798 569 L798 417 L985 417 Q987 328 958.5 251.5 Q930 175 876 114 Q899 100 924.5 90 Q950 80 977 75 L977 -42 Q867 -18 782 35 Q701 -18 590 -42 L590 75 Q641 93 684 117 Q648 158 623 205.5 Q598 253 587 307 L725 307 ZM107 -43 L107 255 Q59 229 5 210 L5 324 Q84 362 136.5 416.5 Q189 471 220 536 L10 536 L10 621 L123 621 L123 701 L257 701 L257 621 L357 621 Q350 545 322.5 481 Q295 417 249 366 L249 337 L297 421 L425 421 L355 299 L249 299 L249 279 L355 279 L425 76 L297 76 L249 215 L249 -43 L107 -43 ZM577 417 L643 417 L643 569 L577 569 L577 417 Z" /><glyph glyph-name="cid1063" unicode="&#x672c;" d="M20 -19 L8 54 L34 54 L145 527 L6 527 L6 618 L410 618 L410 700 L590 700 L590 618 L993 618 L993 527 L853 527 L965 54 L992 54 L979 -19 L814 -19 L681 527 L590 527 L590 124 L738 124 L738 32 L590 32 L590 -44 L410 -44 L410 32 L261 32 L261 124 L410 124 L410 527 L319 527 L185 -19 L20 -19 Z" /><glyph glyph-name="cid1073" unicode="&#x2f50;&#x6bd4;" d="M226 433 L226 62 L474 62 L432 -36 L38 -36 L38 703 L226 703 L226 531 L463 531 L463 433 L226 433 ZM717 437 L717 57 L960 57 L918 -36 L530 -36 L530 703 L717 703 L717 531 L961 531 L961 437 L717 437 Z" /><glyph glyph-name="cid1096" unicode="&#x8fb9;" d="M316 605 L446 605 L470 699 L651 699 L628 605 L942 605 L942 73 L699 73 L660 158 L763 158 L763 515 L606 515 L500 73 L304 73 L271 158 L332 158 L423 515 L316 515 L316 605 ZM6 -36 L6 57 L59 57 L59 434 L6 434 L6 529 L233 529 L233 -36 L6 -36 ZM296 -36 L236 57 L993 57 L934 -36 L296 -36 ZM49 548 L13 693 L182 693 L205 609 L235 609 L220 548 L49 548 Z" /><glyph glyph-name="cid1110" unicode="&#x8868;" d="M144 -44 L144 120 L29 120 L5 202 L70 202 L174 294 L5 294 L5 384 L400 384 L400 427 L32 427 L32 517 L400 517 L400 564 L19 564 L19 654 L400 654 L400 702 L600 702 L600 654 L981 654 L981 564 L600 564 L600 517 L968 517 L968 427 L600 427 L600 384 L995 384 L995 294 L429 294 L307 182 L365 182 L365 36 L481 36 L442 -44 L144 -44 ZM752 -44 L439 227 L673 227 L749 168 L776 227 L967 227 L889 61 L918 39 L995 39 L971 -44 L752 -44 Z" /><glyph glyph-name="cid1119" unicode="&#x5bbe;" d="M941 366 L941 275 L762 275 L762 196 L994 196 L994 100 L6 100 L6 196 L103 196 L103 479 L2 479 L2 653 L400 653 L400 704 L600 704 L600 653 L998 653 L998 479 L923 479 L895 418 L274 418 L274 366 L941 366 ZM799 561 L195 561 L195 502 L799 502 L799 561 ZM376 86 L249 -43 L73 -43 L42 23 L96 23 L161 86 L376 86 ZM839 86 L904 23 L958 23 L927 -43 L751 -43 L624 86 L839 86 ZM274 196 L590 196 L590 275 L274 275 L274 196 Z" /><glyph glyph-name="cid1122" unicode="&#x51b0;" d="M694 701 L694 -40 L514 -40 L474 37 L529 37 L529 701 L694 701 ZM256 590 L501 590 L501 508 L412 -25 L245 -25 L226 41 L267 41 L343 504 L256 504 L256 590 ZM181 692 L201 592 L229 592 L212 534 L41 534 L10 692 L181 692 ZM12 -40 L41 467 L212 467 L184 -40 L12 -40 ZM943 635 L879 411 L946 112 L989 112 L960 -25 L814 -25 L733 368 L733 464 L780 635 L943 635 Z" /><glyph glyph-name="cid1132" unicode="&#x64ad;" d="M808 35 L772 -41 L380 -41 L380 303 L975 303 L975 -41 L808 -41 L808 35 ZM337 617 L337 524 L261 524 L261 386 L337 404 L337 300 L261 282 L261 -40 L65 -40 L28 47 L89 47 L89 241 L5 221 L5 325 L89 345 L89 524 L5 524 L5 617 L89 617 L89 701 L261 701 L261 617 L337 617 ZM984 527 L984 444 L763 444 L763 317 L593 317 L593 444 L372 444 L372 527 L407 527 L398 586 L562 586 L571 527 L593 527 L593 611 L377 611 L377 702 L979 702 L949 611 L763 611 L763 527 L784 527 L793 586 L958 586 L948 527 L984 527 ZM372 312 L361 375 L389 375 L402 434 L572 434 L548 312 L372 312 ZM808 312 L784 434 L954 434 L967 375 L995 375 L984 312 L808 312 ZM544 35 L601 35 L601 91 L544 91 L544 35 ZM808 35 L808 91 L753 91 L753 35 L808 35 ZM544 170 L601 170 L601 221 L544 221 L544 170 ZM808 221 L753 221 L753 170 L808 170 L808 221 Z" /><glyph glyph-name="cid1135" unicode="&#x6ce2;" d="M648 319 Q679 256 732 210 Q759 235 781 265 Q803 295 820 332 L473 332 L473 -43 L261 -43 L261 54 L288 54 L288 648 L569 648 L569 701 L752 701 L752 648 L996 648 L996 459 L814 459 L814 555 L752 555 L752 425 L993 425 Q988 335 951 262.5 Q914 190 852 133 Q909 106 981 85 L981 -41 Q918 -32 855 -9.5 Q792 13 732 47 Q680 18 621 -3.5 Q562 -25 496 -41 L496 85 Q528 96 557.5 107.5 Q587 119 614 133 Q569 174 536.5 220.5 Q504 267 488 319 L648 319 ZM35 -42 L4 46 L45 46 L82 259 L261 259 L206 -42 L35 -42 ZM73 312 L17 478 L197 478 L231 375 L261 375 L241 312 L73 312 ZM73 530 L17 696 L197 696 L231 593 L261 593 L238 530 L73 530 ZM473 425 L569 425 L569 555 L473 555 L473 425 Z" /><glyph glyph-name="cid1136" unicode="&#x535a;" d="M298 634 L564 634 L564 700 L731 700 L731 634 L996 634 L996 569 L731 569 L731 540 L984 540 L984 215 L816 215 L816 253 L731 253 L731 208 L564 208 L564 253 L478 253 L478 215 L310 215 L310 540 L564 540 L564 569 L298 569 L298 634 ZM62 -41 L62 470 L8 470 L8 559 L62 559 L62 702 L236 702 L236 559 L290 559 L290 470 L236 470 L236 -41 L62 -41 ZM295 178 L763 178 L763 207 L930 207 L930 178 L993 178 L993 96 L930 96 L930 -43 L722 -43 L683 28 L763 28 L763 96 L295 96 L295 178 ZM451 -32 L397 71 L563 71 L595 8 L628 8 L614 -32 L451 -32 ZM790 649 L790 697 L954 697 L930 649 L790 649 ZM478 430 L564 430 L564 465 L478 465 L478 430 ZM478 324 L564 324 L564 359 L478 359 L478 324 ZM816 465 L731 465 L731 430 L816 430 L816 465 ZM731 324 L816 324 L816 359 L731 359 L731 324 Z" /><glyph glyph-name="cid1139" unicode="&#x94c2;" d="M808 45 L761 -34 L444 -34 L444 620 L524 620 L556 701 L746 701 L713 620 L988 620 L988 -34 L808 -34 L808 247 L620 247 L620 45 L808 45 ZM380 199 L271 199 L271 30 L391 30 L347 -40 L105 -40 L105 199 L12 199 L12 289 L105 289 L105 402 L12 402 L12 491 L380 491 L380 402 L271 402 L271 289 L380 289 L380 199 ZM76 695 L260 695 L230 630 L380 630 L380 545 L12 545 L76 695 ZM620 337 L808 337 L808 540 L620 540 L620 337 Z" /><glyph glyph-name="cid1141" unicode="&#x4f2f;" d="M814 45 L760 -38 L357 -38 L357 625 L449 625 L484 702 L644 702 L610 625 L984 625 L984 -38 L818 -38 L818 238 L526 238 L526 45 L814 45 ZM97 -42 L97 383 L46 383 L16 495 L67 495 L193 704 L384 704 L239 455 L265 455 L265 -42 L97 -42 ZM818 535 L526 535 L526 332 L818 332 L818 535 Z" /><glyph glyph-name="cid1154" unicode="&#x4e0d;" d="M992 682 L992 585 L390 585 L215 60 L33 60 L7 138 L65 138 L208 585 L10 585 L10 682 L992 682 ZM405 -48 L405 512 L584 512 L584 -48 L405 -48 ZM808 512 L935 134 L991 134 L960 60 L785 60 L640 512 L808 512 Z" /><glyph glyph-name="cid1155" unicode="&#x5e03;" d="M417 478 L617 478 L617 410 L958 410 L958 3 L703 3 L678 98 L758 98 L758 308 L617 308 L617 -43 L417 -43 L417 308 L277 308 L277 3 L77 3 L77 301 L22 301 L3 398 L49 398 L167 537 L8 537 L8 629 L245 629 L304 698 L525 698 L469 629 L997 629 L997 537 L395 537 L293 410 L417 410 L417 478 Z" /><glyph glyph-name="cid1161" unicode="&#x731c;" d="M136 529 L27 679 L200 679 L224 649 L245 697 L396 697 L383 667 L595 667 L595 700 L759 700 L759 667 L983 667 L983 584 L759 584 L759 560 L979 560 L979 478 L759 478 L759 454 L997 454 L997 371 L358 371 L358 454 L595 454 L595 478 L375 478 L375 560 L595 560 L595 584 L371 584 L371 639 L319 518 L319 -41 L96 -41 L55 55 L164 55 L164 160 L2 108 L2 244 L164 297 L164 403 L2 351 L2 484 L136 529 ZM974 351 L974 -41 L785 -41 L761 17 L811 17 L811 40 L544 40 L544 -41 L380 -41 L380 351 L974 351 ZM544 125 L811 125 L811 155 L544 155 L544 125 ZM811 270 L544 270 L544 241 L811 241 L811 270 Z" /><glyph glyph-name="cid1169" unicode="&#x5f69;" d="M400 -42 L213 -42 L213 254 L1 254 L1 346 L213 346 L213 387 L400 387 L400 346 L611 346 L611 254 L400 254 L400 -42 ZM2 599 L2 688 L610 688 L588 599 L2 599 ZM808 209 L652 209 L628 282 L682 282 L822 451 L998 451 L808 209 ZM808 -42 L652 -42 L628 31 L682 31 L822 200 L998 200 L808 -42 ZM808 460 L652 460 L628 532 L682 532 L822 701 L998 701 L808 460 ZM30 -36 L3 42 L29 42 L49 229 L193 229 L168 -36 L30 -36 ZM445 -36 L420 229 L564 229 L583 42 L610 42 L583 -36 L445 -36 ZM540 397 L429 397 L397 463 L425 463 L461 583 L592 583 L540 397 ZM193 583 L324 583 L360 463 L388 463 L356 397 L245 397 L193 583 ZM10 583 L141 583 L177 463 L205 463 L174 397 L63 397 L10 583 Z" /><glyph glyph-name="cid1170" unicode="&#x83dc;" d="M602 242 L982 242 L982 158 L602 158 L602 -40 L402 -40 L402 158 L21 158 L21 242 L402 242 L402 272 L602 272 L602 242 ZM857 695 L857 660 L990 660 L990 576 L857 576 L857 540 L675 540 L675 576 L325 576 L325 540 L143 540 L143 576 L10 576 L10 660 L143 660 L143 695 L325 695 L325 660 L675 660 L675 695 L857 695 ZM28 442 L28 521 L975 521 L941 442 L28 442 ZM762 -36 L710 137 L896 137 L932 30 L980 30 L964 -36 L762 -36 ZM39 -36 L24 30 L72 30 L108 137 L293 137 L241 -36 L39 -36 ZM47 421 L233 421 L268 345 L314 345 L295 286 L95 286 L47 421 ZM358 421 L544 421 L573 345 L619 345 L603 286 L403 286 L358 421 ZM881 286 L687 286 L668 345 L714 345 L749 421 L932 421 L881 286 Z" /><glyph glyph-name="cid1188" unicode="&#x8349;" d="M397 121 L397 173 L43 173 L43 518 L957 518 L957 173 L757 173 L757 306 L243 306 L243 251 L757 251 L687 173 L603 173 L603 121 L997 121 L997 33 L603 33 L603 -41 L397 -41 L397 33 L3 33 L3 121 L397 121 ZM857 703 L857 666 L990 666 L990 578 L857 578 L857 542 L675 542 L675 578 L325 578 L325 542 L143 542 L143 578 L10 578 L10 666 L143 666 L143 703 L325 703 L325 666 L675 666 L675 703 L857 703 ZM243 385 L757 385 L757 440 L243 440 L243 385 Z" /><glyph glyph-name="cid1190" unicode="&#x7b56;" d="M405 344 L405 376 L4 376 L4 466 L405 466 L405 487 L595 487 L595 466 L996 466 L996 376 L595 376 L595 344 L980 344 L980 168 L789 168 L789 253 L595 253 L595 -42 L405 -42 L405 253 L211 253 L211 168 L20 168 L20 344 L405 344 ZM784 701 L774 682 L996 682 L996 613 L738 613 L677 493 L509 493 L486 561 L522 561 L598 701 L784 701 ZM507 613 L255 613 L194 493 L26 493 L4 561 L40 561 L116 701 L301 701 L291 682 L507 682 L507 613 ZM367 160 L251 -42 L51 -42 L27 41 L94 41 L166 160 L367 160 ZM834 160 L906 41 L973 41 L949 -42 L749 -42 L633 160 L834 160 ZM476 561 L455 493 L303 493 L264 595 L422 595 L435 561 L476 561 ZM965 561 L944 493 L792 493 L753 595 L911 595 L924 561 L965 561 Z" /><glyph glyph-name="cid1222" unicode="&#x573a;" d="M389 95 Q437 106 490 123.5 Q543 141 598 162.5 Q653 184 708.5 208.5 Q764 233 815 259 L815 306 Q634 203 389 155 L389 264 Q457 279 534 307 Q611 335 689 370 L392 370 L392 465 L681 584 L392 584 L392 677 L962 677 L962 589 L643 458 L994 458 L994 -38 L773 -38 L717 44 L815 44 L815 133 Q724 84 617.5 47 Q511 10 389 -14 L389 95 ZM389 61 L351 -34 L8 -34 L8 61 L94 61 L94 486 L5 486 L5 581 L94 581 L94 685 L274 685 L274 581 L363 581 L363 486 L274 486 L274 61 L389 61 Z" /><glyph glyph-name="cid1225" unicode="&#x957f;" d="M721 -43 L566 304 L352 304 L352 49 L554 49 L495 -43 L166 -43 L166 304 L6 304 L6 394 L166 394 L166 697 L352 697 L352 592 L939 654 L939 539 L352 481 L352 394 L994 394 L994 304 L768 304 L880 49 L956 49 L919 -43 L721 -43 Z" /><glyph glyph-name="cid1231" unicode="&#x5531;" d="M213 52 L183 -36 L26 -36 L26 691 L366 691 L366 -36 L222 -36 L222 597 L165 597 L165 52 L213 52 ZM805 54 L769 -36 L402 -36 L402 319 L973 319 L973 -36 L805 -36 L805 54 ZM795 449 L759 359 L413 359 L412 694 L963 694 L963 359 L795 359 L795 449 ZM805 224 L565 224 L565 177 L805 177 L805 224 ZM805 54 L805 95 L565 95 L565 54 L805 54 ZM795 598 L576 598 L576 563 L795 563 L795 598 ZM795 449 L795 480 L576 480 L576 449 L795 449 Z" /><glyph glyph-name="cid1233" unicode="&#x8d85;" d="M146 467 L146 553 L17 553 L17 642 L146 642 L146 692 L317 692 L317 642 L445 642 L445 553 L317 553 L317 467 L455 467 L455 379 L363 379 L363 266 L446 266 L446 177 L363 177 L363 52 L993 52 L955 -37 L207 -37 L171 52 L171 -37 L7 -37 L7 52 L31 52 L31 347 L171 347 L171 52 L212 52 L212 379 L8 379 L8 467 L146 467 ZM799 165 L763 89 L491 89 L491 368 L970 368 L970 89 L799 89 L799 288 L648 288 L648 165 L799 165 ZM512 393 L495 458 L535 458 L574 613 L495 613 L495 692 L970 692 L970 393 L779 393 L753 458 L808 458 L808 613 L733 613 L675 393 L512 393 Z" /><glyph glyph-name="cid1238" unicode="&#x6f6e;" d="M796 -42 L633 -42 L633 17 L659 17 L659 701 L995 701 L995 -42 L836 -42 L817 14 L852 14 L852 181 L796 181 L796 -42 ZM518 166 L518 112 L645 112 L645 45 L518 45 L518 -42 L373 -42 L373 45 L245 45 L245 112 L373 112 L373 166 L265 166 L265 515 L371 515 L371 578 L245 578 L245 644 L371 644 L371 703 L520 703 L520 644 L645 644 L645 578 L520 578 L520 515 L626 515 L626 166 L518 166 ZM29 -36 L4 52 L41 52 L75 266 L236 266 L186 -36 L29 -36 ZM66 311 L17 477 L178 477 L209 374 L236 374 L207 311 L66 311 ZM66 527 L17 693 L178 693 L209 590 L236 590 L207 527 L66 527 ZM796 262 L852 262 L852 411 L796 411 L796 262 ZM852 634 L796 634 L796 491 L852 491 L852 634 ZM484 225 L484 307 L405 307 L405 225 L484 225 ZM405 374 L484 374 L484 455 L405 455 L405 374 Z" /><glyph glyph-name="cid1259" unicode="&#x79f0;" d="M118 -42 L118 448 L3 448 L3 536 L118 536 L118 608 L6 608 L6 690 L385 690 L342 608 L273 608 L273 536 L388 536 L388 448 L273 448 L273 -42 L118 -42 ZM420 450 L391 527 L428 527 L480 699 L651 699 L638 654 L987 654 L987 435 L835 435 L835 561 L610 561 L578 450 L420 450 ZM602 -41 L571 33 L622 33 L622 510 L775 510 L775 -41 L602 -41 ZM830 -27 L798 391 L939 391 L965 35 L996 35 L973 -27 L830 -27 ZM414 -27 L391 35 L422 35 L448 391 L588 391 L557 -27 L414 -27 ZM302 -42 L302 416 L385 416 L385 -42 L302 -42 ZM7 -42 L7 416 L89 416 L89 -42 L7 -42 Z" /><glyph glyph-name="cid1260" unicode="&#x57ce;" d="M316 52 L315 49 L321 49 L321 637 L687 637 L675 703 L831 703 L843 637 L994 637 L994 544 L860 544 L899 329 L993 397 L993 255 L922 204 L950 52 L988 52 L973 -39 L811 -39 L784 105 L694 41 L694 -42 L535 -42 L511 41 L547 41 L547 382 L484 382 L484 -41 L296 -41 L296 -8 L284 -45 L7 -45 L7 52 L77 52 L77 478 L5 478 L5 574 L77 574 L77 679 L222 679 L222 574 L294 574 L294 478 L222 478 L222 52 L316 52 ZM694 466 L694 183 L761 231 L704 544 L484 544 L484 466 L694 466 ZM855 644 L855 704 L994 704 L973 644 L855 644 Z" /><glyph glyph-name="cid1273" unicode="&#x5403;" d="M218 -29 L218 596 L162 596 L162 62 L213 62 L180 -29 L11 -29 L11 689 L369 689 L369 -29 L218 -29 ZM988 621 L988 524 L402 524 L402 621 L441 699 L650 699 L617 621 L988 621 ZM945 -30 L408 -30 L408 84 L760 377 L408 377 L408 472 L960 472 L960 354 L633 72 L987 72 L945 -30 Z" /><glyph glyph-name="cid1275" unicode="&#x6301;" d="M323 616 L323 523 L250 523 L250 386 L323 404 L323 300 L250 281 L250 -41 L61 -41 L26 46 L84 46 L84 240 L3 220 L3 325 L84 345 L84 523 L3 523 L3 616 L84 616 L84 700 L250 700 L250 616 L323 616 ZM997 477 L997 384 L360 384 L360 477 L591 477 L591 550 L383 550 L383 643 L591 643 L591 703 L767 703 L767 643 L974 643 L974 550 L767 550 L767 477 L997 477 ZM690 -44 L654 39 L714 39 L714 228 L360 228 L360 322 L714 322 L714 365 L891 365 L891 322 L997 322 L997 228 L891 228 L891 -44 L690 -44 ZM463 49 L426 193 L580 193 L600 122 L630 122 L615 49 L463 49 Z" /><glyph glyph-name="cid1301" unicode="&#x4ec7;" d="M748 533 L601 533 L504 -44 L329 -44 L300 52 L360 52 L441 533 L347 533 L347 635 L459 635 L469 694 L628 694 L618 635 L908 635 L908 52 L994 52 L961 -44 L748 -44 L748 533 ZM82 -45 L82 380 L34 380 L5 492 L53 492 L174 701 L357 701 L218 452 L243 452 L243 -45 L82 -45 Z" /><glyph glyph-name="cid1306" unicode="&#x521d;" d="M496 -41 L462 52 L512 52 L559 600 L459 600 L459 690 L992 690 L992 -41 L764 -41 L719 52 L814 52 L814 600 L740 600 L688 -41 L496 -41 ZM488 410 L453 324 L302 324 L315 357 L292 335 L292 296 L430 296 L499 88 L348 88 L292 257 L292 -41 L129 -41 L129 230 Q99 216 68 207.5 Q37 199 7 194 L7 332 Q95 364 160.5 414 Q226 464 253 525 L7 526 L7 619 L143 619 L143 701 L310 701 L310 619 L443 619 Q441 563 419.5 510.5 Q398 458 361 410 L488 410 Z" /><glyph glyph-name="cid1307" unicode="&#x51fa;" d="M233 682 L233 446 L399 446 L399 703 L599 703 L599 446 L766 446 L712 357 L599 357 L599 52 L788 52 L735 -38 L11 -38 L11 307 L210 307 L210 52 L399 52 L399 357 L33 357 L33 682 L233 682 ZM988 307 L988 -38 L788 -38 L788 307 L988 307 ZM966 682 L966 357 L766 357 L766 682 L966 682 Z" /><glyph glyph-name="cid1324" unicode="&#x7a7f;" d="M27 379 L958 379 L958 295 L858 295 L858 214 L984 214 L984 133 L858 133 L858 -43 L583 -43 L538 40 L658 40 L658 133 L405 133 L263 -41 L54 -41 L29 40 L96 40 L182 133 L33 133 L33 214 L91 276 L294 276 L239 214 L658 214 L658 295 L27 295 L27 379 ZM474 548 L223 400 L35 400 L10 472 L87 472 L181 522 L5 522 L5 655 L400 655 L400 696 L599 696 L599 655 L994 655 L994 522 L818 522 L912 472 L989 472 L964 400 L776 400 L525 548 L769 548 L794 534 L794 568 L205 568 L205 534 L230 548 L474 548 Z" /><glyph glyph-name="cid1326" unicode="&#x4f20;" d="M335 634 L504 634 L530 697 L710 697 L685 634 L995 634 L995 542 L648 542 L619 469 L995 469 L995 377 L583 377 L549 292 L941 292 L941 209 L731 36 L837 -41 L607 -41 L360 146 L581 146 L622 116 L740 209 L360 209 L360 287 L397 377 L310 377 L310 469 L435 469 L466 542 L335 542 L335 634 ZM84 -45 L84 380 L34 380 L4 492 L54 492 L178 701 L366 701 L223 452 L249 452 L249 -45 L84 -45 Z" /><glyph glyph-name="cid1335" unicode="&#x521b;" d="M71 -45 L71 359 L6 359 L77 701 L255 701 L197 421 L429 421 L392 599 L253 599 L274 701 L549 701 L620 359 L559 359 L559 108 L329 108 L294 197 L396 197 L396 333 L241 333 L241 47 L610 47 L562 -45 L71 -45 ZM791 -45 L749 44 L823 44 L823 702 L994 702 L994 -45 L791 -45 ZM636 80 L636 669 L791 669 L791 80 L636 80 Z" /><glyph glyph-name="cid1339" unicode="&#x9524;" d="M596 534 L596 607 L390 607 L390 691 L966 691 L927 607 L760 607 L760 534 L978 534 L978 450 L944 450 L944 361 L995 361 L995 277 L944 277 L944 187 L991 187 L991 103 L760 103 L760 44 L978 44 L978 -40 L378 -40 L378 44 L596 44 L596 103 L366 103 L366 187 L412 187 L412 277 L361 277 L361 361 L412 361 L412 450 L378 450 L378 534 L596 534 ZM351 501 L351 413 L259 413 L259 297 L353 297 L353 209 L259 209 L259 47 L372 47 L343 -41 L99 -41 L99 209 L7 209 L7 297 L99 297 L99 413 L10 413 L10 501 L351 501 ZM354 624 L354 543 L4 543 L56 700 L231 700 L202 624 L354 624 ZM760 187 L803 187 L803 277 L760 277 L760 187 ZM760 361 L803 361 L803 450 L760 450 L760 361 ZM554 187 L596 187 L596 277 L554 277 L554 187 ZM554 361 L596 361 L596 450 L554 450 L554 361 Z" /><glyph glyph-name="cid1359" unicode="&#x523a;" d="M241 -44 L241 420 L193 420 L193 260 L21 260 L21 506 L241 506 L241 569 L5 569 L5 656 L241 656 L241 703 L417 703 L417 656 L652 656 L652 569 L417 569 L417 506 L636 506 L636 260 L450 260 L429 314 L464 314 L464 420 L417 420 L417 -44 L241 -44 ZM809 -44 L768 52 L827 52 L827 700 L995 700 L995 -44 L809 -44 ZM672 82 L672 658 L796 658 L796 82 L672 82 ZM36 28 L65 224 L230 224 L195 -44 L22 -44 L6 28 L36 28 ZM652 28 L635 -44 L463 -44 L428 224 L592 224 L621 28 L652 28 Z" /><glyph glyph-name="cid1361" unicode="&#x6b21;" d="M955 -41 L779 -41 L626 257 Q578 151 486.5 77 Q395 3 251 -41 L251 106 Q318 142 360.5 179.5 Q403 217 429 261 Q455 305 469.5 359.5 Q484 414 495 485 L682 485 Q675 399 652 325 L789 325 L943 36 L993 36 L955 -41 ZM795 539 L293 539 L352 702 L571 702 L547 636 L993 636 L993 382 L795 382 L795 539 ZM10 -41 L43 468 L242 468 L209 -41 L10 -41 ZM206 695 L230 593 L262 593 L242 536 L43 536 L7 695 L206 695 Z" /><glyph glyph-name="cid1366" unicode="&#x4ece;" d="M399 480 L498 -34 L331 -34 L272 265 L209 -34 L35 -34 L4 63 L66 63 L201 694 L364 694 L318 480 L399 480 ZM859 480 L939 63 L996 63 L964 -34 L794 -34 L736 264 L675 -34 L512 -34 L663 694 L824 694 L780 480 L859 480 Z" /><glyph glyph-name="cid1377" unicode="&#x5d14;" d="M981 430 L981 350 L688 350 L688 302 L981 302 L981 223 L688 223 L688 173 L981 173 L981 94 L688 94 L688 36 L998 36 L974 -43 L75 -43 L75 268 L20 268 L2 353 L31 353 L130 497 L327 497 L285 430 L484 430 L460 494 L668 494 L692 430 L981 430 ZM218 674 L218 593 L428 593 L428 699 L609 699 L609 593 L814 593 L767 518 L41 518 L41 674 L218 674 ZM814 518 L814 674 L995 674 L995 518 L814 518 ZM262 36 L500 36 L500 94 L262 94 L262 36 ZM262 173 L500 173 L500 223 L262 223 L262 173 ZM262 302 L500 302 L500 350 L262 350 L262 302 Z" /><glyph glyph-name="cid1395" unicode="&#x7b54;" d="M931 219 L931 -38 L745 -38 L745 128 L260 128 L260 51 L745 51 L699 -38 L73 -38 L73 219 L931 219 ZM988 240 L799 240 L736 403 L301 403 L328 476 L902 476 L988 240 ZM784 702 L774 683 L996 683 L996 613 L738 613 L677 493 L509 493 L486 561 L522 561 L598 702 L784 702 ZM507 613 L255 613 L194 493 L26 493 L4 561 L40 561 L116 702 L301 702 L291 683 L507 683 L507 613 ZM755 340 L755 249 L249 249 L249 340 L755 340 ZM103 476 L297 476 L205 240 L11 240 L103 476 ZM476 561 L455 493 L303 493 L264 595 L422 595 L435 561 L476 561 ZM965 561 L944 493 L792 493 L753 595 L911 595 L924 561 L965 561 Z" /><glyph glyph-name="cid1397" unicode="&#x6253;" d="M645 32 L645 588 L400 588 L400 678 L998 678 L998 588 L839 588 L839 -43 L565 -43 L534 32 L645 32 ZM359 616 L359 523 L277 523 L277 385 L359 404 L359 300 L277 281 L277 -41 L65 -41 L26 46 L91 46 L91 240 L1 220 L1 324 L91 344 L91 523 L1 523 L1 616 L91 616 L91 700 L277 700 L277 616 L359 616 Z" /><glyph glyph-name="cid1398" unicode="&#x2f24;&#x5927;" d="M7 95 Q65 110 126 145 Q187 180 240.5 227.5 Q294 275 336 329.5 Q378 384 398 438 L1 438 L1 532 L415 532 L415 705 L586 705 L586 532 L999 532 L999 438 L710 438 L935 48 L998 48 L960 -38 L792 -38 L557 382 Q527 308 470.5 239 Q414 170 340.5 113 Q267 56 181 16 Q95 -24 7 -40 L7 95 Z" /><glyph glyph-name="cid1403" unicode="&#x5e26;" d="M406 324 L594 324 L594 272 L954 272 L954 -14 L725 -14 L699 70 L766 70 L766 180 L594 180 L594 -40 L406 -40 L406 180 L234 180 L234 -14 L45 -14 L45 272 L406 272 L406 324 ZM124 701 L312 701 L312 633 L406 633 L406 703 L594 703 L594 633 L687 633 L687 701 L875 701 L875 633 L998 633 L998 541 L875 541 L875 472 L687 472 L687 541 L594 541 L594 472 L406 472 L406 541 L312 541 L312 472 L124 472 L124 541 L1 541 L1 633 L124 633 L124 701 ZM997 447 L997 286 L818 286 L818 358 L176 358 L176 286 L2 286 L2 447 L997 447 Z" /><glyph glyph-name="cid1405" unicode="&#x4ee3;" d="M692 690 L749 512 L991 512 L991 414 L780 414 L899 41 L995 41 L961 -44 L732 -44 L591 414 L309 414 L309 512 L561 512 L506 690 L692 690 ZM87 -44 L87 381 L35 381 L4 492 L56 492 L186 701 L382 701 L233 453 L260 453 L260 -44 L87 -44 ZM774 561 L774 659 L974 659 L917 561 L774 561 Z" /><glyph glyph-name="cid1411" unicode="&#x803d;" d="M279 -42 L279 34 L7 34 L7 116 L42 116 L42 610 L7 610 L7 692 L461 692 L461 610 L425 610 L425 116 L461 116 L461 34 L425 34 L425 -42 L279 -42 ZM489 85 Q537 121 570.5 166.5 Q604 212 625.5 271 Q647 330 657 404.5 Q667 479 667 575 L621 575 L621 421 L486 421 L486 646 L667 646 L667 701 L806 701 L806 646 L988 646 L988 421 L853 421 L853 575 L806 575 Q804 477 794 395 L895 395 L895 19 L992 19 L962 -41 L757 -41 L757 238 Q722 143 657.5 73.5 Q593 4 489 -41 L489 85 ZM188 308 L279 308 L279 418 L188 418 L188 308 ZM188 502 L279 502 L279 610 L188 610 L188 502 ZM188 116 L279 116 L279 223 L188 223 L188 116 Z" /><glyph glyph-name="cid1424" unicode="&#x5f39;" d="M777 68 L777 -44 L618 -44 L618 68 L398 68 L398 160 L618 160 L618 217 L403 217 L403 617 L992 617 L992 217 L828 217 L828 373 L777 373 L777 294 L828 294 L803 217 L777 217 L777 160 L997 160 L997 68 L777 68 ZM364 -45 L67 -45 L46 30 L205 30 L205 181 L6 181 L6 463 L205 463 L190 388 L165 388 L165 256 L364 256 L364 -45 ZM205 388 L205 606 L3 606 L3 681 L364 681 L364 388 L205 388 ZM474 626 L431 698 L617 698 L661 626 L474 626 ZM733 626 L778 698 L963 698 L920 626 L733 626 ZM618 294 L618 373 L562 373 L562 294 L618 294 ZM562 462 L618 462 L618 536 L562 536 L562 462 ZM777 536 L777 462 L828 462 L828 536 L777 536 Z" /><glyph glyph-name="cid1426" unicode="&#x5f53;" d="M34 159 L34 251 L784 251 L784 353 L17 353 L17 445 L400 445 L400 702 L600 702 L600 445 L983 445 L983 -35 L784 -35 L784 159 L34 159 ZM17 -35 L17 56 L784 56 L730 -35 L17 -35 ZM38 679 L232 679 L299 541 L327 541 L295 473 L139 473 L38 679 ZM861 473 L705 473 L673 541 L701 541 L768 679 L962 679 L861 473 Z" /><glyph glyph-name="cid1431" unicode="&#x2f11;&#x5200;" d="M47 661 L985 661 L985 -48 L724 -48 L667 47 L785 47 L785 572 L478 572 L261 -48 L42 -48 L14 45 L81 45 L252 572 L47 572 L47 661 Z" /><glyph glyph-name="cid1438" unicode="&#x5230;" d="M9 58 L217 58 L217 165 L22 165 L22 258 L217 258 L217 326 L398 326 L398 258 L594 258 L594 165 L398 165 L398 58 L607 58 L607 -35 L9 -35 L9 58 ZM20 435 L122 598 L9 598 L9 691 L607 691 L607 598 L327 598 L225 438 L426 438 L393 352 L20 352 L20 435 ZM803 -42 L768 54 L834 54 L834 702 L990 702 L990 -42 L803 -42 ZM643 90 L643 675 L804 675 L804 90 L643 90 ZM551 520 L607 350 L455 350 L400 520 L551 520 Z" /><glyph glyph-name="cid1443" unicode="&#x5fb7;" d="M827 399 L799 322 L289 322 L289 559 L550 559 L550 587 L270 587 L270 671 L550 671 L550 701 L716 701 L716 671 L996 671 L996 587 L716 587 L716 559 L977 559 L977 322 L827 322 L827 472 L785 472 L785 399 L827 399 ZM222 -42 L71 -42 L71 292 L30 292 L3 379 L45 379 L115 493 L30 493 L3 581 L45 581 L119 700 L280 700 L154 499 L280 499 L184 346 L222 346 L222 -42 ZM996 301 L996 217 L270 217 L270 301 L996 301 ZM788 30 L756 -41 L462 -41 L462 203 L614 203 L614 30 L788 30 ZM819 -42 L786 198 L941 198 L966 16 L997 16 L981 -42 L819 -42 ZM286 -42 L273 16 L295 16 L308 191 L450 191 L432 -42 L286 -42 ZM655 62 L643 197 L759 197 L777 62 L655 62 ZM438 399 L480 399 L480 472 L438 472 L438 399 ZM612 399 L653 399 L653 472 L612 472 L612 399 Z" /><glyph glyph-name="cid1444" unicode="&#x5f97;" d="M796 457 L764 379 L342 379 L342 703 L968 703 L968 379 L796 379 L796 457 ZM996 218 L996 124 L900 124 L900 -43 L673 -43 L648 36 L727 36 L727 124 L314 124 L314 218 L727 218 L727 253 L323 253 L323 346 L988 346 L988 253 L900 253 L900 218 L996 218 ZM255 -42 L82 -42 L82 292 L35 292 L4 379 L53 379 L133 493 L35 493 L4 582 L53 582 L138 700 L323 700 L177 499 L323 499 L212 346 L255 346 L255 -42 ZM436 -18 L364 99 L525 99 L554 57 L606 57 L579 -18 L436 -18 ZM796 622 L512 622 L512 582 L796 582 L796 622 ZM796 457 L796 493 L512 493 L512 457 L796 457 Z" /><glyph glyph-name="cid1445" unicode="&#x7684;" d="M323 53 L272 -37 L13 -37 L13 635 L56 635 L83 699 L264 699 L236 635 L497 635 L497 -37 L323 -37 L323 254 L187 254 L187 53 L323 53 ZM515 464 L498 548 L531 548 L608 700 L791 700 L765 649 L987 649 L987 -39 L734 -39 L691 51 L813 51 L813 544 L712 544 L672 464 L515 464 ZM626 110 L535 417 L695 417 L762 192 L797 192 L771 110 L626 110 ZM187 344 L323 344 L323 545 L187 545 L187 344 Z" /><glyph glyph-name="cid1448" unicode="&#x767b;" d="M250 555 Q259 569 267 585.5 Q275 602 281 621 L9 621 L9 693 L479 693 L479 627 Q469 592 450 556.5 Q431 521 402 487 L629 487 Q584 532 553.5 584 Q523 636 503 696 L698 696 Q703 685 707.5 674 Q712 663 717 653 L990 696 L990 609 L774 568 Q780 560 787 553.5 Q794 547 801 540 L990 573 L990 486 L901 467 Q921 456 943 444.5 Q965 433 990 422 L990 300 Q972 305 955.5 309.5 Q939 314 923 319 L923 128 L723 128 L723 276 L281 276 L281 199 L723 199 L654 128 L81 128 L81 313 Q64 310 47 308 Q30 306 12 305 L12 420 Q96 431 159 468 L23 495 L23 593 L250 555 ZM868 114 L780 41 L990 41 L990 -39 L14 -39 L14 41 L224 41 L137 114 L344 114 L427 41 L576 41 L660 114 L868 114 ZM311 405 Q266 372 211 350 L841 350 Q812 362 785 376 Q758 390 734 405 L311 405 Z" /><glyph glyph-name="cid1455" unicode="&#x6ef4;" d="M909 559 L878 488 L991 488 L991 -42 L798 -42 L768 20 L806 20 L806 276 L720 276 L720 242 L790 242 L790 36 L673 36 L673 192 L618 192 L618 81 L673 81 L654 36 L500 36 L500 242 L570 242 L570 276 L485 276 L485 -42 L300 -42 L300 488 L411 488 L382 558 L563 558 L592 488 L697 488 L728 559 L909 559 ZM744 699 L744 665 L996 665 L996 574 L295 574 L295 665 L546 665 L546 699 L744 699 ZM34 -35 L4 53 L49 53 L89 267 L282 267 L223 -35 L34 -35 ZM79 311 L19 477 L212 477 L250 375 L282 375 L248 311 L79 311 ZM79 528 L19 694 L212 694 L250 591 L282 591 L248 528 L79 528 ZM720 388 L720 357 L806 357 L806 405 L485 405 L485 357 L570 357 L570 388 L720 388 Z" /><glyph glyph-name="cid1456" unicode="&#x8fea;" d="M710 700 L710 621 L959 621 L959 98 L787 98 L787 312 L710 312 L710 180 L787 180 L733 98 L288 98 L288 621 L537 621 L537 700 L710 700 ZM6 -33 L6 60 L60 60 L60 438 L6 438 L6 533 L233 533 L233 -33 L6 -33 ZM296 -33 L236 60 L994 60 L934 -33 L296 -33 ZM50 551 L13 697 L183 697 L205 614 L235 614 L221 551 L50 551 ZM710 539 L710 400 L787 400 L787 539 L710 539 ZM460 400 L537 400 L537 539 L460 539 L460 400 ZM537 180 L537 312 L460 312 L460 180 L537 180 Z" /><glyph glyph-name="cid1465" unicode="&#x5730;" d="M602 116 L602 469 L547 456 L547 50 L995 50 L957 -39 L385 -39 L385 418 L318 402 L318 482 L267 482 L267 58 L380 58 L342 -37 L7 -37 L7 58 L91 58 L91 482 L4 482 L4 578 L91 578 L91 682 L267 682 L267 578 L353 578 L353 512 L385 520 L385 656 L547 656 L547 560 L602 574 L602 701 L760 701 L760 612 L986 668 L986 110 L814 110 L795 174 L823 174 L823 521 L760 506 L760 116 L602 116 Z" /><glyph glyph-name="cid1467" unicode="&#x7b2c;" d="M735 248 L605 248 L605 201 L983 201 L983 -36 L755 -36 L719 39 L784 39 L784 110 L605 110 L605 -42 L405 -42 L405 110 L38 110 L38 339 L405 339 L405 384 L26 384 L26 475 L983 475 L983 248 L784 248 L784 384 L605 384 L605 339 L784 339 L735 248 ZM784 700 L774 681 L996 681 L996 612 L738 612 L677 493 L509 493 L486 561 L522 561 L598 700 L784 700 ZM507 612 L255 612 L194 493 L26 493 L4 561 L40 561 L116 700 L301 700 L291 681 L507 681 L507 612 ZM325 98 L279 -42 L66 -42 L42 21 L97 21 L127 98 L325 98 ZM965 561 L944 493 L792 493 L753 594 L911 594 L924 561 L965 561 ZM476 561 L455 493 L303 493 L264 594 L422 594 L435 561 L476 561 ZM238 201 L405 201 L405 248 L238 248 L238 201 Z" /><glyph glyph-name="cid1468" unicode="&#x5e1d;" d="M406 346 L594 346 L594 263 L963 263 L963 -14 L769 -14 L733 70 L775 70 L775 172 L594 172 L594 -40 L406 -40 L406 172 L225 172 L225 -14 L36 -14 L36 263 L406 263 L406 346 ZM997 457 L997 296 L818 296 L818 368 L176 368 L176 296 L2 296 L2 457 L224 457 L178 535 L358 535 L408 457 L591 457 L641 535 L821 535 L775 457 L997 457 ZM406 705 L594 705 L594 645 L998 645 L998 553 L2 553 L2 645 L406 645 L406 705 Z" /><glyph glyph-name="cid1476" unicode="&#x70b9;" d="M442 702 L442 660 L976 660 L976 562 L442 562 L442 518 L956 518 L956 197 L771 197 L771 431 L228 431 L228 284 L771 284 L737 197 L44 197 L43 518 L257 518 L257 702 L442 702 ZM24 -41 L2 18 L31 18 L60 155 L232 155 L191 -41 L24 -41 ZM560 -41 L519 155 L691 155 L720 18 L748 18 L727 -41 L560 -41 ZM313 -41 L272 155 L444 155 L473 18 L501 18 L480 -41 L313 -41 ZM809 -41 L768 155 L940 155 L968 18 L997 18 L976 -41 L809 -41 Z" /><glyph glyph-name="cid1477" unicode="&#x5178;" d="M2 233 L47 233 L47 653 L289 653 L289 700 L472 700 L472 653 L532 653 L532 700 L716 700 L716 653 L953 653 L953 233 L998 233 L998 132 L2 132 L2 233 ZM350 115 L277 -41 L67 -41 L40 38 L95 38 L133 115 L350 115 ZM858 115 L896 38 L951 38 L924 -41 L714 -41 L641 115 L858 115 ZM472 233 L532 233 L532 351 L472 351 L472 233 ZM231 233 L289 233 L289 351 L231 351 L231 233 ZM472 451 L532 451 L532 562 L472 562 L472 451 ZM231 451 L289 451 L289 562 L231 562 L231 451 ZM716 233 L769 233 L769 351 L716 351 L716 233 ZM769 562 L716 562 L716 451 L769 451 L769 562 Z" /><glyph glyph-name="cid1480" unicode="&#x7535;" d="M581 696 L581 619 L949 619 L949 146 L749 146 L749 338 L581 338 L581 236 L749 236 L698 146 L581 146 L581 49 L987 49 L941 -41 L378 -41 L379 146 L13 146 L13 619 L381 619 L381 696 L581 696 ZM581 530 L581 428 L749 428 L749 530 L581 530 ZM213 428 L380 428 L380 530 L213 530 L213 428 ZM379 236 L380 338 L213 338 L213 236 L379 236 Z" /><glyph glyph-name="cid1511" unicode="&#x5b9a;" d="M988 255 L988 160 L599 160 L599 60 L997 60 L952 -40 L262 -40 L225 60 L225 -40 L7 -40 L7 60 L44 60 L44 316 L225 316 L225 60 L401 60 L401 361 L1 361 L1 456 L998 456 L998 361 L599 361 L599 255 L988 255 ZM600 704 L600 654 L998 654 L998 481 L799 481 L799 562 L195 562 L195 481 L2 481 L2 654 L400 654 L400 704 L600 704 Z" /><glyph glyph-name="cid1518" unicode="&#x52a8;" d="M541 -41 L518 36 L555 36 L591 552 L518 552 L518 645 L598 645 L602 698 L769 698 L765 645 L986 645 L986 -41 L802 -41 L765 48 L819 48 L819 552 L758 552 L713 -41 L541 -41 ZM326 36 L304 -44 L20 -44 L18 36 L138 347 L13 347 L13 440 L495 440 L495 347 L317 347 L199 36 L326 36 ZM477 676 L477 583 L31 583 L31 676 L477 676 ZM350 -44 L299 177 L458 177 L512 -44 L350 -44 Z" /><glyph glyph-name="cid1544" unicode="&#x6e21;" d="M261 -44 L261 71 L288 71 L288 661 L610 661 L610 703 L805 703 L805 661 L992 661 L992 567 L475 567 L475 505 L520 505 L520 545 L686 545 L686 505 L795 505 L795 545 L961 545 L961 505 L992 505 L992 418 L961 418 L961 307 L795 307 L795 418 L686 418 L686 377 L795 377 L765 307 L520 307 L520 418 L475 418 L475 -44 L261 -44 ZM673 183 Q685 162 701.5 145 Q718 128 741 114 Q768 130 786.5 151 Q805 172 818 198 L491 198 L491 291 L993 291 Q982 220 957 165 Q932 110 890 70 Q913 67 938.5 65.5 Q964 64 993 63 L993 -44 Q841 -44 741 -13 Q642 -44 491 -44 L491 63 Q520 63 544.5 65 Q569 67 592 69 Q545 115 519 183 L673 183 ZM35 -36 L6 52 L49 52 L87 265 L272 265 L215 -36 L35 -36 ZM77 526 L20 693 L205 693 L241 590 L272 590 L239 526 L77 526 ZM77 310 L20 477 L205 477 L241 373 L272 373 L239 310 L77 310 Z" /><glyph glyph-name="cid1549" unicode="&#x6bb5;" d="M57 137 L57 688 L476 688 L440 603 L224 603 L224 504 L440 504 L440 420 L224 420 L224 321 L440 321 L440 237 L224 237 L224 137 L471 137 L471 53 L224 53 L224 -42 L57 -42 L57 53 L4 53 L4 137 L57 137 ZM662 276 Q696 221 746 180 Q775 204 798 232.5 Q821 261 841 296 L497 296 L497 381 L992 381 L992 296 Q975 246 940.5 199.5 Q906 153 858 112 Q914 87 992 66 L992 -45 Q925 -35 863.5 -14 Q802 7 747 36 Q691 7 628.5 -14 Q566 -35 497 -45 L497 66 Q538 77 572 88.5 Q606 100 635 114 Q548 188 508 276 L662 276 ZM950 690 L950 502 L996 502 L963 414 L797 414 L797 615 L688 615 L688 414 L492 414 L492 502 L534 502 L534 690 L950 690 Z" /><glyph glyph-name="cid1550" unicode="&#x65ad;" d="M807 -42 L807 388 L773 388 L773 -42 L583 -42 L583 65 L610 65 L610 704 L992 704 L963 619 L773 619 L773 481 L996 481 L996 388 L972 388 L972 -42 L807 -42 ZM4 -39 L4 705 L170 705 L170 40 L572 40 L572 -39 L4 -39 ZM310 76 L310 392 L190 392 L190 483 L310 483 L310 548 L298 512 L205 512 L179 675 L277 675 L293 554 L310 554 L310 692 L466 692 L466 483 L587 483 L587 392 L466 392 L466 76 L310 76 ZM196 85 L182 127 L200 127 L215 370 L310 370 L291 85 L196 85 ZM485 85 L467 370 L561 370 L576 127 L594 127 L581 85 L485 85 ZM483 512 L470 554 L488 554 L505 675 L602 675 L576 512 L483 512 Z" /><glyph glyph-name="cid1559" unicode="&#x6566;" d="M530 476 L516 532 L536 532 L588 703 L745 703 L716 618 L997 618 L997 526 L979 526 Q968 414 935 327.5 Q902 241 848 172 Q901 125 972 91 L972 -42 Q845 8 755 80 Q709 43 655 13.5 Q601 -16 538 -42 L538 91 Q607 126 662 173 Q619 228 590.5 295 Q562 362 548 445 L696 445 Q704 398 719.5 357.5 Q735 317 755 282 Q785 332 804.5 392 Q824 452 832 526 L685 526 L668 476 L530 476 ZM196 181 L290 243 L26 243 L26 334 L503 334 L503 253 L388 181 L515 181 L515 90 L349 90 L349 -44 L160 -44 L122 25 L190 25 L190 90 L7 90 L7 181 L196 181 ZM333 429 L297 361 L29 361 L29 561 L501 561 L501 361 L333 361 L333 487 L189 487 L189 429 L333 429 ZM169 663 L169 703 L356 703 L356 663 L522 663 L522 585 L4 585 L4 663 L169 663 Z" /><glyph glyph-name="cid1567" unicode="&#x591a;" d="M990 578 Q907 457 736.5 400 Q566 343 304 331 L289 303 L990 303 L990 211 Q941 141 863 93 Q785 45 676 15.5 Q567 -14 427.5 -27 Q288 -40 116 -40 L9 -40 L9 81 L124 81 Q190 81 249 82.5 Q308 84 364 88 L274 169 L472 169 L541 109 Q622 123 692.5 147 Q763 171 826 207 L240 207 L203 133 L60 133 L28 210 L64 210 L125 327 L9 327 L9 447 L124 447 Q192 447 254.5 448.5 Q317 450 374 455 L274 545 L472 545 L550 477 Q628 492 696.5 516 Q765 540 826 575 L241 575 L203 500 L60 500 L28 577 L64 577 L130 704 L307 704 L289 670 L990 670 L990 578 Z" /><glyph glyph-name="cid1579" unicode="&#x9e45;" d="M3 679 L262 679 L242 597 L199 597 L199 510 L299 510 L279 681 L423 681 L444 510 L548 510 L548 428 L454 428 L470 299 L548 329 L548 210 L485 185 L503 40 L545 40 L524 -44 L365 -44 L344 130 L249 93 L249 213 L330 244 L309 428 L199 428 L199 337 L266 358 L266 243 L199 222 L199 -44 L42 -44 L9 40 L59 40 L59 177 L3 160 L3 276 L59 293 L59 428 L3 428 L3 510 L59 510 L59 597 L3 597 L3 679 ZM709 303 L996 303 L996 -45 L768 -45 L735 19 L851 19 L851 224 L570 224 L570 651 L627 651 L644 702 L788 702 L772 651 L987 651 L987 341 L857 341 L857 572 L709 572 L709 303 ZM814 76 L570 76 L570 156 L814 156 L814 76 ZM443 655 L533 655 L546 540 L457 540 L443 655 ZM814 409 L730 409 L730 489 L841 489 L814 409 Z" /><glyph glyph-name="cid1580" unicode="&#x4fc4;" d="M977 359 L977 220 L904 182 L929 47 L990 47 L953 -40 L764 -40 L739 96 L625 36 L625 176 L716 223 L683 407 L562 407 L562 308 L625 323 L625 210 L562 195 L562 -40 L355 -40 L314 50 L379 50 L379 154 L303 137 L303 250 L379 267 L379 407 L303 407 L303 497 L379 497 L379 575 L318 575 L318 634 L216 452 L241 452 L241 -45 L81 -45 L81 380 L33 380 L4 492 L53 492 L173 701 L355 701 L335 666 L633 666 L600 575 L562 575 L562 497 L667 497 L631 696 L811 696 L847 497 L971 497 L971 407 L863 407 L881 309 L977 359 ZM993 657 L960 566 L854 566 L854 657 L993 657 Z" /><glyph glyph-name="cid1584" unicode="&#x6076;" d="M978 693 L978 600 L731 600 L731 373 L997 373 L997 280 L2 280 L2 373 L268 373 L268 600 L21 600 L21 693 L978 693 ZM752 26 L707 -46 L251 -46 L251 255 L436 255 L436 26 L752 26 ZM801 -44 L705 245 L880 245 L951 28 L987 28 L965 -44 L801 -44 ZM29 -48 L12 24 L44 24 L66 234 L227 234 L198 -48 L29 -48 ZM521 57 L466 250 L632 250 L670 123 L715 123 L692 57 L521 57 ZM774 400 L756 480 L785 480 L815 568 L975 568 L925 400 L774 400 ZM74 400 L24 568 L183 568 L213 480 L243 480 L225 400 L74 400 ZM468 373 L531 373 L531 600 L468 600 L468 373 Z" /><glyph glyph-name="cid1585" unicode="&#x5384;" d="M960 691 L960 597 L265 597 L265 -39 L11 -39 L11 78 L48 78 L48 691 L960 691 ZM943 539 L943 182 L637 182 L587 263 L746 263 L746 445 L521 445 L521 56 L989 56 L965 -36 L324 -36 L324 539 L943 539 Z" /><glyph glyph-name="cid1590" unicode="&#x6069;" d="M777 332 L737 256 L43 256 L43 696 L968 696 L968 256 L777 256 L777 332 ZM777 332 L777 618 L224 618 L224 332 L777 332 ZM589 350 L510 449 Q467 407 404 382.5 Q341 358 252 353 L252 451 Q330 460 375 493 L247 493 L247 575 L438 575 L446 597 L595 597 Q593 591 591.5 585.5 Q590 580 588 575 L748 575 L748 493 L650 493 L709 419 L755 419 L733 350 L589 350 ZM752 22 L707 -46 L251 -46 L251 230 L436 230 L436 22 L752 22 ZM801 -43 L705 221 L880 221 L951 24 L987 24 L965 -43 L801 -43 ZM29 -47 L12 20 L44 20 L66 210 L227 210 L198 -47 L29 -47 ZM521 51 L466 225 L632 225 L670 113 L715 113 L692 51 L521 51 Z" /><glyph glyph-name="cid1593" unicode="&#x2f7f;&#x8033;" d="M96 133 L96 604 L18 604 L18 697 L983 697 L983 604 L905 604 L905 133 L992 133 L992 40 L905 40 L905 -38 L719 -38 L719 40 L8 40 L8 133 L96 133 ZM281 319 L719 319 L719 416 L281 416 L281 319 ZM281 509 L719 509 L719 604 L281 604 L281 509 ZM281 133 L719 133 L719 226 L281 226 L281 133 Z" /><glyph glyph-name="cid1594" unicode="&#x5c14;" d="M41 395 L7 473 L50 473 L139 697 L329 697 L304 636 L954 636 L954 400 L765 400 L765 543 L267 543 L208 395 L41 395 ZM366 -43 L330 44 L405 44 L405 467 L585 467 L585 -43 L366 -43 ZM791 -4 L684 364 L852 364 L949 73 L992 73 L959 -4 L791 -4 ZM44 -4 L10 73 L53 73 L150 364 L318 364 L211 -4 L44 -4 Z" /><glyph glyph-name="cid1597" unicode="&#x2f06;&#x4e8c;" d="M940 646 L940 538 L60 538 L60 646 L940 646 ZM990 91 L990 -17 L10 -17 L10 91 L990 91 Z" /><glyph glyph-name="cid1599" unicode="&#x53d1;" d="M529 289 Q589 229 661 187 Q746 236 816 309 L343 309 L213 -41 L47 -41 L9 71 L62 71 L219 482 L4 482 L85 701 L270 701 L222 580 L256 580 L303 701 L490 701 L444 580 L996 580 L954 482 L408 482 L381 409 L984 409 L984 289 Q943 238 899 197 Q855 156 807 123 Q850 109 896.5 98 Q943 87 995 79 L995 -41 Q900 -29 817 -8.5 Q734 12 659 44 Q579 11 488.5 -9.5 Q398 -30 293 -41 L293 73 Q356 82 411 94 Q466 106 516 123 Q423 187 346 284 L346 289 L529 289 ZM947 693 L893 596 L635 596 L635 693 L947 693 Z" /><glyph glyph-name="cid1605" unicode="&#x6cd5;" d="M324 628 L552 628 L552 703 L741 703 L741 628 L970 628 L970 534 L741 534 L741 401 L997 401 L997 308 L640 308 L514 42 L786 42 L753 -40 L309 -40 L309 42 L437 308 L297 308 L297 401 L552 401 L552 534 L324 534 L324 628 ZM34 -41 L3 47 L44 47 L82 260 L263 260 L207 -41 L34 -41 ZM895 215 L994 -40 L820 -40 L722 215 L895 215 ZM72 312 L17 479 L198 479 L232 376 L263 376 L242 312 L72 312 ZM72 530 L17 697 L198 697 L232 593 L263 593 L239 530 L72 530 Z" /><glyph glyph-name="cid1610" unicode="&#x7ffb;" d="M13 270 L496 270 L496 -39 L356 -39 L356 82 L323 82 L323 19 L356 19 L332 -39 L13 -39 L13 270 ZM25 689 L484 689 L455 606 L330 606 L330 528 L349 528 L371 586 L491 586 L470 528 L503 528 L503 445 L330 445 L330 287 L179 287 L179 445 L6 445 L6 528 L39 528 L18 586 L137 586 L159 528 L179 528 L179 606 L25 606 L25 689 ZM994 678 L994 -41 L836 -41 L812 33 L863 33 L863 595 L763 595 L763 678 L994 678 ZM747 678 L747 -41 L589 -41 L565 33 L616 33 L616 595 L517 595 L517 678 L747 678 ZM18 287 L6 347 L31 347 L44 425 L166 425 L142 287 L18 287 ZM366 287 L343 425 L465 425 L477 347 L503 347 L490 287 L366 287 ZM855 478 L825 387 L763 387 L763 478 L855 478 ZM855 245 L825 154 L763 154 L763 245 L855 245 ZM608 245 L578 154 L517 154 L517 245 L608 245 ZM608 478 L578 387 L517 387 L517 478 L608 478 ZM152 145 L187 145 L187 211 L152 211 L152 145 ZM152 19 L187 19 L187 82 L152 82 L152 19 ZM356 211 L323 211 L323 145 L356 145 L356 211 Z" /><glyph glyph-name="cid1615" unicode="&#x51e1;" d="M503 469 L611 201 L661 201 L627 113 L460 113 L324 469 L503 469 ZM245 -42 L4 -42 L4 66 L66 66 L66 700 L897 700 L897 66 L996 66 L963 -42 L719 -42 L719 600 L245 600 L245 -42 Z" /><glyph glyph-name="cid1626" unicode="&#x2f45;&#x65b9;" d="M44 -42 L21 58 L64 58 L143 547 L3 547 L3 635 L406 635 L381 702 L581 702 L606 635 L997 635 L997 547 L343 547 L327 446 L970 446 L970 -41 L686 -41 L641 49 L770 49 L770 358 L312 358 L247 -42 L44 -42 Z" /><glyph glyph-name="cid1634" unicode="&#x653e;" d="M322 -42 L285 51 L330 51 L330 354 L232 354 L208 -44 L26 -44 L5 39 L36 39 L68 545 L15 545 L15 629 L176 629 L176 701 L351 701 L351 629 L512 629 L512 545 L244 545 L237 438 L501 438 L501 -42 L322 -42 ZM957 -43 Q894 -18 842 10.5 Q790 39 747 74 Q703 39 651 10.5 Q599 -18 536 -43 L536 90 Q570 107 599 126 Q628 145 654 168 Q572 277 543 444 L695 444 Q712 353 747 287 Q797 385 810 525 L706 525 L689 475 L532 475 L518 531 L549 531 L602 701 L768 701 L739 618 L995 618 L995 525 L960 525 Q950 412 920.5 324.5 Q891 237 838 168 Q864 145 893.5 126 Q923 107 957 90 L957 -43 Z" /><glyph glyph-name="cid1638" unicode="&#x98de;" d="M36 679 L674 679 L674 572 L309 70 L950 70 L893 -32 L95 -32 L95 70 L466 572 L36 572 L36 679 ZM963 645 L781 393 L593 393 L775 645 L963 645 ZM725 118 L593 369 L781 369 L882 184 L930 184 L906 118 L725 118 Z" /><glyph glyph-name="cid1646" unicode="&#x8d39;" d="M722 703 L722 669 L988 669 L988 511 L722 511 L722 490 L988 490 L988 292 L777 292 L746 353 L793 353 L793 424 L722 424 L722 292 L533 292 L533 424 L449 424 Q410 352 299 318 Q188 284 17 282 L17 401 Q133 402 198 424 L17 424 L17 577 L281 577 L281 601 L17 601 L17 669 L281 669 L281 703 L470 703 L470 669 L533 669 L533 703 L722 703 ZM5 75 Q210 76 306.5 95 Q403 114 403 164 L403 184 L597 184 L597 164 Q597 139 620.5 122 Q644 105 693 94.5 Q742 84 817 79.5 Q892 75 995 75 L995 -43 Q917 -43 844.5 -41 Q772 -39 708.5 -32.5 Q645 -26 592 -14.5 Q539 -3 500 16 Q461 -3 408 -14.5 Q355 -26 291.5 -32.5 Q228 -39 155.5 -41 Q83 -43 5 -43 L5 75 ZM51 280 L940 280 L940 97 L742 97 L742 199 L249 199 L249 97 L51 97 L51 280 ZM722 601 L722 577 L793 577 L793 601 L722 601 ZM470 577 L533 577 L533 601 L470 601 L470 577 ZM212 511 L212 490 L278 490 Q281 499 281 511 L212 511 ZM470 507 Q470 502 469.5 498 Q469 494 469 490 L533 490 L533 511 L470 511 L470 507 Z" /><glyph glyph-name="cid1647" unicode="&#x82ac;" d="M126 -44 L95 40 L162 40 L215 167 L91 167 L91 248 L885 248 L885 -44 L600 -44 L564 40 L685 40 L685 167 L411 167 L326 -44 L126 -44 ZM12 647 L135 647 L135 698 L335 698 L335 647 L665 647 L665 698 L865 698 L865 647 L988 647 L988 557 L865 557 L865 496 L665 496 L665 557 L335 557 L335 496 L135 496 L135 557 L12 557 L12 647 ZM829 478 L940 337 L995 337 L959 270 L761 270 L659 400 L357 400 L412 478 L829 478 ZM222 268 L35 268 L5 337 L62 337 L175 478 L374 478 L222 268 Z" /><glyph glyph-name="cid1651" unicode="&#x5206;" d="M72 386 L895 386 L895 -42 L634 -42 L577 53 L695 53 L695 291 L412 291 L294 -42 L78 -42 L47 51 L115 51 L206 291 L72 291 L72 386 ZM829 690 L981 411 L752 411 L656 598 L378 598 L424 690 L829 690 ZM19 408 L181 690 L395 690 L244 408 L19 408 Z" /><glyph glyph-name="cid1666" unicode="&#x5cf0;" d="M311 45 L276 -38 L4 -38 L4 653 L120 653 L120 45 L145 45 L145 698 L287 698 L287 45 L311 45 ZM980 202 L980 114 L810 114 L810 91 L996 91 L996 2 L810 2 L810 -43 L638 -43 L638 2 L452 2 L452 91 L638 91 L638 114 L468 114 L468 202 L638 202 L638 223 L466 223 L466 313 L638 313 L638 340 L810 340 L810 313 L982 313 L982 223 L810 223 L810 202 L980 202 ZM628 574 Q666 519 723 487 Q785 523 823 583 L460 583 L531 702 L701 702 L672 662 L991 662 Q988 596 954 539 Q920 482 856 437 Q887 431 920.5 427 Q954 423 991 421 L991 331 Q837 334 723 372 Q607 334 454 331 L454 421 Q491 423 524.5 427 Q558 431 589 438 Q547 467 518 501 Q489 535 473 574 L628 574 ZM312 -38 L312 653 L428 653 L428 -38 L312 -38 Z" /><glyph glyph-name="cid1668" unicode="&#x98ce;" d="M6 -46 L6 55 L48 55 L48 694 L952 694 L952 55 L993 55 L958 -46 L757 -46 L757 48 L588 48 L499 175 L410 48 L242 48 L242 -46 L6 -46 ZM757 72 L757 542 L592 307 L757 72 ZM572 544 L757 544 L757 604 L242 604 L242 544 L426 544 L499 440 L572 544 ZM242 541 L242 73 L406 307 L242 541 Z" /><glyph glyph-name="cid1681" unicode="&#x80a4;" d="M376 694 L376 -43 L221 -43 L201 46 L237 46 L237 170 L155 170 L155 -43 L2 -43 L2 53 L24 53 L24 694 L376 694 ZM968 508 L780 508 L780 403 Q780 393 779.5 383.5 Q779 374 778 365 L990 365 L990 274 L839 274 L950 31 L990 31 L965 -47 L812 -47 L717 154 Q674 84 599 33 Q524 -18 409 -47 L409 90 Q493 127 538 171 Q583 215 601 274 L409 274 L409 365 L616 365 Q616 374 616.5 383.5 Q617 393 617 403 L617 508 L436 508 L436 598 L617 598 L617 682 L780 682 L780 598 L968 598 L968 508 ZM237 601 L155 601 L155 467 L237 467 L237 601 ZM155 259 L237 259 L237 379 L155 379 L155 259 Z" /><glyph glyph-name="cid1688" unicode="&#x7b26;" d="M742 397 L742 462 L941 462 L941 397 L996 397 L996 307 L941 307 L941 -42 L687 -42 L654 41 L742 41 L742 307 L344 307 L344 397 L742 397 ZM348 462 L250 306 L295 306 L295 -38 L98 -38 L98 244 L25 244 L6 317 L51 317 L145 462 L348 462 ZM784 700 L774 680 L996 680 L996 608 L739 608 L677 482 L509 482 L486 553 L522 553 L598 700 L784 700 ZM507 608 L256 608 L194 482 L26 482 L4 553 L40 553 L116 700 L301 700 L291 680 L507 680 L507 608 ZM605 251 L635 165 L685 165 L658 93 L475 93 L422 251 L605 251 ZM476 553 L455 482 L303 482 L264 588 L422 588 L435 553 L476 553 ZM965 553 L944 482 L792 482 L753 588 L911 588 L924 553 L965 553 Z" /><glyph glyph-name="cid1696" unicode="&#x5f17;" d="M783 377 L783 557 L709 557 L709 468 L783 468 L751 377 L709 377 L709 287 L983 287 L983 -24 L748 -24 L727 54 L783 54 L783 195 L709 195 L709 -34 L520 -34 L520 195 L433 195 Q391 98 292 40.5 Q193 -17 32 -42 L32 105 Q100 119 146 141 Q192 163 221 195 L16 195 L16 468 L271 468 L271 557 L16 557 L16 649 L271 649 L271 704 L461 704 L461 649 L520 649 L520 704 L709 704 L709 649 L983 649 L983 377 L783 377 ZM458 287 L520 287 L520 377 L461 377 L461 317 L458 287 ZM461 468 L520 468 L520 557 L461 557 L461 468 ZM216 287 L266 287 Q268 299 269.5 311.5 Q271 324 271 338 L271 377 L216 377 L216 287 Z" /><glyph glyph-name="cid1711" unicode="&#x590d;" d="M996 666 L996 572 L203 572 L189 555 L944 555 L944 261 L757 261 L757 369 L280 369 L281 340 L757 340 L709 261 L93 261 L93 517 L32 517 L3 593 L32 593 L127 704 L313 704 L281 666 L996 666 ZM114 62 Q143 62 170.5 62 Q198 62 224 63 Q170 85 120 113 L38 113 L9 180 L38 180 L103 252 L286 252 L268 234 L986 234 L986 171 Q946 139 899 112.5 Q852 86 797 63 Q821 62 846 62 Q871 62 897 62 L995 62 L995 -40 L904 -40 Q794 -40 696 -33 Q598 -26 510 -12 Q420 -26 319.5 -33 Q219 -40 106 -40 L16 -40 L16 62 L114 62 ZM190 153 L174 136 L305 136 Q393 107 495 90 Q551 101 604 116.5 Q657 132 715 153 L190 153 ZM757 478 L280 478 L280 446 L757 446 L757 478 Z" /><glyph glyph-name="cid1715" unicode="&#x2f57;&#x7236;" d="M995 -40 Q844 -26 722 7 Q600 40 500 91 Q400 40 278 7 Q156 -26 5 -40 L5 92 Q202 121 351 185 Q285 236 234.5 294.5 Q184 353 146 418 L37 418 L5 518 L56 518 L191 702 L404 702 L237 463 L319 463 Q385 348 500 268 Q615 350 682 463 L763 463 L596 702 L809 702 L944 518 L995 518 L963 418 L854 418 Q816 353 765.5 294.5 Q715 236 649 185 Q799 120 995 92 L995 -40 Z" /><glyph glyph-name="cid1726" unicode="&#x8be5;" d="M349 254 Q440 275 504.5 302 Q569 329 616 365 L364 365 L364 451 L490 560 L349 560 L349 653 L576 653 L576 701 L764 701 L764 653 L991 653 L991 560 L708 560 L583 451 L696 451 Q707 468 717.5 486 Q728 504 737 524 L908 524 Q854 350 713.5 249.5 Q573 149 349 128 L349 254 ZM349 81 Q444 96 515.5 117 Q587 138 643 169 Q699 200 742.5 242.5 Q786 285 825 344 L992 344 Q944 223 856 141 L949 27 L994 27 L967 -41 L803 -41 L726 50 Q575 -26 349 -41 L349 81 ZM83 -40 L83 401 L5 401 L5 500 L264 500 L264 55 L327 55 L297 -40 L83 -40 ZM67 527 L24 702 L200 702 L223 610 L272 610 L255 527 L67 527 Z" /><glyph glyph-name="cid1732" unicode="&#x2f32;&#x5e72;" d="M972 684 L972 593 L600 593 L600 363 L998 363 L998 272 L600 272 L600 -46 L400 -46 L400 272 L1 272 L1 363 L400 363 L400 593 L28 593 L28 684 L972 684 Z" /><glyph glyph-name="cid1739" unicode="&#x611f;" d="M998 511 L998 382 L908 336 L945 259 L997 259 L968 179 L819 179 L777 270 L657 209 L657 339 L728 375 L644 555 L177 555 L177 184 L1 184 L1 288 L27 288 L27 635 L607 635 L577 701 L734 701 L765 635 L997 635 L997 555 L803 555 L858 440 L998 511 ZM218 419 L620 419 L620 200 L477 200 L477 354 L357 354 L357 265 L477 265 L448 200 L218 200 L218 419 ZM752 11 L707 -45 L251 -45 L251 183 L436 183 L436 11 L752 11 ZM801 -43 L705 175 L880 175 L951 13 L987 13 L965 -43 L801 -43 ZM29 -46 L12 9 L44 9 L66 166 L227 166 L198 -46 L29 -46 ZM631 529 L631 446 L207 446 L207 529 L631 529 ZM521 35 L466 179 L632 179 L670 86 L715 86 L692 35 L521 35 ZM969 698 L950 648 L821 648 L821 698 L969 698 Z" /><glyph glyph-name="cid1750" unicode="&#x6e2f;" d="M335 -42 L335 251 L304 251 L285 335 L331 335 L383 413 L285 413 L285 503 L397 503 L397 565 L299 565 L299 655 L397 655 L397 702 L590 702 L590 655 L690 655 L690 702 L883 702 L883 655 L981 655 L981 565 L883 565 L883 503 L996 503 L996 413 L897 413 L949 335 L996 335 L977 251 L945 251 L945 107 L750 107 L750 256 L530 256 L530 193 L750 193 L711 107 L530 107 L530 47 L980 47 L945 -42 L335 -42 ZM34 -36 L4 52 L49 52 L89 265 L282 265 L223 -36 L34 -36 ZM79 526 L19 693 L212 693 L250 589 L282 589 L248 526 L79 526 ZM79 310 L19 476 L212 476 L250 373 L282 373 L248 310 L79 310 ZM526 342 L754 342 L705 413 L574 413 L526 342 ZM590 503 L690 503 L690 565 L590 565 L590 503 Z" /><glyph glyph-name="cid1762" unicode="&#x54e5;" d="M700 -46 L675 4 L517 4 L517 155 L223 155 L223 72 L517 72 L471 4 L50 4 L50 223 L690 223 L690 14 L745 14 L745 254 L3 254 L3 345 L996 345 L996 254 L944 254 L944 -46 L700 -46 ZM745 362 L745 600 L3 600 L3 691 L996 691 L996 600 L944 600 L944 362 L745 362 ZM50 573 L690 573 L690 373 L517 373 L517 504 L223 504 L223 441 L517 441 L471 373 L50 373 L50 573 Z" /><glyph glyph-name="cid1763" unicode="&#x6b4c;" d="M348 346 L348 603 L4 603 L4 694 L545 694 L545 603 L502 603 L502 346 L545 346 L545 255 L502 255 L502 -44 L321 -44 L297 9 L348 9 L348 255 L4 255 L4 346 L348 346 ZM963 -43 L826 -43 L757 205 Q726 127 672 64.5 Q618 2 535 -43 L535 116 Q571 158 593 196.5 Q615 235 627 278.5 Q639 322 644 375.5 Q649 429 651 502 L804 502 Q804 460 801 421 Q798 382 793 344 L869 344 L955 35 L995 35 L963 -43 ZM839 539 L544 539 L597 703 L786 703 L762 623 L995 623 L995 382 L839 382 L839 539 ZM196 76 L158 14 L30 14 L30 232 L313 232 L313 14 L196 14 L196 170 L149 170 L149 76 L196 76 ZM196 440 L158 378 L30 378 L30 571 L313 571 L313 378 L196 378 L196 510 L149 510 L149 440 L196 440 Z" /><glyph glyph-name="cid1772" unicode="&#x683c;" d="M630 529 Q647 508 666 491 Q685 474 707 459 Q755 496 798 553 L449 553 L505 699 L681 699 L655 631 L996 631 Q973 559 936 501.5 Q899 444 846 400 Q909 383 994 376 L994 260 Q833 274 714 321 Q603 274 442 260 L442 376 Q517 385 573 400 Q539 427 511 459 Q483 491 462 529 L630 529 ZM807 28 L774 -46 L464 -46 L464 242 L968 242 L968 -46 L807 -46 L807 28 ZM131 -44 L131 538 L1 538 L1 629 L131 629 L131 701 L282 701 L282 629 L420 629 L420 538 L282 538 L282 -44 L131 -44 ZM8 -11 L8 504 L111 504 L111 -11 L8 -11 ZM304 -11 L304 504 L407 504 L407 -11 L304 -11 ZM807 28 L807 167 L625 167 L625 28 L807 28 Z" /><glyph glyph-name="cid1777" unicode="&#x4e2a;" d="M410 -41 L410 453 L589 453 L589 -41 L410 -41 ZM842 694 L953 436 L993 436 L969 348 L805 348 L699 595 L335 595 L372 694 L842 694 ZM24 349 L6 436 L51 436 L159 691 L338 691 L204 349 L24 349 Z" /><glyph glyph-name="cid1779" unicode="&#x7ed9;" d="M783 46 L738 -37 L406 -37 L406 298 L949 298 L949 -37 L783 -37 L783 215 L572 215 L572 46 L783 46 ZM910 687 L994 421 L938 421 L938 353 L417 353 L417 421 L361 421 L454 687 L621 687 L535 443 L822 443 L778 591 L605 591 L634 687 L910 687 ZM201 211 L332 211 L332 121 L5 121 L5 194 L158 404 L18 404 L18 477 L176 692 L356 692 L214 494 L339 494 L339 404 L201 211 ZM344 61 L299 -28 L5 -28 L5 61 L344 61 Z" /><glyph glyph-name="cid1783" unicode="&#x66f4;" d="M997 -43 Q895 -42 807.5 -38.5 Q720 -35 642.5 -27.5 Q565 -20 496 -8 Q427 4 363 22 Q291 -4 202 -20 Q113 -36 10 -43 L10 75 Q47 80 86.5 86 Q126 92 165 102 Q127 122 88.5 145.5 Q50 169 10 197 L278 197 Q291 191 303.5 185 Q316 179 329 174 Q355 194 372 222 L27 222 L27 573 L397 573 L397 610 L7 610 L7 702 L994 702 L994 610 L605 610 L605 573 L973 573 L973 222 L774 222 L774 353 L605 353 L605 313 L774 313 L725 222 L590 222 Q569 160 520 114 Q566 104 616 98 Q666 92 724 88 Q782 84 849 82.5 Q916 81 997 81 L997 -43 ZM227 313 L397 313 L397 353 L227 353 L227 313 ZM227 445 L397 445 L397 479 L227 479 L227 445 ZM774 479 L605 479 L605 445 L774 445 L774 479 Z" /><glyph glyph-name="cid1789" unicode="&#x2f2f;&#x5de5;" d="M954 668 L954 577 L599 577 L599 84 L997 84 L997 -7 L2 -7 L2 84 L399 84 L399 577 L45 577 L45 668 L954 668 Z" /><glyph glyph-name="cid1796" unicode="&#x516c;" d="M220 361 L24 361 L3 442 L42 442 L158 682 L378 682 L220 361 ZM839 682 L950 442 L997 442 L973 361 L780 361 L675 584 L361 584 L407 682 L839 682 ZM859 246 L987 -41 L764 -41 L640 246 L859 246 ZM23 58 L125 58 L309 442 L535 442 L353 58 L709 58 L651 -41 L43 -41 L23 58 Z" /><glyph glyph-name="cid1797" unicode="&#x5bab;" d="M715 349 L668 258 L101 258 L101 489 L2 489 L2 655 L400 655 L400 704 L600 704 L600 655 L998 655 L998 489 L899 489 L899 258 L715 258 L715 399 L281 399 L281 349 L715 349 ZM766 50 L719 -40 L50 -40 L50 232 L950 232 L950 -40 L766 -40 L766 50 ZM766 50 L766 137 L230 137 L230 50 L766 50 ZM799 567 L195 567 L195 495 L799 495 L799 567 Z" /><glyph glyph-name="cid1822" unicode="&#x53e4;" d="M600 702 L600 606 L997 606 L997 504 L600 504 L600 357 L949 357 L949 -32 L747 -32 L747 57 L693 -32 L50 -32 L50 357 L400 357 L400 504 L3 504 L3 606 L400 606 L400 702 L600 702 ZM747 267 L237 267 L237 57 L747 57 L747 267 Z" /><glyph glyph-name="cid1824" unicode="&#x2fbb;&#x9aa8;" d="M72 441 L72 690 L928 690 L928 441 L996 441 L996 296 L928 296 L928 -45 L659 -45 L609 18 L737 18 L737 35 L263 35 L263 -45 L72 -45 L72 296 L3 296 L3 441 L72 441 ZM263 569 L687 569 L687 441 L737 441 L737 612 L263 612 L263 569 ZM194 329 L805 329 L805 362 L194 362 L194 329 ZM263 112 L737 112 L737 146 L263 146 L263 112 ZM263 222 L737 222 L737 252 L263 252 L263 222 ZM263 489 L263 441 L496 441 L496 489 L263 489 Z" /><glyph glyph-name="cid1825" unicode="&#x2f95;&#x8c37;" d="M727 50 L685 -43 L72 -43 L72 270 L927 270 L927 -43 L727 -43 L727 177 L272 177 L272 50 L727 50 ZM366 503 L222 300 L24 300 L3 376 L58 376 L157 503 L366 503 ZM856 503 L940 376 L996 376 L975 300 L776 300 L700 418 L324 418 L385 503 L856 503 ZM436 698 L221 518 L34 518 L7 593 L62 593 L185 698 L436 698 ZM814 698 L937 593 L993 593 L966 518 L779 518 L564 698 L814 698 Z" /><glyph glyph-name="cid1842" unicode="&#x5b98;" d="M957 464 L957 236 L781 236 L781 381 L247 381 L247 319 L781 319 L753 236 L247 236 L247 191 L957 191 L957 -37 L781 -37 L781 108 L247 108 L247 46 L781 46 L753 -37 L59 -37 L59 464 L957 464 ZM600 704 L600 654 L998 654 L998 482 L799 482 L799 563 L195 563 L195 482 L2 482 L2 654 L400 654 L400 704 L600 704 Z" /><glyph glyph-name="cid1843" unicode="&#x51a0;" d="M5 353 L500 353 L500 261 L441 261 L441 50 L996 50 L972 -42 L278 -42 L278 261 L226 261 L196 -42 L23 -42 L2 44 L44 44 L63 261 L5 261 L5 353 ZM804 533 L804 594 L199 594 L199 533 L5 533 L5 685 L998 685 L998 533 L804 533 ZM530 478 L783 478 L783 511 L944 511 L944 478 L997 478 L997 386 L944 386 L944 80 L726 80 L687 154 L783 154 L783 386 L530 386 L530 478 ZM12 495 L494 495 L494 404 L12 404 L12 495 ZM559 336 L693 336 L735 201 L597 201 L559 336 Z" /><glyph glyph-name="cid1844" unicode="&#x89c2;" d="M173 562 Q190 484 218 416 Q235 459 248.5 504 Q262 549 271 597 L5 597 L5 682 L431 682 Q408 439 302 259 Q356 181 431 115 L431 -45 Q368 -5 315.5 40.5 Q263 86 218 140 Q173 86 120 40.5 Q67 -5 5 -45 L5 115 Q81 182 134 260 Q55 392 22 562 L173 562 ZM828 192 L828 602 L611 602 L611 192 L458 192 L458 692 L981 692 L981 192 L828 192 ZM756 -43 L756 129 Q718 63 643.5 18 Q569 -27 449 -43 L449 83 Q498 95 534.5 112 Q571 129 595 154.5 Q619 180 631 215.5 Q643 251 643 301 L643 534 L796 534 L796 296 Q796 228 775 171 L908 171 L908 42 L995 42 L965 -43 L756 -43 Z" /><glyph glyph-name="cid1851" unicode="&#x5149;" d="M2 391 L401 391 L401 704 L599 704 L599 391 L998 391 L998 294 L813 294 L813 64 L974 64 L932 -39 L614 -39 L614 294 L379 294 L272 -39 L43 -39 L10 67 L84 67 L164 294 L2 294 L2 391 ZM213 675 L299 499 L331 499 L308 428 L146 428 L24 675 L213 675 ZM976 675 L854 428 L692 428 L669 499 L701 499 L787 675 L976 675 Z" /><glyph glyph-name="cid1852" unicode="&#x2f34;&#x5e7f;" d="M4 -45 L4 50 L40 50 L40 633 L462 633 L462 700 L662 700 L662 633 L995 633 L995 543 L222 543 L222 -45 L4 -45 Z" /><glyph glyph-name="cid1853" unicode="&#x901b;" d="M332 568 L250 692 L421 692 L446 658 L476 692 L630 692 L621 680 L973 680 L973 590 L869 590 L869 434 L973 434 L973 345 L869 345 L869 186 L992 186 L992 96 L571 96 L571 186 L695 186 L695 345 L590 345 L590 434 L695 434 L695 590 L590 590 L590 635 L528 549 L536 539 L536 86 L320 86 L282 173 L378 173 L378 255 L259 218 L259 339 L378 376 L378 457 L259 415 L259 542 L332 568 ZM6 -34 L6 59 L59 59 L59 436 L6 436 L6 531 L233 531 L233 -34 L6 -34 ZM296 -34 L236 59 L994 59 L934 -34 L296 -34 ZM50 549 L13 695 L182 695 L205 611 L235 611 L220 549 L50 549 Z" /><glyph glyph-name="cid1858" unicode="&#x5f52;" d="M427 -25 L427 66 L781 66 L745 -25 L427 -25 ZM427 287 L427 378 L781 378 L781 598 L427 598 L427 689 L980 689 L980 -25 L781 -25 L781 287 L427 287 ZM21 671 L169 671 L169 156 L21 156 L21 671 ZM20 73 Q119 76 172.5 100.5 Q226 125 226 180 L226 704 L386 704 L386 188 Q386 127 363.5 84 Q341 41 296 13.5 Q251 -14 182 -27.5 Q113 -41 20 -43 L20 73 Z" /><glyph glyph-name="cid1868" unicode="&#x8d35;" d="M749 490 L749 604 L594 604 L594 562 L749 562 L712 490 L594 490 L594 459 L996 459 L996 377 L4 377 L4 459 L400 459 L400 490 L50 490 L50 679 L400 679 L400 706 L594 706 L594 679 L949 679 L949 490 L749 490 ZM3 81 Q209 82 305.5 108 Q402 134 402 190 L402 241 L597 241 L597 190 Q597 134 693.5 108 Q790 82 996 81 L996 -35 Q918 -35 845 -31.5 Q772 -28 708.5 -19.5 Q645 -11 592 2.5 Q539 16 500 37 Q461 16 407.5 2.5 Q354 -11 290.5 -19.5 Q227 -28 154 -31.5 Q81 -35 3 -35 L3 81 ZM51 348 L949 348 L949 113 L748 113 L748 271 L252 271 L252 113 L51 113 L51 348 ZM250 562 L400 562 L400 604 L250 604 L250 562 Z" /><glyph glyph-name="cid1871" unicode="&#x6eda;" d="M389 100 L305 100 L283 179 L329 179 L401 275 L346 275 L346 350 L515 483 L705 483 L557 354 L779 354 L747 275 L590 275 L531 192 L563 192 L563 41 L652 41 L610 -39 L389 -39 L389 100 ZM556 666 L556 702 L744 702 L744 666 L992 666 L992 566 L897 566 Q912 550 935 539 Q958 528 992 522 L992 411 Q896 423 831 464.5 Q766 506 739 566 L572 566 Q545 506 480.5 464.5 Q416 423 320 411 L320 522 Q385 534 414 566 L308 566 L308 666 L556 666 ZM991 230 L897 61 L914 38 L970 38 L944 -39 L780 -39 L598 230 L772 230 L815 172 L848 230 L991 230 ZM37 -34 L7 54 L52 54 L92 267 L285 267 L226 -34 L37 -34 ZM82 528 L22 695 L215 695 L253 592 L285 592 L251 528 L82 528 ZM82 312 L22 479 L215 479 L253 375 L285 375 L251 312 L82 312 ZM866 434 L983 275 L837 275 L723 434 L866 434 Z" /><glyph glyph-name="cid1878" unicode="&#x8fc7;" d="M877 696 L877 625 L968 625 L968 530 L877 530 L877 84 L628 84 L564 177 L695 177 L695 530 L299 530 L299 625 L695 625 L695 696 L877 696 ZM6 -33 L6 60 L60 60 L60 437 L6 437 L6 532 L234 532 L234 -33 L6 -33 ZM296 -33 L237 60 L994 60 L934 -33 L296 -33 ZM522 450 L573 314 L625 314 L597 235 L436 235 L351 450 L522 450 ZM50 550 L13 696 L183 696 L205 612 L236 612 L221 550 L50 550 Z" /><glyph glyph-name="cid1879" unicode="&#x54c8;" d="M169 46 L214 46 L181 -39 L5 -39 L5 673 L378 673 L378 -39 L214 -39 L214 589 L169 589 L169 46 ZM798 42 L754 -43 L427 -43 L427 299 L961 299 L961 -43 L798 -43 L798 42 ZM392 323 L483 697 L645 697 L577 428 L808 428 L761 611 L649 611 L670 697 L904 697 L994 323 L835 323 L815 401 L815 336 L567 336 L567 386 L551 323 L392 323 ZM798 42 L798 215 L590 215 L590 42 L798 42 Z" /><glyph glyph-name="cid1882" unicode="&#x6d77;" d="M956 234 L956 130 L994 130 L994 48 L956 48 L956 -38 L671 -38 L644 28 L787 28 L787 48 L313 48 L313 234 L275 234 L275 328 L313 328 L313 526 L956 526 L956 328 L994 328 L994 234 L956 234 ZM986 643 L986 557 L283 557 L365 699 L553 699 L522 643 L986 643 ZM35 -39 L5 49 L50 49 L90 262 L263 262 L204 -39 L35 -39 ZM493 328 L777 328 L777 441 L493 441 L493 328 ZM777 234 L493 234 L493 130 L777 130 L777 234 ZM80 532 L20 699 L193 699 L231 596 L263 596 L229 532 L80 532 ZM80 315 L20 481 L193 481 L231 378 L263 378 L229 315 L80 315 ZM556 345 L521 426 L701 426 L736 345 L556 345 ZM575 143 L541 224 L720 224 L755 143 L575 143 Z" /><glyph glyph-name="cid1914" unicode="&#x597d;" d="M452 -41 Q393 -30 340 -13.5 Q287 3 240 26 Q193 3 139.5 -13.5 Q86 -30 27 -41 L27 68 Q48 74 73.5 83.5 Q99 93 125 106 Q88 144 67.5 191 Q47 238 47 297 L47 505 L2 505 L2 598 L47 598 L47 701 L208 701 L208 598 L271 598 L271 701 L432 701 L432 598 L478 598 L478 505 L432 505 L432 297 Q432 238 411 191 Q390 144 353 106 Q379 93 404.5 83.5 Q430 74 452 68 L452 -41 ZM476 282 L476 376 L664 376 L664 478 L762 602 L487 602 L487 697 L978 697 L978 616 L848 439 L848 376 L998 376 L998 282 L848 282 L848 -41 L590 -41 L537 46 L664 46 L664 282 L476 282 ZM271 505 L208 505 L208 270 Q208 247 216.5 227 Q225 207 239 189 Q271 227 271 270 L271 505 Z" /><glyph glyph-name="cid1916" unicode="&#x53f7;" d="M148 47 L723 47 L723 111 L75 111 L75 204 L131 289 L1 289 L1 382 L998 382 L998 289 L349 289 L298 204 L943 204 L943 -46 L181 -46 L148 47 ZM965 416 L765 416 L765 586 L233 586 L233 513 L757 513 L706 416 L33 416 L33 683 L965 683 L965 416 Z" /><glyph glyph-name="cid1924" unicode="&#x548c;" d="M708 44 L816 44 L793 -40 L539 -40 L539 669 L986 669 L986 -40 L816 -40 L816 585 L708 585 L708 44 ZM499 453 L351 453 L351 -46 L161 -46 L161 453 L13 453 L13 542 L161 542 L161 613 L16 613 L16 695 L495 695 L441 613 L351 613 L351 542 L499 542 L499 453 ZM391 -46 L391 410 L495 410 L495 -46 L391 -46 ZM17 -46 L17 410 L121 410 L121 -46 L17 -46 Z" /><glyph glyph-name="cid1926" unicode="&#x5408;" d="M941 -42 L742 -42 L742 209 L261 209 L261 56 L742 56 L697 -42 L61 -42 L61 306 L941 306 L941 -42 ZM837 699 L948 419 L995 419 L971 337 L782 337 L752 412 L752 357 L255 357 L255 415 L221 337 L25 337 L4 419 L43 419 L168 699 L379 699 L270 450 L737 450 L677 601 L359 601 L402 699 L837 699 Z" /><glyph glyph-name="cid1930" unicode="&#x6cb3;" d="M277 691 L997 691 L997 595 L954 595 L954 -39 L706 -39 L668 56 L762 56 L762 595 L277 595 L277 691 ZM563 184 L518 99 L312 99 L312 539 L729 539 L729 99 L563 99 L563 460 L478 460 L478 184 L563 184 ZM33 -39 L2 49 L42 49 L79 262 L256 262 L201 -39 L33 -39 ZM70 532 L15 699 L192 699 L226 596 L256 596 L233 532 L70 532 ZM70 315 L15 481 L192 481 L226 378 L256 378 L236 315 L70 315 Z" /><glyph glyph-name="cid1932" unicode="&#x8d6b;" d="M174 525 L174 573 L22 573 L22 657 L174 657 L174 703 L325 703 L325 657 L477 657 L477 573 L325 573 L325 525 L487 525 L487 441 L388 441 L388 -39 L262 -39 L262 441 L237 441 L237 -39 L111 -39 L111 441 L11 441 L11 525 L174 525 ZM675 525 L675 573 L523 573 L523 657 L675 657 L675 703 L826 703 L826 657 L978 657 L978 573 L826 573 L826 525 L989 525 L989 441 L889 441 L889 -39 L763 -39 L763 441 L738 441 L738 -39 L612 -39 L612 441 L513 441 L513 525 L675 525 ZM14 -30 L14 420 L95 420 L95 -30 L14 -30 ZM905 -30 L905 420 L986 420 L986 -30 L905 -30 ZM516 -30 L516 420 L596 420 L596 -30 L516 -30 ZM404 -30 L404 420 L484 420 L484 -30 L404 -30 Z" /><glyph glyph-name="cid1935" unicode="&#x8d3a;" d="M3 82 Q209 83 306 110.5 Q403 138 403 200 L403 245 L598 245 L598 200 Q598 138 694.5 110.5 Q791 83 997 82 L997 -43 Q919 -43 846 -39.5 Q773 -36 709.5 -26.5 Q646 -17 592.5 -1.5 Q539 14 500 37 Q461 14 408 -1.5 Q355 -17 291 -26.5 Q227 -36 154.5 -39.5 Q82 -43 3 -43 L3 82 ZM45 352 L955 352 L955 118 L760 118 L760 280 L240 280 L240 118 L45 118 L45 352 ZM65 468 L114 582 L14 582 L14 655 L146 655 L167 703 L335 703 L316 655 L517 655 L516 390 L311 390 L282 452 L346 452 L346 582 L287 582 L211 390 L37 390 L14 468 L65 468 ZM828 466 L794 390 L562 390 L562 676 L983 676 L983 390 L828 390 L828 603 L716 603 L716 466 L828 466 Z" /><glyph glyph-name="cid1950" unicode="&#x8679;" d="M321 701 L321 615 L477 615 L477 163 L321 163 L321 36 L358 36 L334 -43 L4 -43 L4 36 L169 36 L169 163 L14 163 L14 615 L169 615 L169 701 L321 701 ZM995 53 L995 -41 L509 -41 L509 53 L657 53 L657 600 L532 600 L532 693 L972 693 L972 600 L847 600 L847 53 L995 53 ZM372 -43 L348 115 L469 115 L492 -43 L372 -43 ZM350 240 L350 536 L321 536 L321 240 L350 240 ZM141 536 L141 240 L169 240 L169 536 L141 536 Z" /><glyph glyph-name="cid1953" unicode="&#x5b8f;" d="M192 -39 L30 -39 L1 52 L41 52 L245 334 L6 334 L6 430 L315 430 L376 514 L579 514 L520 430 L994 430 L994 334 L453 334 L192 -39 ZM600 704 L600 654 L998 654 L998 481 L799 481 L799 562 L195 562 L195 481 L2 481 L2 654 L400 654 L400 704 L600 704 ZM789 62 L768 -39 L323 -39 L323 40 L503 304 L698 304 L540 63 L788 63 L755 158 L912 158 L984 -39 L824 -39 L789 62 Z" /><glyph glyph-name="cid1955" unicode="&#x7ea2;" d="M963 592 L795 592 L795 62 L978 62 L978 -28 L423 -28 L423 62 L606 62 L606 592 L437 592 L437 682 L963 682 L963 592 ZM243 211 L391 211 L391 121 L22 122 L22 194 L195 406 L22 406 L22 478 L198 693 L405 693 L244 496 L399 496 L399 406 L243 211 ZM405 62 L354 -28 L22 -28 L22 62 L405 62 Z" /><glyph glyph-name="cid1958" unicode="&#x7334;" d="M120 531 L24 680 L176 680 L197 650 L216 697 L349 697 L282 521 L307 521 L374 698 L538 698 L480 542 L480 -43 L329 -43 L329 449 L290 449 L281 487 L281 -40 L85 -40 L49 55 L145 55 L145 161 L2 108 L2 245 L145 297 L145 403 L2 351 L2 485 L120 531 ZM505 275 L487 347 L518 347 L557 446 L707 446 L691 407 L976 407 L976 323 L830 323 L830 244 L990 244 L990 160 L851 160 L962 31 L997 31 L979 -42 L856 -42 L766 63 Q721 18 653.5 -8 Q586 -34 507 -42 L507 65 Q561 72 606.5 95 Q652 118 672 160 L509 160 L509 244 L683 244 L683 323 L656 323 L636 275 L505 275 ZM963 692 L963 549 L995 549 L995 464 L505 464 L505 549 L801 549 L801 611 L549 611 L549 692 L963 692 Z" /><glyph glyph-name="cid1959" unicode="&#x543c;" d="M199 -23 L199 595 L152 595 L152 68 L197 68 L169 -23 L8 -23 L8 688 L343 688 L343 -23 L199 -23 ZM369 416 L482 416 L588 620 L369 620 L369 702 L734 702 L734 605 L639 416 L734 416 L734 327 L634 327 L634 -40 L434 -40 L403 44 L482 44 L482 327 L369 327 L369 416 ZM913 702 L913 55 L992 55 L959 -40 L764 -40 L764 702 L913 702 Z" /><glyph glyph-name="cid1962" unicode="&#x540e;" d="M3 -43 L3 72 L41 72 L41 695 L996 695 L945 590 L241 590 L241 505 L978 505 L978 405 L241 405 L241 -43 L3 -43 ZM964 -40 L769 -40 L769 250 L506 250 L506 53 L769 53 L720 -40 L311 -40 L311 343 L964 343 L964 -40 Z" /><glyph glyph-name="cid1969" unicode="&#x80e1;" d="M990 703 L990 -44 L791 -44 L759 44 L814 44 L814 176 L710 176 L710 -44 L516 -44 L516 51 L544 51 L544 703 L990 703 ZM311 42 L274 -42 L29 -42 L29 367 L158 367 L158 520 L10 520 L10 614 L158 614 L158 700 L352 700 L352 614 L499 614 L499 520 L352 520 L352 367 L485 367 L485 -42 L311 -42 L311 278 L196 278 L196 42 L311 42 ZM814 619 L710 619 L710 477 L814 477 L814 619 ZM710 262 L814 262 L814 391 L710 391 L710 262 Z" /><glyph glyph-name="cid1971" unicode="&#x72d0;" d="M130 528 L27 677 L189 677 L212 647 L231 694 L372 694 L371 693 L996 693 L949 602 L520 602 L520 -42 L337 -42 L337 49 L366 49 L366 679 L300 515 L300 -42 L92 -42 L53 52 L156 52 L156 158 L4 105 L4 242 L156 294 L156 401 L4 348 L4 482 L130 528 ZM794 -42 L531 -42 L568 570 L683 570 L653 18 L681 18 L673 233 L778 233 L794 -42 ZM820 -42 L761 591 L902 591 L958 27 L996 27 L975 -42 L820 -42 Z" /><glyph glyph-name="cid1977" unicode="&#x62a4;" d="M822 355 L789 262 L575 262 L575 -41 L345 -41 L345 57 L399 57 L399 617 L606 617 L606 701 L786 701 L786 617 L995 617 L995 260 L823 260 L823 521 L575 521 L575 355 L822 355 ZM344 618 L344 524 L266 524 L266 387 L344 405 L344 301 L266 282 L266 -40 L65 -40 L28 47 L90 47 L90 241 L4 221 L4 326 L90 346 L90 524 L4 524 L4 618 L90 618 L90 702 L266 702 L266 618 L344 618 Z" /><glyph glyph-name="cid1980" unicode="&#x6237;" d="M793 354 L793 540 L244 540 L244 444 L793 444 L753 354 L244 354 L244 -41 L7 -41 L7 74 L44 74 L44 633 L420 633 L420 704 L625 704 L625 633 L993 633 L993 354 L793 354 Z" /><glyph glyph-name="cid1983" unicode="&#x534e;" d="M947 653 L947 554 L689 498 L689 389 L974 389 L938 300 L517 300 L517 461 L354 426 L354 526 L517 561 L517 701 L689 701 L689 598 L947 653 ZM407 -42 L407 123 L4 123 L4 212 L407 212 L407 290 L595 290 L595 212 L998 212 L998 123 L595 123 L595 -42 L407 -42 ZM105 286 L105 468 L17 468 L2 531 L38 531 L155 704 L332 704 L238 558 L280 558 L280 286 L105 286 Z" /><glyph glyph-name="cid1987" unicode="&#x5212;" d="M385 -41 L302 146 L5 25 L5 168 L249 266 L160 469 L5 469 L5 559 L120 559 L56 706 L251 706 L316 559 L600 559 L600 469 L356 469 L416 333 L600 407 L600 267 L469 213 L543 46 L620 46 L583 -41 L385 -41 ZM995 704 L995 -41 L808 -41 L767 53 L828 53 L828 704 L995 704 ZM623 680 L790 680 L790 73 L623 73 L623 680 ZM347 588 L347 678 L590 678 L546 588 L347 588 Z" /><glyph glyph-name="cid1989" unicode="&#x8bdd;" d="M965 681 L917 593 L752 593 L752 481 L995 481 L995 393 L752 393 L752 307 L957 307 L957 -35 L783 -35 L783 50 L732 -35 L362 -35 L362 307 L566 307 L566 393 L323 393 L323 481 L566 481 L566 592 L354 592 L354 681 L965 681 ZM83 -41 L83 400 L5 400 L5 499 L264 499 L264 53 L327 53 L297 -41 L83 -41 ZM783 50 L783 219 L536 219 L536 50 L783 50 ZM67 525 L24 700 L200 700 L223 608 L272 608 L255 525 L67 525 Z" /><glyph glyph-name="cid1995" unicode="&#x6b22;" d="M175 500 Q186 462 199 427.5 Q212 393 228 361 Q272 447 289 553 L4 554 L4 653 L451 654 L451 554 Q438 457 407.5 372.5 Q377 288 329 216 Q352 190 379.5 166 Q407 142 439 119 L439 -41 Q322 16 233 102 Q137 11 2 -41 L2 119 Q74 165 131 223 Q89 285 58 354 Q27 423 9 500 L175 500 ZM960 -41 L805 -41 L723 222 Q692 138 634.5 72.5 Q577 7 476 -41 L476 119 Q515 165 538.5 205 Q562 245 575 287 Q588 329 593.5 378 Q599 427 603 492 L772 492 Q768 447 763.5 405 Q759 363 751 325 L864 325 L952 36 L995 36 L960 -41 ZM822 539 L468 539 L527 702 L719 702 L698 636 L997 636 L997 382 L822 382 L822 539 Z" /><glyph glyph-name="cid1998" unicode="&#x8fd8;" d="M297 169 L274 265 L319 265 L407 601 L271 601 L271 694 L967 694 L967 601 L585 601 L566 524 L709 524 L709 82 L541 82 L541 422 L478 169 L297 169 ZM6 -34 L6 59 L59 59 L59 436 L6 436 L6 531 L233 531 L233 -34 L6 -34 ZM296 -34 L236 59 L994 59 L934 -34 L296 -34 ZM794 169 L715 532 L877 532 L940 258 L981 258 L960 169 L794 169 ZM50 550 L13 695 L182 695 L205 612 L235 612 L220 550 L50 550 Z" /><glyph glyph-name="cid2002" unicode="&#x5524;" d="M814 -41 L712 98 Q665 32 577 -4 Q489 -40 368 -40 L368 68 Q431 70 483 89 Q535 108 565 149 L370 149 L370 233 L394 233 L394 512 L687 512 L742 584 L554 584 L521 530 L374 530 L357 585 L378 585 L449 696 L623 696 L604 665 L937 665 L937 600 L878 512 L965 512 L965 233 L994 233 L994 149 L852 149 L936 38 L987 38 L958 -41 L814 -41 ZM194 67 L164 -21 L6 -21 L6 683 L356 683 L356 -21 L203 -21 L203 590 L149 590 L149 67 L194 67 ZM816 428 L758 428 L758 248 Q758 238 757 233 L816 233 L816 428 ZM544 233 L595 233 Q596 237 596 241 Q596 245 596 250 L596 428 L544 428 L544 233 Z" /><glyph glyph-name="cid2011" unicode="&#x9ec4;" d="M799 702 L799 656 L975 656 L975 574 L799 574 L799 526 L997 526 L997 444 L595 444 L595 416 L944 416 L944 97 L757 97 L757 217 L595 217 L595 171 L757 171 L692 97 L55 97 L55 416 L405 416 L405 444 L3 444 L3 526 L201 526 L201 574 L24 574 L24 656 L201 656 L201 702 L389 702 L389 656 L611 656 L611 702 L799 702 ZM309 78 L246 -43 L45 -43 L22 10 L76 10 L113 78 L309 78 ZM890 78 L926 10 L981 10 L958 -43 L757 -43 L694 78 L890 78 ZM389 526 L611 526 L611 574 L389 574 L389 526 ZM243 292 L405 292 L405 342 L243 342 L243 292 ZM595 342 L595 292 L757 292 L757 342 L595 342 ZM405 171 L405 217 L243 217 L243 171 L405 171 Z" /><glyph glyph-name="cid2015" unicode="&#x7687;" d="M765 417 L673 336 L36 336 L36 658 L81 658 L106 691 L331 691 L306 658 L964 658 L964 336 L765 336 L765 452 L236 452 L236 417 L765 417 ZM970 305 L970 220 L600 220 L600 170 L942 170 L942 86 L600 86 L600 43 L997 43 L997 -41 L3 -41 L3 43 L400 43 L400 86 L58 86 L58 170 L400 170 L400 220 L30 220 L30 305 L970 305 ZM236 537 L765 537 L765 572 L236 572 L236 537 Z" /><glyph glyph-name="cid2023" unicode="&#x7070;" d="M312 706 L305 644 L996 644 L996 551 L295 551 L231 -39 L28 -39 L6 44 L57 44 L112 551 L3 551 L3 644 L122 644 L129 706 L312 706 ZM718 517 L718 356 Q718 259 683 184 L807 184 L926 44 L993 44 L958 -39 L797 -39 L656 137 Q602 59 505.5 15.5 Q409 -28 270 -39 L270 80 Q343 95 395 115 Q447 135 480 166.5 Q513 198 528 244 Q543 290 543 357 L543 517 L718 517 ZM950 500 L927 226 L767 226 L740 299 L778 299 L798 500 L950 500 ZM463 500 L482 299 L520 299 L493 226 L333 226 L311 500 L463 500 Z" /><glyph glyph-name="cid2025" unicode="&#x8f89;" d="M678 128 L678 209 L450 209 L450 283 L497 398 L442 398 L442 487 L534 487 L550 526 L708 526 L692 487 L989 487 L989 398 L656 398 L612 287 L678 287 L678 362 L836 362 L836 287 L996 287 L961 209 L836 209 L836 128 L998 128 L998 38 L836 38 L836 -40 L678 -40 L678 38 L432 38 L432 128 L678 128 ZM14 -42 L1 19 L34 19 L58 303 L1 303 L1 373 L139 373 L139 704 L280 704 L280 373 L417 373 L417 303 L374 303 L374 19 L417 19 L392 -42 L237 -42 L237 303 L195 303 L167 -42 L14 -42 ZM991 691 L991 551 L833 551 L833 611 L597 611 L597 551 L439 551 L439 691 L991 691 ZM132 394 L33 394 L9 653 L105 653 L132 394 ZM313 653 L409 653 L385 394 L287 394 L313 653 Z" /><glyph glyph-name="cid2030" unicode="&#x6bc1;" d="M699 278 Q729 217 776 171 Q829 222 860 297 L553 297 L553 383 L996 383 L996 297 Q983 246 952.5 197 Q922 148 872 103 Q923 75 993 54 L993 -43 Q930 -32 876 -12 Q822 8 776 34 Q730 8 675 -12 Q620 -32 556 -43 L556 54 Q591 65 622 77.5 Q653 90 680 104 Q635 145 605.5 189 Q576 233 561 278 L699 278 ZM534 276 L534 186 L357 186 L357 48 L545 48 L508 -41 L7 -41 L7 48 L195 48 L195 186 L18 186 L18 276 L534 276 ZM966 701 L966 508 L1000 508 L970 415 L819 415 L819 625 L718 625 L718 415 L547 415 L547 508 L571 508 L571 701 L966 701 ZM396 381 L345 306 L15 306 L15 692 L261 692 L228 615 L155 615 L155 546 L251 546 L251 452 L155 452 L155 381 L396 381 ZM396 452 L297 452 L297 546 L396 546 L396 615 L297 615 L297 692 L537 692 L537 306 L396 306 L396 452 Z" /><glyph glyph-name="cid2031" unicode="&#x6094;" d="M354 234 L354 327 L397 327 L397 527 L949 527 L949 327 L994 327 L994 234 L949 234 L949 125 L994 125 L994 44 L949 44 L949 -43 L661 -43 L634 24 L777 24 L777 44 L397 44 L397 234 L354 234 ZM366 531 L366 413 L329 413 L329 -45 L181 -45 L181 702 L329 702 L329 531 L366 531 ZM6 -9 L6 657 L144 657 L144 -9 L6 -9 ZM991 651 L991 558 L366 558 L409 695 L580 695 L563 651 L991 651 ZM777 441 L561 441 L561 327 L777 327 L777 441 ZM777 125 L777 234 L561 234 L561 125 L777 125 ZM607 340 L578 421 L729 421 L759 340 L607 340 ZM607 138 L578 219 L729 219 L759 138 L607 138 Z" /><glyph glyph-name="cid2038" unicode="&#x4f1a;" d="M839 696 L951 505 L997 505 L973 433 L914 433 L914 353 L87 353 L87 428 L24 428 L3 501 L36 501 L153 696 L345 696 L202 449 L788 449 L693 598 L319 598 L374 696 L839 696 ZM992 296 L992 199 L381 199 L289 51 L744 51 L693 -36 L72 -36 L72 47 L171 199 L10 199 L10 296 L992 296 ZM803 -37 L680 162 L850 162 L974 -37 L803 -37 Z" /><glyph glyph-name="cid2047" unicode="&#x9b42;" d="M665 67 Q626 29 569 0 Q512 -29 434 -42 L434 66 Q513 93 556.5 133.5 Q600 174 617 234 L437 234 L437 656 L488 656 L515 699 L668 699 L641 656 L961 656 L961 234 L822 234 L822 411 L768 411 L768 301 L822 301 L791 234 L759 234 L750 204 L798 204 L798 21 L994 21 L970 -42 L665 -42 L665 67 ZM104 419 L5 419 L5 505 L413 505 L413 419 L257 419 L167 30 L275 30 L251 282 L382 282 L415 -37 L282 -37 L275 29 L248 -37 L16 -37 L14 30 L104 419 ZM391 672 L391 585 L27 585 L27 672 L391 672 ZM991 54 L925 54 L921 84 L908 54 L810 54 L810 82 L850 186 L923 186 L886 86 L921 86 L915 139 L980 139 L991 54 ZM768 588 L768 479 L822 479 L822 588 L768 588 ZM628 301 Q628 309 628.5 317 Q629 325 629 334 L629 411 L576 411 L576 301 L628 301 ZM576 479 L629 479 L629 588 L576 588 L576 479 Z" /><glyph glyph-name="cid2054" unicode="&#x83b7;" d="M358 417 L549 417 L577 510 L747 510 L720 417 L983 417 L983 350 L701 350 L692 319 L845 319 L919 31 L987 31 L954 -44 L764 -44 L683 287 L588 -44 L398 -44 L365 31 L433 31 L529 350 L358 350 L358 417 ZM99 -41 L56 31 L168 31 L168 111 L2 71 L2 176 L168 216 L168 296 L2 257 L2 359 L140 393 L28 507 L205 507 L230 484 L251 520 L405 520 L327 385 L327 -41 L99 -41 ZM3 659 L136 659 L136 694 L318 694 L318 659 L668 659 L668 694 L850 694 L850 659 L983 659 L983 575 L850 575 L850 539 L668 539 L668 575 L318 575 L318 539 L136 539 L136 575 L3 575 L3 659 ZM973 509 L928 441 L777 441 L777 509 L973 509 Z" /><glyph glyph-name="cid2057" unicode="&#x970d;" d="M280 314 L491 314 L491 361 L677 361 L677 314 L973 314 L973 243 L677 243 L677 216 L955 216 L955 146 L677 146 L677 123 L961 123 L961 53 L677 53 L677 29 L995 29 L962 -36 L82 -36 L82 190 L27 190 L3 258 L37 258 L123 361 L318 361 L280 314 ZM3 700 L996 700 L996 628 L592 628 L592 600 L978 600 L978 378 L792 378 L792 534 L592 534 L592 378 L406 378 L406 534 L207 534 L207 378 L21 378 L21 600 L406 600 L406 628 L3 628 L3 700 ZM776 511 L746 455 L606 455 L606 511 L776 511 ZM776 434 L746 378 L606 378 L606 434 L776 434 ZM392 434 L363 378 L223 378 L223 434 L392 434 ZM392 511 L363 455 L223 455 L223 511 L392 511 ZM268 216 L491 216 L491 243 L268 243 L268 216 ZM268 29 L491 29 L491 53 L268 53 L268 29 ZM268 123 L491 123 L491 146 L268 146 L268 123 Z" /><glyph glyph-name="cid2060" unicode="&#x51fb;" d="M238 269 L238 52 L400 52 L400 343 L14 343 L14 433 L400 433 L400 544 L35 544 L35 634 L400 634 L400 703 L599 703 L599 634 L964 634 L964 544 L599 544 L599 433 L985 433 L985 343 L599 343 L599 52 L762 52 L708 -38 L38 -38 L38 269 L238 269 ZM961 269 L961 -38 L762 -38 L762 269 L961 269 Z" /><glyph glyph-name="cid2062" unicode="&#x57fa;" d="M994 667 L994 581 L909 581 L909 337 L997 337 L997 251 L869 251 Q896 237 926.5 228.5 Q957 220 993 218 L993 112 Q981 113 968.5 114 Q956 115 944 117 L944 92 L591 92 L591 46 L997 46 L997 -39 L6 -39 L6 46 L411 46 L411 92 L59 92 L59 118 Q32 113 5 112 L5 218 Q41 220 71.5 228.5 Q102 237 129 251 L6 251 L6 337 L96 337 L96 581 L3 581 L3 667 L96 667 L96 705 L276 705 L276 667 L729 667 L729 705 L909 705 L909 667 L994 667 ZM411 223 L591 223 L591 178 L747 178 Q716 193 689 211 Q662 229 639 251 L359 251 Q336 229 309 211 Q282 193 251 178 L411 178 L411 223 ZM276 556 L729 556 L729 581 L276 581 L276 556 ZM276 446 L729 446 L729 470 L276 470 L276 446 ZM276 337 L729 337 L729 361 L276 361 L276 337 Z" /><glyph glyph-name="cid2063" unicode="&#x673a;" d="M665 -40 L466 -40 L466 42 L501 42 L501 694 L941 694 L941 54 L996 54 L963 -40 L771 -40 L771 595 L665 595 L665 -40 ZM147 -40 L147 542 L3 542 L3 633 L147 633 L147 704 L300 704 L300 633 L445 633 L445 542 L300 542 L300 -40 L147 -40 ZM9 -8 L9 508 L124 508 L124 -8 L9 -8 ZM324 -8 L324 508 L438 508 L438 -8 L324 -8 Z" /><glyph glyph-name="cid2070" unicode="&#x8ff9;" d="M406 79 L386 162 L256 162 L238 232 L268 232 L291 500 L419 500 L390 168 L423 168 L441 540 L271 540 L271 626 L541 626 L541 696 L719 696 L719 626 L989 626 L989 540 L800 540 L800 79 L621 79 L596 168 L634 168 L634 540 L607 540 L585 79 L406 79 ZM5 -33 L5 60 L58 60 L58 437 L5 437 L5 532 L232 532 L232 -33 L5 -33 ZM295 -33 L235 60 L993 60 L933 -33 L295 -33 ZM843 162 L814 500 L942 500 L965 232 L995 232 L976 162 L843 162 ZM49 551 L12 696 L181 696 L204 613 L234 613 L219 551 L49 551 Z" /><glyph glyph-name="cid2071" unicode="&#x6fc0;" d="M792 437 Q797 414 802.5 394 Q808 374 814 354 Q830 396 840 438.5 Q850 481 856 526 L808 526 L790 454 L658 454 L630 518 L664 518 L709 701 L854 701 L829 607 L994 607 Q986 487 959 389.5 Q932 292 889 213 Q930 158 994 105 L994 -41 Q887 19 815 101 Q781 59 743 24 Q705 -11 663 -41 L663 103 Q685 129 704 155 Q723 181 740 207 Q685 306 656 437 L792 437 ZM477 424 L451 352 L245 352 L245 661 L286 661 L299 701 L450 701 L437 661 L621 661 L621 352 L477 352 L477 470 L389 470 L389 424 L477 424 ZM238 310 L361 310 L361 343 L505 343 L505 310 L629 310 L629 232 L437 232 L428 185 L617 185 L617 -41 L467 -41 L444 34 L491 34 L491 116 L415 116 L386 -41 L245 -41 L226 26 L259 26 L297 232 L238 232 L238 310 ZM28 -36 L5 52 L39 52 L70 265 L220 265 L174 -36 L28 -36 ZM62 526 L16 693 L166 693 L195 590 L220 590 L193 526 L62 526 ZM62 310 L16 476 L166 476 L195 373 L220 373 L193 310 L62 310 ZM389 543 L477 543 L477 589 L389 589 L389 543 Z" /><glyph glyph-name="cid2073" unicode="&#x9e21;" d="M670 304 L994 304 L994 -44 L736 -44 L699 19 L830 19 L830 224 L513 224 L513 652 L578 652 L596 703 L758 703 L741 652 L983 652 L983 341 L837 341 L837 572 L670 572 L670 304 ZM183 526 Q193 474 205.5 430 Q218 386 236 347 Q257 393 271.5 446.5 Q286 500 297 565 L11 565 L11 655 L466 655 Q455 524 421 412.5 Q387 301 327 210 Q355 179 389.5 150 Q424 121 466 92 L466 -44 Q330 9 236 100 Q141 9 6 -44 L6 92 Q48 121 82.5 150 Q117 179 145 210 Q57 342 24 526 L183 526 ZM788 76 L513 76 L513 156 L788 156 L788 76 ZM788 410 L693 410 L693 490 L819 490 L788 410 Z" /><glyph glyph-name="cid2074" unicode="&#x59ec;" d="M994 699 L994 606 L885 606 L885 508 L978 508 L978 154 L885 154 L885 55 L994 55 L967 -38 L433 -38 L433 699 L994 699 ZM404 -40 Q352 -28 305 -12 Q258 4 216 27 Q174 4 126.5 -12 Q79 -28 28 -40 L28 70 Q66 81 115 106 Q82 144 63.5 191 Q45 238 45 297 L45 504 L5 504 L5 597 L45 597 L45 699 L188 699 L188 597 L243 597 L243 699 L386 699 L386 597 L426 597 L426 504 L386 504 L386 297 Q386 238 367.5 191.5 Q349 145 316 107 Q364 81 404 70 L404 -40 ZM627 508 L715 508 L715 606 L606 606 L606 55 L715 55 L715 154 L627 154 L627 508 ZM243 504 L188 504 L188 270 Q188 247 195 227 Q202 207 215 190 Q228 207 235.5 227 Q243 247 243 270 L243 504 ZM841 248 L841 412 L758 412 L758 248 L841 248 Z" /><glyph glyph-name="cid2099" unicode="&#x796d;" d="M21 499 L4 571 L46 571 L111 702 L283 702 L264 665 L499 665 Q491 596 468 537 Q445 478 402 430 L682 430 Q619 482 573.5 549.5 Q528 617 498 702 L661 702 Q663 695 666.5 688.5 Q670 682 673 676 L991 676 L991 595 L902 443 Q945 420 998 403 L998 286 Q953 295 912.5 308 Q872 321 835 337 L266 337 Q215 316 153 304 Q91 292 14 290 L14 394 Q70 399 115 409 L78 485 L197 485 L216 446 Q221 449 226 452 Q231 455 236 459 L197 532 L180 499 L21 499 ZM376 -43 L353 46 L417 46 L417 180 L1 180 L1 274 L998 274 L998 180 L617 180 L617 -43 L376 -43 ZM41 -36 L22 42 L76 42 L132 141 L307 141 L225 -36 L41 -36 ZM774 -36 L692 141 L867 141 L923 42 L976 42 L958 -36 L774 -36 ZM721 597 Q737 576 754.5 556.5 Q772 537 792 519 L839 597 L721 597 ZM224 586 L205 548 L314 548 Q324 567 329 586 L224 586 Z" /><glyph glyph-name="cid2105" unicode="&#x8ba1;" d="M559 -39 L559 378 L325 378 L325 468 L559 468 L559 696 L753 696 L753 468 L987 468 L987 378 L753 378 L753 -39 L559 -39 ZM102 -39 L102 389 L13 389 L13 485 L286 485 L286 53 L350 53 L320 -39 L102 -39 ZM68 511 L26 681 L213 681 L237 591 L285 591 L268 511 L68 511 Z" /><glyph glyph-name="cid2106" unicode="&#x8bb0;" d="M960 685 L960 294 L780 294 L780 589 L377 589 L377 685 L960 685 ZM730 294 L575 294 L575 56 L990 56 L953 -41 L390 -41 L390 390 L780 390 L730 294 ZM88 -41 L88 400 L10 400 L10 499 L269 499 L269 53 L342 53 L312 -41 L88 -41 ZM72 526 L29 700 L205 700 L228 608 L277 608 L260 526 L72 526 Z" /><glyph glyph-name="cid2109" unicode="&#x9645;" d="M224 310 L163 310 L163 400 L224 400 L224 620 L144 620 L144 -41 L6 -41 L6 699 L362 699 L362 22 L199 22 L163 102 L224 102 L224 310 ZM587 -43 L551 26 L604 26 L604 438 L388 438 L388 529 L978 529 L978 438 L768 438 L768 -43 L587 -43 ZM834 -7 L790 372 L929 372 L967 51 L994 51 L974 -7 L834 -7 ZM393 -7 L373 51 L400 51 L437 372 L577 372 L532 -7 L393 -7 ZM943 608 L424 608 L424 699 L943 699 L943 608 Z" /><glyph glyph-name="cid2112" unicode="&#x7eaa;" d="M215 219 L350 219 L350 129 L14 129 L14 201 L171 412 L27 412 L27 484 L190 700 L374 700 L228 502 L357 502 L357 412 L215 219 ZM747 299 L631 299 L631 59 L986 59 L952 -41 L449 -41 L449 386 L779 386 L747 299 ZM959 685 L959 299 L779 299 L779 589 L437 589 L437 685 L959 685 ZM362 69 L316 -21 L14 -21 L14 69 L362 69 Z" /><glyph glyph-name="cid2113" unicode="&#x5609;" d="M998 670 L998 600 L577 600 L577 577 L974 577 L974 506 L25 506 L25 577 L422 577 L422 600 L1 600 L1 670 L422 670 L422 703 L577 703 L577 670 L998 670 ZM195 416 L195 384 L804 384 L768 313 L36 313 L36 487 L963 487 L963 313 L804 313 L804 416 L195 416 ZM999 255 L999 184 L1 184 L1 255 L166 255 L133 297 L303 297 L336 255 L663 255 L696 297 L866 297 L833 255 L999 255 ZM659 82 L659 35 L869 35 L840 -40 L535 -40 L535 154 L993 154 L993 -40 L869 -40 L869 82 L659 82 ZM298 178 L281 151 L502 151 L502 -44 L338 -44 L315 13 L377 13 L377 78 L237 78 L164 -44 L33 -44 L9 21 L54 21 L90 78 L4 78 L4 151 L136 151 L153 178 L298 178 Z" /><glyph glyph-name="cid2117" unicode="&#x5bb6;" d="M417 327 Q387 313 343.5 300 Q300 287 247.5 276.5 Q195 266 135.5 259 Q76 252 14 250 L14 358 Q102 362 188.5 377 Q275 392 345 415 L78 415 L78 475 L2 475 L2 652 L400 652 L400 703 L600 703 L600 652 L998 652 L998 475 L922 475 L922 415 L556 415 L622 351 L622 -44 L402 -44 L376 20 L447 20 L447 69 Q412 55 362.5 41 Q313 27 255.5 15.5 Q198 4 136 -4 Q74 -12 14 -15 L14 92 Q65 95 121.5 101.5 Q178 108 235 119.5 Q292 131 346 146.5 Q400 162 447 183 L447 202 Q412 188 362.5 174 Q313 160 255.5 148 Q198 136 136 128 Q74 120 14 117 L14 224 Q63 227 118 233.5 Q173 240 228 250.5 Q283 261 336 276 Q389 291 435 311 L417 327 ZM995 379 L898 134 L950 25 L992 25 L967 -42 L802 -42 L616 379 L784 379 L824 294 L858 379 L995 379 ZM799 558 L195 558 L195 508 L799 508 L799 558 Z" /><glyph glyph-name="cid2118" unicode="&#x52a0;" d="M822 46 L783 -40 L554 -40 L553 666 L990 666 L990 -40 L822 -40 L822 46 ZM38 -40 L10 37 L54 37 L83 542 L18 542 L18 635 L88 635 L92 701 L257 701 L253 635 L504 635 L504 -40 L297 -40 L268 51 L336 51 L336 542 L247 542 L212 -40 L38 -40 ZM822 46 L822 577 L717 577 L717 46 L822 46 Z" /><glyph glyph-name="cid2132" unicode="&#x575a;" d="M994 56 L994 -38 L6 -38 L6 56 L407 56 L407 101 L16 101 L16 194 L407 194 L407 235 L593 235 L593 194 L984 194 L984 101 L593 101 L593 56 L994 56 ZM644 583 Q656 549 677.5 520 Q699 491 728 466 Q760 492 782.5 523.5 Q805 555 816 593 L479 593 L479 686 L984 686 Q980 597 945 523.5 Q910 450 847 393 Q875 380 904 369 Q933 358 963 349 L963 244 Q830 261 729 312 Q626 260 494 244 L494 349 Q524 358 553 369 Q582 380 610 393 Q567 432 536.5 479.5 Q506 527 490 583 L644 583 ZM255 241 L255 691 L423 691 L423 241 L255 241 ZM42 263 L42 677 L210 677 L210 263 L42 263 Z" /><glyph glyph-name="cid2135" unicode="&#x95f4;" d="M599 36 L599 231 L425 231 L425 124 L599 124 L546 36 L266 36 L266 513 L758 513 L758 36 L599 36 ZM302 694 L989 694 L989 -41 L786 -41 L745 28 L803 28 L803 595 L302 595 L302 694 ZM221 529 L221 -41 L35 -41 L35 529 L221 529 ZM47 554 L10 694 L198 694 L220 616 L261 616 L236 554 L47 554 ZM425 319 L599 319 L599 425 L425 425 L425 319 Z" /><glyph glyph-name="cid2169" unicode="&#x5efa;" d="M518 74 L518 120 L301 120 L301 192 L518 192 L518 236 L314 236 L314 308 L518 308 L518 357 L299 357 L299 432 L518 432 L518 482 L280 482 L280 554 L518 554 L518 599 L299 599 L299 674 L518 674 L518 703 L698 703 L698 674 L961 674 L961 554 L996 554 L996 482 L961 482 L961 357 L795 357 L795 482 L698 482 L698 432 L795 432 L768 357 L698 357 L698 308 L962 308 L962 236 L698 236 L698 192 L976 192 L976 120 L698 120 L698 74 L518 74 ZM258 695 L258 408 L212 347 L258 275 L258 -36 L7 -36 L7 59 L72 59 L72 282 L4 282 L4 377 L72 377 L72 599 L4 599 L4 695 L258 695 ZM942 -36 L317 -36 L262 61 L995 61 L942 -36 ZM698 599 L698 554 L795 554 L795 599 L698 599 Z" /><glyph glyph-name="cid2192" unicode="&#x5a07;" d="M980 699 L956 601 L769 601 Q765 586 760.5 571.5 Q756 557 751 543 L997 543 L997 450 L888 450 Q932 406 987 385 L987 261 Q964 267 943.5 274 Q923 281 903 289 L903 -42 L753 -42 L753 297 L886 297 Q829 323 783.5 361 Q738 399 704 450 L702 450 Q635 351 519 297 L657 297 L620 -42 L464 -42 L432 38 L477 38 L505 291 Q465 273 419 261 L419 385 Q475 405 519 450 L424 450 L424 503 L384 503 L384 296 Q384 237 365.5 190 Q347 143 314 105 Q337 93 359.5 83.5 Q382 74 401 69 L401 -41 Q349 -29 302 -13 Q255 3 213 26 Q171 3 123.5 -13 Q76 -29 25 -41 L25 69 Q63 80 112 105 Q79 143 60.5 190 Q42 237 42 296 L42 503 L2 503 L2 597 L42 597 L42 698 L185 698 L185 597 L241 597 L241 698 L384 698 L384 597 L424 597 L424 543 L584 543 Q590 557 595.5 571.5 Q601 586 605 601 L447 601 L447 699 L980 699 ZM241 503 L185 503 L185 269 Q185 225 213 188 Q226 206 233.5 226 Q241 246 241 269 L241 503 Z" /><glyph glyph-name="cid2200" unicode="&#x2f93;&#x89d2;" d="M422 -29 L422 114 L269 114 L269 -37 L34 -37 L34 50 L69 50 L69 470 L46 470 L17 550 L74 550 L159 704 L382 704 L354 657 L951 657 L951 587 L904 509 L982 509 L982 -37 L758 -37 L720 50 L782 50 L782 114 L622 114 L622 -29 L422 -29 ZM301 567 L267 509 L687 509 L720 567 L301 567 ZM622 204 L782 204 L782 267 L622 267 L622 204 ZM622 419 L622 357 L782 357 L782 419 L622 419 ZM269 204 L422 204 L422 267 L269 267 L269 204 ZM269 357 L422 357 L422 419 L269 419 L269 357 Z" /><glyph glyph-name="cid2215" unicode="&#x8857;" d="M200 345 L239 345 L239 -44 L77 -44 L77 290 L33 290 L4 378 L49 378 L126 492 L33 492 L4 579 L49 579 L129 699 L302 699 L165 496 L302 496 L200 345 ZM699 523 L995 523 L995 450 L953 450 L953 -42 L747 -42 L713 25 L792 25 L792 450 L699 450 L699 523 ZM574 319 L574 258 L673 258 L673 184 L574 184 L574 40 L693 40 L693 -34 L271 -34 L271 40 L390 40 L390 184 L291 184 L291 258 L390 258 L390 319 L574 319 ZM574 701 L574 639 L673 639 L673 565 L574 565 L574 444 L684 444 L684 370 L280 370 L280 444 L390 444 L390 565 L291 565 L291 639 L390 639 L390 701 L574 701 ZM708 681 L987 681 L987 608 L708 608 L708 681 Z" /><glyph glyph-name="cid2219" unicode="&#x8282;" d="M335 -38 L335 372 L40 372 L40 462 L937 462 L937 22 L679 22 L643 105 L737 105 L737 372 L535 372 L535 -38 L335 -38 ZM12 649 L135 649 L135 700 L335 700 L335 649 L665 649 L665 700 L865 700 L865 649 L988 649 L988 559 L865 559 L865 498 L665 498 L665 559 L335 559 L335 498 L135 498 L135 559 L12 559 L12 649 Z" /><glyph glyph-name="cid2221" unicode="&#x6770;" d="M27 228 L5 306 L48 306 L148 547 L8 547 L8 635 L411 635 L411 701 L591 701 L591 635 L995 635 L995 547 L852 547 L951 306 L995 306 L973 228 L808 228 L675 547 L591 547 L591 212 L411 212 L411 547 L324 547 L192 228 L27 228 ZM807 -44 L776 167 L931 167 L951 33 L994 33 L960 -44 L807 -44 ZM315 -44 L283 167 L438 167 L458 33 L501 33 L468 -44 L315 -44 ZM563 -44 L532 167 L687 167 L706 33 L750 33 L716 -44 L563 -44 ZM45 -44 L11 33 L54 33 L74 167 L229 167 L197 -44 L45 -44 Z" /><glyph glyph-name="cid2228" unicode="&#x59d0;" d="M994 50 L994 -43 L452 -43 L452 50 L490 50 L490 700 L956 700 L956 50 L994 50 ZM440 -41 Q383 -29 331.5 -12.5 Q280 4 235 27 Q190 4 138.5 -12.5 Q87 -29 30 -41 L30 69 Q50 75 74.5 84 Q99 93 124 106 Q89 144 69 191 Q49 238 49 297 L49 504 L5 504 L5 597 L49 597 L49 699 L204 699 L204 597 L265 597 L265 699 L421 699 L421 597 L464 597 L464 504 L421 504 L421 297 Q421 237 400.5 190.5 Q380 144 344 106 Q370 93 394.5 84 Q419 75 440 69 L440 -41 ZM794 605 L650 605 L650 480 L794 480 L794 605 ZM650 263 L794 263 L794 387 L650 387 L650 263 ZM265 504 L204 504 L204 270 Q204 226 234 188 Q248 206 256.5 226.5 Q265 247 265 270 L265 504 ZM650 50 L794 50 L794 170 L650 170 L650 50 Z" /><glyph glyph-name="cid2241" unicode="&#x2fa6;&#x91d1;" d="M88 452 L911 452 L911 362 L599 362 L599 300 L946 300 L946 210 L599 210 L599 50 L999 50 L999 -40 L1 -40 L1 50 L400 50 L400 210 L53 210 L53 300 L400 300 L400 362 L88 362 L88 452 ZM834 696 L951 542 L998 542 L974 469 L787 469 L682 598 L308 598 L375 696 L834 696 ZM203 469 L25 469 L4 542 L37 542 L144 696 L352 696 L203 469 ZM291 185 L327 115 L358 115 L343 70 L161 70 L96 185 L291 185 ZM903 185 L838 70 L656 70 L641 115 L673 115 L708 185 L903 185 Z" /><glyph glyph-name="cid2242" unicode="&#x4eca;" d="M961 365 L961 280 L636 -35 L393 -35 L710 265 L39 265 L39 365 L961 365 ZM422 384 L369 502 L560 502 L613 384 L422 384 ZM190 394 L24 394 L3 467 L36 467 L146 694 L339 694 L190 394 ZM839 694 L950 467 L997 467 L973 394 L798 394 L693 595 L319 595 L368 694 L839 694 Z" /><glyph glyph-name="cid2254" unicode="&#x70ec;" d="M995 64 L995 -29 L419 -1 L419 13 L401 -41 L268 -41 L215 126 Q184 72 134.5 29 Q85 -14 12 -41 L12 92 Q78 146 109.5 220 Q141 294 141 388 L141 703 L278 703 L278 386 Q278 329 267 268 L311 268 L385 40 L419 40 L419 92 L995 64 ZM434 243 L434 329 L460 329 L460 688 L966 688 L966 468 L817 468 L817 620 L609 620 L609 536 L817 536 L788 468 L609 468 L609 243 L434 243 ZM995 196 L995 103 L419 131 L419 224 L995 196 ZM825 243 L675 446 L844 446 L947 312 L996 312 L970 243 L825 243 ZM414 649 L400 305 L306 305 L288 371 L309 371 L321 649 L414 649 ZM96 649 L108 371 L129 371 L111 305 L17 305 L3 649 L96 649 Z" /><glyph glyph-name="cid2264" unicode="&#x4eac;" d="M350 -42 L310 71 L398 71 L398 239 L22 239 L22 503 L984 503 L984 239 L792 239 L792 414 L214 414 L214 327 L787 327 L731 239 L597 239 L597 -42 L350 -42 ZM995 647 L995 550 L0 550 L0 647 L398 647 L398 697 L597 697 L597 647 L995 647 ZM83 68 L112 209 L294 209 L242 -39 L55 -39 L7 68 L83 68 ZM999 68 L951 -39 L764 -39 L712 209 L894 209 L923 68 L999 68 Z" /><glyph glyph-name="cid2268" unicode="&#x7ecf;" d="M227 212 L365 212 L365 122 L20 122 L20 194 L182 405 L34 405 L34 477 L201 693 L391 693 L241 495 L372 495 L372 405 L227 212 ZM959 695 Q947 621 917 565 Q887 509 841 466 L922 380 L970 380 L937 311 L803 311 L729 392 Q663 361 584 341.5 Q505 322 411 311 L411 422 Q485 431 542 446 Q599 461 643 483.5 Q687 506 722 536 Q757 566 787 605 L407 605 L407 695 L959 695 ZM966 271 L966 181 L766 181 L766 62 L980 62 L980 -27 L389 -27 L389 62 L604 62 L604 181 L403 181 L403 271 L966 271 ZM378 62 L331 -28 L20 -28 L20 62 L378 62 Z" /><glyph glyph-name="cid2273" unicode="&#x9759;" d="M19 665 L156 665 L156 702 L321 702 L321 665 L458 665 L458 580 L321 580 L321 553 L452 553 L452 468 L321 468 L321 442 L473 442 L473 364 L599 364 L599 422 L488 422 L488 515 L731 515 L775 587 L647 587 L628 546 L484 546 L470 613 L500 613 L540 703 L701 703 L683 664 L947 664 L947 601 L892 515 L970 515 L970 364 L996 364 L996 271 L970 271 L970 118 L813 118 L813 271 L761 271 L761 211 L813 211 L777 118 L761 118 L761 -44 L557 -44 L524 32 L599 32 L599 118 L488 118 L488 211 L599 211 L599 271 L471 271 L471 356 L4 356 L4 442 L156 442 L156 468 L25 468 L25 553 L156 553 L156 580 L19 580 L19 665 ZM18 -44 L18 337 L459 337 L459 -44 L284 -44 L266 10 L306 10 L306 41 L171 41 L171 -44 L18 -44 ZM171 115 L306 115 L306 154 L171 154 L171 115 ZM171 228 L306 228 L306 264 L171 264 L171 228 ZM761 422 L761 364 L813 364 L813 422 L761 422 Z" /><glyph glyph-name="cid2275" unicode="&#x656c;" d="M15 342 L2 383 L22 383 L76 518 L241 518 L222 473 L509 473 L509 -37 L339 -37 L324 -10 L193 -10 L193 235 L148 235 L148 75 L193 75 L165 -10 L22 -10 L22 328 L324 328 L324 32 L354 32 L354 391 L189 391 L169 342 L15 342 ZM530 476 L516 532 L536 532 L588 703 L745 703 L716 618 L997 618 L997 526 L979 526 Q968 414 935.5 327.5 Q903 241 848 172 Q904 123 972 91 L972 -42 Q845 8 755 80 Q709 43 655 13.5 Q601 -16 538 -42 L538 91 Q607 126 662 173 Q619 228 590.5 295 Q562 362 548 445 L696 445 Q704 398 719.5 358 Q735 318 755 283 Q785 333 804.5 392.5 Q824 452 832 526 L685 526 L668 476 L530 476 ZM55 530 L55 568 L2 568 L2 658 L55 658 L55 701 L212 701 L212 658 L325 658 L325 701 L482 701 L482 658 L535 658 L535 568 L482 568 L482 530 L325 530 L325 568 L212 568 L212 530 L55 530 Z" /><glyph glyph-name="cid2281" unicode="&#x7ade;" d="M948 393 L948 146 L748 146 L748 309 L251 309 L251 230 L748 230 L705 146 L51 146 L51 393 L948 393 ZM871 565 L845 509 L997 509 L997 418 L2 418 L2 509 L153 509 L128 565 L328 565 L353 509 L645 509 L671 565 L871 565 ZM399 667 L399 700 L599 700 L599 667 L957 667 L957 576 L41 576 L41 667 L399 667 ZM586 -41 L586 127 L786 127 L786 35 L969 35 L927 -41 L586 -41 ZM411 127 L255 -41 L39 -41 L24 35 L101 35 L191 127 L411 127 Z" /><glyph glyph-name="cid2292" unicode="&#x4e5d;" d="M46 -35 L3 57 L78 57 L243 521 L16 521 L16 615 L276 615 L308 704 L487 704 L456 615 L885 615 L885 65 L996 65 L951 -30 L702 -30 L702 521 L423 521 L229 -35 L46 -35 Z" /><glyph glyph-name="cid2300" unicode="&#x5c31;" d="M172 -43 L148 28 L144 -36 L15 -36 L3 42 L30 42 L44 212 L161 212 L149 35 L186 35 L186 247 L34 247 L34 528 L491 528 L491 247 L354 247 L354 -43 L172 -43 ZM559 -43 L545 35 L569 35 L610 497 L546 497 L546 590 L618 590 L628 701 L793 701 L783 590 L994 590 L994 497 L775 497 L727 -43 L559 -43 ZM996 50 L970 -43 L787 -43 L787 441 L949 441 L949 50 L996 50 ZM513 650 L513 557 L13 557 L13 650 L173 650 L173 704 L353 704 L353 650 L513 650 ZM390 -36 L373 212 L490 212 L504 42 L532 42 L519 -36 L390 -36 ZM318 327 L318 444 L198 444 L198 327 L318 327 ZM826 614 L826 682 L990 682 L966 614 L826 614 Z" /><glyph glyph-name="cid2316" unicode="&#x636e;" d="M303 -40 L303 47 L337 47 L337 686 L989 686 L989 443 L817 443 L817 596 L508 596 L508 531 L817 531 L766 441 L508 441 L508 -40 L303 -40 ZM819 48 L776 -35 L544 -35 L544 217 L680 217 L680 280 L534 280 L534 374 L680 374 L680 422 L851 422 L851 374 L997 374 L997 280 L851 280 L851 217 L986 217 L986 -35 L819 -35 L819 134 L707 134 L708 48 L819 48 ZM312 617 L312 524 L247 524 L247 388 L312 405 L312 301 L247 284 L247 -40 L52 -40 L26 47 L76 47 L76 240 L3 221 L3 326 L76 344 L76 524 L3 524 L3 617 L76 617 L76 701 L247 701 L247 617 L312 617 Z" /><glyph glyph-name="cid2340" unicode="&#x89c9;" d="M720 121 L720 327 L279 327 L279 121 L79 121 L79 377 L3 377 L3 563 L101 563 L61 680 L257 680 L297 563 L414 563 L374 680 L570 680 L610 563 L700 563 L740 680 L936 680 L896 563 L994 563 L994 377 L920 377 L920 121 L720 121 ZM513 -44 L513 63 Q444 5 316 -18.5 Q188 -42 2 -44 L2 78 Q99 78 173.5 85.5 Q248 93 299 112 Q350 131 376 163 Q402 195 402 245 L402 288 L589 288 L589 241 Q589 171 561 122 L713 122 L713 40 L996 40 L963 -44 L513 -44 ZM199 417 L798 417 L798 478 L199 478 L199 417 Z" /><glyph glyph-name="cid2341" unicode="&#x51b3;" d="M671 702 L671 633 L939 633 L939 339 L994 339 L994 246 L635 246 Q628 230 618 211 L797 211 L925 45 L988 45 L958 -39 L780 -39 L610 197 Q581 149 541.5 110 Q502 71 454.5 41 Q407 11 353.5 -9 Q300 -29 244 -39 L244 97 Q302 117 357 151.5 Q412 186 449 246 L248 246 L248 339 L487 339 Q498 386 498 442 L498 540 L286 540 L286 633 L498 633 L498 702 L671 702 ZM8 -39 L36 467 L208 467 L180 -39 L8 -39 ZM177 693 L197 592 L225 592 L208 534 L36 534 L6 693 L177 693 ZM762 540 L671 540 L671 420 Q671 399 669 379 Q667 359 663 339 L762 339 L762 540 Z" /><glyph glyph-name="cid2343" unicode="&#x7edd;" d="M564 583 L525 530 L388 530 L365 583 L393 583 L481 701 L652 701 L631 673 L974 673 L974 583 L924 508 L969 508 L969 145 L812 145 L812 428 L752 428 L752 224 L812 224 L772 145 L552 145 L552 41 L998 41 L959 -40 L394 -40 L394 508 L748 508 L802 583 L564 583 ZM198 212 L329 212 L329 122 L2 122 L2 194 L155 405 L15 405 L15 478 L173 693 L353 693 L211 495 L336 495 L336 405 L198 212 ZM341 62 L296 -28 L2 -28 L2 62 L341 62 ZM552 224 L612 224 L612 428 L552 428 L552 224 Z" /><glyph glyph-name="cid2347" unicode="&#x519b;" d="M619 344 L619 291 L977 291 L944 200 L619 200 L619 137 L992 137 L992 45 L619 45 L619 -46 L437 -46 L437 45 L9 45 L9 137 L437 137 L437 200 L36 200 L36 291 L117 384 L9 384 L9 475 L196 475 L267 556 L469 556 L402 475 L992 475 L992 384 L327 384 L250 291 L437 291 L437 344 L619 344 ZM803 520 L803 600 L198 600 L198 520 L4 520 L4 691 L996 691 L996 520 L803 520 Z" /><glyph glyph-name="cid2357" unicode="&#x5361;" d="M955 621 L955 532 L560 532 L560 429 L994 429 L994 340 L560 340 L560 -39 L370 -39 L370 340 L2 340 L2 429 L370 429 L370 702 L560 702 L560 621 L955 621 ZM761 17 L645 287 L829 287 L920 102 L971 102 L950 17 L761 17 Z" /><glyph glyph-name="cid2359" unicode="&#x5f00;" d="M11 600 L11 692 L988 692 L988 600 L836 600 L836 382 L997 382 L997 290 L836 290 L836 -42 L636 -42 L636 290 L359 290 L332 -42 L113 -42 L86 47 L141 47 L160 290 L2 290 L2 382 L168 382 L185 600 L11 600 ZM366 382 L636 382 L636 600 L384 600 L366 382 Z" /><glyph glyph-name="cid2362" unicode="&#x51ef;" d="M706 -39 L522 -39 L522 63 L548 63 L548 699 L963 699 L963 63 L991 63 L966 -39 L805 -39 L805 615 L706 615 L706 -39 ZM298 152 L157 152 L157 45 L511 45 L463 -39 L8 -39 L8 236 L361 236 L298 152 ZM151 675 L151 487 L191 487 L191 703 L326 703 L326 487 L366 487 L328 420 L15 420 L15 675 L151 675 ZM511 393 L511 152 L361 152 L361 309 L8 309 L8 393 L511 393 ZM366 420 L366 675 L503 675 L503 420 L366 420 Z" /><glyph glyph-name="cid2369" unicode="&#x770b;" d="M312 570 L346 605 L28 605 L28 687 L972 687 L921 605 L580 605 L548 570 L944 570 L944 488 L473 488 L440 452 L997 452 L997 369 L364 369 L330 332 L942 332 L942 -42 L738 -42 L738 69 L296 69 L296 33 L738 33 L683 -42 L96 -42 L96 215 L33 215 L8 307 L62 307 L121 369 L3 369 L3 452 L200 452 L234 488 L57 488 L57 570 L312 570 ZM296 127 L738 127 L738 162 L296 162 L296 127 ZM296 221 L738 221 L738 253 L296 253 L296 221 Z" /><glyph glyph-name="cid2375" unicode="&#x4ea2;" d="M866 460 L866 63 L972 63 L932 -31 L686 -31 L686 361 L311 361 L311 -31 L52 -31 L52 82 L135 82 L135 460 L866 460 ZM991 631 L991 538 L9 538 L9 631 L407 631 L407 702 L593 702 L593 631 L991 631 Z" /><glyph glyph-name="cid2392" unicode="&#x514b;" d="M768 220 L768 404 L232 404 L232 316 L768 316 L711 220 L32 220 L32 499 L401 499 L401 550 L2 550 L2 646 L401 646 L401 704 L599 704 L599 646 L998 646 L998 550 L599 550 L599 499 L968 499 L968 220 L768 220 ZM842 189 L842 60 L971 60 L926 -39 L644 -39 L644 189 L842 189 ZM367 189 L276 -39 L51 -39 L18 60 L103 60 L150 189 L367 189 Z" /><glyph glyph-name="cid2394" unicode="&#x5ba2;" d="M968 526 L968 460 Q876 391 764 348 Q790 346 818 346 Q846 346 876 346 L995 346 L995 250 L876 250 Q778 250 688.5 257.5 Q599 265 517 281 Q423 264 319.5 257 Q216 250 101 250 L18 250 L18 346 L101 346 Q151 346 196.5 347 Q242 348 285 350 Q256 362 229 375 Q202 388 176 403 L175 401 L27 401 L12 464 L40 464 L111 537 L2 537 L2 667 L400 667 L400 704 L600 704 L600 667 L998 667 L998 537 L799 537 L799 598 L195 598 L195 566 L335 566 L296 526 L968 526 ZM761 49 L715 -38 L58 -38 L58 229 L942 229 L942 -38 L761 -38 L761 49 ZM761 49 L761 140 L239 140 L239 49 L761 49 ZM374 418 Q411 405 448 394.5 Q485 384 523 376 Q590 388 648.5 406.5 Q707 425 762 450 L222 450 L191 418 L374 418 Z" /><glyph glyph-name="cid2402" unicode="&#x7a7a;" d="M400 58 L400 197 L34 197 L34 292 L966 292 L966 197 L600 197 L600 58 L986 58 L986 -36 L14 -36 L14 58 L400 58 ZM400 656 L400 702 L600 702 L600 656 L996 656 L996 523 L796 523 L796 570 L203 570 L203 523 L4 523 L4 656 L400 656 ZM485 509 L222 328 L43 328 L18 400 L74 400 L240 509 L485 509 ZM759 509 L926 400 L982 400 L957 328 L778 328 L515 509 L759 509 Z" /><glyph glyph-name="cid2407" unicode="&#x2f1d;&#x53e3;" d="M979 -36 L779 -36 L779 574 L220 574 L220 61 L771 61 L720 -36 L20 -36 L20 671 L979 671 L979 -36 Z" /><glyph glyph-name="cid2413" unicode="&#x82e6;" d="M600 544 L600 451 L982 451 L982 358 L600 358 L600 274 L952 274 L952 -38 L735 -38 L735 186 L259 186 L259 50 L735 50 L657 -38 L48 -38 L48 274 L400 274 L400 358 L17 358 L17 451 L400 451 L400 544 L600 544 ZM857 703 L857 652 L990 652 L990 571 L857 571 L857 505 L675 505 L675 571 L325 571 L325 505 L143 505 L143 571 L10 571 L10 652 L143 652 L143 703 L325 703 L325 652 L675 652 L675 703 L857 703 Z" /><glyph glyph-name="cid2441" unicode="&#x594e;" d="M980 319 L980 225 L21 225 L21 319 L415 319 L415 352 L65 352 L65 402 Q48 400 32.5 399.5 Q17 399 1 398 L1 505 Q36 508 73.5 513 Q111 518 148.5 525.5 Q186 533 221 543.5 Q256 554 286 566 L1 566 L1 659 L395 659 Q395 661 395.5 662 Q396 663 396 665 L396 706 L572 706 L572 665 Q572 663 571.5 662 Q571 661 571 659 L999 659 L999 566 L726 566 L931 488 L998 488 L969 398 L936 398 L936 352 L587 352 L587 319 L980 319 ZM980 55 L980 -38 L21 -38 L21 55 L415 55 L415 89 L65 89 L65 182 L415 182 L415 213 L587 213 L587 182 L936 182 L936 89 L587 89 L587 55 L980 55 ZM415 446 L415 479 L587 479 L587 446 L729 446 L501 547 Q463 516 409 490.5 Q355 465 290 446 L415 446 Z" /><glyph glyph-name="cid2447" unicode="&#x5764;" d="M596 -37 L596 66 L376 66 L376 644 L596 644 L596 701 L764 701 L764 644 L986 644 L986 66 L820 66 L820 156 L784 66 L764 66 L764 -37 L596 -37 ZM375 60 L338 -35 L16 -35 L16 60 L96 60 L96 485 L13 485 L13 580 L96 580 L96 684 L266 684 L266 580 L350 580 L350 485 L266 485 L266 60 L375 60 ZM539 396 L596 396 L596 549 L539 549 L539 396 ZM820 549 L764 549 L764 396 L820 396 L820 549 ZM539 156 L596 156 L596 303 L539 303 L539 156 ZM820 156 L820 303 L764 303 L764 156 L820 156 Z" /><glyph glyph-name="cid2456" unicode="&#x62c9;" d="M993 54 L993 -39 L379 -39 L379 54 L482 54 L423 484 L608 484 L667 54 L705 54 L764 484 L948 484 L889 54 L993 54 ZM347 617 L347 524 L270 524 L270 387 L347 405 L347 301 L270 283 L270 -40 L68 -40 L31 47 L93 47 L93 241 L7 221 L7 326 L93 346 L93 524 L7 524 L7 617 L93 617 L93 701 L270 701 L270 617 L347 617 ZM973 644 L973 550 L399 550 L399 644 L588 644 L588 700 L783 700 L783 644 L973 644 Z" /><glyph glyph-name="cid2462" unicode="&#x83b1;" d="M400 -40 L400 209 L8 209 L8 284 L400 284 L400 438 L27 438 L27 513 L400 513 L400 552 L600 552 L600 513 L973 513 L973 438 L600 438 L600 284 L992 284 L992 209 L600 209 L600 -40 L400 -40 ZM855 696 L855 661 L988 661 L988 577 L855 577 L855 541 L673 541 L673 577 L323 577 L323 541 L141 541 L141 577 L8 577 L8 661 L141 661 L141 696 L323 696 L323 661 L673 661 L673 696 L855 696 ZM31 -31 L8 48 L68 48 L102 186 L282 186 L234 -31 L31 -31 ZM766 -31 L718 186 L898 186 L932 48 L992 48 L969 -31 L766 -31 ZM687 305 L660 363 L702 363 L745 416 L938 416 L846 305 L687 305 ZM154 305 L63 416 L255 416 L299 363 L340 363 L313 305 L154 305 Z" /><glyph glyph-name="cid2463" unicode="&#x6765;" d="M411 -43 L411 272 L8 272 L8 360 L411 360 L411 547 L28 547 L28 635 L411 635 L411 701 L590 701 L590 635 L973 635 L973 547 L590 547 L590 360 L992 360 L992 272 L590 272 L590 -43 L411 -43 ZM56 -32 L37 41 L78 41 L140 237 L308 237 L221 -32 L56 -32 ZM780 -32 L693 237 L861 237 L922 41 L964 41 L945 -32 L780 -32 ZM168 386 L77 522 L257 522 L301 457 L342 457 L315 386 L168 386 ZM686 386 L659 457 L700 457 L743 522 L924 522 L832 386 L686 386 Z" /><glyph glyph-name="cid2471" unicode="&#x5170;" d="M12 525 L987 525 L987 429 L12 429 L12 525 ZM3 60 L996 60 L996 -36 L3 -36 L3 60 ZM47 288 L951 288 L951 192 L47 192 L47 288 ZM147 555 L46 699 L252 699 L312 622 L363 622 L331 555 L147 555 ZM657 555 L625 622 L678 622 L736 699 L943 699 L841 555 L657 555 Z" /><glyph glyph-name="cid2484" unicode="&#x90ce;" d="M13 -39 L13 674 L189 674 L189 704 L362 704 L362 674 L531 674 L531 248 L370 248 L370 414 L180 414 L180 334 L370 334 L333 247 L180 247 L180 46 L359 46 L318 -39 L13 -39 ZM825 306 L767 306 L767 395 L825 395 L825 620 L748 620 L748 -40 L586 -40 L586 697 L987 697 L987 21 L801 21 L773 101 L825 101 L825 306 ZM384 -39 L322 195 L493 195 L554 -39 L384 -39 ZM180 502 L370 502 L370 585 L180 585 L180 502 Z" /><glyph glyph-name="cid2485" unicode="&#x6717;" d="M992 701 L992 -45 L807 -45 L782 54 L818 54 L818 171 L714 171 L714 -45 L522 -45 L522 54 L549 54 L549 701 L992 701 ZM7 -42 L7 657 L148 657 L138 702 L336 702 L346 657 L510 657 L510 239 L330 239 L330 401 L187 401 L187 330 L329 330 L308 238 L187 238 L187 46 L332 46 L298 -42 L7 -42 ZM349 -42 L303 200 L465 200 L511 -42 L349 -42 ZM818 606 L714 606 L714 474 L818 474 L818 606 ZM714 260 L818 260 L818 384 L714 384 L714 260 ZM187 492 L330 492 L330 567 L187 567 L187 492 Z" /><glyph glyph-name="cid2490" unicode="&#x2f7c;&#x8001;" d="M913 519 L881 442 L996 442 L996 352 L327 352 L302 311 L302 256 L958 256 L958 164 L302 164 L302 57 L991 57 L949 -38 L102 -38 L102 158 L26 158 L3 235 L51 235 L126 352 L3 352 L3 442 L391 442 L391 553 L41 553 L41 643 L391 643 L391 703 L590 703 L590 643 L958 643 L958 553 L590 553 L590 442 L681 442 L713 519 L913 519 Z" /><glyph glyph-name="cid2497" unicode="&#x4e50;" d="M372 -45 L327 38 L401 38 L401 294 L57 294 L57 685 L937 685 L877 591 L232 591 L232 384 L401 384 L401 510 L581 510 L581 384 L948 384 L948 294 L581 294 L581 -45 L372 -45 ZM45 -23 L11 77 L63 77 L103 238 L269 238 L205 -23 L45 -23 ZM794 -23 L729 238 L896 238 L935 77 L988 77 L953 -23 L794 -23 Z" /><glyph glyph-name="cid2498" unicode="&#x96f7;" d="M964 298 L964 -41 L778 -41 L778 90 L593 90 L593 37 L778 37 L706 -41 L37 -41 L37 298 L964 298 ZM3 698 L997 698 L997 615 L593 615 L593 593 L979 593 L979 329 L793 329 L793 520 L593 520 L593 329 L407 329 L407 520 L207 520 L207 329 L22 329 L22 593 L407 593 L407 615 L3 615 L3 698 ZM389 402 L359 328 L219 328 L219 402 L389 402 ZM781 402 L751 328 L611 328 L611 402 L781 402 ZM781 498 L751 426 L611 426 L611 498 L781 498 ZM389 498 L359 426 L219 426 L219 498 L389 498 ZM222 168 L407 168 L407 221 L222 221 L222 168 ZM778 221 L593 221 L593 168 L778 168 L778 221 ZM222 37 L407 37 L407 90 L222 90 L222 37 Z" /><glyph glyph-name="cid2508" unicode="&#x6cea;" d="M801 51 L750 -40 L320 -40 L320 683 L990 683 L990 -40 L801 -40 L801 51 ZM48 -39 L9 49 L52 49 L91 262 L277 262 L220 -39 L48 -39 ZM801 592 L510 592 L510 472 L801 472 L801 592 ZM510 261 L801 261 L801 379 L510 379 L510 261 ZM801 51 L801 167 L510 167 L510 51 L801 51 ZM81 532 L24 699 L210 699 L246 596 L277 596 L245 532 L81 532 ZM81 315 L24 481 L210 481 L246 378 L277 378 L245 315 L81 315 Z" /><glyph glyph-name="cid2517" unicode="&#x72f8;" d="M125 529 L25 679 L185 679 L207 649 L226 697 L365 697 L361 687 L981 687 L981 293 L814 293 L814 441 L755 441 L755 388 L814 388 L786 293 L755 293 L755 225 L974 225 L974 135 L755 135 L755 56 L997 56 L997 -36 L342 -36 L342 56 L584 56 L584 135 L366 135 L366 225 L584 225 L584 293 L358 293 L358 679 L294 518 L294 -40 L89 -40 L51 54 L151 54 L151 160 L2 108 L2 244 L151 297 L151 403 L2 351 L2 485 L125 529 ZM522 532 L584 532 L584 592 L522 592 L522 532 ZM755 592 L755 532 L814 532 L814 592 L755 592 ZM522 388 L584 388 L584 441 L522 441 L522 388 Z" /><glyph glyph-name="cid2521" unicode="&#x674e;" d="M963 371 L963 299 L739 206 L994 206 L994 119 L600 119 L600 -42 L359 -42 L328 35 L434 35 L434 119 L6 119 L6 206 L461 206 L637 284 L51 284 L51 371 L963 371 ZM34 399 L10 473 L49 473 L129 566 L6 566 L6 654 L412 654 L412 703 L585 703 L585 654 L990 654 L990 566 L868 566 L948 473 L987 473 L963 399 L810 399 L663 566 L585 566 L585 386 L412 386 L412 566 L333 566 L187 399 L34 399 Z" /><glyph glyph-name="cid2522" unicode="&#x2fa5;&#x91cc;" d="M399 219 L399 284 L45 284 L45 695 L953 695 L953 284 L754 284 L754 442 L599 442 L599 373 L754 373 L692 284 L599 284 L599 219 L944 219 L944 129 L599 129 L599 55 L996 55 L996 -35 L3 -35 L3 55 L399 55 L399 129 L55 129 L55 219 L399 219 ZM599 605 L599 532 L754 532 L754 605 L599 605 ZM245 532 L399 532 L399 605 L245 605 L245 532 ZM399 373 L399 442 L245 442 L245 373 L399 373 Z" /><glyph glyph-name="cid2525" unicode="&#x8389;" d="M19 517 L574 517 L527 442 L381 442 L381 395 L582 395 L582 318 L381 318 L381 -35 L228 -35 L228 318 L19 318 L19 395 L228 395 L228 442 L19 442 L19 517 ZM866 698 L866 663 L990 663 L990 579 L866 579 L866 543 L684 543 L684 579 L322 579 L322 543 L140 543 L140 579 L10 579 L10 663 L140 663 L140 698 L322 698 L322 663 L684 663 L684 698 L866 698 ZM780 -40 L715 35 L823 35 L823 520 L977 520 L977 -40 L780 -40 ZM619 49 L619 489 L771 489 L771 49 L619 49 ZM422 -21 L422 297 L567 297 L567 -21 L422 -21 ZM31 -21 L31 297 L176 297 L176 -21 L31 -21 Z" /><glyph glyph-name="cid2529" unicode="&#x4e3d;" d="M708 117 L669 369 L669 -39 L517 -39 L517 546 L963 546 L963 -39 L796 -39 L763 29 L811 29 L811 117 L708 117 ZM223 117 L184 375 L184 -39 L33 -39 L33 546 L478 546 L478 -39 L312 -39 L278 29 L327 29 L327 117 L223 117 ZM989 690 L989 597 L11 597 L11 690 L989 690 ZM327 453 L184 453 L184 402 L286 402 L327 136 L327 453 ZM811 453 L669 453 L669 402 L771 402 L811 137 L811 453 Z" /><glyph glyph-name="cid2534" unicode="&#x5229;" d="M192 -42 L192 445 L9 445 L9 532 L192 532 L192 610 L15 610 L15 697 L552 697 L505 610 L375 610 L375 532 L558 532 L558 445 L375 445 L375 -42 L192 -42 ZM774 -42 L742 43 L817 43 L817 702 L991 702 L991 -42 L774 -42 ZM596 76 L596 658 L770 658 L770 76 L596 76 ZM29 -17 L29 404 L150 404 L150 -17 L29 -17 ZM417 -17 L417 404 L538 404 L538 -17 L417 -17 Z" /><glyph glyph-name="cid2543" unicode="&#x2f12;&#x529b;" d="M20 611 L301 611 L333 698 L542 698 L510 611 L981 611 L981 -43 L706 -43 L649 44 L781 44 L781 521 L476 521 L268 -43 L47 -43 L18 44 L91 44 L267 521 L20 521 L20 611 Z" /><glyph glyph-name="cid2547" unicode="&#x8054;" d="M280 -37 L280 39 L8 39 L8 121 L43 121 L43 615 L8 615 L8 697 L462 697 L462 615 L426 615 L426 121 L462 121 L462 39 L426 39 L426 -37 L280 -37 ZM637 366 L637 495 L486 495 L486 580 L971 580 L971 495 L794 495 L794 366 L984 366 L984 281 L820 281 L949 47 L991 47 L968 -31 L831 -31 L739 142 Q716 108 686.5 79 Q657 50 623.5 26.5 Q590 3 555 -13.5 Q520 -30 486 -40 L486 84 Q501 91 525.5 110.5 Q550 130 574 156.5 Q598 183 616.5 215.5 Q635 248 637 281 L479 281 L479 366 L637 366 ZM758 594 L802 698 L958 698 L913 594 L758 594 ZM544 594 L499 698 L654 698 L699 594 L544 594 ZM189 313 L280 313 L280 423 L189 423 L189 313 ZM189 507 L280 507 L280 615 L189 615 L189 507 ZM189 121 L280 121 L280 228 L189 228 L189 121 Z" /><glyph glyph-name="cid2549" unicode="&#x8fde;" d="M421 642 L449 696 L637 696 L608 642 L963 642 L963 551 L561 551 L487 410 L570 410 L570 499 L748 499 L748 410 L969 410 L936 316 L748 316 L748 243 L963 243 L963 152 L748 152 L748 85 L570 85 L570 152 L281 152 L281 243 L570 243 L570 316 L296 316 L296 399 L374 551 L281 551 L281 642 L421 642 ZM6 -29 L6 64 L59 64 L59 441 L6 441 L6 536 L233 536 L233 -29 L6 -29 ZM296 -29 L236 64 L994 64 L934 -29 L296 -29 ZM50 555 L13 700 L182 700 L205 616 L235 616 L221 555 L50 555 Z" /><glyph glyph-name="cid2580" unicode="&#x4e86;" d="M977 665 L977 577 L609 377 L609 -41 L298 -41 L233 49 L424 49 L424 430 L703 572 L22 572 L22 665 L977 665 Z" /><glyph glyph-name="cid2587" unicode="&#x70c8;" d="M24 433 L10 495 L41 495 L96 603 L5 603 L5 684 L577 684 L577 603 L251 603 L223 547 L569 547 Q559 466 533.5 407.5 Q508 349 469.5 308 Q431 267 382.5 241.5 Q334 216 278.5 201 Q223 186 161.5 179.5 Q100 173 37 171 L37 279 Q111 281 172.5 291.5 Q234 302 281.5 324 Q329 346 360.5 381 Q392 416 406 468 L183 468 L166 433 L24 433 ZM656 187 L627 255 L817 255 L817 699 L989 699 L989 187 L656 187 ZM605 293 L605 678 L777 678 L777 293 L605 293 ZM560 -42 L519 155 L691 155 L720 18 L748 18 L727 -42 L560 -42 ZM809 -42 L767 155 L939 155 L968 18 L997 18 L976 -42 L809 -42 ZM23 -42 L2 18 L31 18 L60 155 L232 155 L190 -42 L23 -42 ZM313 -42 L272 155 L444 155 L472 18 L501 18 L480 -42 L313 -42 ZM320 415 L250 324 L41 324 L41 415 L320 415 Z" /><glyph glyph-name="cid2589" unicode="&#x730e;" d="M791 43 L743 -37 L392 -37 L392 339 L974 339 L974 -37 L791 -37 L791 106 L571 106 L571 43 L791 43 ZM138 531 L29 680 L202 680 L225 651 L246 698 L397 698 L320 518 L320 -39 L98 -39 L57 55 L166 55 L166 161 L4 108 L4 245 L166 297 L166 404 L4 351 L4 486 L138 531 ZM460 465 L460 553 L381 553 L381 646 L460 646 L460 703 L630 703 L630 646 L736 646 L736 703 L906 703 L906 646 L985 646 L985 553 L906 553 L906 465 L996 465 L996 372 L370 372 L370 465 L460 465 ZM570 254 L570 195 L791 195 L791 254 L570 254 ZM630 465 L736 465 L736 553 L630 553 L630 465 Z" /><glyph glyph-name="cid2590" unicode="&#x7433;" d="M71 67 L71 304 L12 304 L12 398 L71 398 L71 592 L5 592 L5 686 L275 686 L275 592 L209 592 L209 398 L267 398 L267 304 L209 304 L209 67 L275 67 L275 -28 L5 -28 L5 67 L71 67 ZM288 641 L386 641 L386 697 L533 697 L533 641 L631 641 L631 547 L533 547 L533 -41 L386 -41 L386 547 L288 547 L288 641 ZM652 641 L750 641 L750 697 L897 697 L897 641 L995 641 L995 547 L897 547 L897 -41 L750 -41 L750 547 L652 547 L652 641 ZM927 14 L927 516 L988 516 L988 14 L927 14 ZM658 14 L658 516 L719 516 L719 14 L658 14 ZM563 14 L563 516 L624 516 L624 14 L563 14 ZM294 14 L294 516 L355 516 L355 14 L294 14 Z" /><glyph glyph-name="cid2591" unicode="&#x6797;" d="M667 -43 L667 539 L512 539 L512 630 L667 630 L667 701 L831 701 L831 630 L985 630 L985 539 L831 539 L831 -43 L667 -43 ZM168 -43 L168 539 L14 539 L14 630 L168 630 L168 701 L330 701 L330 630 L484 630 L484 539 L330 539 L330 -43 L168 -43 ZM520 -11 L520 505 L642 505 L642 -11 L520 -11 ZM856 -11 L856 505 L978 505 L978 -11 L856 -11 ZM355 -11 L355 505 L477 505 L477 -11 L355 -11 ZM21 -11 L21 505 L142 505 L142 -11 L21 -11 Z" /><glyph glyph-name="cid2598" unicode="&#x51db;" d="M279 576 L944 576 L944 321 L786 321 L786 512 L434 512 L434 384 L786 384 L758 321 L279 321 L279 576 ZM521 -43 L500 16 L535 16 L535 115 L238 115 L238 199 L985 199 L985 115 L690 115 L690 -43 L521 -43 ZM5 -41 L31 466 L188 466 L162 -41 L5 -41 ZM227 678 L515 678 L515 703 L708 703 L708 678 L996 678 L996 598 L227 598 L227 678 ZM273 300 L950 300 L950 221 L273 221 L273 300 ZM160 691 L178 591 L204 591 L188 533 L31 533 L3 691 L160 691 ZM464 495 L757 495 L757 397 L666 397 L666 460 L557 460 L557 430 L666 430 L650 397 L464 397 L464 495 ZM947 -34 L798 -34 L759 98 L904 98 L931 9 L961 9 L947 -34 ZM262 9 L292 9 L319 98 L464 98 L425 -34 L279 -34 L262 9 Z" /><glyph glyph-name="cid2604" unicode="&#x96f6;" d="M3 698 L997 698 L997 615 L593 615 L593 593 L979 593 L979 371 L793 371 L793 520 L593 520 L593 371 L407 371 L407 520 L207 520 L207 371 L22 371 L22 593 L407 593 L407 615 L3 615 L3 698 ZM700 -29 L667 39 L744 39 L744 101 L505 101 L505 -43 L320 -43 L320 101 L51 101 L51 182 L407 182 L407 234 L593 234 L593 182 L932 182 L932 -29 L700 -29 ZM802 197 L746 277 L294 277 L354 359 L894 359 L958 268 L997 268 L982 197 L802 197 ZM21 197 L6 268 L45 268 L109 359 L315 359 L200 197 L21 197 ZM780 500 L751 449 L611 449 L611 500 L780 500 ZM780 431 L751 380 L611 380 L611 431 L780 431 ZM389 500 L359 449 L220 449 L220 500 L389 500 ZM389 431 L359 380 L220 380 L220 431 L389 431 Z" /><glyph glyph-name="cid2610" unicode="&#x7075;" d="M765 561 L765 597 L47 597 L47 691 L961 691 L961 338 L765 338 L765 468 L61 468 L61 561 L765 561 ZM593 324 L593 251 Q593 214 582 181 L665 181 L919 41 L990 41 L956 -42 L768 -42 L532 102 Q494 63 437.5 36.5 Q381 10 312.5 -7.5 Q244 -25 166.5 -33.5 Q89 -42 10 -45 L10 74 Q102 82 175.5 93.5 Q249 105 300 124.5 Q351 144 378 174.5 Q405 205 405 252 L405 324 L593 324 ZM765 432 L713 338 L47 338 L47 432 L765 432 ZM950 291 L937 132 L759 132 L731 206 L770 206 L778 291 L950 291 ZM245 291 L253 206 L291 206 L264 132 L86 132 L73 291 L245 291 Z" /><glyph glyph-name="cid2627" unicode="&#x9f99;" d="M8 571 L249 571 L294 698 L495 698 L452 571 L987 571 L987 481 L720 481 L720 308 L946 378 L946 239 L720 168 L720 56 L992 56 L929 -34 L520 -34 L520 106 L354 55 L354 195 L520 246 L520 481 L422 481 L247 -42 L38 -42 L10 51 L67 51 L218 481 L8 481 L8 571 ZM905 679 L860 593 L675 593 L675 679 L905 679 Z" /><glyph glyph-name="cid2628" unicode="&#x804b;" d="M80 74 L80 264 L15 264 L15 335 L985 335 L985 264 L920 264 L920 74 L997 74 L997 3 L920 3 L920 -41 L744 -41 L744 3 L3 3 L3 74 L80 74 ZM30 357 L13 431 L70 431 L170 578 L11 578 L11 652 L220 652 L256 704 L446 704 L411 652 L708 652 L692 696 L859 696 L881 652 L971 652 L971 578 L692 578 L692 528 L970 566 L970 475 L692 437 L692 431 L983 431 L923 357 L521 357 L521 414 L346 390 L346 481 L521 505 L521 578 L363 578 L218 357 L30 357 ZM255 237 L744 237 L744 264 L255 264 L255 237 ZM255 74 L744 74 L744 99 L255 99 L255 74 ZM255 156 L744 156 L744 180 L255 180 L255 156 Z" /><glyph glyph-name="cid2632" unicode="&#x9686;" d="M227 311 L165 311 L165 400 L227 400 L227 622 L145 622 L145 -40 L4 -40 L4 700 L368 700 L368 22 L201 22 L165 103 L227 103 L227 311 ZM391 149 L377 193 L406 193 L441 271 L591 271 L577 240 L621 240 L621 273 L777 273 L777 240 L966 240 L966 171 L777 171 L777 136 L971 136 L971 67 L777 67 L777 39 L996 39 L996 -31 L403 -31 L403 39 L621 39 L621 67 L428 67 L428 136 L621 136 L621 171 L546 171 L537 149 L391 149 ZM624 550 Q656 527 697 511 Q736 527 767 547.5 Q798 568 818 594 L581 594 L567 562 L418 562 L399 616 L435 616 L471 698 L627 698 L615 672 L992 672 Q981 605 943.5 555 Q906 505 849 470 Q883 464 918.5 460 Q954 456 992 454 L992 366 Q915 368 840.5 377 Q766 386 697 406 Q629 386 554 377 Q479 368 403 366 L403 454 Q440 456 476 460 Q512 464 546 470 Q493 503 456 550 L624 550 ZM982 287 L416 287 L416 354 L982 354 L982 287 Z" /><glyph glyph-name="cid2643" unicode="&#x5362;" d="M973 520 L973 242 L779 242 L779 431 L243 431 L243 333 L779 333 L738 244 L243 244 L243 -42 L11 -42 L11 67 L56 67 L56 520 L427 520 L427 701 L617 701 L617 661 L986 661 L986 572 L617 572 L617 520 L973 520 Z" /><glyph glyph-name="cid2654" unicode="&#x8def;" d="M16 692 L449 692 L449 404 L346 404 L346 282 L435 282 L435 197 L346 197 L346 40 L457 40 L426 -40 L6 -40 L6 40 L32 40 L32 367 L165 367 L165 40 L199 40 L199 404 L16 404 L16 692 ZM657 560 Q681 513 722 481 Q770 518 796 576 L466 577 L526 701 L691 701 L674 662 L994 662 Q977 582 941.5 521.5 Q906 461 855 416 Q885 408 919.5 401.5 Q954 395 994 391 L994 280 Q916 285 848.5 298.5 Q781 312 722 336 Q664 312 596 298.5 Q528 285 451 280 L451 391 Q491 395 525.5 401.5 Q560 408 590 416 Q557 445 530.5 480.5 Q504 516 485 560 L657 560 ZM484 275 L959 275 L959 -40 L799 -40 L799 185 L644 185 L644 51 L799 51 L761 -40 L484 -40 L484 275 ZM297 622 L162 622 L162 474 L297 474 L297 622 Z" /><glyph glyph-name="cid2659" unicode="&#x5f55;" d="M599 180 L599 -40 L350 -40 L315 48 L399 48 L399 350 L3 350 L3 441 L714 441 L714 475 L93 475 L93 566 L714 566 L714 604 L69 604 L69 695 L906 695 L906 441 L997 441 L997 350 L599 350 L599 283 L685 283 L726 243 L786 320 L973 320 L866 171 L802 171 L941 38 L981 38 L953 -29 L806 -29 L599 180 ZM187 -29 L40 -29 L11 38 L51 38 L137 144 L324 144 L187 -29 ZM55 327 L242 327 L305 245 L328 245 L300 178 L162 178 L55 327 Z" /><glyph glyph-name="cid2675" unicode="&#x7eff;" d="M587 -39 L558 25 L596 25 L596 371 L371 371 L371 456 L778 456 L778 491 L386 491 L386 576 L778 576 L778 610 L386 610 L386 695 L938 695 L938 456 L981 456 L981 371 L756 371 L756 -39 L587 -39 ZM200 212 L331 212 L331 121 L4 121 L4 194 L157 408 L17 408 L17 481 L175 698 L355 698 L213 499 L337 499 L337 408 L200 212 ZM343 61 L298 -31 L4 -31 L4 61 L343 61 ZM588 160 L516 -18 L374 -18 L349 49 L388 49 L440 160 L588 160 ZM912 160 L956 49 L995 49 L970 -18 L828 -18 L764 160 L912 160 ZM523 350 L559 242 L588 242 L573 175 L431 175 L376 350 L523 350 ZM969 350 L921 175 L779 175 L764 242 L793 242 L822 350 L969 350 Z" /><glyph glyph-name="cid2686" unicode="&#x4f26;" d="M328 -42 L328 388 L492 388 L492 284 L934 354 L934 237 L492 168 L492 59 L995 59 L956 -42 L328 -42 ZM81 -42 L81 383 L33 383 L4 495 L52 495 L173 704 L354 704 L216 455 L241 455 L241 -42 L81 -42 ZM882 694 L995 405 L817 405 L744 596 L545 596 L579 694 L882 694 ZM264 405 L387 694 L556 694 L444 405 L264 405 Z" /><glyph glyph-name="cid2691" unicode="&#x841d;" d="M45 147 L9 224 L64 224 L156 310 L48 310 L48 535 L960 535 L960 310 L765 310 L765 466 L686 466 L686 379 L765 379 L721 310 L380 310 L342 274 L950 274 Q936 196 897 142 Q858 88 797.5 53 Q737 18 656.5 -1.5 Q576 -21 479.5 -30 Q383 -39 272 -40 Q161 -41 40 -40 L40 63 Q95 61 155.5 60 Q216 59 278 61 L234 157 L427 157 L474 75 Q521 81 563 90.5 Q605 100 639 113.5 Q673 127 698 145.5 Q723 164 737 188 L250 188 L206 147 L45 147 ZM858 703 L858 667 L991 667 L991 583 L858 583 L858 547 L676 547 L676 583 L326 583 L326 547 L144 547 L144 583 L11 583 L11 667 L144 667 L144 703 L326 703 L326 667 L676 667 L676 703 L858 703 ZM242 379 L321 379 L321 466 L242 466 L242 379 ZM465 379 L543 379 L543 466 L465 466 L465 379 Z" /><glyph glyph-name="cid2700" unicode="&#x6d1b;" d="M550 558 Q592 511 651 482 Q716 515 764 572 L327 572 L327 665 L374 704 L575 704 L537 665 L992 665 Q969 586 931 528.5 Q893 471 839 429 Q874 424 913 421 Q952 418 995 416 L995 297 Q896 299 810 308 Q724 317 650 338 Q576 318 490 308.5 Q404 299 307 297 L307 416 Q392 419 462 428 Q429 454 401.5 486 Q374 518 353 558 L550 558 ZM790 52 L739 -36 L327 -36 L327 268 L985 268 L985 -36 L790 -36 L790 176 L522 176 L522 52 L790 52 ZM45 -39 L5 49 L50 49 L90 262 L283 262 L224 -39 L45 -39 ZM80 532 L20 699 L213 699 L251 596 L283 596 L249 532 L80 532 ZM80 315 L20 481 L213 481 L251 378 L283 378 L249 315 L80 315 Z" /><glyph glyph-name="cid2704" unicode="&#x2fc7;&#x9ebb;" d="M642 702 L642 659 L997 659 L997 571 L206 571 L206 -43 L2 -43 L2 59 L31 59 L31 659 L442 659 L442 702 L642 702 ZM344 499 L344 552 L493 552 L493 499 L601 499 L601 432 L493 432 L493 -39 L344 -39 L344 432 L235 432 L235 499 L344 499 ZM879 552 L879 499 L988 499 L988 432 L879 432 L879 -39 L730 -39 L730 432 L622 432 L622 499 L730 499 L730 552 L879 552 ZM322 378 L322 -26 L235 -26 L235 378 L322 378 ZM988 378 L988 -26 L901 -26 L901 378 L988 378 ZM601 378 L601 -26 L515 -26 L515 378 L601 378 ZM708 378 L708 -26 L622 -26 L622 378 L708 378 Z" /><glyph glyph-name="cid2705" unicode="&#x739b;" d="M982 -41 L581 -41 L557 45 L795 45 L795 279 L423 279 L474 571 L662 571 L628 370 L721 370 L760 606 L418 606 L418 698 L965 698 L915 370 L982 370 L982 -41 ZM108 66 L108 304 L27 304 L27 398 L108 398 L108 591 L17 591 L17 685 L391 685 L391 591 L300 591 L300 398 L381 398 L381 304 L300 304 L300 66 L391 66 L391 -27 L17 -27 L17 66 L108 66 ZM779 106 L398 106 L398 204 L779 204 L779 106 Z" /><glyph glyph-name="cid2709" unicode="&#x9a82;" d="M980 -41 L664 -41 L617 41 L785 41 L785 188 L32 188 L82 340 L281 340 L263 281 L698 281 L727 362 L26 362 L26 454 L956 454 L899 281 L980 281 L980 -41 ZM800 558 L759 484 L508 484 L508 691 L955 691 L955 484 L800 484 L800 617 L663 617 L663 558 L800 558 ZM330 558 L289 484 L38 484 L38 691 L485 691 L485 484 L330 484 L330 617 L193 617 L193 558 L330 558 ZM706 59 L19 59 L19 149 L706 149 L706 59 Z" /><glyph glyph-name="cid2720" unicode="&#x86ee;" d="M399 49 L399 89 L33 89 L33 311 L399 311 L399 337 L599 337 L599 311 L965 311 L965 89 L766 89 L766 225 L599 225 L599 175 L766 175 L708 89 L599 89 L599 49 L772 49 L765 72 L964 72 L997 -40 L799 -40 L773 44 L751 -40 L2 -40 L2 49 L399 49 ZM272 352 L272 569 L2 569 L2 657 L399 657 L399 701 L599 701 L599 657 L996 657 L996 569 L726 569 L726 352 L526 352 L526 569 L472 569 L472 352 L272 352 ZM29 353 L12 425 L50 425 L71 543 L242 543 L209 353 L29 353 ZM790 353 L757 543 L927 543 L949 425 L986 425 L969 353 L790 353 ZM233 175 L399 175 L399 225 L233 225 L233 175 Z" /><glyph glyph-name="cid2745" unicode="&#x4e48;" d="M56 -34 L56 55 L665 623 L884 623 L284 63 L767 63 L704 -34 L56 -34 ZM387 702 L588 702 L176 332 L49 332 L1 409 L58 409 L387 702 ZM824 -37 L673 275 L847 275 L998 -37 L824 -37 Z" /><glyph glyph-name="cid2752" unicode="&#x6ca1;" d="M514 273 Q540 246 569.5 222 Q599 198 637 177 Q728 226 785 295 L316 295 L316 390 L974 390 L974 295 Q906 190 795 114 Q834 103 878.5 94 Q923 85 974 78 L974 -38 Q877 -31 794.5 -12.5 Q712 6 641 34 Q569 6 485 -12 Q401 -30 303 -38 L303 78 Q403 94 483 117 Q385 185 322 273 L514 273 ZM536 420 L299 420 L299 524 L348 524 L348 696 L936 696 L936 524 L997 524 L973 420 L747 420 L747 610 L536 610 L536 420 ZM36 -37 L2 51 L46 51 L86 264 L280 264 L220 -37 L36 -37 ZM76 316 L17 483 L210 483 L247 380 L280 380 L258 316 L76 316 ZM76 534 L17 701 L210 701 L247 598 L280 598 L255 534 L76 534 Z" /><glyph glyph-name="cid2757" unicode="&#x7f8e;" d="M145 639 L105 693 L304 693 L345 639 L654 639 L695 693 L894 693 L853 639 L986 639 L986 549 L596 549 L596 513 L969 513 L969 423 L596 423 L596 390 L996 390 L996 300 L3 300 L3 390 L396 390 L396 423 L30 423 L30 513 L396 513 L396 549 L13 549 L13 639 L145 639 ZM3 78 Q141 85 223 101.5 Q305 118 347 150 L16 150 L16 240 L395 240 Q396 245 396 255 L396 285 L596 285 L596 253 Q596 249 595.5 246 Q595 243 595 240 L983 240 L983 150 L652 150 Q694 119 776 102 Q858 85 996 78 L996 -42 Q824 -39 699 -12 Q574 15 499 69 Q425 15 300 -11.5 Q175 -38 3 -42 L3 78 Z" /><glyph glyph-name="cid2764" unicode="&#x4eec;" d="M745 49 L840 49 L840 591 L538 591 L538 687 L989 687 L989 -44 L772 -44 L745 49 ZM83 -44 L83 381 L38 381 L11 493 L56 493 L168 702 L336 702 L208 453 L231 453 L231 -44 L83 -44 ZM506 539 L506 -44 L357 -44 L357 539 L506 539 ZM474 691 L488 626 L524 626 L502 564 L360 564 L336 691 L474 691 Z" /><glyph glyph-name="cid2768" unicode="&#x76df;" d="M42 48 L42 251 L958 251 L958 48 L997 48 L997 -41 L2 -41 L2 48 L42 48 ZM651 276 L476 276 L476 349 L491 349 L491 684 L953 684 L953 276 L780 276 L754 349 L793 349 L793 388 L651 388 L651 276 ZM43 276 L43 682 L457 682 L457 276 L296 276 L296 438 L201 438 L201 357 L296 357 L261 276 L43 276 ZM458 48 L542 48 L542 170 L458 170 L458 48 ZM208 48 L292 48 L292 170 L208 170 L208 48 ZM708 170 L708 48 L791 48 L791 170 L708 170 ZM201 519 L296 519 L296 601 L201 601 L201 519 ZM651 454 L793 454 L793 505 L651 505 L651 454 ZM793 617 L651 617 L651 570 L793 570 L793 617 Z" /><glyph glyph-name="cid2771" unicode="&#x68a6;" d="M42 128 L18 204 L57 204 L145 292 L356 292 L324 258 L982 258 L982 147 Q951 120 918.5 94 Q886 68 840 45.5 Q794 23 729 4.5 Q664 -14 568.5 -26 Q473 -38 342 -43 Q211 -48 33 -44 L33 72 Q101 70 166.5 69 Q232 68 295 70 L237 143 L432 143 L480 81 Q568 92 646 113 Q724 134 791 172 L242 172 L201 128 L42 128 ZM148 648 L148 700 L342 700 L342 648 L488 648 L488 562 L342 562 L342 312 L148 312 L148 562 L2 562 L2 648 L148 648 ZM657 648 L657 700 L851 700 L851 648 L997 648 L997 562 L851 562 L851 312 L657 312 L657 562 L511 562 L511 648 L657 648 ZM518 312 L518 540 L629 540 L629 312 L518 312 ZM879 312 L879 540 L990 540 L990 312 L879 312 ZM9 312 L9 540 L120 540 L120 312 L9 312 ZM370 312 L370 540 L481 540 L481 312 L370 312 Z" /><glyph glyph-name="cid2786" unicode="&#x5e42;" d="M749 421 L725 349 L416 349 Q410 336 403 327 L998 327 L998 235 L908 235 Q928 229 950 223.5 Q972 218 998 213 L998 106 Q973 109 950.5 112 Q928 115 908 119 L908 -29 L706 -29 L683 31 L726 31 L726 79 L591 79 L591 -44 L409 -44 L409 79 L276 79 L276 -29 L91 -29 L91 119 Q70 115 47.5 112 Q25 109 1 106 L1 213 Q27 218 48.5 223.5 Q70 229 90 235 L1 235 L1 327 L234 327 Q238 332 242 337.5 Q246 343 249 349 L101 349 L101 565 L2 565 L2 697 L997 697 L997 565 L898 565 L898 349 L749 349 L749 434 L254 434 L254 421 L749 421 ZM409 215 L591 215 L591 169 L756 169 Q706 194 665 235 L333 235 Q313 215 291 198.5 Q269 182 243 169 L409 169 L409 215 ZM818 608 L176 608 L176 592 L818 592 L818 608 ZM749 520 L254 520 L254 507 L749 507 L749 520 Z" /><glyph glyph-name="cid2791" unicode="&#x514d;" d="M740 197 L740 400 L614 400 L614 368 Q614 345 612.5 324.5 Q611 304 609 285 L740 285 L682 197 L588 197 Q567 138 531 97.5 Q495 57 449.5 30.5 Q404 4 350.5 -10 Q297 -24 240.5 -30.5 Q184 -37 126.5 -38.5 Q69 -40 16 -41 L16 89 Q76 90 131 94 Q186 98 232.5 109 Q279 120 316 141 Q353 162 377 197 L90 197 L90 439 L37 439 L13 511 L45 511 L186 703 L405 703 L367 650 L936 650 L936 559 L882 491 L940 491 L940 197 L740 197 ZM779 167 L779 59 L986 59 L941 -40 L581 -40 L581 167 L779 167 ZM724 563 L305 563 L254 491 L666 491 L724 563 ZM290 285 L412 285 Q418 315 418 352 L418 400 L290 400 L290 285 Z" /><glyph glyph-name="cid2795" unicode="&#x2faf;&#x9762;" d="M2 693 L998 693 L998 603 L552 603 L519 540 L972 540 L972 -42 L28 -42 L28 540 L304 540 L337 603 L2 603 L2 693 ZM269 48 L269 450 L228 450 L228 48 L269 48 ZM731 450 L731 48 L772 48 L772 450 L731 450 ZM448 212 L552 212 L552 287 L448 287 L448 212 ZM448 48 L552 48 L552 122 L448 122 L448 48 ZM448 377 L552 377 L552 450 L448 450 L448 377 Z" /><glyph glyph-name="cid2800" unicode="&#x79d2;" d="M132 -38 L132 451 L2 451 L2 539 L132 539 L132 611 L5 611 L5 693 L437 693 L389 611 L310 611 L310 539 L441 539 L441 451 L310 451 L310 -38 L132 -38 ZM652 167 L652 703 L803 703 L803 167 L652 167 ZM998 186 Q963 121 916 77 Q869 33 805 6 Q741 -21 656.5 -32 Q572 -43 463 -43 L463 55 Q539 56 599 63.5 Q659 71 705.5 87 Q752 103 787 127 Q822 151 849 186 L998 186 ZM471 210 L459 286 L483 286 L513 660 L636 660 L601 210 L471 210 ZM855 210 L820 660 L942 660 L973 286 L997 286 L984 210 L855 210 ZM343 -38 L343 419 L437 419 L437 -38 L343 -38 ZM5 -38 L5 419 L99 419 L99 -38 L5 -38 Z" /><glyph glyph-name="cid2805" unicode="&#x706d;" d="M598 552 L598 383 Q598 343 590 307.5 Q582 272 567 240 L656 240 L914 39 L991 39 L966 -44 L773 -44 L517 163 Q479 118 426 83 Q373 48 307.5 22.5 Q242 -3 166.5 -19.5 Q91 -36 9 -44 L9 92 Q211 118 306.5 191.5 Q402 265 402 385 L402 552 L598 552 ZM994 671 L994 577 L5 577 L5 671 L994 671 ZM942 481 L920 207 L726 207 L690 291 L737 291 L756 481 L942 481 ZM243 481 L262 291 L308 291 L273 207 L79 207 L57 481 L243 481 Z" /><glyph glyph-name="cid2812" unicode="&#x660e;" d="M665 -43 L469 -43 L469 54 L492 54 L492 692 L992 692 L992 -43 L813 -43 L777 54 L819 54 L819 179 L665 179 L665 -43 ZM8 -43 L8 689 L456 689 L456 -43 L282 -43 L282 278 L182 278 L182 49 L282 49 L240 -43 L8 -43 ZM182 369 L282 369 L282 597 L182 597 L182 369 ZM665 270 L819 270 L819 392 L665 392 L665 270 ZM819 602 L665 602 L665 483 L819 483 L819 602 Z" /><glyph glyph-name="cid2816" unicode="&#x540d;" d="M365 705 L326 668 L997 668 L997 542 Q958 501 918.5 464.5 Q879 428 833 398 Q787 368 732 344 Q677 320 607 303.5 Q537 287 448.5 278 Q360 269 249 269 L9 269 L9 380 L236 380 Q372 380 461.5 392.5 Q551 405 614 429.5 Q677 454 724.5 490 Q772 526 823 573 L225 573 L177 527 L23 527 L0 617 L46 617 L146 705 L365 705 ZM976 -38 L783 -38 L783 155 L199 155 L199 55 L783 55 L728 -38 L7 -38 L7 248 L976 248 L976 -38 ZM18 504 L552 504 L450 404 L18 404 L18 504 Z" /><glyph glyph-name="cid2817" unicode="&#x547d;" d="M781 374 L756 443 L756 392 L241 392 L241 437 L218 374 L34 374 L7 455 L51 455 L143 690 L333 690 L256 480 L742 480 L699 601 L332 601 L363 690 L856 690 L948 455 L992 455 L965 374 L781 374 ZM954 9 L770 9 L725 88 L792 88 L792 269 L671 269 L671 -47 L509 -47 L509 349 L954 349 L954 9 ZM32 349 L467 349 L467 5 L306 5 L306 273 L194 273 L194 76 L306 76 L259 5 L32 5 L32 349 Z" /><glyph glyph-name="cid2826" unicode="&#x9b54;" d="M479 356 L463 328 L973 328 L973 115 L829 115 L829 192 L666 192 Q666 187 665.5 182.5 Q665 178 665 173 L829 173 L786 115 L650 115 Q643 97 630 80 L724 80 L724 18 L993 18 L960 -43 L577 -43 L577 29 Q527 -4 448.5 -23.5 Q370 -43 258 -43 L232 -43 L232 47 L258 47 Q333 47 394 63.5 Q455 80 489 115 L233 115 L233 328 L313 328 L329 356 L479 356 ZM6 -43 L6 53 L36 53 L36 665 L457 665 L457 698 L623 698 L623 665 L994 665 L994 584 L188 584 L188 -43 L6 -43 ZM980 482 L867 482 L867 365 L724 365 L724 482 L611 482 L611 545 L724 545 L724 572 L867 572 L867 545 L980 545 L980 482 ZM578 482 L465 482 L465 365 L322 365 L322 482 L209 482 L209 545 L322 545 L322 572 L465 572 L465 545 L578 545 L578 482 ZM984 26 L905 26 L889 56 L873 26 L747 26 L747 56 L789 106 L873 106 L835 56 L889 56 L876 80 L955 80 L984 26 ZM568 365 L490 365 L490 462 L568 462 L568 365 ZM699 365 L621 365 L621 462 L699 462 L699 365 ZM297 365 L220 365 L220 462 L297 462 L297 365 ZM969 365 L892 365 L892 462 L969 462 L969 365 ZM829 269 L666 269 L666 251 L829 251 L829 269 ZM376 192 L376 173 L521 173 Q522 178 522.5 182.5 Q523 187 523 192 L376 192 ZM376 251 L523 251 L523 269 L376 269 L376 251 Z" /><glyph glyph-name="cid2833" unicode="&#x6f20;" d="M552 200 L552 229 L301 229 L301 517 L985 517 L985 229 L808 229 L808 332 L473 332 L473 303 L808 303 L767 229 L726 229 L726 200 L992 200 L992 107 L844 107 L938 32 L992 32 L967 -40 L804 -40 L682 70 Q653 40 609.5 19.5 Q566 -1 513.5 -14.5 Q461 -28 403.5 -34 Q346 -40 290 -40 L290 71 Q358 73 412 81 Q466 89 501 107 L294 107 L294 200 L552 200 ZM924 701 L924 665 L992 665 L992 572 L924 572 L924 533 L740 533 L740 572 L546 572 L546 533 L362 533 L362 572 L294 572 L294 665 L362 665 L362 701 L546 701 L546 665 L740 665 L740 701 L924 701 ZM36 -35 L7 53 L50 53 L89 266 L276 266 L218 -35 L36 -35 ZM79 527 L22 694 L208 694 L244 591 L276 591 L243 527 L79 527 ZM79 311 L22 478 L208 478 L244 374 L276 374 L243 311 L79 311 ZM473 410 L808 410 L808 439 L473 439 L473 410 Z" /><glyph glyph-name="cid2849" unicode="&#x2f4a;&#x6728;" d="M20 -14 L5 59 L37 59 L147 540 L6 540 L6 632 L410 632 L410 700 L589 700 L589 632 L993 632 L993 540 L851 540 L962 59 L994 59 L979 -14 L805 -14 L678 540 L589 540 L589 -44 L410 -44 L410 540 L320 540 L194 -14 L20 -14 Z" /><glyph glyph-name="cid2850" unicode="&#x2f6c;&#x76ee;" d="M756 65 L690 -32 L44 -32 L44 685 L956 685 L956 -32 L756 -32 L756 65 ZM243 269 L756 269 L756 385 L243 385 L243 269 ZM756 65 L756 173 L243 173 L243 65 L756 65 ZM756 589 L243 589 L243 481 L756 481 L756 589 Z" /><glyph glyph-name="cid2852" unicode="&#x7267;" d="M464 448 L446 521 L478 521 L549 697 L720 697 L683 604 L993 604 L993 516 L964 516 Q947 408 914.5 322 Q882 236 827 167 Q885 124 970 85 L970 -46 Q819 -1 721 68 Q672 33 610.5 5 Q549 -23 473 -46 L473 85 Q558 124 616 167 Q573 220 544.5 283 Q516 346 498 421 L659 421 Q683 336 721 278 Q751 325 771.5 382.5 Q792 440 807 516 L649 516 L622 448 L464 448 ZM196 556 L196 700 L365 700 L364 556 L421 556 L421 465 L364 465 L364 301 L431 319 L431 214 L364 196 L364 -41 L196 -41 L196 150 L6 99 L6 203 L196 255 L196 465 L6 465 L25 650 L175 650 L164 556 L196 556 Z" /><glyph glyph-name="cid2855" unicode="&#x54ea;" d="M358 14 Q358 104 361 196 L334 196 L334 275 L363 275 L369 409 L334 409 L334 488 L372 488 Q375 552 375 611 L334 611 L334 689 L653 689 L653 -47 L511 -47 L492 14 L523 14 L523 196 L488 196 L480 -47 L347 -47 L328 14 L358 14 ZM685 -47 Q685 40 684.5 133.5 Q684 227 684 321.5 Q684 416 684 509.5 Q684 603 685 690 L983 690 L983 32 L845 32 L827 94 L857 94 L857 319 L823 319 L823 398 L857 398 L857 611 L811 611 L811 -47 L685 -47 ZM143 84 L181 84 L155 5 L16 5 L16 674 L308 674 L308 5 L181 5 L181 596 L143 596 L143 84 ZM490 275 L523 275 L523 409 L495 409 L490 275 ZM502 611 L497 488 L523 488 L523 611 L502 611 Z" /><glyph glyph-name="cid2858" unicode="&#x90a3;" d="M90 474 L101 604 L20 604 L20 692 L514 692 L514 -43 L315 -43 L287 24 L346 24 L346 172 L233 172 L216 -43 L34 -43 L14 24 L52 24 L64 172 L17 172 L17 260 L72 260 L83 387 L17 387 L17 474 L90 474 ZM813 304 L751 304 L751 393 L813 393 L813 618 L730 618 L730 -42 L558 -42 L558 695 L985 695 L985 19 L787 19 L757 99 L813 99 L813 304 ZM240 260 L346 260 L346 387 L250 387 L240 260 ZM267 604 L257 474 L346 474 L346 604 L267 604 Z" /><glyph glyph-name="cid2859" unicode="&#x5a1c;" d="M347 -44 L336 8 L374 8 L378 204 L341 204 L341 271 L379 271 L382 416 L341 416 L341 483 L384 483 L386 632 L341 632 L341 695 L667 695 L667 -42 L537 -42 L521 8 L542 8 L542 204 L498 204 L493 -44 L347 -44 ZM860 386 L860 629 L815 629 L815 -44 L696 -44 L696 698 L989 698 L989 17 L838 17 L824 68 L860 68 L860 315 L825 315 L825 386 L860 386 ZM321 -39 Q280 -27 243 -11 Q206 5 174 28 Q142 5 105 -11 Q68 -27 28 -39 L28 51 Q44 58 63 69.5 Q82 81 102 98 Q73 136 57 185.5 Q41 235 41 298 L41 520 L10 520 L10 594 L41 594 L41 700 L153 700 L153 594 L196 594 L196 700 L308 700 L308 594 L339 594 L339 520 L308 520 L308 298 Q308 235 292 185.5 Q276 136 247 98 Q267 81 286 69.5 Q305 58 321 51 L321 -39 ZM196 520 L153 520 L153 271 Q153 248 158.5 227.5 Q164 207 174 187 Q196 228 196 271 L196 520 ZM500 271 L542 271 L542 416 L503 416 L500 271 ZM542 632 L507 632 L504 483 L542 483 L542 632 Z" /><glyph glyph-name="cid2862" unicode="&#x4e43;" d="M53 -36 L19 63 L80 63 L208 590 L44 590 L44 684 L981 684 L981 599 L719 385 L979 385 L979 -36 L675 -36 L613 60 L800 60 L800 292 L520 292 L520 387 L758 590 L384 590 L231 -36 L53 -36 Z" /><glyph glyph-name="cid2863" unicode="&#x5976;" d="M999 698 L999 601 L888 398 L999 398 L999 -41 L791 -41 L752 41 L840 41 L840 312 L707 312 L707 394 L822 601 L700 601 L643 -41 L462 -41 L449 41 L487 41 L538 601 L469 601 L469 698 L999 698 ZM436 -41 Q379 -29 327.5 -12.5 Q276 4 231 27 Q186 4 134.5 -12.5 Q83 -29 26 -41 L26 68 Q46 74 70.5 83.5 Q95 93 121 106 Q85 144 65 191 Q45 238 45 298 L45 505 L1 505 L1 599 L45 599 L45 701 L201 701 L201 599 L261 599 L261 701 L417 701 L417 599 L461 599 L461 505 L417 505 L417 298 Q417 238 397 191 Q377 144 341 106 Q366 93 390.5 83.5 Q415 74 436 68 L436 -41 ZM261 505 L201 505 L201 270 Q201 226 231 190 Q245 207 253 227 Q261 247 261 270 L261 505 Z" /><glyph glyph-name="cid2875" unicode="&#x5462;" d="M161 63 L230 63 L197 -42 L15 -42 L15 689 L376 689 L376 -42 L230 -42 L230 585 L161 585 L161 63 ZM831 518 L778 429 L595 429 L595 -46 L407 -46 L407 59 L434 59 L434 691 L982 691 L982 429 L831 429 L831 604 L595 604 L595 518 L831 518 ZM798 370 L798 288 L984 306 L984 212 L798 193 L798 39 L984 39 L949 -46 L633 -46 L633 370 L798 370 Z" /><glyph glyph-name="cid2877" unicode="&#x5185;" d="M580 596 L975 596 L975 -40 L759 -40 L720 52 L783 52 L783 496 L552 496 L531 421 L654 421 L711 184 L760 184 L737 76 L565 76 L502 318 L434 76 L262 76 L239 184 L288 184 L374 496 L213 496 L213 -40 L24 -40 L24 596 L401 596 L430 700 L610 700 L580 596 Z" /><glyph glyph-name="cid2880" unicode="&#x59ae;" d="M426 -42 Q371 -31 320.5 -14.5 Q270 2 226 25 Q182 2 132 -14.5 Q82 -31 27 -42 L27 67 Q47 73 71 82 Q95 91 119 104 Q84 142 64.5 188.5 Q45 235 45 295 L45 502 L3 502 L3 595 L45 595 L45 697 L197 697 L197 595 L256 595 L256 697 L408 697 L408 595 L450 595 L450 502 L408 502 L408 295 Q408 235 388 188.5 Q368 142 333 104 Q358 91 382 82 Q406 73 426 67 L426 -42 ZM804 503 L780 410 L648 410 L648 -43 L436 -43 L436 55 L474 55 L474 702 L974 702 L974 410 L806 410 L806 606 L648 606 L648 503 L804 503 ZM984 317 L984 210 L849 160 L849 52 L997 52 L946 -42 L679 -42 L679 369 L849 369 L849 266 L984 317 ZM256 502 L197 502 L197 268 Q197 245 204.5 225 Q212 205 226 188 Q240 205 248 225 Q256 245 256 268 L256 502 Z" /><glyph glyph-name="cid2886" unicode="&#x4f60;" d="M82 -43 L82 382 L34 382 L5 493 L53 493 L173 702 L355 702 L216 453 L242 453 L242 -43 L82 -43 ZM313 450 L286 527 L329 527 L419 699 L598 699 L574 654 L984 654 L984 434 L816 434 L816 561 L525 561 L466 450 L313 450 ZM532 -41 L496 46 L549 46 L549 510 L729 510 L729 -41 L532 -41 ZM312 11 L278 89 L321 89 L345 391 L510 391 L480 11 L312 11 ZM793 11 L763 391 L927 391 L951 89 L994 89 L960 11 L793 11 Z" /><glyph glyph-name="cid2893" unicode="&#x5e74;" d="M116 432 L467 432 L467 562 L261 562 L204 471 L48 471 L10 565 L51 565 L142 701 L349 701 L319 654 L986 654 L986 562 L667 562 L667 432 L953 432 L953 341 L667 341 L667 181 L998 181 L998 90 L667 90 L667 -44 L467 -44 L467 90 L2 90 L2 181 L116 181 L116 432 ZM316 181 L467 181 L467 341 L316 341 L316 181 Z" /><glyph glyph-name="cid2900" unicode="&#x9e1f;" d="M279 314 L988 314 L988 -41 L691 -41 L644 44 L787 44 L787 217 L79 217 L79 649 L168 649 L195 700 L405 700 L377 649 L909 649 L909 351 L679 351 L648 434 L709 434 L709 562 L279 562 L279 314 ZM647 76 L11 76 L11 171 L722 171 L647 76 ZM418 372 L377 526 L554 526 L580 433 L616 433 L590 372 L418 372 Z" /><glyph glyph-name="cid2909" unicode="&#x60a8;" d="M84 253 L84 463 L39 463 L6 550 L43 550 L120 701 L294 701 L205 507 L244 507 L244 253 L84 253 ZM977 657 L977 516 L814 516 L814 564 L286 564 L345 701 L516 701 L499 657 L977 657 ZM752 36 L707 -45 L251 -45 L251 229 L436 229 L436 36 L752 36 ZM696 547 L696 242 L511 242 L485 321 L533 321 L533 547 L696 547 ZM801 -43 L705 222 L880 222 L951 14 L987 14 L965 -43 L801 -43 ZM29 -46 L12 32 L44 32 L62 215 L223 215 L198 -46 L29 -46 ZM893 497 L917 344 L958 344 L939 277 L780 277 L748 497 L893 497 ZM485 497 L453 277 L294 277 L275 344 L316 344 L340 497 L485 497 ZM521 71 L466 222 L632 222 L670 127 L715 127 L692 71 L521 71 Z" /><glyph glyph-name="cid2918" unicode="&#x94ae;" d="M498 369 L513 598 L420 598 L420 679 L942 679 L942 45 L998 45 L998 -39 L387 -39 L387 45 L476 45 L492 285 L408 285 L408 369 L498 369 ZM364 202 L256 202 L256 33 L374 33 L331 -37 L93 -37 L93 202 L1 202 L1 292 L93 292 L93 405 L1 405 L1 495 L364 495 L364 405 L256 405 L256 292 L364 292 L364 202 ZM64 698 L245 698 L216 633 L364 633 L364 547 L1 547 L64 698 ZM639 45 L772 45 L772 285 L655 285 L639 45 ZM676 598 L661 369 L772 369 L772 598 L676 598 Z" /><glyph glyph-name="cid2927" unicode="&#x2f25;&#x5973;" d="M999 -40 Q849 -39 725 -22 Q601 -5 500 27 Q399 -5 274.5 -22 Q150 -39 1 -40 L1 88 Q171 91 300 118 Q195 184 142.5 272 Q90 360 90 463 L90 511 L1 511 L1 601 L90 601 L90 701 L266 701 L266 601 L733 601 L733 701 L910 701 L910 601 L999 601 L999 511 L910 511 L910 463 Q910 360 857.5 272 Q805 184 700 118 Q829 91 999 88 L999 -40 ZM733 511 L266 511 L266 490 Q266 396 322 316 Q378 236 499 180 Q620 236 676.5 316 Q733 396 733 490 L733 511 Z" /><glyph glyph-name="cid2934" unicode="&#x8bfa;" d="M803 54 L763 -36 L402 -36 L402 172 L318 172 L292 268 L344 268 L397 349 L322 349 L322 442 L459 442 L493 494 L702 494 L667 442 L983 442 L983 349 L606 349 L558 277 L979 277 L979 -36 L803 -36 L803 182 L579 182 L579 54 L803 54 ZM82 -42 L82 399 L4 399 L4 498 L263 498 L263 52 L326 52 L296 -42 L82 -42 ZM408 509 L408 555 L310 555 L310 648 L408 648 L408 699 L586 699 L586 648 L718 648 L718 699 L896 699 L896 648 L995 648 L995 555 L896 555 L896 509 L718 509 L718 555 L586 555 L586 509 L408 509 ZM66 525 L23 700 L199 700 L222 608 L271 608 L254 525 L66 525 Z" /><glyph glyph-name="cid2935" unicode="&#x54e6;" d="M779 -46 L758 138 L654 102 L654 224 L744 256 L724 432 L598 432 L598 338 L650 353 L650 246 L598 231 L598 -46 L413 -46 L383 27 L439 27 L439 186 L353 162 L353 269 L439 293 L439 432 L353 432 L353 521 L439 521 L439 605 L377 605 L377 693 L673 693 L647 605 L598 605 L598 521 L714 521 L694 695 L845 695 L865 521 L991 521 L991 432 L876 432 L890 307 L991 343 L991 221 L904 190 L923 27 L978 27 L955 -46 L779 -46 ZM151 47 L190 47 L162 -37 L9 -37 L9 672 L333 672 L333 -37 L190 -37 L190 590 L151 590 L151 47 ZM885 666 L971 666 L986 548 L885 548 L885 666 Z" /><glyph glyph-name="cid2940" unicode="&#x5455;" d="M820 98 L769 186 L718 98 L557 98 L557 44 L991 44 L958 -46 L393 -46 L393 689 L991 689 L991 599 L557 599 L557 556 L712 556 L769 459 L826 556 L983 556 L849 324 L983 98 L820 98 ZM160 46 L214 46 L183 -39 L9 -39 L9 671 L365 671 L365 -39 L214 -39 L214 588 L160 588 L160 46 ZM557 554 L557 99 L689 324 L557 554 Z" /><glyph glyph-name="cid2950" unicode="&#x6392;" d="M324 614 L324 521 L249 521 L249 384 L324 402 L324 298 L249 279 L249 -43 L54 -43 L18 44 L78 44 L78 238 L-5 218 L-5 323 L78 343 L78 521 L-5 521 L-5 614 L78 614 L78 698 L249 698 L249 614 L324 614 ZM703 -43 L703 695 L855 695 L855 621 L1005 621 L1005 537 L855 537 L855 392 L1005 392 L1005 308 L855 308 L855 165 L1005 165 L1005 81 L855 81 L855 -43 L703 -43 ZM470 -43 L470 81 L359 81 L359 165 L470 165 L470 308 L359 308 L359 392 L470 392 L470 537 L359 537 L359 621 L470 621 L470 695 L622 695 L622 -43 L470 -43 Z" /><glyph glyph-name="cid2961" unicode="&#x5224;" d="M7 263 L220 263 Q220 271 220.5 279 Q221 287 221 296 L221 329 L14 329 L14 413 L221 413 L221 705 L379 705 L380 413 L595 413 L595 329 L381 329 L381 282 Q381 277 381 272.5 Q381 268 380 263 L601 263 L601 178 L367 178 Q338 74 245 21.5 Q152 -31 7 -42 L7 69 Q90 82 135.5 107.5 Q181 133 201 178 L7 178 L7 263 ZM803 -42 L751 51 L835 51 L835 702 L992 702 L992 -42 L803 -42 ZM634 75 L634 676 L791 676 L791 75 L634 75 ZM188 434 L49 434 L25 648 L159 648 L177 491 L208 491 L188 434 ZM395 491 L425 491 L443 648 L577 648 L553 434 L414 434 L395 491 Z" /><glyph glyph-name="cid2971" unicode="&#x70ae;" d="M995 42 L958 -43 L466 -43 L466 533 L806 533 L806 195 L669 195 L669 451 L608 451 L608 283 L669 283 L639 195 L608 195 L608 42 L995 42 ZM282 702 L282 384 Q282 355 279.5 325 Q277 295 271 266 L315 266 L390 38 L434 38 L406 -43 L272 -43 L219 125 Q187 71 137.5 28 Q88 -15 14 -43 L14 90 Q80 144 112 218.5 Q144 293 144 386 L144 702 L282 702 ZM989 649 L989 93 L819 93 L791 165 L834 165 L834 571 L452 571 L486 702 L660 702 L645 649 L989 649 ZM99 648 L111 369 L132 369 L113 304 L19 304 L5 648 L99 648 ZM419 648 L405 304 L311 304 L293 369 L313 369 L325 648 L419 648 Z" /><glyph glyph-name="cid2981" unicode="&#x914d;" d="M19 -39 L19 565 L176 565 L176 626 L3 626 L3 701 L556 701 L556 626 L393 626 L393 565 L540 565 L540 -39 L411 -39 L411 88 L148 88 L148 29 L411 29 L376 -39 L19 -39 ZM796 305 L731 305 L731 48 L996 48 L966 -40 L572 -40 L572 392 L828 392 L796 305 ZM990 695 L990 305 L828 305 L828 608 L572 608 L572 695 L990 695 ZM275 326 Q275 276 240 243.5 Q205 211 148 200 L148 155 L411 155 L411 205 L294 205 L294 497 L275 497 L275 326 ZM148 280 Q164 292 170 311 Q176 330 176 359 L176 497 L148 497 L148 280 ZM393 497 L393 263 L411 263 L411 497 L393 497 ZM275 565 L294 565 L294 626 L275 626 L275 565 Z" /><glyph glyph-name="cid2996" unicode="&#x670b;" d="M487 705 L487 -40 L301 -40 L276 58 L312 58 L312 175 L209 175 L209 -40 L16 -40 L16 58 L44 58 L44 705 L487 705 ZM984 705 L984 -40 L799 -40 L773 58 L809 58 L809 175 L706 175 L706 -40 L514 -40 L514 58 L541 58 L541 705 L984 705 ZM312 610 L209 610 L209 480 L312 480 L312 610 ZM809 610 L706 610 L706 480 L809 480 L809 610 ZM209 265 L312 265 L312 390 L209 390 L209 265 ZM706 265 L809 265 L809 390 L706 390 L706 265 Z" /><glyph glyph-name="cid3011" unicode="&#x2f6a;&#x76ae;" d="M470 275 Q504 242 539 215.5 Q574 189 614 169 Q665 195 708 229 Q751 263 793 311 L242 311 L242 -40 L6 -40 L6 62 L42 62 L42 649 L470 649 L470 701 L669 701 L669 649 L993 649 L993 467 L794 467 L794 538 L669 538 L669 406 L970 406 L970 307 Q938 246 892.5 197 Q847 148 788 109 Q829 100 874 93 Q919 86 970 81 L970 -40 Q771 -29 615 24 Q536 -3 447 -19 Q358 -35 260 -40 L260 81 Q311 86 356 93 Q401 100 441 109 Q390 143 349.5 184 Q309 225 278 275 L470 275 ZM242 406 L470 406 L470 538 L242 538 L242 406 Z" /><glyph glyph-name="cid3012" unicode="&#x5339;" d="M671 156 L671 598 L547 598 L447 156 L264 156 L245 248 L288 248 L365 598 L210 598 L210 56 L966 56 L945 -35 L33 -35 L33 688 L966 688 L966 598 L848 598 L848 248 L945 248 L896 156 L671 156 Z" /><glyph glyph-name="cid3030" unicode="&#x54c1;" d="M243 485 L756 485 L706 395 L44 395 L44 680 L955 680 L955 395 L756 395 L756 589 L243 589 L243 485 ZM186 42 L295 42 L250 -49 L7 -49 L7 346 L474 346 L474 -49 L295 -49 L295 256 L186 256 L186 42 ZM704 42 L812 42 L768 -49 L525 -49 L525 346 L992 346 L992 -49 L812 -49 L812 256 L704 256 L704 42 Z" /><glyph glyph-name="cid3060" unicode="&#x666e;" d="M37 -40 L37 291 L963 291 L963 -40 L763 -40 L763 80 L237 80 L237 51 L763 51 L715 -40 L37 -40 ZM273 406 L273 557 L6 557 L6 648 L162 648 L131 701 L357 701 L388 648 L612 648 L643 701 L869 701 L838 648 L994 648 L994 557 L727 557 L727 406 L994 406 L994 314 L6 314 L6 406 L273 406 ZM54 416 L29 547 L201 547 L211 500 L253 500 L225 416 L54 416 ZM775 416 L747 500 L789 500 L799 547 L971 547 L946 416 L775 416 ZM237 171 L763 171 L763 200 L237 200 L237 171 ZM472 406 L528 406 L528 557 L472 557 L472 406 Z" /><glyph glyph-name="cid3075" unicode="&#x5176;" d="M2 238 L112 238 L112 552 L19 552 L19 652 L112 652 L112 701 L306 701 L306 652 L694 652 L694 701 L888 701 L888 652 L981 652 L981 552 L888 552 L888 238 L998 238 L998 136 L2 136 L2 238 ZM350 115 L277 -41 L67 -41 L40 38 L95 38 L133 115 L350 115 ZM858 115 L896 38 L951 38 L924 -41 L714 -41 L641 115 L858 115 ZM306 372 L694 372 L694 412 L306 412 L306 372 ZM306 513 L694 513 L694 552 L306 552 L306 513 ZM306 238 L694 238 L694 271 L306 271 L306 238 Z" /><glyph glyph-name="cid3077" unicode="&#x5947;" d="M1 508 Q79 510 152 520 Q225 530 286 556 L1 556 L1 651 L409 651 Q427 675 440 704 L608 704 Q597 674 584 651 L999 651 L999 556 L713 556 L869 491 L999 491 L970 401 L770 401 L491 536 Q441 494 380 468.5 Q319 443 254.5 429 Q190 415 125 409.5 Q60 404 1 401 L1 508 ZM543 71 L495 -19 L62 -19 L62 255 L711 255 L711 -19 L543 -19 L543 71 ZM999 379 L999 284 L966 284 L966 -43 L782 -43 L755 39 L794 39 L794 284 L1 284 L1 379 L999 379 ZM543 71 L543 158 L225 158 L226 71 L543 71 Z" /><glyph glyph-name="cid3087" unicode="&#x8d77;" d="M145 468 L145 554 L16 554 L16 643 L145 643 L145 692 L317 692 L317 643 L445 643 L445 554 L317 554 L317 468 L455 468 L455 380 L362 380 L362 266 L446 266 L446 178 L362 178 L362 53 L995 53 L956 -37 L206 -37 L170 53 L170 -37 L5 -37 L5 53 L29 53 L29 348 L170 348 L170 53 L212 53 L212 380 L6 380 L6 468 L145 468 ZM783 459 L783 599 L518 599 L518 683 L954 683 L954 377 L688 377 L688 178 L982 178 L936 94 L518 94 L518 459 L783 459 Z" /><glyph glyph-name="cid3097" unicode="&#x5f03;" d="M845 -42 L645 -42 L645 155 L349 155 L322 -42 L110 -42 L78 61 L132 61 L146 155 L3 155 L3 247 L160 247 L172 325 L372 325 L361 247 L645 247 L645 325 L845 325 L845 247 L997 247 L997 155 L845 155 L845 -42 ZM600 646 L997 646 L997 554 L382 554 L282 449 L760 449 L729 357 L58 357 L58 451 L159 554 L3 554 L3 646 L400 646 L400 702 L600 702 L600 646 ZM802 357 L735 520 L904 520 L972 357 L802 357 Z" /><glyph glyph-name="cid3108" unicode="&#x5343;" d="M400 -41 L400 256 L11 256 L11 345 L400 345 L400 603 L60 603 L60 692 L939 692 L894 603 L599 603 L599 345 L988 345 L988 256 L599 256 L599 -41 L400 -41 Z" /><glyph glyph-name="cid3117" unicode="&#x524d;" d="M554 522 L554 -41 L351 -41 L312 44 L372 44 L372 117 L202 117 L202 -41 L20 -41 L20 522 L554 522 ZM753 -41 L715 39 L797 39 L797 528 L979 528 L979 -41 L753 -41 ZM2 646 L153 646 L111 704 L327 704 L366 646 L634 646 L673 704 L888 704 L846 646 L998 646 L998 563 L2 563 L2 646 ZM593 67 L593 504 L754 504 L754 67 L593 67 ZM202 203 L372 203 L372 282 L202 282 L202 203 ZM372 436 L202 436 L202 368 L372 368 L372 436 Z" /><glyph glyph-name="cid3126" unicode="&#x67aa;" d="M488 -42 L488 354 L436 354 L502 697 L649 697 L596 426 L819 426 L787 595 L652 595 L672 697 L923 697 L989 354 L937 354 L937 113 L738 113 L710 197 L787 197 L787 337 L636 337 L636 49 L993 49 L946 -42 L488 -42 ZM142 -43 L142 539 L4 539 L4 631 L142 631 L142 702 L287 702 L287 631 L425 631 L425 539 L287 539 L287 -43 L142 -43 ZM11 -10 L11 505 L119 505 L119 -10 L11 -10 ZM310 -10 L310 505 L418 505 L418 -10 L310 -10 Z" /><glyph glyph-name="cid3132" unicode="&#x5f3a;" d="M826 224 L801 140 L775 140 L775 51 L844 51 L838 114 L980 114 L995 -41 L853 -41 L844 51 L822 -41 L401 -41 L401 51 L616 51 L616 140 L403 140 L403 409 L616 409 L616 466 L422 466 L422 698 L968 698 L968 466 L807 466 L807 551 L794 466 L775 466 L775 409 L988 409 L988 140 L826 140 L826 320 L775 320 L775 224 L826 224 ZM380 -41 L72 -41 L50 35 L217 35 L217 198 L7 198 L7 483 L217 483 L201 408 L170 408 L170 273 L380 273 L380 -41 ZM217 408 L217 623 L4 623 L4 699 L380 699 L380 408 L217 408 ZM807 551 L807 609 L581 609 L581 551 L807 551 ZM562 224 L616 224 L616 320 L562 320 L562 224 Z" /><glyph glyph-name="cid3158" unicode="&#x7434;" d="M399 192 L399 235 L599 235 L599 192 L948 192 Q939 127 884 82 Q829 37 724 9 Q619 -19 463.5 -31 Q308 -43 98 -43 L98 52 Q291 46 444 59 Q597 72 709 105 L51 105 L51 192 L399 192 ZM667 461 L667 495 L519 495 L519 573 L667 573 L667 615 L512 615 L512 692 L969 692 L969 615 L814 615 L814 573 L951 573 L951 495 L814 495 L814 461 L972 461 L972 384 L509 384 L509 461 L667 461 ZM185 461 L185 495 L37 495 L37 573 L185 573 L185 615 L30 615 L30 692 L486 692 L486 615 L332 615 L332 573 L469 573 L469 495 L332 495 L332 461 L490 461 L490 384 L27 384 L27 461 L185 461 ZM826 351 L924 262 L980 262 L959 202 L773 202 L703 253 L261 253 L326 351 L826 351 ZM37 202 L19 262 L56 262 L121 351 L301 351 L202 202 L37 202 Z" /><glyph glyph-name="cid3165" unicode="&#x9752;" d="M45 -44 L45 330 L956 330 L956 -44 L726 -44 L672 21 L756 21 L756 40 L244 40 L244 -44 L45 -44 ZM33 672 L400 672 L400 702 L600 702 L600 672 L967 672 L967 586 L600 586 L600 557 L940 557 L940 471 L600 471 L600 441 L998 441 L998 356 L2 356 L2 441 L400 441 L400 471 L60 471 L60 557 L400 557 L400 586 L33 586 L33 672 ZM244 126 L756 126 L756 143 L244 143 L244 126 ZM244 228 L756 228 L756 244 L244 244 L244 228 Z" /><glyph glyph-name="cid3176" unicode="&#x8bf7;" d="M335 -38 L335 355 L964 355 L964 -38 L767 -38 L747 21 L780 21 L780 39 L520 39 L520 -38 L335 -38 ZM558 672 L558 704 L742 704 L742 672 L987 672 L987 594 L742 594 L742 567 L972 567 L972 488 L742 488 L742 459 L996 459 L996 380 L304 380 L304 459 L558 459 L558 488 L327 488 L327 567 L558 567 L558 594 L313 594 L313 672 L558 672 ZM81 -41 L81 400 L3 400 L3 499 L262 499 L262 54 L315 54 L285 -41 L81 -41 ZM65 526 L22 702 L198 702 L221 609 L270 609 L253 526 L65 526 ZM780 273 L520 273 L520 246 L780 246 L780 273 ZM520 130 L780 130 L780 156 L520 156 L520 130 Z" /><glyph glyph-name="cid3181" unicode="&#x4e18;" d="M972 690 L921 596 L249 596 L249 449 L955 449 L955 356 L784 356 L784 57 L994 57 L994 -34 L6 -34 L6 57 L70 57 L70 690 L972 690 ZM249 57 L604 57 L604 356 L249 356 L249 57 Z" /><glyph glyph-name="cid3183" unicode="&#x7403;" d="M583 637 L583 698 L760 698 L760 637 L822 637 L812 689 L963 689 L976 637 L996 637 L996 543 L760 543 L760 -41 L557 -41 L538 27 L583 27 L583 543 L365 543 L365 637 L583 637 ZM85 66 L85 303 L13 303 L13 397 L85 397 L85 591 L4 591 L4 685 L336 685 L336 591 L255 591 L255 397 L327 397 L327 303 L255 303 L255 66 L336 66 L336 -27 L4 -27 L4 66 L85 66 ZM823 -3 L788 270 L928 270 L957 58 L985 58 L972 -3 L823 -3 ZM367 -3 L352 58 L380 58 L409 270 L549 270 L514 -3 L367 -3 ZM525 491 L549 304 L409 304 L384 491 L525 491 ZM953 491 L928 304 L788 304 L812 491 L953 491 Z" /><glyph glyph-name="cid3184" unicode="&#x6c42;" d="M337 -39 L291 60 L400 60 L400 534 L6 534 L6 627 L400 627 L400 702 L600 702 L600 627 L731 627 L715 687 L915 687 L930 627 L994 627 L994 534 L600 534 L600 -39 L337 -39 ZM778 -24 L645 249 L829 249 L932 53 L976 53 L941 -24 L778 -24 ZM59 -24 L24 53 L69 53 L171 249 L355 249 L222 -24 L59 -24 ZM166 270 L42 491 L232 491 L314 350 L367 350 L339 270 L166 270 ZM661 270 L633 350 L687 350 L768 491 L958 491 L834 270 L661 270 Z" /><glyph glyph-name="cid3191" unicode="&#x66f2;" d="M26 -41 L26 618 L282 618 L282 703 L475 703 L475 618 L527 618 L527 703 L720 703 L720 618 L973 618 L973 -41 L773 -41 L773 245 L720 245 L720 50 L773 50 L731 -41 L26 -41 ZM226 50 L282 50 L282 245 L226 245 L226 50 ZM226 337 L282 337 L282 524 L226 524 L226 337 ZM475 50 L527 50 L527 245 L475 245 L475 50 ZM720 524 L720 337 L773 337 L773 524 L720 524 ZM475 337 L527 337 L527 524 L475 524 L475 337 Z" /><glyph glyph-name="cid3193" unicode="&#x5c48;" d="M797 543 L773 450 L230 450 L230 -43 L13 -43 L13 61 L48 61 L48 697 L979 697 L979 447 L797 447 L797 603 L230 603 L230 543 L797 543 ZM812 56 L774 -37 L257 -37 L257 169 L437 169 L437 56 L524 56 L524 216 L269 216 L269 404 L449 404 L449 309 L524 309 L524 436 L718 436 L718 309 L812 309 L774 216 L718 216 L718 56 L812 56 ZM812 -38 L812 169 L986 169 L986 -38 L812 -38 ZM812 216 L812 404 L986 404 L986 216 L812 216 Z" /><glyph glyph-name="cid3200" unicode="&#x53bb;" d="M997 381 L997 288 L511 288 L272 57 L733 57 L703 -40 L45 -40 L45 57 L284 288 L2 288 L2 381 L405 381 L405 526 L50 526 L50 619 L405 619 L405 704 L594 704 L594 619 L949 619 L949 526 L594 526 L594 381 L997 381 ZM800 -38 L624 219 L821 219 L997 -38 L800 -38 Z" /><glyph glyph-name="cid3206" unicode="&#x5168;" d="M32 57 L400 57 L400 163 L91 163 L91 262 L400 262 L400 367 L67 367 L67 391 L24 391 L3 472 L42 472 L158 682 L378 682 L260 466 L739 466 L675 584 L355 584 L407 682 L839 682 L950 472 L997 472 L973 391 L922 391 L922 367 L598 367 L598 262 L907 262 L907 163 L598 163 L598 57 L967 57 L967 -41 L32 -41 L32 57 Z" /><glyph glyph-name="cid3208" unicode="&#x62f3;" d="M991 503 L991 416 L890 416 L949 362 L997 362 L983 275 L815 275 L750 337 L712 277 L589 277 L589 253 L915 253 L915 167 L589 167 L589 137 L976 137 L976 51 L589 51 L589 -44 L331 -44 L301 27 L409 27 L409 51 L27 51 L27 137 L409 137 L409 167 L88 167 L88 253 L409 253 L409 277 L230 277 L230 316 L185 273 L17 273 L2 360 L50 360 L110 416 L12 416 L12 503 L203 503 L235 533 L38 533 L38 618 L124 618 L91 698 L261 698 L294 618 L326 618 L415 700 L629 700 L543 618 L701 618 L735 698 L904 698 L872 618 L965 618 L965 533 L455 533 L424 503 L991 503 ZM277 362 L724 362 L668 416 L333 416 L277 362 Z" /><glyph glyph-name="cid3218" unicode="&#x786e;" d="M717 701 L690 657 L967 657 L967 594 L913 513 L993 513 L993 -43 L832 -43 L806 30 L839 30 L839 108 L791 108 L791 -38 L638 -38 L638 108 L591 108 L591 -43 L420 -43 L420 30 L437 30 L437 465 L420 465 L401 543 L442 543 L538 701 L717 701 ZM213 23 L255 23 L228 -42 L66 -42 L66 399 L18 399 L6 498 L64 498 L87 608 L7 608 L7 680 L418 680 L418 608 L228 608 L209 519 L406 519 L406 -42 L256 -42 L256 446 L213 446 L213 23 ZM646 583 L604 513 L743 513 L789 583 L646 583 ZM791 445 L791 356 L839 356 L839 445 L791 445 ZM791 188 L839 188 L839 276 L791 276 L791 188 ZM591 356 L638 356 L638 445 L591 445 L591 356 ZM591 188 L638 188 L638 276 L591 276 L591 188 Z" /><glyph glyph-name="cid3219" unicode="&#x96c0;" d="M9 440 Q152 448 285 466.5 Q418 485 530 518 L406 518 L406 700 L589 700 L589 537 Q600 541 610 544.5 Q620 548 631 553 L750 553 L698 670 L881 670 L934 554 L978 554 L956 490 L779 490 L778 491 Q711 462 639 440 L691 440 L691 366 L958 366 L958 287 L691 287 L691 258 L948 258 L948 178 L691 178 L691 148 L945 148 L945 69 L691 69 L691 39 L990 39 L948 -40 L90 -40 L90 344 Q70 342 49.5 341.5 Q29 341 9 340 L9 440 ZM39 490 L17 554 L60 554 L113 670 L297 670 L216 490 L39 490 ZM272 148 L508 148 L508 178 L272 178 L272 148 ZM272 39 L508 39 L508 69 L272 69 L272 39 ZM272 258 L508 258 L508 287 L272 287 L272 258 ZM508 404 Q457 393 404.5 383.5 Q352 374 295 366 L508 366 L508 404 Z" /><glyph glyph-name="cid3223" unicode="&#x71c3;" d="M358 454 L339 519 L365 519 L437 701 L563 701 L540 645 L724 645 Q728 547 707 468 Q686 389 639.5 331.5 Q593 274 520 239 Q447 204 347 195 L347 287 Q363 289 377 292.5 Q391 296 405 301 L366 408 L468 408 L492 347 L505 358 L463 454 L358 454 ZM230 701 L230 384 Q230 355 227.5 325 Q225 295 220 266 L257 266 L317 38 L353 38 L331 -43 L221 -43 L178 124 Q152 70 112 27 Q72 -16 12 -43 L12 90 Q66 144 91.5 218 Q117 292 117 386 L117 701 L230 701 ZM653 300 Q686 319 710 348.5 Q734 378 750.5 410.5 Q767 443 776 474.5 Q785 506 788 529 L736 529 L736 607 L789 607 L789 701 L919 701 L919 607 L995 607 L995 529 L916 529 Q914 507 910 485.5 Q906 464 900 443 L927 443 L969 258 L995 258 L978 194 L864 194 L834 303 Q803 262 759 232.5 Q715 203 653 189 L653 300 ZM342 648 L330 303 L253 303 L238 369 L255 369 L265 648 L342 648 ZM80 648 L90 369 L107 369 L92 303 L16 303 L4 648 L80 648 ZM555 -43 L523 165 L640 165 L675 -43 L555 -43 ZM354 -43 L404 165 L520 165 L474 -43 L354 -43 ZM717 -43 L680 165 L796 165 L837 -43 L717 -43 ZM878 -43 L836 165 L953 165 L995 -43 L878 -43 ZM510 570 L487 513 L540 513 L568 451 Q590 502 596 570 L510 570 ZM930 617 L930 672 L995 672 L979 617 L930 617 Z" /><glyph glyph-name="cid3235" unicode="&#x70ed;" d="M460 486 L478 565 L379 565 L379 653 L498 653 L510 703 L680 703 L668 653 L946 653 L946 268 L991 268 L969 165 L774 165 L774 565 L648 565 L620 440 L728 410 L728 293 L595 330 L558 165 L369 165 L345 240 L404 240 L435 376 L379 392 L379 509 L460 486 ZM98 653 L98 703 L257 703 L257 653 L350 653 L350 566 L257 566 L257 493 L350 514 L350 402 L257 381 L257 165 L84 165 L43 249 L98 249 L98 346 L5 326 L5 439 L98 459 L98 566 L5 566 L5 653 L98 653 ZM560 -38 L525 130 L697 130 L720 21 L748 21 L727 -38 L560 -38 ZM809 -38 L773 130 L945 130 L968 21 L997 21 L976 -38 L809 -38 ZM313 -38 L277 130 L449 130 L472 21 L501 21 L480 -38 L313 -38 ZM23 -38 L2 21 L31 21 L54 130 L226 130 L190 -38 L23 -38 Z" /><glyph glyph-name="cid3238" unicode="&#x2f08;&#x4eba;" d="M660 703 L544 510 L629 510 L925 48 L988 48 L950 -38 L782 -38 L496 428 L218 -38 L50 -38 L12 48 L75 48 L467 703 L660 703 Z" /><glyph glyph-name="cid3239" unicode="&#x5fcd;" d="M10 392 Q97 397 154.5 412 Q212 427 247.5 453 Q283 479 301 517 Q319 555 329 606 L19 606 L19 702 L983 702 L983 305 L721 305 L678 392 L810 392 L810 606 L505 606 Q490 534 464 476.5 Q438 419 384 378 Q330 337 240.5 313.5 Q151 290 10 286 L10 392 ZM752 36 L707 -45 L251 -45 L251 289 L436 289 L436 36 L752 36 ZM801 -43 L705 263 L880 263 L951 21 L987 21 L965 -43 L801 -43 ZM29 -46 L12 32 L44 32 L66 249 L227 249 L198 -46 L29 -46 ZM521 71 L466 275 L632 275 L670 127 L715 127 L692 71 L521 71 ZM25 447 L3 507 L40 507 L72 584 L239 584 L187 447 L25 447 Z" /><glyph glyph-name="cid3243" unicode="&#x5203;" d="M51 661 L988 661 L988 -48 L727 -48 L670 47 L789 47 L789 572 L605 572 L340 -48 L115 -48 L84 43 L166 43 L397 572 L51 572 L51 661 ZM322 486 L214 241 L37 241 L12 327 L55 327 L128 486 L322 486 Z" /><glyph glyph-name="cid3252" unicode="&#x8363;" d="M600 363 L600 317 L994 317 L994 228 L600 228 L600 -43 L400 -43 L400 228 L6 228 L6 317 L400 317 L400 363 L600 363 ZM857 701 L857 660 L990 660 L990 573 L857 573 L857 522 L675 522 L675 573 L325 573 L325 522 L143 522 L143 573 L10 573 L10 660 L143 660 L143 701 L325 701 L325 660 L675 660 L675 701 L857 701 ZM997 495 L997 343 L799 343 L799 408 L195 408 L195 343 L2 343 L2 495 L997 495 ZM858 204 L939 48 L987 48 L965 -26 L779 -26 L669 204 L858 204 ZM331 204 L220 -26 L35 -26 L13 48 L61 48 L141 204 L331 204 Z" /><glyph glyph-name="cid3270" unicode="&#x2f0a;&#x5165;" d="M518 551 L243 -45 L51 -45 L7 61 L74 61 L312 551 L518 551 ZM182 577 L182 686 L749 686 L932 61 L992 61 L957 -45 L747 -45 L576 577 L182 577 Z" /><glyph glyph-name="cid3275" unicode="&#x745e;" d="M992 419 L992 335 L749 335 L728 295 L983 295 L983 -40 L822 -40 L803 1 L803 -42 L688 -42 L688 211 L659 211 L659 -42 L544 -42 L544 211 L513 211 L513 -40 L361 -40 L361 295 L563 295 L584 335 L352 335 L352 419 L992 419 ZM86 66 L86 303 L17 303 L17 397 L86 397 L86 591 L8 591 L8 684 L329 684 L329 591 L251 591 L251 397 L321 397 L321 303 L251 303 L251 66 L329 66 L329 -28 L8 -28 L8 66 L86 66 ZM357 451 L357 684 L524 684 L524 529 L587 529 L587 699 L757 699 L757 529 L819 529 L795 451 L357 451 ZM987 684 L987 451 L819 451 L819 684 L987 684 ZM803 211 L803 23 L831 23 L831 211 L803 211 Z" /><glyph glyph-name="cid3276" unicode="&#x9510;" d="M815 316 L784 243 L443 243 L443 559 L981 559 L981 243 L815 243 L815 316 ZM400 502 L400 415 L297 415 L297 298 L403 298 L403 211 L297 211 L297 48 L424 48 L391 -39 L117 -39 L117 211 L13 211 L13 298 L117 298 L117 415 L16 415 L16 502 L400 502 ZM455 -40 L435 36 L479 36 L520 222 L688 222 L630 -40 L455 -40 ZM404 626 L404 545 L10 545 L69 701 L265 701 L232 626 L404 626 ZM925 222 L925 36 L989 36 L961 -40 L767 -40 L767 222 L925 222 ZM815 316 L815 486 L609 486 L609 316 L815 316 ZM491 582 L443 701 L614 701 L638 641 L676 641 L660 582 L491 582 ZM769 582 L753 641 L791 641 L815 701 L986 701 L938 582 L769 582 Z" /><glyph glyph-name="cid3282" unicode="&#x6d12;" d="M996 689 L996 595 L797 595 L797 527 L982 527 L982 -42 L805 -42 L805 117 L642 117 L642 439 L621 439 L621 254 Q621 188 584 154.5 Q547 121 459 114 L459 47 L805 47 L757 -42 L282 -42 L282 527 L466 527 L466 595 L268 595 L268 689 L996 689 ZM40 -40 L3 47 L44 47 L81 261 L260 261 L205 -40 L40 -40 ZM72 531 L17 698 L196 698 L230 595 L260 595 L228 531 L72 531 ZM72 314 L17 480 L196 480 L230 377 L260 377 L228 314 L72 314 ZM782 439 L782 212 L805 212 L805 439 L782 439 ZM459 214 Q475 222 478 235.5 Q481 249 481 269 L481 439 L459 439 L459 214 ZM621 527 L642 527 L642 595 L621 595 L621 527 Z" /><glyph glyph-name="cid3283" unicode="&#x8428;" d="M174 -40 L32 -40 L32 512 L377 512 L377 29 L218 29 L189 92 L238 92 L238 225 L192 225 L192 297 L238 297 L238 449 L174 449 L174 -40 ZM507 292 L459 376 L639 376 L686 292 L746 292 L794 376 L974 376 L925 292 L988 292 L988 218 L597 218 L597 -42 L404 -42 L404 57 L436 57 L436 292 L507 292 ZM857 695 L857 660 L990 660 L990 576 L857 576 L857 540 L675 540 L675 576 L325 576 L325 540 L143 540 L143 576 L10 576 L10 660 L143 660 L143 695 L325 695 L325 660 L675 660 L675 695 L857 695 ZM622 475 L622 520 L802 520 L802 475 L988 475 L988 400 L422 400 L422 475 L622 475 Z" /><glyph glyph-name="cid3287" unicode="&#x8d5b;" d="M213 458 L213 481 L24 481 L24 550 L213 550 L213 571 L384 571 L384 550 L615 550 L615 571 L786 571 L786 550 L975 550 L975 481 L786 481 L786 458 L970 458 L970 390 L786 390 L786 368 L996 368 L996 300 L826 300 Q889 271 996 274 L996 180 Q958 180 925 183 L925 92 L742 92 L742 204 L270 204 L270 92 L74 92 L74 183 Q41 180 3 180 L3 274 Q55 272 97 278.5 Q139 285 171 300 L3 300 L3 368 L213 368 L213 390 L29 390 L29 458 L213 458 ZM3 63 Q209 64 305.5 90 Q402 116 402 172 L402 189 L597 189 L597 172 Q597 116 693.5 90 Q790 64 996 63 L996 -40 Q918 -40 845 -36.5 Q772 -33 708.5 -24.5 Q645 -16 591.5 -2.5 Q538 11 499 32 Q460 11 407 -2.5 Q354 -16 290.5 -24.5 Q227 -33 154 -36.5 Q81 -40 3 -40 L3 63 ZM414 666 L414 705 L585 705 L585 666 L996 666 L996 563 L825 563 L825 603 L173 603 L173 563 L3 563 L3 666 L414 666 ZM356 300 Q350 293 343 286.5 Q336 280 329 274 L670 274 Q662 280 655.5 286.5 Q649 293 642 300 L356 300 ZM384 458 L615 458 L615 481 L384 481 L384 458 ZM384 368 L615 368 L615 390 L384 390 L384 368 Z" /><glyph glyph-name="cid3288" unicode="&#x4e09;" d="M974 674 L974 567 L25 567 L25 674 L974 674 ZM943 383 L943 276 L55 276 L55 383 L943 383 ZM994 76 L994 -31 L5 -31 L5 76 L994 76 Z" /><glyph glyph-name="cid3292" unicode="&#x6851;" d="M342 624 Q381 616 421 608.5 Q461 601 503 596 Q566 605 624 616.5 Q682 628 741 643 L68 643 L68 702 L918 702 L918 637 Q882 617 841 601.5 Q800 586 754 572 Q811 569 870.5 568 Q930 567 996 568 L996 496 Q867 495 742.5 501 Q618 507 503 522 Q388 507 262.5 501 Q137 495 7 496 L7 568 Q73 567 133.5 568 Q194 569 251 572 Q213 583 178 596 Q143 609 111 624 L342 624 ZM404 -43 L404 135 L3 135 L3 229 L404 229 L404 268 L596 268 L596 229 L997 229 L997 135 L596 135 L596 -43 L404 -43 ZM491 438 L488 434 L488 432 L486 432 Q466 410 442.5 391.5 Q419 373 391 358 Q436 353 491 352 L491 280 Q357 277 250 304 Q142 277 7 280 L7 352 Q62 353 107 358 Q85 371 65.5 384.5 Q46 398 29 415 L186 415 Q200 407 215 399.5 Q230 392 247 387 Q296 403 338 432 L10 432 L10 487 L491 487 L491 438 ZM513 487 L994 487 L994 438 L991 434 L991 432 L989 432 Q969 410 945.5 391.5 Q922 373 894 358 Q939 353 994 352 L994 280 Q860 277 753 304 Q645 277 510 280 L510 352 Q565 353 610 358 Q588 371 568.5 384.5 Q549 398 532 415 L689 415 Q703 407 718 399.5 Q733 392 750 387 Q799 403 841 432 L513 432 L513 487 ZM37 -31 L19 51 L67 51 L113 119 L308 119 L205 -31 L37 -31 ZM796 -31 L693 119 L887 119 L933 51 L982 51 L963 -31 L796 -31 Z" /><glyph glyph-name="cid3294" unicode="&#x4e27;" d="M994 395 L994 301 L260 301 L260 66 L446 66 L371 -37 L89 -37 L89 301 L6 301 L6 395 L414 395 L414 554 L27 554 L27 648 L414 648 L414 704 L586 704 L586 648 L973 648 L973 554 L586 554 L586 395 L994 395 ZM993 31 L961 -35 L767 -35 L414 251 L611 251 L695 188 L776 251 L959 251 L793 115 L906 31 L993 31 ZM684 414 L748 522 L911 522 L847 414 L684 414 ZM153 414 L89 522 L252 522 L316 414 L153 414 Z" /><glyph glyph-name="cid3300" unicode="&#x2f8a;&#x8272;" d="M346 654 L950 654 L950 565 L887 475 L963 475 L963 154 L759 154 L759 382 L609 382 L609 243 L759 243 L722 154 L264 154 L264 57 L996 57 L952 -38 L52 -38 L52 475 L650 475 L721 565 L270 565 L219 505 L28 505 L3 584 L50 584 L155 703 L388 703 L346 654 ZM411 243 L411 382 L264 382 L264 243 L411 243 Z" /><glyph glyph-name="cid3306" unicode="&#x6740;" d="M70 405 L36 482 L125 482 L339 569 L36 700 L345 700 L502 636 L659 700 L968 700 L665 569 L880 482 L968 482 L934 405 L721 405 L502 499 L283 405 L70 405 ZM412 351 L412 412 L591 412 L591 351 L994 351 L994 260 L591 260 L591 -44 L388 -44 L352 43 L412 43 L412 260 L5 260 L5 351 L412 351 ZM765 -23 L693 206 L872 206 L923 54 L967 54 L933 -23 L765 -23 ZM64 -23 L31 54 L74 54 L125 206 L304 206 L232 -23 L64 -23 Z" /><glyph glyph-name="cid3308" unicode="&#x6c99;" d="M78 313 L19 479 L212 479 L249 376 L282 376 L260 313 L78 313 ZM38 -41 L4 47 L48 47 L88 260 L282 260 L222 -41 L38 -41 ZM78 531 L19 697 L212 697 L249 594 L282 594 L257 531 L78 531 ZM995 214 Q943 135 866 85 Q789 35 698.5 7 Q608 -21 510 -31 Q412 -41 318 -41 L318 74 Q416 75 490.5 83 Q565 91 621.5 108 Q678 125 719.5 151 Q761 177 793 214 L995 214 ZM549 181 L549 702 L728 702 L728 181 L549 181 ZM529 653 L492 233 L312 233 L282 307 L322 307 L353 653 L529 653 ZM924 653 L955 307 L995 307 L965 233 L784 233 L748 653 L924 653 Z" /><glyph glyph-name="cid3318" unicode="&#x2f2d;&#x5c71;" d="M797 59 L758 -41 L16 -41 L16 649 L203 649 L203 59 L399 59 L399 700 L599 700 L599 59 L797 59 ZM797 649 L984 649 L984 -42 L797 -42 L797 649 Z" /></font>
</defs>
</svg>
