<svg width="702" height="431" viewBox="0 0 702 431" xmlns="http://www.w3.org/2000/svg" xmlns:xlink="http://www.w3.org/1999/xlink"><title>frame</title><defs><path id="a" d="M415.065 415.02h8v8h-8z"/><path id="b" d="M85.152 401.64h5v5h-5z"/><path id="c" d="M745.934 403.849h5v5h-5z"/></defs><g fill="none" fill-rule="evenodd"><g transform="translate(-67)"><circle fill="#EFCB91" cx="282.5" cy="10.5" r="2.5"/><path stroke="#F6D194" stroke-width="1.7" d="M282.607 1.203l9.404 9.404-9.404 9.405-9.405-9.405z"/><path stroke="#F6D194" stroke-width=".5" d="M282.5 4.49l6.01 6.01-6.01 6.01-6.01-6.01z"/><circle fill="#F6D194" cx="204.5" cy="27.5" r="1.5"/><path d="M97.5 14h178.382" stroke="#F6D194" stroke-width="2" stroke-linecap="square"/><path stroke="#F6D194" stroke-linecap="square" d="M71.245 426.46h-3.143V10.5H272.5"/><path stroke="#F6D194" stroke-width="2" d="M228.605 13.97l7.286-9.828h43.086"/><path fill="#F6D194" d="M209 26h74v3h-74z"/></g><g transform="matrix(-1 0 0 1 776 0)"><circle fill="#EFCB91" cx="282.5" cy="10.5" r="2.5"/><path stroke="#F6D194" stroke-width="1.7" d="M282.607 1.203l9.404 9.404-9.404 9.405-9.405-9.405z"/><path stroke="#F6D194" stroke-width=".5" d="M282.5 4.49l6.01 6.01-6.01 6.01-6.01-6.01z"/><circle fill="#F6D194" cx="204.5" cy="27.5" r="1.5"/><path d="M97.5 14h178.382" stroke="#F6D194" stroke-width="2" stroke-linecap="square"/><path stroke="#F6D194" stroke-linecap="square" d="M773.541 426.464H456.563L424 408.933l-39.384 17.53H75.446V10.5H272.5"/><path stroke="#F6D194" stroke-width="2" d="M228.605 13.97l7.286-9.828h43.086"/><path fill="#F6D194" d="M209 26h74v3h-74z"/></g><path stroke="#F6D194" d="M282.592 426.488l9.416-10.523h34.928L352 429.991l25.91-14.026h38.638l9.672 10.523"/><path stroke="#F6D194" stroke-width="2" d="M12.63 312.275v101.308h99.693m577.586-98.385v101.307h-99.694"/><path d="M12.112 385.105l25.653 27.777m652.241-24.747l-25.653 27.777" stroke="#F6D194"/><path d="M388.5 421h23m-115 0h23" stroke="#F6D194" stroke-width="2" stroke-linecap="square"/><g transform="rotate(45 385.565 338.144)"><use fill="#F6D194" xlink:href="#a"/><path stroke="#F6D194" d="M415.565 415.52h7v7h-7z"/></g><g transform="rotate(45 54.152 323.264)"><use fill="#F6D194" xlink:href="#b"/><path stroke="#F6D194" d="M85.652 402.14h4v4h-4z"/></g><g transform="rotate(45 714.934 325.473)"><use fill="#F6D194" xlink:href="#c"/><path stroke="#F6D194" d="M746.434 404.349h4v4h-4z"/></g></g></svg>