<svg width="311" height="82" viewBox="0 0 311 82" xmlns="http://www.w3.org/2000/svg"><title>btn1</title><defs><linearGradient x1="50%" y1="0%" x2="50%" y2="100%" id="a"><stop stop-color="#FBEAC6" offset="0%"/><stop stop-color="#F6D194" offset="100%"/></linearGradient></defs><g transform="translate(-42 -1033)" fill="url(#a)" fill-rule="evenodd"><path d="M58 1033h279c8.837 0 16 7.163 16 16v50c0 8.837-7.163 16-16 16H58c-8.837 0-16-7.163-16-16v-50c0-8.837 7.163-16 16-16zm3.2 3c-8.395 0-15.2 6.805-15.2 15.2v45.6c0 8.395 6.805 15.2 15.2 15.2h272.6c8.395 0 15.2-6.805 15.2-15.2v-45.6c0-8.395-6.805-15.2-15.2-15.2H61.2z"/><path d="M62 1041h272c5.523 0 10 4.477 10 10v45c0 5.523-4.477 10-10 10H62c-5.523 0-10-4.477-10-10v-45c0-5.523 4.477-10 10-10zm-2.56 19.332v25.805h1v-25.805h-1zm274.08-.002v25.805h1v-25.805h-1zm-273.598 38.44c1.658 0 3.002-1.333 3.002-2.978 0-1.644-1.344-2.977-3.002-2.977-1.658 0-3.001 1.333-3.001 2.977 0 1.645 1.343 2.978 3.001 2.978zm.083-43.874c1.658 0 3.002-1.333 3.002-2.978 0-1.644-1.344-2.977-3.002-2.977-1.658 0-3.002 1.333-3.002 2.977 0 1.645 1.344 2.978 3.002 2.978zm274.236 43.78c1.657 0 3.001-1.333 3.001-2.978 0-1.644-1.344-2.977-3.001-2.977-1.658 0-3.002 1.333-3.002 2.977 0 1.645 1.344 2.978 3.002 2.978zm-.005-43.994c1.658 0 3.002-1.333 3.002-2.978 0-1.644-1.344-2.977-3.002-2.977-1.658 0-3.002 1.333-3.002 2.977 0 1.645 1.344 2.978 3.002 2.978z"/></g></svg>