<svg width="666" height="82" viewBox="0 0 666 82" xmlns="http://www.w3.org/2000/svg"><title>btn3</title><defs><linearGradient x1="50%" y1="0%" x2="50%" y2="100%" id="a"><stop stop-color="#FBEAC6" offset="0%"/><stop stop-color="#F6D194" offset="100%"/></linearGradient></defs><g transform="translate(-43 -1156)" fill="url(#a)" fill-rule="evenodd"><path d="M59.538 1156h632.516c8.836 0 16 7.163 16 16v50c0 8.837-7.164 16-16 16H59.538c-8.837 0-16-7.163-16-16v-50c0-8.837 7.163-16 16-16zm6.2 3c-8.395 0-15.2 6.805-15.2 15.2v45.6c0 8.395 6.805 15.2 15.2 15.2h620.015c8.395 0 15.2-6.805 15.2-15.2v-45.6c0-8.395-6.805-15.2-15.2-15.2H65.738z"/><path d="M65.693 1164.553h619.108c5.523 0 10 4.477 10 10v45c0 5.523-4.477 10-10 10H65.693c-5.523 0-10-4.477-10-10v-45c0-5.523 4.477-10 10-10zm2.747 18.78v25.804h1v-25.805h-1zm.482 38.436c1.658 0 3.002-1.333 3.002-2.978 0-1.644-1.344-2.977-3.002-2.977-1.658 0-3.001 1.333-3.001 2.977 0 1.645 1.343 2.978 3.001 2.978zm.083-43.874c1.658 0 3.002-1.333 3.002-2.978 0-1.644-1.344-2.977-3.002-2.977-1.658 0-3.002 1.333-3.002 2.977 0 1.645 1.344 2.978 3.002 2.978zm613.435 5.437v25.805h1v-25.805h-1zm.482 38.437c1.658 0 3.002-1.333 3.002-2.978 0-1.644-1.344-2.977-3.002-2.977-1.658 0-3.001 1.333-3.001 2.977 0 1.645 1.343 2.978 3.001 2.978zm.083-43.874c1.658 0 3.002-1.333 3.002-2.978 0-1.644-1.344-2.977-3.002-2.977-1.658 0-3.002 1.333-3.002 2.977 0 1.645 1.344 2.978 3.002 2.978z"/></g></svg>