<svg width="330" height="180" viewBox="0 0 330 180" xmlns="http://www.w3.org/2000/svg" xmlns:xlink="http://www.w3.org/1999/xlink"><title>carda</title><defs><linearGradient x1="50%" y1="0%" x2="50%" y2="100%" id="a"><stop stop-opacity=".407" offset="0%"/><stop stop-opacity="0" offset="100%"/></linearGradient><path d="M316.269 180H12.731a12.26 12.26 0 0 0 .269-2.56c0-6.953-5.82-12.589-13-12.589V21.391c1.04.163 2.118.248 3.22.248 8.958 0 16.22-5.636 16.22-12.589H310c0 6.953 7.262 12.59 16.22 12.59.52 0 1.035-.02 1.543-.057a13.587 13.587 0 0 0 2.237.02v143.285a13.61 13.61 0 0 0-1-.037c-7.18 0-13 5.636-13 12.589 0 .877.093 1.733.269 2.56z" id="b"/><path d="M165.327 36.875l-34.035-26.712h68.07l-34.035 26.712zm-.447-7.139c2.21 0 4-1.8 4-4.022 0-2.222-1.79-4.023-4-4.023s-4 1.801-4 4.023c0 2.221 1.79 4.022 4 4.022z" id="d"/><filter x="-7.3%" y="-11.2%" width="114.7%" height="141.2%" filterUnits="objectBoundingBox" id="c"><feMorphology radius=".5" operator="dilate" in="SourceAlpha" result="shadowSpreadOuter1"/><feOffset dy="3" in="shadowSpreadOuter1" result="shadowOffsetOuter1"/><feGaussianBlur stdDeviation="1" in="shadowOffsetOuter1" result="shadowBlurOuter1"/><feComposite in="shadowBlurOuter1" in2="SourceAlpha" operator="out" result="shadowBlurOuter1"/><feColorMatrix values="0 0 0 0 0 0 0 0 0 0 0 0 0 0 0 0 0 0 0.319151947 0" in="shadowBlurOuter1"/></filter><path d="M173.522 94.274l22.533-23.998-8.878-8.729-22.265 23.632-22.388-23.65-9.051 8.741 22.769 24.11-22.732 24.127 9.086 8.703 22.26-23.707 22.387 23.706 9.237-8.684-22.958-24.251z" id="f"/><filter x="-8.7%" y="-5.3%" width="117.5%" height="116.7%" filterUnits="objectBoundingBox" id="e"><feOffset dy="2" in="SourceAlpha" result="shadowOffsetOuter1"/><feGaussianBlur stdDeviation="1.5" in="shadowOffsetOuter1" result="shadowBlurOuter1"/><feColorMatrix values="0 0 0 0 0 0 0 0 0 0 0 0 0 0 0 0 0 0 0.707059556 0" in="shadowBlurOuter1"/></filter></defs><g fill="none" fill-rule="evenodd"><path d="M329.5 164.36V10.536c-.166.005-.333.007-.5.007-7.219 0-13.151-4.423-13.485-10.043H13.485C13.16 5.99 7.491 10.337.5 10.536V164.36c7.22.255 13 6.01 13 13.08 0 .695-.056 1.383-.166 2.06h302.332a12.79 12.79 0 0 1-.166-2.06c0-7.232 6.048-13.089 13.5-13.089.167 0 .334.003.5.009z" stroke="#F07474"/><use fill="url(#a)" xlink:href="#b"/><use fill-opacity=".4" fill="#F07474" xlink:href="#b"/><path stroke="#F07474" d="M315.666 179.5a12.79 12.79 0 0 1-.166-2.06c0-7.232 6.048-13.089 13.5-13.089.167 0 .334.003.5.009V22.13c-.166.006-.333.01-.5.01-.43 0-.858-.02-1.2-.058-.523.038-1.05.057-1.58.057-8.998 0-16.373-5.562-16.708-12.589H19.928c-.335 7.027-7.71 12.59-16.708 12.59-.918 0-1.827-.059-2.72-.173V164.36c7.22.255 13 6.01 13 13.08 0 .695-.056 1.383-.166 2.06h302.332z"/><use fill="#000" filter="url(#c)" xlink:href="#d"/><use stroke="#F07474" fill="#F07474" xlink:href="#d"/><use fill="#000" filter="url(#e)" xlink:href="#f"/><use fill="#FB5959" xlink:href="#f"/></g></svg>