<svg width="330" height="234" viewBox="0 0 330 234" xmlns="http://www.w3.org/2000/svg" xmlns:xlink="http://www.w3.org/1999/xlink"><title>carda</title><defs><linearGradient x1="50%" y1="0%" x2="50%" y2="100%" id="a"><stop stop-opacity=".407" offset="0%"/><stop stop-opacity="0" offset="100%"/></linearGradient><path d="M316.153 233.38H12.847c.1-.628.153-1.27.153-1.926 0-6.914-5.82-12.519-13-12.519V21.272c1.04.162 2.118.247 3.22.247 8.958 0 16.22-5.605 16.22-12.519H310c0 6.914 7.262 12.52 16.22 12.52.52 0 1.035-.02 1.543-.057a13.662 13.662 0 0 0 2.237.02v197.489c-.33-.025-.664-.037-1-.037-7.18 0-13 5.605-13 12.52 0 .654.052 1.297.153 1.925z" id="b"/><path d="M165.327 36.67l-34.035-26.564h68.07L165.327 36.67zm-.447-7.1a4 4 0 1 0 0-8 4 4 0 0 0 0 8z" id="d"/><filter x="-7.3%" y="-11.3%" width="114.7%" height="141.4%" filterUnits="objectBoundingBox" id="c"><feMorphology radius=".5" operator="dilate" in="SourceAlpha" result="shadowSpreadOuter1"/><feOffset dy="3" in="shadowSpreadOuter1" result="shadowOffsetOuter1"/><feGaussianBlur stdDeviation="1" in="shadowOffsetOuter1" result="shadowBlurOuter1"/><feComposite in="shadowBlurOuter1" in2="SourceAlpha" operator="out" result="shadowBlurOuter1"/><feColorMatrix values="0 0 0 0 0 0 0 0 0 0 0 0 0 0 0 0 0 0 0.319151947 0" in="shadowBlurOuter1"/></filter><path id="f" d="M125 129.22l5.958-9.256 25.266 16.182L195.499 96l9.325 8.954-46.344 47.005z"/><filter x="-8.8%" y="-8.9%" width="117.5%" height="125%" filterUnits="objectBoundingBox" id="e"><feOffset dy="2" in="SourceAlpha" result="shadowOffsetOuter1"/><feGaussianBlur stdDeviation="2" in="shadowOffsetOuter1" result="shadowBlurOuter1"/><feColorMatrix values="0 0 0 0 0 0 0 0 0 0 0 0 0 0 0 0 0 0 0.5 0" in="shadowBlurOuter1"/></filter></defs><g fill="none" fill-rule="evenodd"><path d="M329.5 217.51V13.49c-.166.007-.333.01-.5.01-7.288 0-13.228-5.776-13.49-13H13.49C13.235 7.558 7.559 13.234.5 13.49v204.02c7.224.262 13 6.202 13 13.49 0 .504-.028 1.004-.082 1.5h302.164a13.643 13.643 0 0 1-.082-1.5c0-7.456 6.044-13.5 13.5-13.5.167 0 .334.003.5.01z" stroke="#F6D194"/><use fill="url(#a)" xlink:href="#b"/><use fill-opacity=".3" fill="#FFF" xlink:href="#b"/><path stroke="#F6D194" d="M315.58 232.88c-.053-.471-.08-.947-.08-1.426 0-7.194 6.048-13.019 13.5-13.019.167 0 .334.003.5.009V22.01a14.24 14.24 0 0 1-.5.01c-.43 0-.858-.02-1.2-.058-.523.038-1.05.057-1.58.057-8.997 0-16.37-5.53-16.708-12.519H19.928c-.337 6.988-7.711 12.52-16.708 12.52-.918 0-1.827-.058-2.72-.172v196.596c7.22.254 13 5.977 13 13.01 0 .48-.027.955-.08 1.426h302.16z"/><use fill="#000" filter="url(#c)" xlink:href="#d"/><use stroke="#F6D194" fill="#F6D194" xlink:href="#d"/><use fill="#000" filter="url(#e)" xlink:href="#f"/><use fill="#F6D194" xlink:href="#f"/></g></svg>