<svg width="330" height="139" viewBox="0 0 330 139" xmlns="http://www.w3.org/2000/svg" xmlns:xlink="http://www.w3.org/1999/xlink"><title>carda</title><defs><linearGradient x1="50%" y1="0%" x2="50%" y2="100%" id="a"><stop stop-opacity=".407" offset="0%"/><stop stop-opacity="0" offset="100%"/></linearGradient><path d="M1 119.84L0 21.273c1.04.162 2.118.247 3.22.247 8.958 0 16.22-5.605 16.22-12.519H310c0 6.914 7.262 12.52 16.22 12.52.52 0 1.035-.02 1.543-.057a13.662 13.662 0 0 0 2.237.02v98.358" id="b"/><path d="M165.327 36.67l-34.035-26.564h68.07L165.327 36.67zm-.447-7.1a4 4 0 1 0 0-8 4 4 0 0 0 0 8z" id="d"/><filter x="-7.3%" y="-11.3%" width="114.7%" height="141.4%" filterUnits="objectBoundingBox" id="c"><feMorphology radius=".5" operator="dilate" in="SourceAlpha" result="shadowSpreadOuter1"/><feOffset dy="3" in="shadowSpreadOuter1" result="shadowOffsetOuter1"/><feGaussianBlur stdDeviation="1" in="shadowOffsetOuter1" result="shadowBlurOuter1"/><feComposite in="shadowBlurOuter1" in2="SourceAlpha" operator="out" result="shadowBlurOuter1"/><feColorMatrix values="0 0 0 0 0 0 0 0 0 0 0 0 0 0 0 0 0 0 0.319151947 0" in="shadowBlurOuter1"/></filter></defs><g fill="none" fill-rule="evenodd"><path d="M329.5 119.51V13.49c-.166.007-.333.01-.5.01-7.288 0-13.228-5.776-13.49-13H13.49C13.235 7.558 7.559 13.234.5 13.49v106.02c7.224.262 13 6.202 13 13.49 0 1.904-.395 3.751-1.146 5.452h304.292A13.455 13.455 0 0 1 315.5 133c0-7.456 6.044-13.5 13.5-13.5.167 0 .334.003.5.01z" stroke="#F6D194"/><use fill="url(#a)" xlink:href="#b"/><path stroke="#F6D194" d="M1.495 119.34H329.5V22.01a14.24 14.24 0 0 1-.5.01c-.43 0-.858-.02-1.2-.058-.523.038-1.05.057-1.58.057-8.997 0-16.37-5.53-16.708-12.519H19.928c-.337 6.988-7.711 12.52-16.708 12.52-.916 0-1.823-.058-2.714-.171l.989 97.492z"/><use fill="#000" filter="url(#c)" xlink:href="#d"/><use stroke="#F6D194" fill="#F6D194" xlink:href="#d"/></g></svg>