<svg width="411" height="411" viewBox="0 0 411 411" xmlns="http://www.w3.org/2000/svg"><title>circle1</title><g transform="rotate(90 204.5 205.5)" fill="none" fill-rule="evenodd"><circle stroke="#F6D194" stroke-width="2.266" cx="204.661" cy="204.558" r="203.94"/><path d="M18.001 206.39c0 103.06 83.547 186.607 186.608 186.607 103.06 0 186.607-83.547 186.607-186.608 0-67.454-35.79-126.55-89.418-159.331-2.07-1.266-1.314-.961-3.436-2.147-4.3-2.403-11.557-6.171-16.057-8.235a185.579 185.579 0 0 0-24.444-9.185 185.32 185.32 0 0 0-22.276-5.15 186.9 186.9 0 0 0-22.494-2.37 189.786 189.786 0 0 0-19.734.145C95.536 25.934 18 107.107 18 206.389z" stroke="#F8D69C" stroke-width="27.192" opacity=".2" stroke-dasharray="20.39399921417236,4.532000098228455"/><circle stroke="#AD9262" stroke-width="2.266" cx="204.436" cy="204.333" r="182.188"/></g></svg>