<svg xmlns="http://www.w3.org/2000/svg" width="311" height="92" viewBox="0 0 311 92"><defs><linearGradient id="a" x1="50%" x2="50%" y1="0%" y2="100%"><stop offset="0%" stop-color="#FBEAC6"/><stop offset="100%" stop-color="#F6D194"/></linearGradient></defs><g fill="none" fill-rule="evenodd"><path fill="url(#a)" d="M16 9h279c8.837 0 16 7.163 16 16v50c0 8.837-7.163 16-16 16H16C7.163 91 0 83.837 0 75V25C0 16.163 7.163 9 16 9zm3.2 3C10.805 12 4 18.805 4 27.2v45.6C4 81.195 10.805 88 19.2 88h272.6c8.395 0 15.2-6.805 15.2-15.2V27.2c0-8.395-6.805-15.2-15.2-15.2H19.2z" transform="translate(0 1)"/><path fill="url(#a)" d="M20 17h272c5.523 0 10 4.477 10 10v45c0 5.523-4.477 10-10 10H20c-5.523 0-10-4.477-10-10V27c0-5.523 4.477-10 10-10zm-2.56 19.332v25.805h1V36.332h-1zm274.08-.002v25.805h1V36.33h-1zM17.922 74.77c1.658 0 3.002-1.333 3.002-2.978 0-1.644-1.344-2.977-3.002-2.977-1.658 0-3.001 1.333-3.001 2.977 0 1.645 1.343 2.978 3.001 2.978zm.083-43.874c1.658 0 3.002-1.333 3.002-2.978 0-1.644-1.344-2.977-3.002-2.977-1.658 0-3.002 1.333-3.002 2.977 0 1.645 1.344 2.978 3.002 2.978zm274.236 43.78c1.657 0 3.001-1.333 3.001-2.978 0-1.644-1.344-2.977-3.001-2.977-1.658 0-3.002 1.333-3.002 2.977 0 1.645 1.344 2.978 3.002 2.978zm-.005-43.994c1.658 0 3.002-1.333 3.002-2.978 0-1.644-1.344-2.977-3.002-2.977-1.658 0-3.002 1.333-3.002 2.977 0 1.645 1.344 2.978 3.002 2.978z" transform="translate(0 1)"/><path stroke="#FBEAC5" d="M82 10.101L100.543 1h110.775l16.852 9.101"/></g></svg>