<svg width="358" height="303" viewBox="0 0 358 303" xmlns="http://www.w3.org/2000/svg"><title>container</title><g transform="translate(5 5)" fill="none" fill-rule="evenodd"><path d="M46.477 245l26.477 43.185m201.046 0L300.477 245" stroke="#F6D194" stroke-width="3"/><path d="M5.307 147.15l144.3-145.761m197.36 146.654L202.667 2.282" stroke="#F6D194"/><path stroke="#F6D194" stroke-width="6" d="M46.188 215.617L0 171.717l69.677-70.028h39.136V67.962L175.5 0l67.386 67.962v33.727h36.977l68.81 70.027-45.4 43.901"/><circle fill="#F6D194" cx="46.098" cy="243.662" r="4"/><circle fill="#F6D194" cx="300.451" cy="243.869" r="4"/><path stroke="#F6D194" stroke-width="4" d="M64 239l30.925 47.185H255.47L283.7 239"/><path d="M106.5 297.5h136" stroke="#F6D194" stroke-linecap="square"/><path fill="#F6D194" d="M96.472 67.971v18.416H78.444zm158.695-.281v18.417h18.028z"/></g></svg>