<svg width="653" height="603" viewBox="0 0 653 603" xmlns="http://www.w3.org/2000/svg"><title>Group 4</title><g transform="translate(0 -6)" fill="none" fill-rule="evenodd"><path d="M475.897 378.384L610.42 44.216" stroke="#FFF" stroke-width="4"/><path stroke="#FFF" stroke-width="3" d="M624.63 9.487l8.787 44.077-44.811-17.202z"/><path d="M598.592 30.095l31.814 12.07" stroke="#FFF" stroke-width="2"/><path d="M650.264 592.002V390.998A15.26 15.26 0 0 1 650 391c-7.606 0-13.89-5.661-14.868-13H343.868c-.978 7.339-7.262 13-14.868 13-7.606 0-13.89-5.661-14.868-13H14.868c-.89 6.684-6.184 11.977-12.868 12.868v201.264c7.339.978 13 7.262 13 14.868h299c0-8.284 6.716-15 15-15 8.284 0 15 6.716 15 15h291c0-8.284 6.716-15 15-15 .088 0 .176 0 .264.002z" stroke="#FFF" stroke-width="4"/><circle fill="#FFF" cx="46.256" cy="389.544" r="2"/><circle fill="#FFF" cx="610.493" cy="389.594" r="2"/><path d="M53.5 389.5h247m55 0h247" stroke="#FFF" stroke-width="3" stroke-linecap="square"/><path fill="#FFF" d="M328.78 598.811l4.95 4.95-4.95 4.95-4.95-4.95z"/></g></svg>