<svg width="176" height="182" viewBox="0 0 176 182" xmlns="http://www.w3.org/2000/svg" xmlns:xlink="http://www.w3.org/1999/xlink"><title>Group 3</title><defs><linearGradient x1="55.323%" y1="0%" x2="50%" y2="121.1%" id="c"><stop stop-color="#F7CE89" offset="0%"/><stop stop-color="#F6E2C1" offset="100%"/></linearGradient><path d="M87.122.317C80.035 6.599 71.161 10.803 60.5 12.93c-10.661 2.127-21.491 1.854-32.49-.82-2.002 6.386-4.317 11.802-6.947 16.247S14.714 35.5 9.908 36.45c-.106 3.99-1.352 6.853-3.739 8.59-2.386 1.74-4.302 2.624-5.749 2.654 7.547 9.957 13.86 23.811 18.938 41.564 5.08 17.754 7.962 36.044 8.65 54.871 15.07 5.078 26.512 9.868 34.326 14.372 7.814 4.503 15.924 11.053 24.33 19.651L87.123.317zm0 0c6.295 6.388 14.773 10.646 25.435 12.773 10.661 2.127 21.491 1.853 32.49-.82 2.002 6.386 4.317 11.801 6.947 16.247 2.63 4.445 6.348 7.143 11.154 8.094.106 3.989 1.352 6.853 3.739 8.59 2.386 1.739 4.302 2.622 5.749 2.652-7.547 9.957-13.86 23.811-18.938 41.564-5.08 17.753-7.962 36.044-8.65 54.871-15.07 5.078-26.512 9.868-34.326 14.372-7.814 4.503-15.833 11-24.057 19.491L87.122.317z" id="b"/><filter x="-2.6%" y="-.8%" width="103.5%" height="103.9%" filterUnits="objectBoundingBox" id="a"><feOffset dy="1" in="SourceAlpha" result="shadowOffsetOuter1"/><feColorMatrix values="0 0 0 0 0.549019608 0 0 0 0 0.341176471 0 0 0 0 0.188235294 0 0 0 1 0" in="shadowOffsetOuter1" result="shadowMatrixOuter1"/><feOffset dx="-2" dy="2" in="SourceAlpha" result="shadowOffsetOuter2"/><feGaussianBlur stdDeviation=".5" in="shadowOffsetOuter2" result="shadowBlurOuter2"/><feColorMatrix values="0 0 0 0 0 0 0 0 0 0 0 0 0 0 0 0 0 0 0.5 0" in="shadowBlurOuter2" result="shadowMatrixOuter2"/><feMerge><feMergeNode in="shadowMatrixOuter1"/><feMergeNode in="shadowMatrixOuter2"/></feMerge></filter></defs><g transform="translate(2.486 .54)" fill="none" fill-rule="evenodd"><use fill="#000" filter="url(#a)" xlink:href="#b"/><use fill="url(#c)" xlink:href="#b"/></g></svg>