<?xml version="1.0" encoding="UTF-8"?>
<svg width="400px" height="400px" viewBox="0 0 400 400" version="1.1" xmlns="http://www.w3.org/2000/svg" xmlns:xlink="http://www.w3.org/1999/xlink">
    <!-- Generator: Sketch 47 (45396) - http://www.bohemiancoding.com/sketch -->
    <title>bronze</title>
    <desc>Created with Sketch.</desc>
    <defs>
        <linearGradient x1="18.2492645%" y1="12.5772085%" x2="50%" y2="100%" id="linearGradient-1">
            <stop stop-color="#6D4F1A" offset="0%"></stop>
            <stop stop-color="#3B270B" offset="100%"></stop>
        </linearGradient>
        <linearGradient x1="42.5087182%" y1="0%" x2="60.6833734%" y2="110.864491%" id="linearGradient-2">
            <stop stop-color="#60431C" offset="0%"></stop>
            <stop stop-color="#492F0C" offset="100%"></stop>
        </linearGradient>
        <linearGradient x1="50%" y1="0%" x2="56.0995766%" y2="100%" id="linearGradient-3">
            <stop stop-color="#3F2A0E" offset="0%"></stop>
            <stop stop-color="#2C1C05" offset="100%"></stop>
        </linearGradient>
        <linearGradient x1="50%" y1="0%" x2="50%" y2="100%" id="linearGradient-4">
            <stop stop-color="#3F2A0E" offset="0%"></stop>
            <stop stop-color="#3B270C" offset="100%"></stop>
        </linearGradient>
        <linearGradient x1="50%" y1="0%" x2="87.8088068%" y2="100%" id="linearGradient-5">
            <stop stop-color="#3C280C" offset="0%"></stop>
            <stop stop-color="#392409" offset="100%"></stop>
        </linearGradient>
        <linearGradient x1="50%" y1="100%" x2="50%" y2="-15.9937186%" id="linearGradient-6">
            <stop stop-color="#B28E4E" offset="0%"></stop>
            <stop stop-color="#6B491A" offset="100%"></stop>
        </linearGradient>
        <linearGradient x1="50%" y1="0%" x2="50%" y2="100%" id="linearGradient-7">
            <stop stop-color="#6F511C" offset="0%"></stop>
            <stop stop-color="#3C280C" offset="100%"></stop>
        </linearGradient>
        <linearGradient x1="69.9422226%" y1="0%" x2="86.9498637%" y2="86.3064316%" id="linearGradient-8">
            <stop stop-color="#9F7C45" offset="0%"></stop>
            <stop stop-color="#644114" offset="100%"></stop>
        </linearGradient>
        <linearGradient x1="36.385788%" y1="27.0375228%" x2="61.6563061%" y2="86.149862%" id="linearGradient-9">
            <stop stop-color="#A9864D" offset="0%"></stop>
            <stop stop-color="#613F12" offset="100%"></stop>
        </linearGradient>
        <linearGradient x1="36.7632434%" y1="42.4081433%" x2="52.5127627%" y2="86.5057271%" id="linearGradient-10">
            <stop stop-color="#674A21" offset="0%"></stop>
            <stop stop-color="#563A14" offset="100%"></stop>
        </linearGradient>
        <linearGradient x1="50%" y1="0%" x2="50%" y2="100%" id="linearGradient-11">
            <stop stop-color="#D2B785" offset="0%"></stop>
            <stop stop-color="#A6804D" offset="100%"></stop>
        </linearGradient>
        <linearGradient x1="50%" y1="0%" x2="50%" y2="100%" id="linearGradient-12">
            <stop stop-color="#907342" offset="0%"></stop>
            <stop stop-color="#594120" offset="100%"></stop>
        </linearGradient>
        <linearGradient x1="50%" y1="0%" x2="50%" y2="100%" id="linearGradient-13">
            <stop stop-color="#917442" offset="0%"></stop>
            <stop stop-color="#58401F" offset="100%"></stop>
        </linearGradient>
        <linearGradient x1="50%" y1="0%" x2="50%" y2="100%" id="linearGradient-14">
            <stop stop-color="#F1E2C7" offset="0%"></stop>
            <stop stop-color="#DEC195" offset="100%"></stop>
        </linearGradient>
        <linearGradient x1="50%" y1="0%" x2="50%" y2="100%" id="linearGradient-15">
            <stop stop-color="#92693B" offset="0%"></stop>
            <stop stop-color="#5A421C" offset="100%"></stop>
        </linearGradient>
        <linearGradient x1="50%" y1="0%" x2="50%" y2="100%" id="linearGradient-16">
            <stop stop-color="#7E6337" offset="0%"></stop>
            <stop stop-color="#604824" offset="100%"></stop>
        </linearGradient>
        <linearGradient x1="50%" y1="0%" x2="50%" y2="100%" id="linearGradient-17">
            <stop stop-color="#7E6337" offset="0%"></stop>
            <stop stop-color="#614825" offset="100%"></stop>
        </linearGradient>
    </defs>
    <g id="Page-1" stroke="none" stroke-width="1" fill="none" fill-rule="evenodd">
        <g id="bronze">
            <g id="Group" transform="translate(37.000000, 69.000000)">
                <polygon id="Path-57" fill="url(#linearGradient-1)" points="157.870596 120.620963 236.144143 202.466181 175.317886 243.478056 167.892105 236.174953 163 262.378861"></polygon>
                <polygon id="Path-57" fill="url(#linearGradient-1)" transform="translate(125.901722, 191.857334) scale(-1, 1) translate(-125.901722, -191.857334) " points="89.3296504 121.341188 163 202.466181 102.173743 243.478056 94.7479615 236.174953 88.8034438 262.37348"></polygon>
                <polygon id="Path-52" fill="url(#linearGradient-2)" points="213.882791 138.967568 270.634583 136.744995 306.794695 134.859648 270.634583 187.797781 222.850992 187.797781 193.301526 151.51658"></polygon>
                <polygon id="Path-52" fill="url(#linearGradient-2)" transform="translate(73.199627, 162.206666) scale(-1, 1) translate(-73.199627, -162.206666) " points="37.0343071 139.84552 93.7860996 137.622946 129.946211 135.7376 93.7860996 188.675732 46.3094076 188.675732 16.4530424 152.394531"></polygon>
                <polygon id="Path-53" fill="url(#linearGradient-3)" points="204.813152 150.908108 241.527518 147.921103 280.284755 147.921103 274.059729 153.895113 203.560677 153.895113"></polygon>
                <polygon id="Path-53" fill="url(#linearGradient-3)" transform="translate(84.636221, 149.007756) scale(-1, 1) translate(-84.636221, -149.007756) " points="47.5266566 149.007756 84.2410222 146.020751 122.99826 146.020751 116.773233 151.994761 46.2741817 151.994761"></polygon>
                <polygon id="Path-54" fill="url(#linearGradient-4)" points="200.661049 158.548809 210.55967 164.352013 271.114048 164.352013 274.233766 161.450411"></polygon>
                <polygon id="Path-54" fill="url(#linearGradient-4)" transform="translate(87.173801, 161.262135) scale(-1, 1) translate(-87.173801, -161.262135) " points="50.3874423 158.360533 60.2860628 164.163737 120.840441 164.163737 123.960159 161.262135"></polygon>
                <polygon id="Path-55" fill="url(#linearGradient-5)" points="213.863375 171.73504 237.358753 171.73504 263.079948 171.73504 258.220109 175.97249 211.13528 176.927491"></polygon>
                <polygon id="Path-55" fill="url(#linearGradient-5)" transform="translate(87.671243, 173.473421) scale(-1, 1) translate(-87.671243, -173.473421) " points="64.4270035 170.877196 87.922382 170.877196 113.643577 170.877196 108.783738 175.114646 61.6989089 176.069647"></polygon>
                <path d="M196.952982,151.576791 L231.742396,194.452466 L199.187706,191.470842 L163.077846,224.323 L163.077846,158.568679 L196.952982,151.576791 Z M129.071396,151.807647 L163.077846,158.648653 L163.077846,224.381095 L126.836673,191.701698 L94.2819827,194.683322 L129.071396,151.807647 Z" id="Combined-Shape" fill="url(#linearGradient-6)"></path>
                <path d="M192.583479,153.023076 L222.995359,189.638669 L194.537008,187.092378 L162.970832,215.147943 L162.970832,158.994111 L192.583479,153.023076 Z M133.243396,153.220226 L162.970832,159.062408 L162.970832,215.197555 L131.289866,187.289528 L102.831515,189.835819 L133.243396,153.220226 Z" id="Combined-Shape" fill="url(#linearGradient-7)"></path>
                <path d="M221.048494,121.664322 C254.286787,102.135935 279.564335,86.919224 296.881138,76.0141876 C314.19794,65.1091512 323.798338,58.3619187 325.682332,55.7724901 C321.697333,76.3159843 318.58239,91.150118 316.337503,100.274891 C314.092616,109.399664 309.425116,118.620071 302.335004,127.936113 C297.220136,129.178955 282.453516,131.740338 258.035144,135.62026 C233.616773,139.500182 213.053286,142.552526 196.344683,144.777292 L213.424876,121.664322 L221.048494,121.664322 Z" id="Path-51" fill="url(#linearGradient-8)"></path>
                <path d="M24.7038107,121.42085 C57.9421043,101.892463 83.2196521,86.6757519 100.536454,75.7707155 C117.853257,64.8656791 127.453655,58.1184466 129.337649,55.529018 C125.35265,76.0725122 122.237707,90.9066459 119.99282,100.031419 C117.747933,109.156192 113.080433,118.376599 105.990321,127.692641 C100.875452,128.935483 86.1088325,131.496866 61.6904609,135.376788 C37.2720894,139.256709 16.7086024,142.309054 0,144.53382 L17.0801933,121.42085 L24.7038107,121.42085 Z" id="Path-51" fill="url(#linearGradient-8)" transform="translate(64.668824, 100.031419) scale(-1, 1) translate(-64.668824, -100.031419) "></path>
                <path d="M205.1113,87.7864188 C216.478599,81.6536131 224.794397,76.8554063 230.058695,73.3917983 C235.322994,69.9281904 243.161081,64.0980614 253.572958,55.9014114 L259.982597,55.9014114 L267.94352,46.0111928 C276.954515,38.2751329 283.424276,32.4418687 287.352802,28.5114003 C291.281327,24.5809318 300.127497,15.0906917 313.891311,0.0406797938 C312.552526,26.54677 310.893139,46.7692513 308.913152,60.7081238 C306.933165,74.6469963 303.775511,88.3359017 299.44019,101.77484 C286.849357,109.408091 270.503601,116.602019 250.402922,123.356624 C230.302243,130.111228 212.712513,134.320934 197.633733,135.985743 L205.1113,87.7864188 Z" id="Path-49" fill="url(#linearGradient-9)"></path>
                <path d="M20.8456641,87.745739 C32.212963,81.6129333 40.5287615,76.8147265 45.7930596,73.3511186 C51.0573578,69.8875106 58.8954454,64.0573816 69.3073224,55.8607316 L75.7169607,55.8607316 L83.6778844,45.970513 C92.6888796,38.2344531 99.15864,32.4011889 103.087166,28.4707205 C107.015691,24.540252 115.861861,15.0500119 129.625676,0 C128.28689,26.5060902 126.627503,46.7285715 124.647516,60.667444 C122.667529,74.6063165 119.509875,88.2952219 115.174554,101.73416 C102.583721,109.367411 86.237965,116.561339 66.1372862,123.315944 C46.0366074,130.070548 28.4468776,134.280255 13.3680969,135.945063 L20.8456641,87.745739 Z" id="Path-49" fill="url(#linearGradient-9)" transform="translate(71.496886, 67.972531) scale(-1, 1) translate(-71.496886, -67.972531) "></path>
                <path d="M213.889551,100.929941 C230.494458,94.4106245 243.448267,88.5558883 252.750976,83.3657323 C262.053685,78.1755763 271.807518,71.3612935 282.012475,62.9228839 L278.670914,87.0483931 C270.860267,91.9719005 260.375506,97.5472597 247.21663,103.774471 C234.057754,110.001682 221.157274,115.492984 208.515191,120.248378 L213.889551,100.929941 Z" id="Path-50" fill="url(#linearGradient-10)"></path>
                <path d="M52.8343159,105.875857 C69.4392232,99.3565405 82.3930316,93.5018042 91.6957408,88.3116482 C100.99845,83.1214922 110.752283,76.3072094 120.95724,67.8687998 L117.615679,91.994309 C109.805032,96.9178164 99.320271,102.493176 86.1613948,108.720387 C73.0025187,114.947598 60.1020389,120.4389 47.4599557,125.194294 L52.8343159,105.875857 Z" id="Path-50" fill="url(#linearGradient-10)" transform="translate(84.208598, 96.531547) scale(-1, 1) translate(-84.208598, -96.531547) "></path>
                <path d="M161.9436,174.86432 L161.942923,175.041332 C181.827825,175.041332 196.563445,167.509238 206.149784,152.445052 C220.529291,129.848772 221.050709,108.61137 211.036618,88.6012943 C204.360557,75.2612438 188.172949,57.7985385 162.473793,36.2131784 C136.675286,57.6840799 120.438002,75.0895559 113.761941,88.4296065 C103.74785,108.439682 104.269268,129.677084 118.648775,152.273364 C128.087967,167.106321 142.519575,174.63664 161.9436,174.86432 Z" id="Combined-Shape" fill="url(#linearGradient-11)"></path>
                <path d="M162.190233,168.213315 C179.816658,168.213315 192.878644,162.095097 201.376191,149.85866 C214.12251,131.504005 214.584707,114.253149 205.707991,97.9992326 C199.79018,87.1632886 185.441119,72.9785673 162.660808,55.4450689 C139.792429,72.8855942 125.399335,87.0238288 119.481524,97.8597729 C110.604807,114.113689 111.067004,131.364546 123.813324,149.7192 C132.264317,161.888601 145.056626,168.05179 162.190251,168.208768 Z" id="Combined-Shape" stroke="url(#linearGradient-12)" stroke-width="3"></path>
                <path d="M162.443418,143.414768 L168.522462,152.27834 L178.743135,149.297916 L174.223225,139.489171 C173.365623,130.324889 173.365623,122.446268 174.223225,115.853309 C175.509626,105.963871 178.189297,99.1485827 179.877621,96.0200067 C181.00317,93.9342894 183.056089,90.9352548 186.036379,87.0229029 C180.776683,82.5358638 176.838964,79.2320399 174.223225,77.1114315 C171.607485,74.990823 167.669767,71.9099458 162.41007,67.8687998 L162.41007,67.9392957 C157.169796,71.9657909 153.245006,75.0367349 150.635699,77.1521279 C148.01996,79.2727363 144.082242,82.5765601 138.822545,87.0635993 C141.802835,90.9759512 143.855754,93.9749858 144.981303,96.0607031 C146.669627,99.1892791 149.349298,106.004567 150.635699,115.894005 C151.493301,122.486964 151.493301,130.365585 150.635699,139.529868 L146.115789,149.338612 L156.336462,152.319036 L162.443418,143.414768 Z" id="Combined-Shape" fill="url(#linearGradient-13)"></path>
                <path d="M162.460715,93.2718792 C164.181906,90.6577437 165.46991,88.7160787 166.324725,87.4468844 C167.196544,86.1524441 168.568616,84.1457159 170.440942,81.4267 L172.020167,83.0011829 C170.456358,85.9775712 169.393637,88.3045902 168.832004,89.9822398 C168.270371,91.6598893 167.722646,94.1434215 167.188829,97.4328361 C170.424193,100.819447 172.789074,103.395311 174.283473,105.160425 C175.697012,106.830032 177.539121,109.200381 179.809801,112.27147 C179.939693,112.447149 180.142412,112.656269 180.084197,112.926779 C180.025983,113.197288 179.84902,113.558677 179.674992,113.926534 C176.785196,120.034907 174.502674,124.527612 172.827424,127.40465 C171.063784,130.433486 167.610335,135.72958 162.467077,143.292931 L162.467077,143.306919 C162.465491,143.304588 162.463905,143.302257 162.462319,143.299926 C162.427454,143.351196 162.392511,143.402571 162.35749,143.454049 L162.35749,143.145801 C157.214232,135.58245 153.760783,130.286356 151.997143,127.257519 C150.321893,124.380482 148.03937,119.887777 145.149575,113.779404 C144.975546,113.411547 144.798584,113.050158 144.740369,112.779648 C144.682155,112.509139 144.884873,112.300019 145.014765,112.12434 C147.285446,109.05325 149.127555,106.682902 150.541094,105.013295 C152.035492,103.24818 154.400374,100.672317 157.635738,97.285706 C157.10192,93.9962914 156.554195,91.5127592 155.992562,89.8351097 C155.430929,88.1574601 154.368208,85.8304412 152.804399,82.8540528 L154.383624,81.2795699 C156.25595,83.9985858 157.628023,86.005314 158.499841,87.2997543 C159.370617,88.592646 160.690908,90.5833543 162.460715,93.2718792 Z" id="Combined-Shape" fill="url(#linearGradient-14)"></path>
                <path d="M162.471438,98.7923304 L170.373805,109.804921 L162.471438,126.81811 L162.471438,98.7923304 Z M162.471414,98.7746136 L162.471414,126.800394 L154.569046,109.787205 L162.471414,98.7746136 Z" id="Combined-Shape" fill="url(#linearGradient-15)"></path>
                <path d="M200.973412,88.510012 C192.702696,99.2375252 188.18071,109.197498 187.407453,118.389929 C186.634196,127.582361 189.878952,139.493333 197.141722,154.122844 C199.426143,151.170406 200.703372,149.256608 200.973412,148.381452 C201.37847,147.068718 194.263796,131.828673 195.680331,119.971922 C196.624688,112.067422 199.779828,104.197261 205.145752,96.3614412 L200.973412,88.510012 Z" id="Path-48" fill="url(#linearGradient-16)"></path>
                <path d="M134.637756,89.4634179 C126.367041,100.190931 121.845054,110.150904 121.071797,119.343335 C120.29854,128.535767 123.439873,140.352684 130.495795,154.794088 C132.987063,152.029758 134.367717,150.210014 134.637756,149.334858 C135.042815,148.022124 127.92814,132.782079 129.344675,120.925328 C130.289032,113.020827 133.444172,105.150667 138.810096,97.3148472 L134.637756,89.4634179 Z" id="Path-48" fill="url(#linearGradient-17)" transform="translate(129.883668, 122.128753) scale(-1, 1) translate(-129.883668, -122.128753) "></path>
            </g>
        </g>
    </g>
</svg>