<?xml version="1.0" encoding="UTF-8"?>
<svg width="400px" height="400px" viewBox="0 0 400 400" version="1.1" xmlns="http://www.w3.org/2000/svg" xmlns:xlink="http://www.w3.org/1999/xlink">
    <!-- Generator: Sketch 47 (45396) - http://www.bohemiancoding.com/sketch -->
    <title>challenger</title>
    <desc>Created with Sketch.</desc>
    <defs>
        <linearGradient x1="0%" y1="-3.19683339%" x2="50%" y2="67.6084507%" id="linearGradient-1">
            <stop stop-color="#636E67" offset="0%"></stop>
            <stop stop-color="#919991" offset="72.5665657%"></stop>
            <stop stop-color="#909890" offset="80.1178098%"></stop>
            <stop stop-color="#6D726C" offset="100%"></stop>
        </linearGradient>
        <linearGradient x1="113.93265%" y1="106.726625%" x2="18.9905582%" y2="19.3061348%" id="linearGradient-2">
            <stop stop-color="#6C8077" offset="0%"></stop>
            <stop stop-color="#182521" offset="100%"></stop>
        </linearGradient>
        <linearGradient x1="88.4693716%" y1="0%" x2="35.2926762%" y2="93.3005064%" id="linearGradient-3">
            <stop stop-color="#6C726E" offset="0%"></stop>
            <stop stop-color="#638781" offset="100%"></stop>
        </linearGradient>
        <linearGradient x1="31.9848887%" y1="91.9982744%" x2="86.6954265%" y2="0%" id="linearGradient-4">
            <stop stop-color="#65746B" offset="0%"></stop>
            <stop stop-color="#354039" offset="100%"></stop>
        </linearGradient>
        <linearGradient x1="50%" y1="0%" x2="50%" y2="100%" id="linearGradient-5">
            <stop stop-color="#59B2A1" offset="0%"></stop>
            <stop stop-color="#75D1C4" offset="100%"></stop>
        </linearGradient>
        <linearGradient x1="86.942395%" y1="81.5141536%" x2="40.5643324%" y2="21.1264533%" id="linearGradient-6">
            <stop stop-color="#98ACA4" offset="0%"></stop>
            <stop stop-color="#3D4D48" offset="100%"></stop>
        </linearGradient>
        <linearGradient x1="12.4879474%" y1="0%" x2="50%" y2="100%" id="linearGradient-7">
            <stop stop-color="#6B7975" offset="0%"></stop>
            <stop stop-color="#B7C3BE" offset="100%"></stop>
        </linearGradient>
        <linearGradient x1="58.2006536%" y1="23.0520084%" x2="24.9368056%" y2="92.9469038%" id="linearGradient-8">
            <stop stop-color="#84928B" offset="0%"></stop>
            <stop stop-color="#4D5953" offset="100%"></stop>
        </linearGradient>
        <linearGradient x1="96.8125897%" y1="4.59962337%" x2="6.59534506%" y2="100%" id="linearGradient-9">
            <stop stop-color="#25332E" offset="0%"></stop>
            <stop stop-color="#265246" offset="100%"></stop>
        </linearGradient>
        <linearGradient x1="32.778084%" y1="21.9049354%" x2="73.2802735%" y2="68.3923469%" id="linearGradient-10">
            <stop stop-color="#5B6C67" offset="0%"></stop>
            <stop stop-color="#CDDBD6" offset="100%"></stop>
        </linearGradient>
        <linearGradient x1="122.295912%" y1="14.8802799%" x2="50%" y2="100%" id="linearGradient-11">
            <stop stop-color="#7B6153" offset="0%"></stop>
            <stop stop-color="#31251E" offset="98.940163%"></stop>
            <stop stop-color="#30241D" offset="100%"></stop>
        </linearGradient>
        <linearGradient x1="50%" y1="0%" x2="50%" y2="100%" id="linearGradient-12">
            <stop stop-color="#26312F" offset="0%"></stop>
            <stop stop-color="#3D4C48" offset="100%"></stop>
        </linearGradient>
        <linearGradient x1="93.2260491%" y1="16.3179081%" x2="14.7047574%" y2="100%" id="linearGradient-13">
            <stop stop-color="#AABBB4" offset="0%"></stop>
            <stop stop-color="#2F5349" offset="100%"></stop>
        </linearGradient>
        <linearGradient x1="103.911305%" y1="4.09747615%" x2="-5.85013065%" y2="97.0675463%" id="linearGradient-14">
            <stop stop-color="#5B483C" offset="0%"></stop>
            <stop stop-color="#64544A" offset="100%"></stop>
        </linearGradient>
        <linearGradient x1="50%" y1="0%" x2="15.9850462%" y2="93.2976088%" id="linearGradient-15">
            <stop stop-color="#7C5A40" offset="0%"></stop>
            <stop stop-color="#483426" offset="100%"></stop>
        </linearGradient>
        <linearGradient x1="50%" y1="0%" x2="50%" y2="100%" id="linearGradient-16">
            <stop stop-color="#90A29C" offset="0%"></stop>
            <stop stop-color="#7F918B" offset="100%"></stop>
        </linearGradient>
        <linearGradient x1="31.5007493%" y1="0%" x2="56.1953123%" y2="100%" id="linearGradient-17">
            <stop stop-color="#7FA19A" offset="0%"></stop>
            <stop stop-color="#D0D6D5" offset="100%"></stop>
        </linearGradient>
        <linearGradient x1="19.1946039%" y1="13.4374915%" x2="73.9770277%" y2="84.5335169%" id="linearGradient-18">
            <stop stop-color="#677B74" offset="0%"></stop>
            <stop stop-color="#B0BDBA" offset="100%"></stop>
        </linearGradient>
        <linearGradient x1="95.1042204%" y1="-7.09127912%" x2="32.1825811%" y2="107.505423%" id="linearGradient-19">
            <stop stop-color="#6C7773" offset="0%"></stop>
            <stop stop-color="#3A423F" offset="100%"></stop>
        </linearGradient>
        <linearGradient x1="42.6859429%" y1="31.4743567%" x2="62.2714569%" y2="79.5068232%" id="linearGradient-20">
            <stop stop-color="#805733" offset="0%"></stop>
            <stop stop-color="#684527" offset="43.4782609%"></stop>
            <stop stop-color="#6D462A" offset="100%"></stop>
        </linearGradient>
        <linearGradient x1="44.1729507%" y1="100%" x2="38.8636115%" y2="30.1027728%" id="linearGradient-21">
            <stop stop-color="#864721" offset="0%"></stop>
            <stop stop-color="#CBA147" offset="100%"></stop>
        </linearGradient>
        <linearGradient x1="-5.99531198%" y1="-4.19991082%" x2="50%" y2="100%" id="linearGradient-22">
            <stop stop-color="#864721" offset="0%"></stop>
            <stop stop-color="#874821" offset="0%"></stop>
            <stop stop-color="#E5C357" offset="77.9817405%"></stop>
            <stop stop-color="#CBA147" offset="100%"></stop>
        </linearGradient>
        <linearGradient x1="94.4678372%" y1="30.9963095%" x2="-13.7336702%" y2="88.3469432%" id="linearGradient-23">
            <stop stop-color="#A9BAB4" offset="0%"></stop>
            <stop stop-color="#3A4C45" offset="100%"></stop>
        </linearGradient>
        <linearGradient x1="15.661671%" y1="16.4365051%" x2="34.2692214%" y2="84.2093884%" id="linearGradient-24">
            <stop stop-color="#2B4A3E" offset="0%"></stop>
            <stop stop-color="#42B6A1" offset="100%"></stop>
        </linearGradient>
        <linearGradient x1="3.11775188%" y1="22.4896281%" x2="93.3496427%" y2="95.3712333%" id="linearGradient-25">
            <stop stop-color="#E2C463" offset="0%"></stop>
            <stop stop-color="#E7DD90" offset="47.4635577%"></stop>
            <stop stop-color="#D7A13D" offset="100%"></stop>
        </linearGradient>
        <linearGradient x1="50%" y1="0%" x2="50%" y2="100%" id="linearGradient-26">
            <stop stop-color="#B26D2E" offset="0%"></stop>
            <stop stop-color="#C5A14C" offset="100%"></stop>
        </linearGradient>
        <linearGradient x1="50%" y1="0%" x2="50%" y2="100%" id="linearGradient-27">
            <stop stop-color="#B37A38" offset="0%"></stop>
            <stop stop-color="#AF9249" offset="100%"></stop>
        </linearGradient>
        <linearGradient x1="50%" y1="0%" x2="50%" y2="100%" id="linearGradient-28">
            <stop stop-color="#B1813D" offset="0%"></stop>
            <stop stop-color="#DEBB65" offset="42.5670917%"></stop>
            <stop stop-color="#DBC464" offset="55.0843324%"></stop>
            <stop stop-color="#DDAA54" offset="73.4909782%"></stop>
            <stop stop-color="#A05925" offset="100%"></stop>
        </linearGradient>
        <linearGradient x1="50%" y1="0%" x2="50%" y2="100%" id="linearGradient-29">
            <stop stop-color="#FFFFFF" stop-opacity="0" offset="0%"></stop>
            <stop stop-color="#FFFFFF" stop-opacity="0.143936821" offset="30.9802385%"></stop>
            <stop stop-color="#FFFFFF" stop-opacity="0.297582654" offset="46.1201795%"></stop>
            <stop stop-color="#B4B4B4" stop-opacity="0.0691223998" offset="61.9073079%"></stop>
            <stop stop-color="#000000" stop-opacity="0" offset="100%"></stop>
        </linearGradient>
        <path d="M200.172418,266.826604 C225.120455,266.826604 245.344835,246.21672 245.344835,220.79314 C245.344835,200.74775 231.351754,183.106074 213.803978,176.788267 C210.665259,175.658219 206.030365,168.728797 199.899295,156 C194.016479,168.979687 189.673221,175.909109 186.86952,176.788267 C168.41421,182.575307 155,200.087835 155,220.79314 C155,246.21672 175.22438,266.826604 200.172418,266.826604 Z" id="path-30"></path>
        <linearGradient x1="50%" y1="0%" x2="50%" y2="100%" id="linearGradient-31">
            <stop stop-color="#9AC9C8" offset="0%"></stop>
            <stop stop-color="#6CACAB" offset="26.1188245%"></stop>
            <stop stop-color="#93C5C5" offset="47.5705457%"></stop>
            <stop stop-color="#5B7C74" offset="81.4634068%"></stop>
            <stop stop-color="#45675C" offset="100%"></stop>
        </linearGradient>
        <linearGradient x1="50%" y1="0%" x2="50%" y2="100%" id="linearGradient-32">
            <stop stop-color="#0E5646" offset="0%"></stop>
            <stop stop-color="#2CC7B6" offset="100%"></stop>
        </linearGradient>
        <linearGradient x1="50%" y1="0%" x2="50%" y2="100%" id="linearGradient-33">
            <stop stop-color="#D9E3DD" offset="0%"></stop>
            <stop stop-color="#91DBDA" offset="100%"></stop>
        </linearGradient>
        <linearGradient x1="50%" y1="0%" x2="50%" y2="100%" id="linearGradient-34">
            <stop stop-color="#83C9BE" offset="0%"></stop>
            <stop stop-color="#CEE1DF" offset="100%"></stop>
        </linearGradient>
        <linearGradient x1="50%" y1="0%" x2="50%" y2="100%" id="linearGradient-35">
            <stop stop-color="#8C7263" offset="0%"></stop>
            <stop stop-color="#47362A" offset="100%"></stop>
        </linearGradient>
        <linearGradient x1="50%" y1="0%" x2="50%" y2="100%" id="linearGradient-36">
            <stop stop-color="#0F4033" offset="0%"></stop>
            <stop stop-color="#168D75" offset="100%"></stop>
        </linearGradient>
        <linearGradient x1="50%" y1="0%" x2="50%" y2="100%" id="linearGradient-37">
            <stop stop-color="#A45820" offset="0%"></stop>
            <stop stop-color="#DFBB46" offset="100%"></stop>
        </linearGradient>
    </defs>
    <g id="Page-1" stroke="none" stroke-width="1" fill="none" fill-rule="evenodd">
        <g id="challenger">
            <g id="Group-3" transform="translate(210.000000, 245.000000)">
                <path d="M65.1383255,12.9335705 L76.0284353,19.1719657 L76.0284353,24.0747454 L79.2068945,21.5194885 C82.3061803,23.0715133 84.5361317,24.2638424 85.8967485,25.0964756 C87.2573654,25.9291089 89.8032801,27.6593845 93.5344928,30.2873023 C88.8572539,28.7992501 84.1245594,28.7992501 79.3364091,30.2873023 C72.1541838,32.5193807 56.3237322,43.7561558 46.8661906,52.3664854 C40.5611628,58.1067052 30.6393499,69.6338281 17.1007519,86.9478541 C13.2367304,76.0299846 10.413463,68.3365044 8.63094967,63.8674134 C6.84843632,59.3983225 4.03741589,52.9656 0.19788837,44.5692461 L11.2926251,3.98481969 L36.4305572,0.063747252 L65.1383255,12.9335705 Z" id="Path-176" fill="url(#linearGradient-1)"></path>
                <path d="M24.5560394,3.3839962 C31.2597227,10.9336573 36.9057204,16.4426629 41.4940325,19.9110129 C46.0823447,23.3793629 52.5826477,27.0518647 60.9949417,30.9285185 C54.1664306,34.9713386 47.0185742,40.4515303 39.5513726,47.3690936 C32.0841709,54.2866569 25.7233876,61.3207744 20.4690225,68.4714461 C15.8923122,56.4541037 12.7505918,47.4464903 11.0438611,41.4486061 C9.3371305,35.4507219 7.08813383,25.5139883 4.29687112,11.6384054 L24.5560394,3.3839962 Z" id="Path-177" fill="url(#linearGradient-2)"></path>
            </g>
            <g id="Group-3" transform="translate(141.000000, 290.500000) scale(-1, 1) translate(-141.000000, -290.500000) translate(94.000000, 247.000000)">
                <path d="M65.1383255,12.9335705 L76.0284353,19.1719657 L76.0284353,24.0747454 L79.2068945,21.5194885 C82.3061803,23.0715133 84.5361317,24.2638424 85.8967485,25.0964756 C87.2573654,25.9291089 89.8032801,27.6593845 93.5344928,30.2873023 C88.8572539,28.7992501 84.1245594,28.7992501 79.3364091,30.2873023 C72.1541838,32.5193807 56.3237322,43.7561558 46.8661906,52.3664854 C40.5611628,58.1067052 30.6393499,69.6338281 17.1007519,86.9478541 C13.2367304,76.0299846 10.413463,68.3365044 8.63094967,63.8674134 C6.84843632,59.3983225 4.03741589,52.9656 0.19788837,44.5692461 L11.2926251,3.98481969 L36.4305572,0.063747252 L65.1383255,12.9335705 Z" id="Path-176" fill="url(#linearGradient-1)"></path>
                <path d="M24.5560394,3.3839962 C31.2597227,10.9336573 36.9057204,16.4426629 41.4940325,19.9110129 C46.0823447,23.3793629 52.5826477,27.0518647 60.9949417,30.9285185 C54.1664306,34.9713386 47.0185742,40.4515303 39.5513726,47.3690936 C32.0841709,54.2866569 25.7233876,61.3207744 20.4690225,68.4714461 C15.8923122,56.4541037 12.7505918,47.4464903 11.0438611,41.4486061 C9.3371305,35.4507219 7.08813383,25.5139883 4.29687112,11.6384054 L24.5560394,3.3839962 Z" id="Path-177" fill="url(#linearGradient-2)"></path>
            </g>
            <g id="Group-4" transform="translate(240.000000, 81.000000)">
                <path d="M59.8992454,5.0552085 C56.0220709,4.71401608 52.4477279,4.17819647 49.1762165,3.44774967 C45.904705,2.71730287 42.48894,1.69240594 38.9289213,0.373058882 C37.6545973,5.15598052 33.2751656,10.9076201 25.7906261,17.6279775 C18.3060867,24.3483349 9.81555093,30.1526211 0.319018943,35.0408359 C10.6535485,39.5730797 17.8643823,43.1815411 21.9515203,45.8662201 C26.0386583,48.550899 29.3053443,51.8247051 31.7515783,55.6876382 L59.8992454,5.0552085 Z" id="Path-178" fill="url(#linearGradient-3)"></path>
                <path d="M55.2175124,12.1640978 C50.6436028,11.7731777 47.6080488,11.4463648 46.1108505,11.1836591 C44.6136522,10.9209535 43.2268361,10.2412793 41.9504022,9.1446366 C37.9022551,15.5001958 33.6584879,20.9641414 29.2191006,25.5364734 C24.7797133,30.1088054 19.7595245,34.1862401 14.158534,37.7687775 C21.161776,38.9044484 25.8218321,39.9497489 28.1387025,40.9046788 C30.4555729,41.8596087 32.3642762,43.5217127 33.8648125,45.8909908 L55.2175124,12.1640978 Z" id="Path-179" fill="url(#linearGradient-4)"></path>
            </g>
            <g id="Group-4" transform="translate(129.000000, 109.000000) scale(-1, 1) translate(-129.000000, -109.000000) translate(99.000000, 81.000000)">
                <path d="M59.8992454,5.0552085 C56.0220709,4.71401608 52.4477279,4.17819647 49.1762165,3.44774967 C45.904705,2.71730287 42.48894,1.69240594 38.9289213,0.373058882 C37.6545973,5.15598052 33.2751656,10.9076201 25.7906261,17.6279775 C18.3060867,24.3483349 9.81555093,30.1526211 0.319018943,35.0408359 C10.6535485,39.5730797 17.8643823,43.1815411 21.9515203,45.8662201 C26.0386583,48.550899 29.3053443,51.8247051 31.7515783,55.6876382 L59.8992454,5.0552085 Z" id="Path-178" fill="url(#linearGradient-3)"></path>
                <path d="M55.2175124,12.1640978 C50.6436028,11.7731777 47.6080488,11.4463648 46.1108505,11.1836591 C44.6136522,10.9209535 43.2268361,10.2412793 41.9504022,9.1446366 C37.9022551,15.5001958 33.6584879,20.9641414 29.2191006,25.5364734 C24.7797133,30.1088054 19.7595245,34.1862401 14.158534,37.7687775 C21.161776,38.9044484 25.8218321,39.9497489 28.1387025,40.9046788 C30.4555729,41.8596087 32.3642762,43.5217127 33.8648125,45.8909908 L55.2175124,12.1640978 Z" id="Path-179" fill="url(#linearGradient-4)"></path>
            </g>
            <path d="M200,104 C201.595288,111.411303 202.865387,115.699815 203.810295,116.865535 C205.227657,118.614116 205.332044,114.747306 207.337875,114.491529 C209.343705,114.235752 210.922217,114.890409 209.804322,121.304367 C208.686428,127.718326 203.792195,120.912172 204.325308,134.03719 C204.680717,142.787201 207.101428,153.176134 211.58744,165.203986 L200,163.666721 L200,104 Z" id="Path-175" fill="url(#linearGradient-5)"></path>
            <path d="M188.479543,103.971157 C190.074831,111.38246 191.344929,115.670971 192.289837,116.836692 C193.7072,118.585273 193.811587,114.718463 195.817417,114.462686 C197.823248,114.206909 199.401759,114.861566 198.283865,121.275524 C197.16597,127.689483 192.271738,120.883329 192.804851,134.008347 C193.16026,142.758358 195.58097,153.14729 200.066983,165.175143 L188.479543,163.637878 L188.479543,103.971157 Z" id="Path-175" fill="url(#linearGradient-5)" transform="translate(194.273263, 134.573150) scale(-1, 1) translate(-194.273263, -134.573150) "></path>
            <path d="M200,278.441444 C262.853173,278.339697 287.15385,235.520086 287.15385,194.927157 C287.15385,154.334228 247.168061,121 200.5,121 C153.831939,121 108.414146,159.407071 108.414146,200 C108.414146,240.592929 137.146827,278.543192 200,278.441444 Z" id="Oval-5" stroke="#8FCDC3" stroke-width="7"></path>
            <g id="Group-2" transform="translate(239.000000, 66.000000)">
                <path d="M1.43088443,85.1997328 C7.85762458,84.5328401 18.3619376,76.0011256 32.9438234,59.6045896 C47.5257092,43.2080535 58.8754215,23.5196746 66.9929604,0.539452966 C77.0449734,8.44822583 84.1817287,13.938809 88.4032263,17.0112025 C92.6247239,20.083596 99.2244551,24.590387 108.20242,30.5315756 C100.692398,45.9527271 96.7667561,60.1735883 96.4254948,73.194159 C96.0842336,86.2147297 99.4116774,101.359714 106.407826,118.629111 L91.897644,111.494361 C72.6085479,121.675734 59.126283,129.177614 51.4508493,134 C43.7754157,138.822386 35.1860376,145.187864 25.6827151,153.096435 L1.43088443,85.1997328 Z" id="Path-164" fill="url(#linearGradient-6)"></path>
                <path d="M66.416747,0.0436065706 L68.5306395,9.77548932 C76.853386,12.9942748 83.4281997,16.3574152 88.2550805,19.8649105 C93.0819613,23.3724058 96.9479346,27.596155 99.8530004,32.536158 L109.946695,30.4728336 C104.039973,26.414199 97.2265625,21.6865485 89.506465,16.2898823 C81.7863674,10.8932161 74.0897948,5.47779082 66.416747,0.0436065706 Z" id="Path-166" fill="url(#linearGradient-7)"></path>
                <path d="M99.9097957,32.5145191 C94.840719,41.6992677 91.8179429,52.9134846 90.8414676,66.1571699 C89.8649922,79.4008552 90.2461031,94.5726616 91.9848004,111.672589 L106.367874,118.723261 C100.289589,99.2055219 97.4328055,82.4399132 97.7975234,68.4264348 C98.1622412,54.4129565 102.174817,41.7946325 109.835251,30.571463 L99.9097957,32.5145191 Z" id="Path-167" fill="url(#linearGradient-8)"></path>
                <path d="M91.9301911,111.469904 C71.1517614,121.608547 57.2838004,129.014484 50.3263081,133.687715 C43.3688157,138.360947 36.9762274,145.046651 31.1485431,153.744828 L41.6114714,155.087023 C45.73851,148.821056 53.318194,142.586108 64.3505236,136.38218 C75.3828532,130.178251 89.3802736,124.279514 106.342785,118.685967 L91.9301911,111.469904 Z" id="Path-168" fill="url(#linearGradient-9)"></path>
                <path d="M72.431759,19 C71.7398228,24.4750502 70.5405645,30.2105379 68.833984,36.2064633 C67.1274035,42.2023886 63.5160755,49.306181 58,57.5178405 C62.5115238,54.3020801 66.1228518,52.02609 68.833984,50.6898702 C71.5451162,49.3536503 76.7243811,47.2970725 84.3717785,44.5201366 C84.7237905,42.3886509 85.4221369,40.5795071 86.4668176,39.0927052 C87.5114984,37.6059032 88.9462861,36.1341195 90.7711807,34.6773539 C86.5609338,30.7048689 83.267369,27.7026939 80.8904862,25.6708287 C78.5136034,23.6389635 75.6940277,21.4153539 72.431759,19 Z" id="Path-169" fill="url(#linearGradient-10)"></path>
                <path d="M22.1285738,97.5166379 C25.6060071,95.5469659 29.1081052,92.8990439 32.6348682,89.572872 C36.1616312,86.2467001 39.5574084,82.3890761 42.8221996,78 C43.0109739,86.776938 43.0109739,93.282484 42.8221996,97.5166379 C42.6334254,101.750792 42.1559431,105.955042 41.3897527,110.129387 C39.435018,113.664101 36.5167231,117.545298 32.6348682,121.772979 C28.7530133,126.00066 26.3521313,127.912514 25.4322221,127.50854 C16.823108,121.439584 12.6852488,118.405105 13.0186445,118.405105 C13.3520402,118.405105 16.3886833,111.442283 22.1285738,97.5166379 Z" id="Path-170" fill="url(#linearGradient-11)"></path>
                <path d="M26.4721569,135.613162 C25.8523477,135.040499 31.4886303,130.664296 43.3810045,122.484551 C55.2733787,114.304806 68.2682087,106.904606 82.3654944,100.283949 C63.4655138,111.446846 50.8998137,119.339853 44.668394,123.96297 C38.4369744,128.586088 33.543112,133.646407 29.9868069,139.143927 L26.4721569,135.613162 Z" id="Path-173" fill="#35413D"></path>
                <path d="M30.1789502,140.468875 L31.2165138,143.233599 C36.8623957,139.187624 41.2932058,136.109758 44.5089443,134 C47.7246827,131.890242 59.8246631,124.122709 80.8088855,110.6974 C61.9042555,120.515248 49.8042751,126.981056 44.5089443,130.094823 C39.2136134,133.20859 34.4369487,136.666607 30.1789502,140.468875 Z" id="Path-174" fill="url(#linearGradient-12)"></path>
                <path d="M66.4244227,0.0771925764 L68.4854292,9.62440248 C61.5717693,29.5281729 53.6448384,46.0826231 44.7046367,59.2877531 C35.764435,72.492883 24.8557531,83.7011894 11.978591,92.9126722 L0.537823773,85.4742985 C13.8310277,79.4477427 26.1206687,69.1763691 37.406747,54.6601779 C48.6928253,40.1439867 58.3653838,21.9496583 66.4244227,0.0771925764 Z" id="Path-165" fill="url(#linearGradient-13)"></path>
                <path d="M46.7687291,71.9087367 C48.7922696,69.7656715 50.2595955,68.1484859 51.170707,67.0571798 C52.0818185,65.9658736 53.1005276,64.6053498 54.2268343,62.9756082 C59.806093,62.5408 64.5578236,61.5629836 68.4820262,60.042159 C74.3683301,57.760922 80.0426304,52.4750868 79.8578916,53.0422925 C79.6731529,53.6094982 78.0806668,70.7858414 78.3467864,78.3233566 C78.5241995,83.3483667 79.4981672,88.2410568 81.2686895,93.001427 C75.2012582,93.6649959 69.085155,95.4544119 62.9203797,98.3696751 C56.7556045,101.284938 50.7821446,105.212561 45,110.152543 C46.7516618,102.705084 47.76556,95.9960367 48.0416945,90.0254013 C48.3178291,84.0547659 47.8935073,78.0158777 46.7687291,71.9087367 Z" id="Path-171" fill="url(#linearGradient-14)"></path>
                <polygon id="Path-172" fill="url(#linearGradient-15)" points="59.3962717 68.3113992 53.4276227 74.8703462 53.4276227 97.374556 72.8410668 87.4136879 72.8410668 66"></polygon>
            </g>
            <g id="Group-2" transform="translate(104.000000, 144.000000) scale(-1, 1) translate(-104.000000, -144.000000) translate(49.000000, 66.000000)">
                <path d="M1.43088443,85.1997328 C7.85762458,84.5328401 18.3619376,76.0011256 32.9438234,59.6045896 C47.5257092,43.2080535 58.8754215,23.5196746 66.9929604,0.539452966 C77.0449734,8.44822583 84.1817287,13.938809 88.4032263,17.0112025 C92.6247239,20.083596 99.2244551,24.590387 108.20242,30.5315756 C100.692398,45.9527271 96.7667561,60.1735883 96.4254948,73.194159 C96.0842336,86.2147297 99.4116774,101.359714 106.407826,118.629111 L91.897644,111.494361 C72.6085479,121.675734 59.126283,129.177614 51.4508493,134 C43.7754157,138.822386 35.1860376,145.187864 25.6827151,153.096435 L1.43088443,85.1997328 Z" id="Path-164" fill="url(#linearGradient-6)"></path>
                <path d="M66.7588318,0.425080883 L67.4104644,11.0196433 C75.7332109,14.2384287 82.3080245,17.6015691 87.1349053,21.1090645 C91.9617861,24.6165598 95.8277595,28.840309 98.7328253,33.780312 L109.024007,31.0689182 C103.652543,27.1547699 97.1067617,22.4993627 89.3866641,17.1026964 C81.6665666,11.7060302 74.1239558,6.14682502 66.7588318,0.425080883 Z" id="Path-166" fill="url(#linearGradient-7)"></path>
                <path d="M98.7689746,33.7448165 C94.4604453,42.1093668 91.8179429,52.9134846 90.8414676,66.1571699 C89.8649922,79.4008552 90.2461031,94.5726616 91.9848004,111.672589 L106.367874,118.723261 C100.289589,99.2055219 97.4328055,82.4399132 97.7975234,68.4264348 C98.1622412,54.4129565 101.907711,41.9472074 109.033931,31.0291878 L98.7689746,33.7448165 Z" id="Path-167" fill="url(#linearGradient-8)"></path>
                <path d="M91.9301911,111.469904 C71.1517614,121.608547 57.2838004,129.014484 50.3263081,133.687715 C43.3688157,138.360947 36.9762274,145.046651 31.1485431,153.744828 L41.6114714,155.087023 C45.73851,148.821056 53.318194,142.586108 64.3505236,136.38218 C75.3828532,130.178251 89.3802736,124.279514 106.342785,118.685967 L91.9301911,111.469904 Z" id="Path-168" fill="url(#linearGradient-9)"></path>
                <path d="M72.431759,19 C71.7398228,24.4750502 70.5405645,30.2105379 68.833984,36.2064633 C67.1274035,42.2023886 63.5160755,49.306181 58,57.5178405 C62.5115238,54.3020801 66.1228518,52.02609 68.833984,50.6898702 C71.5451162,49.3536503 76.7243811,47.2970725 84.3717785,44.5201366 C84.7237905,42.3886509 85.4221369,40.5795071 86.4668176,39.0927052 C87.5114984,37.6059032 88.9462861,36.1341195 90.7711807,34.6773539 C86.5609338,30.7048689 83.267369,27.7026939 80.8904862,25.6708287 C78.5136034,23.6389635 75.6940277,21.4153539 72.431759,19 Z" id="Path-169" fill="url(#linearGradient-10)"></path>
                <path d="M22.1285738,97.5166379 C25.6060071,95.5469659 29.1081052,92.8990439 32.6348682,89.572872 C36.1616312,86.2467001 39.5574084,82.3890761 42.8221996,78 C43.0109739,86.776938 43.0109739,93.282484 42.8221996,97.5166379 C42.6334254,101.750792 42.1559431,105.955042 41.3897527,110.129387 C39.435018,113.664101 36.5167231,117.545298 32.6348682,121.772979 C28.7530133,126.00066 26.3521313,127.912514 25.4322221,127.50854 C16.823108,121.439584 12.6852488,118.405105 13.0186445,118.405105 C13.3520402,118.405105 16.3886833,111.442283 22.1285738,97.5166379 Z" id="Path-170" fill="url(#linearGradient-11)"></path>
                <path d="M26.4721569,135.613162 C25.8523477,135.040499 31.4886303,130.664296 43.3810045,122.484551 C55.2733787,114.304806 68.2682087,106.904606 82.3654944,100.283949 C63.4655138,111.446846 50.8998137,119.339853 44.668394,123.96297 C38.4369744,128.586088 33.543112,133.646407 29.9868069,139.143927 L26.4721569,135.613162 Z" id="Path-173" fill="#35413D"></path>
                <path d="M30.1789502,140.468875 L31.2165138,143.233599 C36.8623957,139.187624 41.2932058,136.109758 44.5089443,134 C47.7246827,131.890242 59.8246631,124.122709 80.8088855,110.6974 C61.9042555,120.515248 49.8042751,126.981056 44.5089443,130.094823 C39.2136134,133.20859 34.4369487,136.666607 30.1789502,140.468875 Z" id="Path-174" fill="url(#linearGradient-12)"></path>
                <path d="M67.0314608,0.592986039 L67.632626,10.7088483 C61.2875015,29.8896548 53.6448384,46.0826231 44.7046367,59.2877531 C35.764435,72.492883 24.8557531,83.7011894 11.978591,92.9126722 L0.537823773,85.4742985 C13.8310277,79.4477427 26.1206687,69.1763691 37.406747,54.6601779 C48.6928253,40.1439867 58.5677299,22.1215894 67.0314608,0.592986039 Z" id="Path-165" fill="url(#linearGradient-13)"></path>
                <path d="M46.7687291,71.9087367 C48.7922696,69.7656715 50.2595955,68.1484859 51.170707,67.0571798 C52.0818185,65.9658736 53.1005276,64.6053498 54.2268343,62.9756082 C59.806093,62.5408 64.5578236,61.5629836 68.4820262,60.042159 C74.3683301,57.760922 80.0426304,52.4750868 79.8578916,53.0422925 C79.6731529,53.6094982 78.0806668,70.7858414 78.3467864,78.3233566 C78.5241995,83.3483667 79.4981672,88.2410568 81.2686895,93.001427 C75.2012582,93.6649959 69.085155,95.4544119 62.9203797,98.3696751 C56.7556045,101.284938 50.7821446,105.212561 45,110.152543 C46.7516618,102.705084 47.76556,95.9960367 48.0416945,90.0254013 C48.3178291,84.0547659 47.8935073,78.0158777 46.7687291,71.9087367 Z" id="Path-171" fill="url(#linearGradient-14)"></path>
                <polygon id="Path-172" fill="url(#linearGradient-15)" points="59.3962717 68.3113992 53.4276227 74.8703462 53.4276227 97.374556 72.8410668 87.4136879 72.8410668 66"></polygon>
            </g>
            <path d="M148.097084,234 C145.159739,238.327207 141.639303,242.539396 137.535776,246.636566 C133.432249,250.733735 129.064831,254.520582 124.43352,257.997105 C120.055907,256.054243 117.015509,254.670089 115.312324,253.84464 C109.522384,251.038545 105.751609,248.719677 104,246.888035 C107.926238,250.522754 113.345425,254.017105 120.25756,257.371089 C121.209887,257.833188 122.709472,258.634848 124.756313,259.776071 C130.389947,255.79499 135.069157,251.862744 138.793944,247.979331 C142.51873,244.095919 145.900004,239.884088 148.937766,235.34384 L148.097084,234 Z" id="Path-162" fill="url(#linearGradient-16)" transform="translate(126.468883, 246.888035) scale(-1, 1) translate(-126.468883, -246.888035) "></path>
            <path d="M294.273663,231.525495 C291.336318,235.852702 287.815882,240.064891 283.712355,244.162061 C279.608828,248.259231 275.24141,252.046077 270.610099,255.5226 C266.232486,253.579739 263.192088,252.195584 261.488903,251.370135 C255.698963,248.56404 251.628179,246.359821 249.27655,244.757477 L249.133148,244.936905 C253.755007,248.222707 259.522004,251.5426 266.434139,254.896584 C267.386466,255.358683 268.886051,256.160344 270.932892,257.301566 C276.566526,253.320485 281.245736,249.388239 284.970523,245.504826 C288.695309,241.621414 292.076583,237.409583 295.114345,232.869335 L294.273663,231.525495 Z" id="Path-162" fill="url(#linearGradient-16)"></path>
            <path d="M209.51272,175.754976 C213.218407,172.823836 215.519285,169.945459 216.415353,167.119843 C217.311421,164.294228 218.952532,155.041377 221.338684,139.361291 C234.440718,145.652406 243.294375,150.311568 247.899654,153.338775 C252.504933,156.365982 257.509546,160.350826 262.913493,165.293305 C258.810225,170.480019 257.572725,175.903066 259.200993,181.562446 C260.829261,187.221826 264.902203,191.653943 271.419821,194.858796 C269.150915,202.570071 268.016462,207.908337 268.016462,210.873593 C268.016462,213.838848 269.150915,216.613501 271.419821,219.19755 L240.466271,227.857261 L209.51272,175.754976 Z" id="Path-148" fill="#493529"></path>
            <path d="M127.53818,176.210593 C131.243867,173.279453 133.544745,170.401075 134.440813,167.57546 C135.336881,164.749845 137.454796,155.365885 140.79456,139.42358 C152.942983,145.976914 161.319834,150.767185 165.925113,153.794392 C170.530392,156.821599 175.535005,160.806442 180.938953,165.748922 C177.627345,170.606495 176.785676,175.864971 178.413944,181.524351 C180.042212,187.183731 183.719324,191.780419 189.445281,195.314413 C190.131644,202.640398 190.474826,208.133138 190.474826,211.792634 C190.474826,215.45213 190.131644,218.072308 189.445281,219.653167 L158.49173,228.312878 L127.53818,176.210593 Z" id="Path-148" fill="#493529" transform="translate(159.006503, 183.868229) scale(-1, 1) translate(-159.006503, -183.868229) "></path>
            <g id="Group" transform="translate(239.000000, 216.000000)">
                <path d="M23.4056903,2.27373675e-13 C28.8007303,2.58463239 35.6608431,4.64470526 43.9860286,6.18021862 C52.3112141,7.71573198 60.9940422,8.52242925 70.0345127,8.60031042 C63.8193742,17.3072625 58.7188111,23.5833263 54.7328234,27.4285019 C50.7468357,31.2736774 43.6902288,36.7253096 33.5630029,43.7833985 C26.7479513,39.9256379 21.8617588,37.0322871 18.9044255,35.1033461 C15.9470921,33.1744051 9.64561693,28.7705228 0,21.8916992 L4.63564187,3.27075597 L23.4056903,2.27373675e-13 Z" id="Path-160" fill="url(#linearGradient-17)"></path>
                <path d="M22.9667902,11 C28.0866989,12.4654325 32.2483758,13.4246503 35.4518209,13.8776534 C38.6552659,14.3306566 45.3476223,14.9063211 55.5288901,15.6046469 C50.9086907,21.5303243 47.2130928,25.8831182 44.4420964,28.6630285 C41.6710999,31.4429388 37.3945975,35.0878901 31.6125891,39.5978826 C25.3172894,36.9700781 20.7595036,34.9214849 17.9392316,33.4521027 C15.1189597,31.9827206 12.0799618,30.0733345 8.82223817,27.7239444 L2,19.4201931 L22.9667902,11 Z" id="Path-161" fill="url(#linearGradient-18)"></path>
                <path d="M70.2232551,8.50329815 L72.9514593,12.4156908 L78.8564563,13.4792281 C68.2448905,24.2325235 59.7766324,32.2700871 53.4516819,37.5919189 C47.1267314,42.9137507 40.305955,47.8257231 32.9893528,52.3278361 C26.2354266,47.7907337 21.1553222,44.3451777 17.7490393,41.9911682 C14.3427565,39.6371588 10.3313272,36.7633227 5.71475127,33.3696601 L10.5551479,28.6004848 C16.0002523,32.6563691 20.1527071,35.6535138 23.0125123,37.5919189 C25.8723175,39.5303241 28.9431639,41.4292067 32.2250516,43.2885667 C41.7024235,37.7909875 48.5600508,33.1024234 52.7979334,29.2228747 C57.0358159,25.3433259 62.8442565,18.4368004 70.2232551,8.50329815 Z" id="Path-163" fill="url(#linearGradient-19)"></path>
            </g>
            <g id="Group" transform="translate(119.452729, 245.500000) scale(-1, 1) translate(-119.452729, -245.500000) translate(79.952729, 219.000000)">
                <path d="M23.4056903,2.27373675e-13 C28.8007303,2.58463239 35.6608431,4.64470526 43.9860286,6.18021862 C52.3112141,7.71573198 60.9940422,8.52242925 70.0345127,8.60031042 C63.8193742,17.3072625 58.7188111,23.5833263 54.7328234,27.4285019 C50.7468357,31.2736774 43.6902288,36.7253096 33.5630029,43.7833985 C26.7479513,39.9256379 21.8617588,37.0322871 18.9044255,35.1033461 C15.9470921,33.1744051 9.64561693,28.7705228 0,21.8916992 L4.63564187,3.27075597 L23.4056903,2.27373675e-13 Z" id="Path-160" fill="url(#linearGradient-17)"></path>
                <path d="M22.9667902,11 C28.0866989,12.4654325 32.2483758,13.4246503 35.4518209,13.8776534 C38.6552659,14.3306566 45.3476223,14.9063211 55.5288901,15.6046469 C50.9086907,21.5303243 47.2130928,25.8831182 44.4420964,28.6630285 C41.6710999,31.4429388 37.3945975,35.0878901 31.6125891,39.5978826 C25.3172894,36.9700781 20.7595036,34.9214849 17.9392316,33.4521027 C15.1189597,31.9827206 12.0799618,30.0733345 8.82223817,27.7239444 L2,19.4201931 L22.9667902,11 Z" id="Path-161" fill="url(#linearGradient-18)"></path>
                <path d="M70.2232551,8.50329815 L72.9514593,12.4156908 L78.8564563,13.4792281 C68.2448905,24.2325235 59.7766324,32.2700871 53.4516819,37.5919189 C47.1267314,42.9137507 40.305955,47.8257231 32.9893528,52.3278361 C26.2354266,47.7907337 21.1553222,44.3451777 17.7490393,41.9911682 C14.3427565,39.6371588 10.3313272,36.7633227 5.71475127,33.3696601 L10.5551479,28.6004848 C16.0002523,32.6563691 20.1527071,35.6535138 23.0125123,37.5919189 C25.8723175,39.5303241 28.9431639,41.4292067 32.2250516,43.2885667 C41.7024235,37.7909875 48.5600508,33.1024234 52.7979334,29.2228747 C57.0358159,25.3433259 62.8442565,18.4368004 70.2232551,8.50329815 Z" id="Path-163" fill="url(#linearGradient-19)"></path>
            </g>
            <path d="M248.195949,253.361682 C247.250207,256.026847 244.295706,259.009293 239.332446,262.309021 C234.369186,265.608748 228.542408,268.464366 221.852112,270.875873 C226.90914,273.723429 229.592965,275.147207 229.903588,275.147207 C230.369522,275.147207 238.763957,273.390001 246.342959,267.653563 C251.395627,263.82927 255.502335,259.431645 258.663083,254.460685 L248.195949,253.361682 Z" id="Path-159" fill="url(#linearGradient-20)"></path>
            <path d="M172.343837,255 C171.398095,257.665165 168.443594,260.647611 163.480334,263.947339 C158.517074,267.247066 152.690296,270.102684 146,272.514191 C151.057028,275.361747 153.740853,276.785525 154.051476,276.785525 C154.517411,276.785525 162.911845,275.028319 170.490847,269.291881 C175.543515,265.467589 179.650223,261.069963 182.810971,256.099003 L172.343837,255 Z" id="Path-159" fill="url(#linearGradient-20)" transform="translate(164.405485, 265.892763) scale(-1, 1) translate(-164.405485, -265.892763) "></path>
            <path d="M200.492017,326.88042 C208.649066,316.204997 214.832218,308.644646 219.041474,304.199368 C223.334954,299.665144 231.521225,292.674279 243.600288,283.226772 C243.045165,282.581299 241.686301,281.532235 239.523698,280.079582 C237.361095,278.626929 234.083843,276.561844 229.691941,273.884326 L220.017326,257.583072 L200.492015,242.383024 L200.492015,242 L200.246008,242.191512 L200,242 L200,242.383024 L180.474689,257.583072 C176.921335,262.902445 173.076909,267.887391 168.941411,272.537912 C166.08374,275.751468 162.814592,278.243874 160.1651,280.591362 C159.375275,281.291159 158.383205,282.350309 157.188891,283.768811 C169.069845,292.854958 177.157061,299.665144 181.450541,304.199368 C185.659797,308.644646 191.842949,316.204997 199.999998,326.88042 L200,327.524979 C200.082199,327.417189 200.164202,327.30971 200.246008,327.202541 C200.327813,327.30971 200.409816,327.417189 200.492015,327.524979 L200.492015,326.880412 Z" id="Combined-Shape" fill="url(#linearGradient-21)"></path>
            <path d="M200.492017,318.819 C208.649066,309.157463 214.832218,302.315148 219.041474,298.292056 C223.334954,294.188464 230.485134,288.324836 240.492015,280.701172 L229.691941,270.856149 L220.017326,256.103088 L200.492015,242.346646 L200.492015,242 L200.246008,242.173323 L200,242 L200,242.346646 L180.474689,256.103088 L170.800074,270.856149 L160,280.701172 C170.006881,288.324836 177.157061,294.188464 181.450541,298.292056 C185.659797,302.315148 191.842949,309.157463 199.999998,318.819 L200,319.402343 C200.082199,319.304791 200.164202,319.207519 200.246008,319.110529 C200.327813,319.207519 200.409816,319.304791 200.492015,319.402343 L200.492015,318.818993 Z" id="Combined-Shape" fill="url(#linearGradient-22)"></path>
            <path d="M240.234278,212.087275 C245.34672,210.681056 249.114456,209.588182 251.537486,208.808655 C253.960516,208.029127 258.010521,206.606908 263.6875,204.541997 L262.953604,221.025927 C258.376138,222.096653 254.88008,222.818809 252.465431,223.192394 C250.050782,223.56598 246.914547,223.869948 243.056724,224.104298 L240.234278,212.087275 Z" id="Path-154" fill="url(#linearGradient-23)"></path>
            <path d="M136.500222,211.545277 C141.612665,210.139058 145.380401,209.046185 147.803431,208.266657 C150.226461,207.48713 154.276465,206.064911 159.953445,204 L159.219548,220.483929 C154.642082,221.554656 151.146024,222.276812 148.731376,222.650397 C146.316727,223.023983 143.180491,223.327951 139.322668,223.562301 L136.500222,211.545277 Z" id="Path-154" fill="url(#linearGradient-23)" transform="translate(148.226834, 213.781151) scale(-1, 1) translate(-148.226834, -213.781151) "></path>
            <path d="M241.917703,236.844057 C243.216058,237.873295 244.677196,238.736116 246.301117,239.432522 C247.925038,240.128927 249.973034,240.613365 252.445106,240.885835 C249.697428,244.358114 247.491399,246.901027 245.827019,248.514576 C244.162639,250.128124 241.546507,252.260097 237.978625,254.910495 L230.281557,246.883529 L241.917703,236.844057 Z" id="Path-156" fill="url(#linearGradient-23)"></path>
            <polygon id="Path-158" fill="url(#linearGradient-24)" points="205.174593 263.117384 205.174593 304.90885 229.779107 281.043158 209.344138 255.561127"></polygon>
            <polygon id="Path-158" fill="url(#linearGradient-24)" transform="translate(184.302257, 279.673861) scale(-1, 1) translate(-184.302257, -279.673861) " points="172 262.556258 172 304.347723 196.604514 280.482032 176.169545 255"></polygon>
            <path d="M157.636146,237 C158.9345,238.029238 160.395638,238.89206 162.01956,239.588465 C163.643481,240.28487 165.691477,240.769308 168.163549,241.041778 C165.415871,244.514057 163.209842,247.056971 161.545462,248.670519 C159.881081,250.284068 157.26495,252.416041 153.697068,255.066438 L146,247.039472 L157.636146,237 Z" id="Path-156" fill="url(#linearGradient-23)" transform="translate(157.081774, 246.033219) scale(-1, 1) translate(-157.081774, -246.033219) "></path>
            <path d="M243.711394,224.178813 C247.242885,224.178813 250.348065,224.178813 253.026934,224.178813 C255.705803,224.178813 258.827611,224.178813 262.392357,224.178813 C260.982304,227.719423 259.696944,230.554788 258.536278,232.684907 C257.375611,234.815026 255.79794,236.713374 253.803264,238.379949 C249.633179,237.554172 246.790968,236.881381 245.27663,236.361575 C243.762291,235.84177 241.877637,234.892037 239.622667,233.512377 L243.711394,224.178813 Z" id="Path-155" fill="url(#linearGradient-23)"></path>
            <path d="M141.088727,224 C144.620218,224 147.725397,224 150.404267,224 C153.083136,224 156.204943,224 159.76969,224 C158.359636,227.54061 157.074277,230.375975 155.91361,232.506094 C154.752944,234.636213 153.175272,236.534561 151.180597,238.201137 C147.010512,237.375359 144.1683,236.702568 142.653962,236.182763 C141.139624,235.662957 139.25497,234.713225 137,233.333565 L141.088727,224 Z" id="Path-155" fill="url(#linearGradient-23)" transform="translate(148.384845, 231.100568) scale(-1, 1) translate(-148.384845, -231.100568) "></path>
            <path d="M221.182766,138.782522 C229.522553,142.486995 237.279793,146.551834 244.454485,150.977041 C251.629178,155.402247 258.222638,160.188632 264.234866,165.336196 L254.573581,168.15009 C249.280861,162.630812 244.65776,158.762757 240.704278,156.545925 C236.750795,154.329092 232.099687,152.937609 226.750953,152.371476 L221.182766,138.782522 Z" id="Path-150" fill="url(#linearGradient-25)"></path>
            <path d="M134.202834,138.936573 C142.542622,142.641045 150.299861,146.705885 157.474554,151.131091 C164.649246,155.556298 171.242706,160.342683 177.254934,165.490246 L167.593649,168.304141 C162.30093,162.784863 157.677829,158.916808 153.724346,156.699975 C149.770863,154.483143 145.119755,153.09166 139.771021,152.525527 L134.202834,138.936573 Z" id="Path-150" fill="url(#linearGradient-25)" transform="translate(155.728884, 153.620357) scale(-1, 1) translate(-155.728884, -153.620357) "></path>
            <path d="M263.530135,196.272698 L271.671019,194.532674 C271.242388,200.342404 271.085153,204.577031 271.199314,207.236553 C271.313475,209.896076 271.657497,213.747721 272.231381,218.79149 L264.918836,219.724941 C264.137629,214.650006 263.674728,210.891602 263.530135,208.449728 C263.385542,206.007855 263.385542,201.948845 263.530135,196.272698 Z" id="Path-152" fill="url(#linearGradient-26)"></path>
            <path d="M126.540891,196.518521 L134.681775,194.778498 C134.253144,200.588228 134.095909,204.822854 134.21007,207.482377 C134.324231,210.141899 134.668253,213.993545 135.242138,219.037314 L127.929593,219.970765 C127.148385,214.895829 126.685484,211.137425 126.540891,208.695552 C126.396298,206.253679 126.396298,202.194669 126.540891,196.518521 Z" id="Path-152" fill="url(#linearGradient-26)" transform="translate(130.837292, 207.374631) scale(-1, 1) translate(-130.837292, -207.374631) "></path>
            <polygon id="Path-149" fill="url(#linearGradient-27)" points="221.117081 138.568369 226.77511 152.434377 218.366989 182.516639 210.365225 179.038634"></polygon>
            <polygon id="Path-149" fill="url(#linearGradient-27)" transform="translate(179.847854, 160.414203) scale(-1, 1) translate(-179.847854, -160.414203) " points="182.394767 138.440068 188.052796 152.306076 179.644675 182.388338 171.642911 178.910333"></polygon>
            <g id="Oval-12">
                <use fill="url(#linearGradient-28)" xlink:href="#path-30"></use>
                <use fill="url(#linearGradient-29)" xlink:href="#path-30"></use>
            </g>
            <path d="M200.200739,256.524979 C218.537001,256.524979 233.401479,240.620315 233.401479,221.000918 C233.401479,205.531874 223.11687,191.917779 210.219638,187.042322 C207.912748,186.170263 204.506202,180.822823 200,171 C195.676259,181.016435 192.484059,186.363875 190.4234,187.042322 C176.859151,191.508185 167,205.022617 167,221.000918 C167,240.620315 181.864477,256.524979 200.200739,256.524979 Z" id="Oval-12" fill="url(#linearGradient-31)"></path>
            <ellipse id="Oval" fill="url(#linearGradient-32)" cx="200" cy="222.730807" rx="28" ry="27.7308067"></ellipse>
            <path d="M200,148.918074 L206.32638,159.99063 L217.835418,165.919942 L205.177017,173.10351 L200,184.602609 L200,148.918074 Z M200,149.021162 L200,184.654142 L194.658401,173.185436 L182,166.001868 L193.509039,160.072556 L200,149.021162 Z" id="Combined-Shape" fill="url(#linearGradient-33)"></path>
            <path d="M200,194.719021 L200,211.604046 L205.562413,212.411678 L213.345473,198.794651 C210.814418,197.124368 208.71206,196.067164 207.0384,195.623037 C205.364739,195.178911 203.018606,194.877572 200,194.719021 Z" id="Path-147" fill="url(#linearGradient-34)"></path>
            <path d="M186.69865,194.721328 L186.742774,211.704674 L192.261063,212.413985 L200.044124,198.796958 C197.513069,197.126675 195.410711,196.06947 193.73705,195.625344 C192.063389,195.181218 189.717256,194.879879 186.69865,194.721328 Z" id="Path-147" fill="url(#linearGradient-34)" transform="translate(193.371387, 203.567656) scale(-1, 1) translate(-193.371387, -203.567656) "></path>
            <path d="M226.378964,153.608052 C235.004003,157.871495 240.440708,161.771177 242.689081,165.307099 C246.06164,170.610981 242.689081,179.847719 244.269078,185.638647 C245.849076,191.429576 252.412041,197.504411 253.365662,200.489315 C254.00141,202.479251 254.42387,204.704435 254.633043,207.164868 L246.133232,208.188163 C246.527665,206.279555 246.31558,204.059547 245.49698,201.528139 C244.269078,197.731027 238.300581,191.687932 237.144372,187.046625 C235.988162,182.405319 239.100117,177.752097 236.113132,170.604911 C234.121808,165.84012 230.173478,162.764711 224.268141,161.378686 L226.378964,153.608052 Z" id="Path-153" fill="url(#linearGradient-35)"></path>
            <path d="M145.881101,153.635567 C154.506139,157.89901 159.942845,161.798692 162.191218,165.334613 C165.563777,170.638496 162.191218,179.875234 163.771215,185.666162 C165.351213,191.45709 171.914178,197.531925 172.867799,200.51683 C173.503546,202.506766 173.926007,204.73195 174.13518,207.192383 L165.635369,208.215678 C166.029801,206.30707 165.817717,204.087062 164.999116,201.555654 C163.771215,197.758542 157.802718,191.715447 156.646508,187.07414 C155.490299,182.432834 158.602254,177.779612 155.615268,170.632425 C153.623944,165.867634 149.675614,162.792226 143.770278,161.406201 L145.881101,153.635567 Z" id="Path-153" fill="url(#linearGradient-35)" transform="translate(158.952729, 180.925622) scale(-1, 1) translate(-158.952729, -180.925622) "></path>
            <ellipse id="Oval-2" fill="url(#linearGradient-36)" cx="200.5" cy="223" rx="12.5" ry="12"></ellipse>
            <path d="M254.74213,168.076278 C252.039175,173.166118 251.499114,178.42892 253.121947,183.864684 C254.74478,189.300448 258.112236,193.431578 263.224314,196.258074 L271.754464,194.620669 C264.935833,189.949286 261.110405,185.821416 260.278181,182.237058 C259.445957,178.652701 260.78534,172.967411 264.296331,165.18119 L254.74213,168.076278 Z" id="Path-151" fill="url(#linearGradient-37)"></path>
            <path d="M129.260755,168.301055 C126.5578,173.390895 126.017739,178.653697 127.640572,184.089461 C129.263405,189.525224 132.630861,193.656354 137.742939,196.48285 L146.273089,194.845446 C139.454458,190.174063 135.62903,186.046193 134.796806,182.461835 C133.964582,178.877478 135.303965,173.192188 138.814956,165.405967 L129.260755,168.301055 Z" id="Path-151" fill="url(#linearGradient-37)" transform="translate(136.500222, 180.944408) scale(-1, 1) translate(-136.500222, -180.944408) "></path>
        </g>
    </g>
</svg>