<?xml version="1.0" encoding="UTF-8"?>
<svg width="400px" height="400px" viewBox="0 0 400 400" version="1.1" xmlns="http://www.w3.org/2000/svg" xmlns:xlink="http://www.w3.org/1999/xlink">
    <!-- Generator: Sketch 47 (45396) - http://www.bohemiancoding.com/sketch -->
    <title>gold</title>
    <desc>Created with Sketch.</desc>
    <defs>
        <linearGradient x1="114.859578%" y1="-14.498171%" x2="27.7274127%" y2="72.2584649%" id="linearGradient-1">
            <stop stop-color="#BC6F1A" offset="0%"></stop>
            <stop stop-color="#EBC86E" offset="30.3302078%"></stop>
            <stop stop-color="#A6864F" offset="100%"></stop>
        </linearGradient>
        <linearGradient x1="100%" y1="0%" x2="33.7750759%" y2="69.2350756%" id="linearGradient-2">
            <stop stop-color="#391B09" offset="0%"></stop>
            <stop stop-color="#6A1005" offset="41.7651376%"></stop>
            <stop stop-color="#451808" offset="100%"></stop>
        </linearGradient>
        <linearGradient x1="50%" y1="108.695783%" x2="50%" y2="17.9342567%" id="linearGradient-3">
            <stop stop-color="#4D1D04" offset="0%"></stop>
            <stop stop-color="#371704" offset="69.8665703%"></stop>
            <stop stop-color="#320204" offset="100%"></stop>
        </linearGradient>
        <linearGradient x1="87.4343047%" y1="100%" x2="0%" y2="0%" id="linearGradient-4">
            <stop stop-color="#870B0A" offset="0%"></stop>
            <stop stop-color="#380404" offset="100%"></stop>
        </linearGradient>
        <linearGradient x1="50%" y1="0%" x2="50%" y2="100%" id="linearGradient-5">
            <stop stop-color="#370808" offset="0%"></stop>
            <stop stop-color="#4D1610" offset="100%"></stop>
        </linearGradient>
        <linearGradient x1="35.4792483%" y1="44.2368549%" x2="68.6761508%" y2="89.4420816%" id="linearGradient-6">
            <stop stop-color="#954B11" offset="0%"></stop>
            <stop stop-color="#AE722F" offset="100%"></stop>
        </linearGradient>
        <linearGradient x1="50%" y1="0%" x2="50%" y2="100%" id="linearGradient-7">
            <stop stop-color="#3F0303" offset="0%"></stop>
            <stop stop-color="#8D0303" offset="100%"></stop>
        </linearGradient>
        <linearGradient x1="35.4792483%" y1="44.2368549%" x2="68.6761508%" y2="89.4420816%" id="linearGradient-8">
            <stop stop-color="#954B11" offset="0%"></stop>
            <stop stop-color="#6C3F0C" offset="100%"></stop>
        </linearGradient>
        <linearGradient x1="50%" y1="0%" x2="50%" y2="100%" id="linearGradient-9">
            <stop stop-color="#8E6238" offset="0%"></stop>
            <stop stop-color="#54351C" offset="100%"></stop>
        </linearGradient>
        <linearGradient x1="50%" y1="0%" x2="50%" y2="100%" id="linearGradient-10">
            <stop stop-color="#CE2B0B" offset="0%"></stop>
            <stop stop-color="#3E2C1B" offset="100%"></stop>
        </linearGradient>
        <linearGradient x1="43.7702431%" y1="37.0619397%" x2="68.9609833%" y2="84.2287503%" id="linearGradient-11">
            <stop stop-color="#441704" offset="0%"></stop>
            <stop stop-color="#5E2406" offset="100%"></stop>
        </linearGradient>
        <linearGradient x1="23.4002586%" y1="9.98356805%" x2="58.0374576%" y2="90.2717389%" id="linearGradient-12">
            <stop stop-color="#954812" offset="0%"></stop>
            <stop stop-color="#CA993A" offset="100%"></stop>
        </linearGradient>
        <linearGradient x1="50%" y1="0%" x2="50%" y2="100%" id="linearGradient-13">
            <stop stop-color="#CD8822" offset="0%"></stop>
            <stop stop-color="#813F1A" offset="100%"></stop>
        </linearGradient>
        <linearGradient x1="50%" y1="0%" x2="50%" y2="100%" id="linearGradient-14">
            <stop stop-color="#CA7B12" offset="0%"></stop>
            <stop stop-color="#EFD37B" offset="100%"></stop>
        </linearGradient>
        <linearGradient x1="50%" y1="0%" x2="50%" y2="100%" id="linearGradient-15">
            <stop stop-color="#7E0C04" offset="0%"></stop>
            <stop stop-color="#A53B2E" offset="100%"></stop>
        </linearGradient>
        <linearGradient x1="50%" y1="0%" x2="50%" y2="100%" id="linearGradient-16">
            <stop stop-color="#FFF7DE" offset="0%"></stop>
            <stop stop-color="#FFEBB9" offset="100%"></stop>
        </linearGradient>
    </defs>
    <g id="Page-1" stroke="none" stroke-width="1" fill="none" fill-rule="evenodd">
        <g id="gold">
            <g id="duan" transform="translate(62.000000, 48.000000)">
                <rect id="Rectangle-6" fill="url(#linearGradient-1)" transform="translate(138.020950, 113.516653) rotate(-45.000000) translate(-138.020950, -113.516653) " x="103.538948" y="78.8448699" width="68.9640036" height="69.3435659"></rect>
                <rect id="Rectangle-6" fill="url(#linearGradient-2)" transform="translate(140.019349, 122.406330) rotate(-45.000000) translate(-140.019349, -122.406330) " x="115.636891" y="97.4063297" width="48.7649146" height="50"></rect>
                <path d="M136.541761,202.431436 C105.548204,198.232793 90.0514254,197.404354 90.0514254,199.946119 C90.0514254,202.57439 85.0041688,210.358843 74.9096557,223.299477 L90.0514254,276.38124 L118.187966,284.050061 L136.541761,300.463011 L136.541761,302.832622 L137.866671,301.647816 L139.760093,303.341016 L139.760093,299.954617 L158.113889,283.541667 L186.250429,275.872846 L201.392199,222.791083 C191.297685,209.850449 186.250429,202.065996 186.250429,199.437725 C186.250429,196.809454 169.680873,197.784693 136.541761,202.36344 L136.541761,202.431436 Z" id="Combined-Shape" fill="url(#linearGradient-3)"></path>
                <path d="M193.251023,204.528725 L188.195556,214.820296 C192.600465,225.656889 197.103505,234.539589 201.704674,241.468396 C205.947756,247.857966 214.64429,256.5189 220.779764,260.976328 C221.124959,261.227113 220.480405,261.227113 218.846102,260.976328 C214.256498,262.726221 210.856288,264.391232 208.645474,265.971363 C206.43466,267.551494 204.12106,269.970303 201.704674,273.22779 C199.007882,272.976685 196.856835,272.851133 195.251534,272.851133 C193.646234,272.851133 191.294241,272.976685 188.195556,273.22779 C183.984271,274.118228 181.218218,274.563446 179.897397,274.563446 C178.576576,274.563446 175.082747,274.118228 169.41591,273.22779 L167.756583,272.851133 C164.618656,271.445119 162.176524,270.543908 160.430187,270.147499 C158.68385,269.751091 154.877057,268.359046 149.009809,265.971363 C154.54216,259.053368 157.903082,248.329251 159.092575,233.799014 C160.282068,219.268777 159.393668,204.438564 156.427374,189.308377 L193.251023,204.528725 Z" id="Path-28" fill="url(#linearGradient-4)"></path>
                <path d="M97.8826199,204.220349 L92.8271528,214.51192 C97.2320621,225.348513 101.735101,234.231213 106.336271,241.160019 C110.579352,247.54959 119.275887,256.210524 125.411361,260.667952 C125.756556,260.918736 125.112002,260.918736 123.477699,260.667952 C118.888094,262.417844 115.487885,264.082856 113.277071,265.662987 C111.066257,267.243118 108.752657,269.661927 106.336271,272.919414 C103.639478,272.668309 101.488432,272.542756 99.8831312,272.542756 C98.2778304,272.542756 95.9258376,272.668309 92.8271528,272.919414 C88.6158679,273.809851 85.849815,274.25507 84.528994,274.25507 C83.208173,274.25507 79.7143439,273.809851 74.0475066,272.919414 L72.3881801,272.542756 C69.2502528,271.136742 66.8081206,270.235531 65.0617835,269.839123 C63.3154463,269.442714 59.5086539,268.050669 53.6414061,265.662987 C59.1737565,258.744991 62.5346783,248.020875 63.7241715,233.490637 C64.9136646,218.9604 64.0252646,204.130188 61.0589712,189 L97.8826199,204.220349 Z" id="Path-28" fill="url(#linearGradient-4)" transform="translate(89.571531, 231.627535) scale(-1, 1) translate(-89.571531, -231.627535) "></path>
                <path d="M99.6814431,207.950971 C100.038085,218.841548 99.1908981,230.947542 97.1398821,244.268953 C95.088866,257.590364 92.4415387,267.29156 89.1979003,273.37254 L84.2224495,272.779675 C89.5863273,258.285908 93.1014683,247.481124 94.7678726,240.365323 C96.4342769,233.249523 98.0721337,222.444739 99.6814431,207.950971 Z" id="Path-30" fill="url(#linearGradient-5)"></path>
                <path d="M187.111493,209 C187.468135,219.890577 186.620948,231.996571 184.569932,245.317982 C182.518916,258.639393 179.871589,268.340588 176.62795,274.421568 L171.652499,273.828704 C177.016377,259.334936 180.531518,248.530152 182.197922,241.414352 C183.864327,234.298551 185.502184,223.493767 187.111493,209 Z" id="Path-30" fill="url(#linearGradient-5)" transform="translate(179.421618, 241.710784) scale(-1, 1) translate(-179.421618, -241.710784) "></path>
                <path d="M106.307514,220 C107.133615,231.528427 107.546665,239.983018 107.546665,245.363773 C107.546665,250.744529 106.803017,259.960757 105.31572,273.012457 C110.651423,271.448225 113.438288,270.474882 113.676318,270.092429 C113.845737,269.820214 114.479013,260.341924 112.363814,244.166024 C111.79276,239.798906 110.187043,231.743565 107.546665,220" id="Path-31" fill="url(#linearGradient-5)"></path>
                <path d="M160.940714,220 C161.766815,231.528427 162.179865,239.983018 162.179865,245.363773 C162.179865,250.744529 161.436217,259.960757 159.94892,273.012457 C165.284622,271.448225 168.071488,270.474882 168.309517,270.092429 C168.478937,269.820214 169.112213,260.341924 166.997014,244.166024 C166.425959,239.798906 164.820243,231.743565 162.179865,220" id="Path-31" fill="url(#linearGradient-5)" transform="translate(164.239716, 246.506229) scale(-1, 1) translate(-164.239716, -246.506229) "></path>
                <path d="M236.51821,139.277005 C244.965118,137.776749 252.27041,135.265863 258.434085,131.744347 C264.59776,128.222831 272.748194,122.710872 282.885386,115.208471 C279.650837,124.380865 277.38501,133.491129 276.087907,142.539263 C274.790803,151.587397 273.927489,160.064858 273.497966,167.971646 C262.642485,170.474045 254.868367,172.102462 250.175613,172.856899 C245.482859,173.611336 237.962311,174.441785 227.61397,175.348247 L236.51821,139.277005 Z" id="Path-25" fill="url(#linearGradient-6)"></path>
                <path d="M139.259412,244.76307 C144.646791,238.59781 150.820525,233.247018 157.780614,228.710693 C165.125093,223.923836 174.516683,219.280354 185.955382,214.780247 C181.934108,210.655984 177.44083,207.435653 172.47555,205.119255 C167.510269,202.802856 161.884198,201.302317 155.597338,200.617638 L138.374009,202.72274 L138.374009,202.996885 L122.036084,201 C115.749223,201.68468 110.123153,203.185219 105.157872,205.501617 C100.192592,207.818015 95.699314,211.038346 91.6780394,215.162609 C103.116739,219.662716 112.508328,224.306199 119.852808,229.093055 C126.812897,233.62938 132.986631,238.980173 138.374009,245.145432 L138.374009,245.792003 C138.466497,245.682857 138.559223,245.573959 138.652189,245.46531 C138.855731,245.700487 139.058139,245.936839 139.259412,246.174365 L139.259412,244.76307 Z" id="Combined-Shape" fill="url(#linearGradient-7)"></path>
                <path d="M265.475407,167.837987 C265.475407,167.837987 256.850652,177.394387 252.557924,185.954086 C249.696105,191.660552 248.488512,196.615611 248.935146,200.819264 C234.319384,193.836279 223.240775,189.740805 215.699321,188.53284 C208.157867,187.324875 197.661524,189.422168 184.210292,194.824718 L153.290241,204.070185 L162.227617,183.524702 C231.059477,173.066892 265.475407,167.837987 265.475407,167.837987 Z" id="Path-26" fill="url(#linearGradient-8)"></path>
                <path d="M125.839342,169 C125.839342,169 117.214586,178.5564 112.921858,187.116099 C110.06004,192.822564 108.852447,197.777624 109.299081,201.981277 C94.6833184,194.998292 83.6047103,190.902818 76.0632563,189.694853 C68.5218023,188.486888 58.025459,190.58418 44.5742264,195.986731 L13.6541761,205.232198 L22.5915522,184.686715 C91.4234123,174.228905 125.839342,169 125.839342,169 Z" id="Path-26" fill="url(#linearGradient-8)" transform="translate(69.746759, 187.116099) scale(-1, 1) translate(-69.746759, -187.116099) "></path>
                <ellipse id="Oval-4" fill="url(#linearGradient-9)" cx="195.547308" cy="197.5" rx="13.1665269" ry="11.5"></ellipse>
                <ellipse id="Oval-4" fill="url(#linearGradient-9)" cx="87.2891971" cy="197.5" rx="13.1665269" ry="11.5"></ellipse>
                <ellipse id="Oval-3" fill="url(#linearGradient-10)" cx="195.547308" cy="197" rx="8.29003548" ry="8"></ellipse>
                <ellipse id="Oval-3" fill="url(#linearGradient-10)" cx="87.2891971" cy="197" rx="8.29003548" ry="8"></ellipse>
                <path d="M8.90423932,141.985872 C17.3511475,140.485616 24.6564393,137.97473 30.8201145,134.453214 C36.9837897,130.931698 45.1342235,125.419739 55.2714158,117.917338 C52.0368664,127.089732 49.7710399,136.199996 48.4739362,145.24813 C47.1768325,154.296264 46.3135189,162.773725 45.8839954,170.680513 C35.0285144,173.182912 27.2543968,174.811329 22.5616426,175.565766 C17.8688884,176.320203 10.3483409,177.150652 0,178.057114 L8.90423932,141.985872 Z" id="Path-25" fill="url(#linearGradient-6)" transform="translate(27.635708, 147.987226) scale(-1, 1) translate(-27.635708, -147.987226) "></path>
                <path d="M193.543269,103.46671 L200.880486,101.117027 L204.721903,89.7207252 C217.340868,84.5499928 228.502257,73.9696475 238.206072,57.9796895 C247.909887,41.9897314 254.758029,22.893947 258.750499,0.69233603 C268.272159,20.20988 274.782301,36.7392495 278.280927,50.2804446 C281.779552,63.8216397 283.308869,78.4084555 282.868875,94.040892 C281.695695,98.2372212 271.996529,105.435934 253.771378,115.637032 C235.546228,125.838129 221.592977,131.878297 211.911627,133.757535 L193.543269,103.46671 Z" id="Path-23" fill="url(#linearGradient-6)"></path>
                <path d="M0,104.774374 L7.33721682,102.424691 L11.178634,91.0283892 C23.7975988,85.8576567 34.9589886,75.2773115 44.6628033,59.2873535 C54.3666181,43.2973954 61.2147605,24.2016109 65.2072306,2 C74.72889,21.517544 81.2390325,38.0469135 84.737658,51.5881086 C88.2362835,65.1293037 89.7655997,79.7161195 89.3256067,95.3485559 C88.1524259,99.5448852 78.4532602,106.743598 60.2281095,116.944696 C42.0029587,127.145793 28.0497083,133.185961 18.368358,135.065199 L0,104.774374 Z" id="Path-23" fill="url(#linearGradient-6)" transform="translate(44.699668, 68.532599) scale(-1, 1) translate(-44.699668, -68.532599) "></path>
                <path d="M194.164083,113.367479 C204.36682,106.031054 211.547214,100.502021 215.705268,96.7803788 C219.863321,93.058737 223.918933,88.5310459 227.872105,83.1973057 C229.557236,89.2176631 230.62555,94.1167994 231.077048,97.8947146 C231.528545,101.67263 231.528545,105.712636 231.077048,110.014733 C227.337386,113.864598 222.935372,117.387098 217.871006,120.582234 C212.80664,123.77737 208.087756,126.009294 203.714354,127.278006 L194.164083,113.367479 Z" id="Path-20" fill="url(#linearGradient-11)"></path>
                <path d="M228.981624,125.409369 C239.850944,122.149373 249.48723,117.553384 257.890483,111.621402 C266.293736,105.68942 275.35163,99.3099038 285.064165,92.4828531 C284.926769,98.5726164 284.52898,104.119793 283.870796,109.124382 C283.212612,114.12897 281.640926,118.444328 279.155737,122.070455 C270.760558,127.914664 264.285498,131.852841 259.730557,133.884986 C255.175616,135.917131 245.933021,139.778829 232.002773,145.470079 L228.981624,125.409369 Z" id="Path-24" fill="url(#linearGradient-6)"></path>
                <path d="M0,127.926515 C10.8693202,124.66652 20.5056068,120.070531 28.9088597,114.138549 C37.3121126,108.206567 46.3700065,101.827051 56.0825415,95 C55.9451457,101.089763 55.5473559,106.636939 54.889172,111.641528 C54.2309882,116.646117 52.659302,120.961475 50.1741136,124.587602 C41.7789342,130.431811 35.303874,134.369988 30.7489332,136.402133 C26.1939923,138.434278 16.9513979,142.295976 3.02114986,147.987226 L0,127.926515 Z" id="Path-24" fill="url(#linearGradient-6)" transform="translate(28.041271, 121.493613) scale(-1, 1) translate(-28.041271, -121.493613) "></path>
                <path d="M51.6908095,117.170174 C61.8935461,109.833749 69.073941,104.304715 73.2319941,100.583073 C77.3900473,96.8614313 81.4456598,92.3337403 85.3988317,87 C87.0839626,93.0203574 88.1522769,97.9194937 88.6037744,101.697409 C89.0552719,105.475324 89.0552719,109.51533 88.6037744,113.817428 C84.8641124,117.667292 80.4620984,121.189792 75.3977324,124.384928 C70.3333664,127.580065 65.6144825,129.811989 61.2410806,131.0807 L51.6908095,117.170174 Z" id="Path-20" fill="url(#linearGradient-11)" transform="translate(70.316604, 109.040350) scale(-1, 1) translate(-70.316604, -109.040350) "></path>
                <path d="M204.95764,126.671217 C210.705673,124.825576 216.444087,121.715211 222.172882,117.340123 C227.901677,112.965036 233.552387,107.377512 239.125012,100.577553 C240.400379,107.99243 241.038063,114.450763 241.038063,119.952551 C241.038063,125.454339 240.400379,131.947536 239.125012,139.43214 C237.899172,142.191136 233.115149,145.930397 224.772943,150.649921 C216.430737,155.369445 208.066989,159.068412 199.681697,161.746823 L204.95764,126.671217 Z" id="Path-21" fill="url(#linearGradient-11)"></path>
                <path d="M45.2631725,128.093665 C51.011206,126.248023 56.7496201,123.137658 62.4784149,118.762571 C68.2072096,114.387483 73.8579194,108.799959 79.4305442,102 C80.705912,109.414877 81.3435959,115.87321 81.3435959,121.374998 C81.3435959,126.876787 80.705912,133.369983 79.4305442,140.854587 C78.2047042,143.613584 73.4206813,147.352844 65.0784755,152.072368 C56.7362696,156.791892 48.3725211,160.49086 39.98723,163.16927 L45.2631725,128.093665 Z" id="Path-21" fill="url(#linearGradient-11)" transform="translate(60.665413, 132.584635) scale(-1, 1) translate(-60.665413, -132.584635) "></path>
                <path d="M206.669903,155.142772 C211.597736,153.953577 217.254365,151.565821 223.63979,147.979502 C230.025214,144.393184 236.067608,140.210287 241.766969,135.430811 C242.239757,138.556968 242.239757,144.133995 241.766969,152.161891 C241.464599,157.29612 241.193121,161.62251 240.952534,165.14106 C240.862137,166.463104 240.736355,168.18956 240.575187,170.32043 C235.410623,172.847009 229.765491,174.847435 223.63979,176.321708 C217.514088,177.795982 210.367239,178.268615 202.199241,177.739608 L206.669903,155.142772 Z" id="Path-22" fill="url(#linearGradient-11)"></path>
                <path d="M39.5813999,154.711962 C44.5092329,153.522766 50.1658618,151.13501 56.5512866,147.548692 C62.9367113,143.962374 68.9791046,139.779476 74.6784665,135 C75.1512538,138.126157 75.1512538,143.703184 74.6784665,151.731081 C74.376096,156.86531 74.1046176,161.191699 73.8640312,164.710249 C73.7736344,166.032293 73.647852,167.75875 73.486684,169.889619 C68.3221202,172.416198 62.6769877,174.416624 56.5512866,175.890898 C50.4255854,177.365171 43.2787361,177.837805 35.1107385,177.308798 L39.5813999,154.711962 Z" id="Path-22" fill="url(#linearGradient-11)" transform="translate(55.071898, 156.259170) scale(-1, 1) translate(-55.071898, -156.259170) "></path>
                <path d="M165.125563,123.987436 C169.709947,117.201198 172.980077,111.438886 174.935952,106.700501 C176.891828,101.962115 178.175379,96.6924924 178.786605,90.8916326 C185.956073,96.5965394 191.563444,101.866162 195.608718,106.700501 C199.653993,111.534839 203.519562,117.297151 207.205424,123.987436 C203.928101,131.142359 200.062533,137.181812 195.608718,142.105796 C191.154904,147.02978 184.263982,150.056119 174.935952,151.184811 L166.246858,151.184811 L165.125563,123.987436 Z" id="Path-17" fill="url(#linearGradient-12)"></path>
                <path d="M72.1720736,124.095804 C76.7564573,117.309565 80.0265871,111.547253 81.9824629,106.808868 C83.9383388,102.070482 85.2218897,96.8008598 85.8331158,91 C93.0025831,96.7049068 98.6099542,101.974529 102.655229,106.808868 C106.700504,111.643206 110.566072,117.405518 114.251934,124.095804 C110.974612,131.250726 107.109044,137.290179 102.655229,142.214164 C98.2014142,147.138148 91.3104923,150.164486 81.9824629,151.293178 L73.2933681,151.293178 L72.1720736,124.095804 Z" id="Path-17" fill="url(#linearGradient-12)" transform="translate(93.212004, 121.146589) scale(-1, 1) translate(-93.212004, -121.146589) "></path>
                <path d="M168.862632,149.781366 C175.778269,150.881434 183.014345,148.405235 190.570859,142.35277 C198.127373,136.300304 203.697748,128.516047 207.281986,119 C210.580346,127.640345 212.479431,134.55932 212.979239,139.756924 C213.479046,144.954527 212.835348,151.090571 211.048144,158.165054 C205.10288,162.307824 197.679689,165.682424 188.778572,168.288854 C179.877456,170.895284 170.91777,172.317927 161.899516,172.556783 L168.862632,149.781366 Z" id="Path-18" fill="url(#linearGradient-12)"></path>
                <path d="M73.2833989,149.781366 C80.1990362,150.881434 87.4351119,148.405235 94.9916261,142.35277 C102.54814,136.300304 108.118516,128.516047 111.702753,119 C115.001114,127.640345 116.900198,134.55932 117.400006,139.756924 C117.899814,144.954527 117.256116,151.090571 115.468911,158.165054 C109.523647,162.307824 102.100457,165.682424 93.1993398,168.288854 C84.298223,170.895284 75.3385377,172.317927 66.3202838,172.556783 L73.2833989,149.781366 Z" id="Path-18" fill="url(#linearGradient-12)" transform="translate(91.942067, 145.778392) scale(-1, 1) translate(-91.942067, -145.778392) "></path>
                <path d="M167.247779,170.033092 C174.40283,170.168158 182.592317,168.874081 191.816241,166.15086 C201.040165,163.42764 209.14851,159.6035 216.141278,154.678442 C215.265888,160.004902 214.522134,164.005744 213.910017,166.680965 C213.297899,169.356187 212.250838,173.181988 210.768835,178.158366 C207.426608,181.186855 201.068506,183.42383 191.694528,184.869293 C182.32055,186.314756 174.171634,186.314756 167.247779,184.869293 L167.247779,170.033092 Z" id="Path-19" fill="url(#linearGradient-12)"></path>
                <path d="M65.3449856,171.35465 C72.5000369,171.489716 80.6895243,170.195639 89.9134479,167.472418 C99.1373715,164.749198 107.245717,160.925058 114.238485,156 C113.363095,161.326461 112.619341,165.327302 112.007224,168.002524 C111.395106,170.677745 110.348045,174.503546 108.866042,179.479925 C105.523815,182.508413 99.165713,184.745388 89.7917352,186.190851 C80.4177574,187.636315 72.2688408,187.636315 65.3449856,186.190851 L65.3449856,171.35465 Z" id="Path-19" fill="url(#linearGradient-12)" transform="translate(89.791735, 171.637474) scale(-1, 1) translate(-89.791735, -171.637474) "></path>
                <path d="M138.6905,120.51582 C142.398722,122.021376 145.305857,123.721006 147.411908,125.614708 C149.550016,127.537237 151.986135,129.837589 154.720264,132.515765 C156.177417,128.862848 156.982001,124.839993 157.134017,120.447202 C157.286033,116.05441 156.750744,112.295491 155.528148,109.170445 C161.548358,111.090414 166.501732,113.946971 170.38827,117.740116 C176.218078,123.429833 177.478808,129.317939 178.236573,135.698017 C178.741749,139.951403 178.741749,144.189302 178.236573,148.411714 C176.884221,150.053997 175.639934,151.255816 174.503712,152.017172 C173.36749,152.778528 171.995676,153.597835 170.38827,154.475092 C170.878487,157.827855 171.050142,161.085817 170.903236,164.248976 C170.75633,167.412135 170.273985,170.34729 169.4562,173.054439 C172.744111,175.30533 175.335367,176.682919 177.229967,177.187206 C179.124567,177.691492 182.542441,177.913355 187.483588,177.852795 C186.569151,182.107118 185.560323,185.371751 184.457104,187.646694 C183.353886,189.921636 181.689256,192.440233 179.463214,195.202483 C176.175147,195.371578 173.815672,195.371578 172.384789,195.202483 C170.953906,195.033389 169.123412,194.538239 166.893308,193.717033 C164.048164,198.833087 161.555046,202.480705 159.413952,204.659886 C156.202311,207.928657 153.847361,209.402546 149.532757,211.234895 C146.656354,212.456461 142.976221,213.061588 138.492357,213.050277 L138.492409,212.879878 C134.110859,212.870549 130.506147,212.265407 127.678274,211.06445 C123.36367,209.232101 121.00872,207.758213 117.797079,204.489441 C115.655985,202.31026 113.162866,198.662643 110.317723,193.546589 C108.087619,194.367794 106.257125,194.862944 104.826242,195.032039 C103.395359,195.201134 101.035884,195.201134 97.7478162,195.032039 C95.5217745,192.269788 93.8571445,189.751192 92.7539262,187.476249 C91.6507079,185.201306 90.6418801,181.936674 89.7274428,177.68235 C94.6685897,177.74291 98.0864632,177.521047 99.9810633,177.016761 C101.875663,176.512475 104.466919,175.134886 107.754831,172.883994 C106.937046,170.176845 106.4547,167.241691 106.307794,164.078532 C106.160889,160.915372 106.332544,157.657411 106.822761,154.304647 C105.215355,153.42739 103.843541,152.608083 102.707319,151.846727 C101.571097,151.085371 100.32681,149.883552 98.9744581,148.24127 C98.469282,144.018857 98.469282,139.780958 98.9744581,135.527573 C99.7322223,129.147494 100.992953,123.259389 106.822761,117.569671 C110.709299,113.776527 115.662673,110.91997 121.682883,109 C120.460287,112.125047 119.924997,115.883966 120.077013,120.276757 C120.22903,124.669549 121.033614,128.692403 122.490767,132.34532 C125.224896,129.667144 127.661015,127.366792 129.799123,125.444264 C131.937231,123.521735 134.900999,121.799233 138.690427,120.276757 L138.6905,120.515815 Z" id="Combined-Shape" fill="url(#linearGradient-13)"></path>
                <path d="M138.725053,135.022638 C147.575075,141.30886 153.405123,146.748467 156.215197,151.341458 C160.430307,158.230945 165.733584,169.400762 158.6883,183.09666 C153.991445,192.227258 147.337029,197.203716 138.725053,198.026032 L138.725053,135.022638 Z M138.716913,135 L138.716913,198.053575 C129.949806,196.929097 123.217825,191.801559 118.52097,182.67096 C111.475686,168.975062 116.778963,157.805245 120.994073,150.915758 C123.804147,146.322767 129.71176,141.017514 138.716913,135 Z" id="Combined-Shape" fill="url(#linearGradient-14)"></path>
                <path d="M138.917053,108.287587 L138.917053,107.528559 L125.088607,116.892628 L129.691871,121.480335 L138.492357,115.052007 L138.492357,115.213228 L147.717539,121.951776 L152.320803,117.364069 L138.917053,108.287587 Z" id="Combined-Shape" fill="url(#linearGradient-15)"></path>
                <path d="M138.008331,164.499008 C140.500215,169.232614 142.651809,171.031528 144.463112,169.895751 C147.180067,168.192085 146.331464,162.00044 148.575085,157.873127 C150.070833,155.121585 152.133043,152.230168 154.761714,149.198876 C157.457404,153.305922 158.659589,155.437991 158.368269,155.595083 C158.139108,155.718656 154.971703,156.522778 151.213041,163.758978 C150.533363,165.067499 149.654045,168.243302 148.575085,173.286388 C148.82216,175.756392 149.059503,177.56401 149.287115,178.709242 C149.514727,179.854474 150.353373,184.379173 151.803053,192.28334 C148.84854,185.196499 146.401893,180.313885 144.463112,177.635498 C142.524332,174.957111 140.372738,172.887107 138.008331,171.425486 L138.008331,164.499008 Z" id="Path-207" fill="url(#linearGradient-16)"></path>
                <path d="M117.609778,164.500518 C120.101662,169.234123 122.253256,171.033038 124.064559,169.89726 C126.781514,168.193595 125.93291,162.00195 128.176532,157.874637 C129.67228,155.123095 131.73449,152.231678 134.363161,149.200385 C137.058851,153.307432 138.261036,155.439501 137.969716,155.596593 C137.740555,155.720166 134.57315,156.524287 130.814488,163.760487 C130.13481,165.069008 129.255491,168.244812 128.176532,173.287898 C128.423607,175.757902 128.66095,177.56552 128.888562,178.710752 C129.116174,179.855984 129.837247,183.993971 131.051782,191.124713 C128.332414,184.811296 126.00334,180.315395 124.064559,177.637008 C122.125778,174.958621 119.974185,172.888617 117.609778,171.426996 L117.609778,164.500518 Z" id="Path-207" fill="url(#linearGradient-16)" transform="translate(127.811056, 170.162549) scale(-1, 1) translate(-127.811056, -170.162549) "></path>
            </g>
        </g>
    </g>
</svg>