<?xml version="1.0" encoding="UTF-8"?>
<svg width="400px" height="400px" viewBox="0 0 400 400" version="1.1" xmlns="http://www.w3.org/2000/svg" xmlns:xlink="http://www.w3.org/1999/xlink">
    <!-- Generator: Sketch 47 (45396) - http://www.bohemiancoding.com/sketch -->
    <title>king</title>
    <desc>Created with Sketch.</desc>
    <defs>
        <linearGradient x1="50%" y1="0%" x2="50%" y2="100%" id="linearGradient-1">
            <stop stop-color="#728883" offset="0%"></stop>
            <stop stop-color="#3E504C" offset="100%"></stop>
        </linearGradient>
        <linearGradient x1="50%" y1="0%" x2="50%" y2="100%" id="linearGradient-2">
            <stop stop-color="#8E886F" offset="0%"></stop>
            <stop stop-color="#55503C" offset="100%"></stop>
        </linearGradient>
        <linearGradient x1="100%" y1="67.2186455%" x2="29.2114807%" y2="37.1641699%" id="linearGradient-3">
            <stop stop-color="#747C77" offset="0%"></stop>
            <stop stop-color="#404642" offset="100%"></stop>
        </linearGradient>
        <linearGradient x1="54.8601195%" y1="0%" x2="50%" y2="100%" id="linearGradient-4">
            <stop stop-color="#93988D" offset="0%"></stop>
            <stop stop-color="#5A5F54" offset="100%"></stop>
        </linearGradient>
        <linearGradient x1="50%" y1="0%" x2="50%" y2="100%" id="linearGradient-5">
            <stop stop-color="#798179" offset="0%"></stop>
            <stop stop-color="#444A44" offset="100%"></stop>
        </linearGradient>
        <linearGradient x1="113.264853%" y1="66.3897126%" x2="31.4325375%" y2="29.0449488%" id="linearGradient-6">
            <stop stop-color="#607363" offset="0%"></stop>
            <stop stop-color="#4D524E" offset="100%"></stop>
        </linearGradient>
        <linearGradient x1="25.6503164%" y1="4.61691382%" x2="50%" y2="100%" id="linearGradient-7">
            <stop stop-color="#844614" offset="0%"></stop>
            <stop stop-color="#CC9837" offset="100%"></stop>
        </linearGradient>
        <linearGradient x1="109.813091%" y1="66.6110097%" x2="13.2614529%" y2="0%" id="linearGradient-8">
            <stop stop-color="#97908A" offset="0%"></stop>
            <stop stop-color="#5E5752" offset="100%"></stop>
        </linearGradient>
        <linearGradient x1="50%" y1="0%" x2="50%" y2="100%" id="linearGradient-9">
            <stop stop-color="#6D3C17" offset="0%"></stop>
            <stop stop-color="#DDB653" offset="100%"></stop>
        </linearGradient>
        <linearGradient x1="50%" y1="0%" x2="50%" y2="100%" id="linearGradient-10">
            <stop stop-color="#2F4682" offset="0%"></stop>
            <stop stop-color="#0BAAC6" offset="100%"></stop>
        </linearGradient>
        <linearGradient x1="50%" y1="0%" x2="50%" y2="100%" id="linearGradient-11">
            <stop stop-color="#3C2414" offset="0%"></stop>
            <stop stop-color="#412F20" offset="100%"></stop>
        </linearGradient>
        <linearGradient x1="10.1495381%" y1="-11.175684%" x2="100%" y2="100%" id="linearGradient-12">
            <stop stop-color="#E7E1BA" offset="0%"></stop>
            <stop stop-color="#C5972B" offset="68.893244%"></stop>
            <stop stop-color="#7E4910" offset="100%"></stop>
        </linearGradient>
        <linearGradient x1="93.7566396%" y1="0%" x2="50%" y2="100%" id="linearGradient-13">
            <stop stop-color="#E4CD80" offset="0%"></stop>
            <stop stop-color="#C49E49" offset="100%"></stop>
        </linearGradient>
        <linearGradient x1="50%" y1="0%" x2="10.4314277%" y2="100%" id="linearGradient-14">
            <stop stop-color="#6C2808" offset="0%"></stop>
            <stop stop-color="#C09030" offset="78.2408492%"></stop>
            <stop stop-color="#8A551D" offset="100%"></stop>
        </linearGradient>
        <linearGradient x1="94.3637355%" y1="6.63321809%" x2="7.80315158%" y2="103.753631%" id="linearGradient-15">
            <stop stop-color="#442F1C" offset="0%"></stop>
            <stop stop-color="#452619" offset="100%"></stop>
        </linearGradient>
        <linearGradient x1="0%" y1="21.3930752%" x2="50%" y2="100%" id="linearGradient-16">
            <stop stop-color="#7D6143" offset="0%"></stop>
            <stop stop-color="#6B5E50" offset="100%"></stop>
        </linearGradient>
        <linearGradient x1="0%" y1="0%" x2="86.0842017%" y2="100%" id="linearGradient-17">
            <stop stop-color="#7B5B3A" offset="0%"></stop>
            <stop stop-color="#82725C" offset="55.5827986%"></stop>
            <stop stop-color="#523C35" offset="100%"></stop>
        </linearGradient>
        <linearGradient x1="15.7034839%" y1="0%" x2="90.5902784%" y2="100%" id="linearGradient-18">
            <stop stop-color="#6A3914" offset="0%"></stop>
            <stop stop-color="#554020" offset="100%"></stop>
        </linearGradient>
        <linearGradient x1="101.173764%" y1="120.660288%" x2="4.44592975%" y2="29.457185%" id="linearGradient-19">
            <stop stop-color="#7E6146" offset="0%"></stop>
            <stop stop-color="#745940" offset="13.5202342%"></stop>
            <stop stop-color="#402D1E" offset="100%"></stop>
        </linearGradient>
        <linearGradient x1="91.3195264%" y1="20.0687981%" x2="23.3075518%" y2="85.9405847%" id="linearGradient-20">
            <stop stop-color="#88642B" offset="0%"></stop>
            <stop stop-color="#56493F" offset="100%"></stop>
        </linearGradient>
        <linearGradient x1="50%" y1="0%" x2="50%" y2="100%" id="linearGradient-21">
            <stop stop-color="#E8BA50" offset="0%"></stop>
            <stop stop-color="#B25E12" offset="100%"></stop>
        </linearGradient>
        <linearGradient x1="31.0901134%" y1="100%" x2="75.9065222%" y2="19.7163801%" id="linearGradient-22">
            <stop stop-color="#483E71" offset="0%"></stop>
            <stop stop-color="#20527F" offset="100%"></stop>
        </linearGradient>
        <linearGradient x1="106.729351%" y1="36.2966186%" x2="0%" y2="83.0548909%" id="linearGradient-23">
            <stop stop-color="#C79949" offset="0%"></stop>
            <stop stop-color="#A15A0A" offset="100%"></stop>
        </linearGradient>
        <linearGradient x1="78.417492%" y1="5.01098766%" x2="50%" y2="100%" id="linearGradient-24">
            <stop stop-color="#B17A2F" offset="0%"></stop>
            <stop stop-color="#CF9940" offset="100%"></stop>
        </linearGradient>
        <linearGradient x1="50%" y1="0%" x2="50%" y2="100%" id="linearGradient-25">
            <stop stop-color="#DAB863" offset="0%"></stop>
            <stop stop-color="#E9D66A" offset="22.7679923%"></stop>
            <stop stop-color="#EAC664" offset="56.0012672%"></stop>
            <stop stop-color="#C47C3B" offset="100%"></stop>
        </linearGradient>
        <linearGradient x1="50%" y1="0%" x2="50%" y2="105.973927%" id="linearGradient-26">
            <stop stop-color="#C87328" offset="0%"></stop>
            <stop stop-color="#DFB76F" offset="100%"></stop>
        </linearGradient>
        <linearGradient x1="50%" y1="0%" x2="50%" y2="100%" id="linearGradient-27">
            <stop stop-color="#063352" offset="0%"></stop>
            <stop stop-color="#259DCF" offset="64.3301528%"></stop>
            <stop stop-color="#CBFFFC" offset="100%"></stop>
        </linearGradient>
    </defs>
    <g id="Page-1" stroke="none" stroke-width="1" fill="none" fill-rule="evenodd">
        <g id="king">
            <ellipse id="Oval-2" fill="url(#linearGradient-1)" cx="200.5" cy="184.5" rx="92.5" ry="97.5"></ellipse>
            <ellipse id="Oval-5" fill="url(#linearGradient-2)" cx="200.5" cy="184.5" rx="76.5" ry="77.5"></ellipse>
            <g id="Group-3" transform="translate(219.000000, 79.000000)">
                <polygon id="Path-206" fill="url(#linearGradient-3)" points="58.1122737 10.668172 67.4066992 16.8661104 39.02451 50.7648866 27.7120935 44.6476183"></polygon>
                <path d="M0.796425122,26.0222899 C13.4881566,25.7786479 23.8851685,23.5802341 31.9874607,19.4270486 C40.0897529,15.2738631 46.4232083,8.89634153 50.9878268,0.294483865 C54.5120532,2.9666289 57.0355776,5.03349688 58.5584,6.49508782 C60.0812224,7.95667876 61.3650177,9.5440412 62.4097859,11.2571752 C55.6087614,20.7131525 50.3162476,27.7291444 46.5322444,32.3051507 C42.7482412,36.8811571 36.8058326,43.4515907 28.7050184,52.0164516 L0.796425122,26.0222899 Z" id="Path-204" fill="url(#linearGradient-4)"></path>
                <path d="M52.9822411,7.43196296 L55.4445408,9.32734793 L30.4327898,39.5835267 L15.2808234,29.0307495 C26.2301311,26.219249 34.2186744,23.3733153 39.2464534,20.4929481 C44.2742323,17.612581 48.8528282,13.2589193 52.9822411,7.43196296 Z" id="Path-205" fill="url(#linearGradient-5)"></path>
            </g>
            <g id="Group-3" transform="translate(146.000000, 105.500000) scale(-1, 1) translate(-146.000000, -105.500000) translate(112.000000, 79.000000)">
                <polygon id="Path-206" fill="url(#linearGradient-3)" points="58.1122737 10.668172 67.4066992 16.8661104 39.02451 50.7648866 27.7120935 44.6476183"></polygon>
                <path d="M0.796425122,26.0222899 C13.4881566,25.7786479 23.8851685,23.5802341 31.9874607,19.4270486 C40.0897529,15.2738631 46.4232083,8.89634153 50.9878268,0.294483865 C54.5120532,2.9666289 57.0355776,5.03349688 58.5584,6.49508782 C60.0812224,7.95667876 61.3650177,9.5440412 62.4097859,11.2571752 C55.6087614,20.7131525 50.3162476,27.7291444 46.5322444,32.3051507 C42.7482412,36.8811571 36.8058326,43.4515907 28.7050184,52.0164516 L0.796425122,26.0222899 Z" id="Path-204" fill="url(#linearGradient-4)"></path>
                <path d="M52.9822411,7.43196296 L55.4445408,9.32734793 L30.4327898,39.5835267 L15.2808234,29.0307495 C26.2301311,26.219249 34.2186744,23.3733153 39.2464534,20.4929481 C44.2742323,17.612581 48.8528282,13.2589193 52.9822411,7.43196296 Z" id="Path-205" fill="url(#linearGradient-5)"></path>
            </g>
            <polygon id="Path-203" fill="url(#linearGradient-6)" points="245.102379 232.894327 287.598709 251.217615 257.419524 300.32189 216.293086 236.786244"></polygon>
            <polygon id="Path-203" fill="url(#linearGradient-6)" transform="translate(151.652811, 268.713781) scale(-1, 1) translate(-151.652811, -268.713781) " points="144.809293 235 187.305622 253.323288 157.126438 302.427563 116 238.891917"></polygon>
            <path d="M241.358765,236.688268 L264.193592,252.08831 L273.760716,257.523785 C264.720178,267.964506 258.42089,276.208665 254.862853,282.256261 C251.304816,288.303858 247.133278,297.856964 242.348238,310.91558 C242.579717,305.099329 239.339831,296.504436 232.628581,285.1309 C225.917331,273.757364 218.026742,263.489473 208.956813,254.327227 L215.105876,226.257208 L241.358765,236.688268 Z" id="Path-201" fill="url(#linearGradient-7)"></path>
            <path d="M160.401952,236.43106 L183.236779,251.831103 L192.803903,257.266577 C183.763365,267.707298 177.464077,275.951457 173.90604,281.999054 C170.348003,288.04665 166.176465,297.599756 161.391425,310.658372 C161.622904,304.842121 158.383018,296.247228 151.671768,284.873692 C144.960518,273.500156 137.069929,263.232265 128,254.070019 L134.149062,226 L160.401952,236.43106 Z" id="Path-201" fill="url(#linearGradient-7)" transform="translate(160.401952, 268.329186) scale(-1, 1) translate(-160.401952, -268.329186) "></path>
            <path d="M231.824267,241.029615 C238.087127,244.689751 242.390769,247.251074 244.735192,248.713585 C255.200356,255.242021 259.765347,258.584957 259.526027,258.813684 C259.29829,259.031341 256.065244,263.086149 251.478812,272.132669 C250.243574,274.569118 248.310357,279.136675 245.67916,285.835341 C241.374237,278.067038 237.851702,272.220785 235.111557,268.296581 C232.371411,264.372378 227.061114,257.569002 219.180667,247.886455 L231.824267,241.029615 Z" id="Path-202" fill="url(#linearGradient-8)"></path>
            <path d="M152.643601,242 C158.906461,245.660135 163.210102,248.221458 165.554525,249.683969 C176.019689,256.212406 180.58468,259.555341 180.34536,259.784069 C180.117623,260.001725 176.884578,264.056534 172.298146,273.103054 C171.062908,275.539502 169.12969,280.10706 166.498493,286.805726 C162.19357,279.037423 158.671036,273.191169 155.93089,269.266966 C153.190744,265.342762 147.880447,258.539387 140,248.85684 L152.643601,242 Z" id="Path-202" fill="url(#linearGradient-8)" transform="translate(160.177142, 264.402863) scale(-1, 1) translate(-160.177142, -264.402863) "></path>
            <polygon id="Path-199" fill="url(#linearGradient-9)" points="216.157837 244.505205 237.687726 264.935584 208.845791 298.232761 208.845791 244.505205"></polygon>
            <polygon id="Path-199" fill="url(#linearGradient-9)" transform="translate(176.420967, 271.863778) scale(-1, 1) translate(-176.420967, -271.863778) " points="169.312046 245 190.841935 265.430379 162 298.727555 162 245"></polygon>
            <polygon id="Path-200" fill="url(#linearGradient-10)" points="212.657299 246.558013 212.657299 281.468506 226.906185 266.998282"></polygon>
            <polygon id="Path-200" fill="url(#linearGradient-10)" transform="translate(180.124443, 264.455247) scale(-1, 1) translate(-180.124443, -264.455247) " points="173 247 173 281.910494 187.248885 267.44027"></polygon>
            <g id="Group-2" transform="translate(235.000000, 81.000000)">
                <path d="M105.55519,27.5991995 L119.252706,29.7224733 C107.215267,56.6548313 100.199325,76.0524416 98.2048817,87.9153042 C96.2104381,99.7781667 96.6762898,115.088127 99.6024366,133.845186 L91.1244069,128.933088 C86.6428226,114.832898 85.9556326,97.5550746 89.062837,77.0996194 C92.1700414,56.6441643 97.6674923,40.1440243 105.55519,27.5991995 Z" id="Path-197" fill="url(#linearGradient-11)"></path>
                <path d="M8.17808144,25 L1.0573969,24.4836061 C0.505610307,39.3451456 3.93228506,52.6453306 11.3374212,64.384161 C18.7425573,76.1229914 28.5428955,85.6097574 40.738436,92.8444588 L51.3421668,84.0880497 C38.5736948,80.3134679 28.4820885,73.745505 21.0673478,64.384161 C13.6526071,55.022817 9.356185,41.8947633 8.17808144,25 Z" id="Path-194" fill="url(#linearGradient-12)" transform="translate(26.171083, 58.664032) scale(-1, 1) translate(-26.171083, -58.664032) "></path>
                <polygon id="Path-195" fill="url(#linearGradient-13)" points="43.9818098 25.0342202 73.3633334 0.867607366 49.4174034 24.6781758"></polygon>
                <path d="M0.927575801,87.802956 C17.2301434,82.0070478 29.0831655,74.2310168 36.4866421,64.4748631 C43.8901186,54.7187094 47.9951396,41.4655497 48.8017051,24.7153838 C55.36648,19.18988 60.272161,14.8316859 63.5187479,11.6408015 C66.7653347,8.44991719 70.1072197,4.70205111 73.5444027,0.39720327 C83.1530759,8.69215481 90.69873,15.0409134 96.1813651,19.4434791 C101.664,23.8460448 105.269772,26.451901 106.998681,27.2610478 C98.9602815,44.0133926 93.7968515,59.840365 91.5083905,74.7419648 C89.2199294,89.6435647 89.2199294,107.438912 91.5083905,128.128006 C84.8337827,125.0813 75.5039019,124.264447 63.5187479,125.677449 C51.5335938,127.09045 35.3888356,131.691336 15.0844731,139.480107 L0.927575801,87.802956 Z" id="Path-189" fill="url(#linearGradient-14)"></path>
                <path d="M12.747752,104.472959 C25.7872911,95.5019036 36.085707,85.2740913 43.6429998,73.7895222 C51.2002925,62.3049531 56.6138207,48.5087329 59.8835843,32.4008616 L72.7835386,9.86337659 C77.408628,12.6576611 80.6734501,14.7992723 82.5780047,16.2882103 C84.4825593,17.7771482 88.6200653,21.4225103 94.9905227,27.2242968 C94.9780835,33.1904397 93.0870316,41.7882317 89.3173671,53.0176729 C85.5477025,64.247114 78.9101592,75.1866307 69.4047372,85.8362228 L63.1199936,88.025075 C56.7366523,89.2915884 52.9028983,90.8870356 51.6187316,92.8114165 C50.3345649,94.7357974 49.3887961,98.6229783 48.7814252,104.472959 L51.083821,104.472959 C49.1671217,112.099915 43.1869222,118.27455 33.1432225,122.996862 C23.0995229,127.719175 13.8717592,128.69497 5.45993133,125.924246 L12.747752,104.472959 Z" id="Path-190" fill="url(#linearGradient-15)"></path>
                <path d="M90.2798382,32.2529772 C93.6464538,41.3875216 94.7742701,46.688343 92.9706119,48.2472548 C91.1669538,49.8061667 80.4979773,44.2664069 73.9076752,40.230199 C69.5141405,37.5393937 65.2115821,34.0402156 61,29.7326646 C65.0797866,24.8268545 68.4186715,21.3752858 71.0166545,19.3779588 C73.6146376,17.3806317 77.0970687,15.5879788 81.4639477,14 C85.0967976,20.0789552 88.0354278,26.1632809 90.2798382,32.2529772 Z" id="Path-191" fill="url(#linearGradient-16)" transform="translate(77.412137, 31.258360) scale(-1, 1) translate(-77.412137, -31.258360) "></path>
                <path d="M71.2628228,30.1430284 C70.3701405,28.7645307 71.9700986,27.3021086 72.8057228,26.5889432 C73.6413471,25.8757777 75.5918653,23.8563912 77.4807183,25.8675764 C79.3695713,27.8787616 83.8374016,35.1990521 82.2084625,36.3191177 C80.5795234,37.4391833 72.1555051,31.521526 71.2628228,30.1430284 Z" id="Path-192" fill="#674930" transform="translate(76.779619, 30.729654) scale(-1, 1) translate(-76.779619, -30.729654) "></path>
                <path d="M77.685004,106.909985 C66.0230599,95.7743779 57.872754,86.8947992 53.2340862,80.2712492 C46.2760846,70.3359242 47.5609491,66.4014747 42.9636369,61.2561053 C38.3663247,56.1107359 35.1082679,56.4891099 29.3764813,53.5695191 C25.5552902,51.6231253 21.6581311,49.8932754 17.685004,48.3799694 C20.5916253,62.6649547 22.887327,71.8164257 24.5721089,75.8343823 C27.0992818,81.8613172 31.2790659,85.6471837 33.3116358,85.6471837 C35.3442057,85.6471837 37.7878328,84.5307105 40.785571,86.0573426 C43.7833092,87.5839747 46.8774583,90.0292519 48.2611548,94.0823389 C49.1836192,96.784397 49.8775437,100.295257 50.3429284,104.61492 L47.685004,104.61492 C50.2841963,109.423266 52.9202978,113.0319 55.5933084,115.440823 C58.266319,117.849746 61.4220806,119.460751 65.0605934,120.273839 C61.1737585,117.572059 58.304034,114.0472 56.4514199,109.699263 C53.6724988,103.177356 56.6970869,102.781351 53.2340862,94.0823389 C49.7710855,85.3833264 48.0041343,83.7308293 43.9005409,80.2712492 C39.7969476,76.8116691 39.3427847,83.3607235 33.3116358,77.2864951 C29.2908699,73.2370094 26.3776942,67.1787465 24.5721089,59.1117062 C29.3521377,57.8362653 34.3014771,59.739295 39.4201273,64.8207954 C47.0981025,72.443046 40.9434329,73.7244027 52.1557757,86.0573426 C59.6306709,94.2793025 68.1404136,101.230183 77.685004,106.909985 Z" id="Path-193" fill="url(#linearGradient-17)" transform="translate(47.685004, 84.326904) scale(-1, 1) rotate(-2.000000) translate(-47.685004, -84.326904) "></path>
                <polygon id="Path-196" fill="url(#linearGradient-18)" points="73 1 104.721575 27.6039243 119.506235 30.3214482"></polygon>
            </g>
            <g id="Group-2" transform="translate(103.000000, 151.000000) scale(-1, 1) translate(-103.000000, -151.000000) translate(43.000000, 81.000000)">
                <path d="M106.072726,27.0865024 L119.432086,29.7995407 C107.27506,56.6805204 100.199325,76.0524416 98.2048817,87.9153042 C96.2104381,99.7781667 96.6762898,115.088127 99.6024366,133.845186 L91.1244069,128.933088 C86.6428226,114.832898 85.9556326,97.5550746 89.062837,77.0996194 C92.1700414,56.6441643 97.8400043,39.9731252 106.072726,27.0865024 Z" id="Path-197" fill="url(#linearGradient-11)"></path>
                <path d="M8.17808144,25 L1.0573969,24.4836061 C0.505610307,39.3451456 3.93228506,52.6453306 11.3374212,64.384161 C18.7425573,76.1229914 28.5428955,85.6097574 40.738436,92.8444588 L51.3421668,84.0880497 C38.5736948,80.3134679 28.4820885,73.745505 21.0673478,64.384161 C13.6526071,55.022817 9.356185,41.8947633 8.17808144,25 Z" id="Path-194" fill="url(#linearGradient-12)" transform="translate(26.171083, 58.664032) scale(-1, 1) translate(-26.171083, -58.664032) "></path>
                <polygon id="Path-195" fill="url(#linearGradient-13)" points="43.9818098 25.0342202 73.3633334 0.867607366 49.4174034 24.6781758"></polygon>
                <path d="M0.927575801,87.802956 C17.2301434,82.0070478 29.0831655,74.2310168 36.4866421,64.4748631 C43.8901186,54.7187094 47.9951396,41.4655497 48.8017051,24.7153838 C55.36648,19.18988 60.272161,14.8316859 63.5187479,11.6408015 C66.7653347,8.44991719 70.1072197,4.70205111 73.5444027,0.39720327 C83.1530759,8.69215481 90.69873,15.0409134 96.1813651,19.4434791 C101.664,23.8460448 105.269772,26.451901 106.998681,27.2610478 C98.9602815,44.0133926 93.7968515,59.840365 91.5083905,74.7419648 C89.2199294,89.6435647 89.2199294,107.438912 91.5083905,128.128006 C84.8337827,125.0813 75.5039019,124.264447 63.5187479,125.677449 C51.5335938,127.09045 35.3888356,131.691336 15.0844731,139.480107 L0.927575801,87.802956 Z" id="Path-189" fill="url(#linearGradient-14)"></path>
                <path d="M12.747752,104.472959 C25.7872911,95.5019036 36.085707,85.2740913 43.6429998,73.7895222 C51.2002925,62.3049531 56.6138207,48.5087329 59.8835843,32.4008616 L72.7835386,9.86337659 C77.408628,12.6576611 80.6734501,14.7992723 82.5780047,16.2882103 C84.4825593,17.7771482 88.6200653,21.4225103 94.9905227,27.2242968 C94.9780835,33.1904397 93.0870316,41.7882317 89.3173671,53.0176729 C85.5477025,64.247114 78.9101592,75.1866307 69.4047372,85.8362228 L63.1199936,88.025075 C56.7366523,89.2915884 52.9028983,90.8870356 51.6187316,92.8114165 C50.3345649,94.7357974 49.3887961,98.6229783 48.7814252,104.472959 L51.083821,104.472959 C49.1671217,112.099915 43.1869222,118.27455 33.1432225,122.996862 C23.0995229,127.719175 13.8717592,128.69497 5.45993133,125.924246 L12.747752,104.472959 Z" id="Path-190" fill="url(#linearGradient-15)"></path>
                <path d="M90.2798382,32.2529772 C93.6464538,41.3875216 94.7742701,46.688343 92.9706119,48.2472548 C91.1669538,49.8061667 80.4979773,44.2664069 73.9076752,40.230199 C69.5141405,37.5393937 65.2115821,34.0402156 61,29.7326646 C65.0797866,24.8268545 68.4186715,21.3752858 71.0166545,19.3779588 C73.6146376,17.3806317 77.0970687,15.5879788 81.4639477,14 C85.0967976,20.0789552 88.0354278,26.1632809 90.2798382,32.2529772 Z" id="Path-191" fill="url(#linearGradient-16)" transform="translate(77.412137, 31.258360) scale(-1, 1) translate(-77.412137, -31.258360) "></path>
                <path d="M71.2628228,30.1430284 C70.3701405,28.7645307 71.9700986,27.3021086 72.8057228,26.5889432 C73.6413471,25.8757777 75.5918653,23.8563912 77.4807183,25.8675764 C79.3695713,27.8787616 83.8374016,35.1990521 82.2084625,36.3191177 C80.5795234,37.4391833 72.1555051,31.521526 71.2628228,30.1430284 Z" id="Path-192" fill="#674930" transform="translate(76.779619, 30.729654) scale(-1, 1) translate(-76.779619, -30.729654) "></path>
                <path d="M77.685004,106.909985 C66.0230599,95.7743779 57.872754,86.8947992 53.2340862,80.2712492 C46.2760846,70.3359242 47.5609491,66.4014747 42.9636369,61.2561053 C38.3663247,56.1107359 35.1082679,56.4891099 29.3764813,53.5695191 C25.5552902,51.6231253 21.6581311,49.8932754 17.685004,48.3799694 C20.5916253,62.6649547 22.887327,71.8164257 24.5721089,75.8343823 C27.0992818,81.8613172 31.2790659,85.6471837 33.3116358,85.6471837 C35.3442057,85.6471837 37.7878328,84.5307105 40.785571,86.0573426 C43.7833092,87.5839747 46.8774583,90.0292519 48.2611548,94.0823389 C49.1836192,96.784397 49.8775437,100.295257 50.3429284,104.61492 L47.685004,104.61492 C50.2841963,109.423266 52.9202978,113.0319 55.5933084,115.440823 C58.266319,117.849746 61.4220806,119.460751 65.0605934,120.273839 C61.1737585,117.572059 58.304034,114.0472 56.4514199,109.699263 C53.6724988,103.177356 56.6970869,102.781351 53.2340862,94.0823389 C49.7710855,85.3833264 48.0041343,83.7308293 43.9005409,80.2712492 C39.7969476,76.8116691 39.3427847,83.3607235 33.3116358,77.2864951 C29.2908699,73.2370094 26.3776942,67.1787465 24.5721089,59.1117062 C29.3521377,57.8362653 34.3014771,59.739295 39.4201273,64.8207954 C47.0981025,72.443046 40.9434329,73.7244027 52.1557757,86.0573426 C59.6306709,94.2793025 68.1404136,101.230183 77.685004,106.909985 Z" id="Path-193" fill="url(#linearGradient-17)" transform="translate(47.685004, 84.326904) scale(-1, 1) rotate(-2.000000) translate(-47.685004, -84.326904) "></path>
                <polygon id="Path-196" fill="url(#linearGradient-18)" points="73 1 104.721575 27.6039243 119.506235 30.3214482"></polygon>
            </g>
            <path d="M326.611152,208.58652 C317.553318,206.433202 309.627976,205.504594 302.835127,205.800697 C296.042279,206.096799 289.370013,207.661721 282.818332,210.495463 L282.818332,217.843147 C287.419845,214.69488 294.09211,212.815142 302.835127,212.203933 C311.578145,211.592724 322.033893,212.275073 334.202372,214.250979 L326.611152,208.58652 Z" id="Path-198" fill="url(#linearGradient-19)"></path>
            <polygon id="Path-188" fill="url(#linearGradient-20)" points="233.235946 161.769331 248.866515 173.58855 248.866515 185.736704 255.363712 200.759069 241.24475 209.324535 220.780409 184.089211"></polygon>
            <polygon id="Path-188" fill="url(#linearGradient-20)" transform="translate(163.291651, 185.777602) scale(-1, 1) translate(-163.291651, -185.777602) " points="158.455537 162 174.086106 173.819218 174.086106 185.967373 180.583302 200.989738 166.464341 209.555204 146 184.319879"></polygon>
            <polygon id="Path-185" fill="url(#linearGradient-21)" points="209.126077 184.902533 212.25972 114.831268 243.346646 147.977498 229.834558 191.953694"></polygon>
            <polygon id="Path-185" fill="url(#linearGradient-21)" transform="translate(177.110284, 153.561213) scale(-1, 1) translate(-177.110284, -153.561213) " points="160 185.071264 163.133643 115 194.220569 148.14623 180.708481 192.122426"></polygon>
            <path d="M216.554588,171.566463 C217.246974,161.681292 217.593167,154.204537 217.593167,149.1362 C217.593167,144.067863 217.246974,138.521841 216.554588,132.498134 C221.654195,137.509745 225.417562,141.370607 227.844689,144.08072 C230.271817,146.790833 232.339929,149.441359 234.049027,152.032298 C232.273625,156.923586 231.035412,160.651302 230.334388,163.215447 C229.633364,165.779593 227.955837,170.251785 225.301808,176.632026 L216.554588,171.566463 Z" id="Path-187" fill="url(#linearGradient-22)"></path>
            <path d="M168,171.068329 C168.692386,161.183158 169.038579,153.706404 169.038579,148.638066 C169.038579,143.569729 168.692386,138.023707 168,132 C173.099607,137.011611 176.862974,140.872473 179.290102,143.582586 C181.717229,146.292699 183.785342,148.943225 185.494439,151.534164 C183.719037,156.425452 182.480824,160.153169 181.7798,162.717314 C181.078776,165.281459 179.401249,169.753652 176.74722,176.133892 L168,171.068329 Z" id="Path-187" fill="url(#linearGradient-22)" transform="translate(176.747220, 154.066946) scale(-1, 1) translate(-176.747220, -154.066946) "></path>
            <path d="M256.448614,205.966449 C261.007671,204.310792 265.999523,202.321975 271.424169,200 C276.848815,197.678025 282.326474,195.185453 287.857145,192.522285 C286.889214,201.831488 285.514795,209.160341 283.733887,214.508843 C281.95298,219.857344 279.272252,223.943251 275.691704,226.766562 C267.088732,227.646618 260.674369,228.177832 256.448614,228.360205 C252.22286,228.542578 246.328481,228.542578 238.765479,228.360205 L246.909462,211.1619 L256.448614,205.966449 Z" id="Path-183" fill="url(#linearGradient-23)"></path>
            <path d="M131.683136,208.444163 C136.242192,206.788506 141.234044,204.79969 146.65869,202.477715 C152.083337,200.155739 157.560995,197.663168 163.091666,195 C162.123735,204.309203 160.749316,211.638055 158.968409,216.986557 C157.187501,222.335059 154.506773,226.420966 150.926225,229.244277 C142.323253,230.124332 135.90889,230.655547 131.683136,230.83792 C127.457381,231.020293 121.563003,231.020293 114,230.83792 L122.143983,213.639614 L131.683136,208.444163 Z" id="Path-183" fill="url(#linearGradient-23)" transform="translate(138.545833, 212.987350) scale(-1, 1) translate(-138.545833, -212.987350) "></path>
            <g id="Group" transform="translate(216.000000, 195.000000)" fill="url(#linearGradient-24)">
                <path d="M11.9819971,45.8036456 C14.8830731,46.6223229 17.1239495,47.1297371 18.7046261,47.3258884 C20.2853027,47.5220396 23.6520044,47.5220396 28.8047312,47.3258884 C25.7426534,51.3386832 23.3556108,54.1882126 21.6436036,55.8744768 C19.9315964,57.560741 17.6881789,59.2720443 14.9133512,61.0083869 C12.0647419,59.1895892 10.0949541,57.8677913 9.00398775,57.0429933 C7.9130214,56.2181953 5.05901952,53.471531 0.441982112,48.8030005 L11.9819971,45.8036456 Z" id="Path-182"></path>
                <path d="M25.7126756,27.0091925 C27.2580617,26.8736117 29.1679804,26.3824607 31.4424315,25.5357395 C33.7168826,24.6890184 36.5627528,23.4097083 39.9800422,21.6978094 C38.7920304,26.934485 37.4259151,31.3971283 35.8816963,35.0857393 C34.3374775,38.7743503 32.5444512,41.9040147 30.5026173,44.4747326 C26.4224162,44.1179381 23.5153554,43.6501656 21.7814349,43.071415 C20.0475144,42.4926645 18.0961244,41.7585808 15.9272649,40.869164 L25.7126756,27.0091925 Z" id="Path-181"></path>
                <path d="M25.7380952,12.2358498 C28.1691208,11.535967 30.3805053,10.5142137 32.3722487,9.17059003 C34.3639922,7.82696637 36.97601,4.94852183 40.2083021,0.535256399 C41.2652018,4.82373216 41.7099583,8.55135919 41.5425716,11.7181375 C41.3751849,14.8849158 40.5778544,17.5705969 39.1505801,19.7751809 C36.178632,21.4883326 33.9191882,22.5892561 32.3722487,23.0779514 C30.8253093,23.5666466 26.7138518,24.4783612 20.0378761,25.8130951 L25.7380952,12.2358498 Z" id="Path-180"></path>
            </g>
            <g id="Group" transform="translate(163.000000, 226.000000) scale(-1, 1) translate(-163.000000, -226.000000) translate(142.000000, 195.000000)" fill="url(#linearGradient-24)">
                <path d="M11.9819971,45.8036456 C14.8830731,46.6223229 17.1239495,47.1297371 18.7046261,47.3258884 C20.2853027,47.5220396 23.6520044,47.5220396 28.8047312,47.3258884 C25.7426534,51.3386832 23.3556108,54.1882126 21.6436036,55.8744768 C19.9315964,57.560741 17.6881789,59.2720443 14.9133512,61.0083869 C12.0647419,59.1895892 10.0949541,57.8677913 9.00398775,57.0429933 C7.9130214,56.2181953 5.05901952,53.471531 0.441982112,48.8030005 L11.9819971,45.8036456 Z" id="Path-182"></path>
                <path d="M25.7126756,27.0091925 C27.2580617,26.8736117 29.1679804,26.3824607 31.4424315,25.5357395 C33.7168826,24.6890184 36.5627528,23.4097083 39.9800422,21.6978094 C38.7920304,26.934485 37.4259151,31.3971283 35.8816963,35.0857393 C34.3374775,38.7743503 32.5444512,41.9040147 30.5026173,44.4747326 C26.4224162,44.1179381 23.5153554,43.6501656 21.7814349,43.071415 C20.0475144,42.4926645 18.0961244,41.7585808 15.9272649,40.869164 L25.7126756,27.0091925 Z" id="Path-181"></path>
                <path d="M25.7380952,12.2358498 C28.1691208,11.535967 30.3805053,10.5142137 32.3722487,9.17059003 C34.3639922,7.82696637 36.97601,4.94852183 40.2083021,0.535256399 C41.2652018,4.82373216 41.7099583,8.55135919 41.5425716,11.7181375 C41.3751849,14.8849158 40.5778544,17.5705969 39.1505801,19.7751809 C36.178632,21.4883326 33.9191882,22.5892561 32.3722487,23.0779514 C30.8253093,23.5666466 26.7138518,24.4783612 20.0378761,25.8130951 L25.7380952,12.2358498 Z" id="Path-180"></path>
            </g>
            <path d="M199.765296,251.238262 C224.488486,251.238262 244.530591,233.078671 244.530591,210.677681 C244.530591,197.369865 237.457285,185.558933 226.531286,178.162996 C225.534654,177.488364 224.372151,171.100698 223.043776,159 C215.590294,170.520406 211.405624,176.908071 210.489766,178.162996 C206.355242,183.828197 205.698513,188.80346 199.894601,188.80346 C195.047925,188.80346 191.676922,180.356458 189.433795,176.280609 C189.049,175.581422 185.071252,169.821219 177.500551,159 C178.585313,169.423293 178.585313,174.917228 177.500551,175.481803 C164.05518,182.479587 155,195.620485 155,210.677681 C155,233.078671 175.042106,251.238262 199.765296,251.238262 Z" id="Oval-17" fill="url(#linearGradient-25)"></path>
            <polygon id="Path-184" fill="url(#linearGradient-26)" points="199.885374 159.281778 202.180874 159.281778 208.872366 148.819972 208.872366 159.281778 203.474377 163.395102 202.180874 167.74611 205.562505 163.395102 223.108215 157.314131 217.466259 166.342379 210.592302 167.74611 208.872366 171.302975 214.417384 169.667153 214.417384 173.524152 208.872366 173.524152 205.562505 181.485154 207.599696 184.67291 199.885374 184.67291"></polygon>
            <polygon id="Path-184" fill="url(#linearGradient-26)" transform="translate(188.396186, 166.739719) scale(-1, 1) translate(-188.396186, -166.739719) " points="176.784766 159.275056 179.080266 159.275056 185.771758 148.813249 185.771758 159.275056 180.373769 163.38838 179.080266 167.739388 182.461897 163.38838 200.007607 157.307408 194.365651 166.335656 187.491694 167.739388 185.771758 171.296253 191.316776 169.66043 191.316776 173.517429 185.771758 173.517429 182.461897 181.478432 184.499088 184.666188 176.784766 184.666188"></polygon>
            <ellipse id="Oval" fill="url(#linearGradient-27)" cx="200" cy="212.5" rx="30" ry="28.5"></ellipse>
        </g>
    </g>
</svg>