<?xml version="1.0" encoding="UTF-8"?>
<svg width="400px" height="400px" viewBox="0 0 400 400" version="1.1" xmlns="http://www.w3.org/2000/svg" xmlns:xlink="http://www.w3.org/1999/xlink">
    <!-- Generator: Sketch 47 (45396) - http://www.bohemiancoding.com/sketch -->
    <title>platinum</title>
    <desc>Created with Sketch.</desc>
    <defs>
        <linearGradient x1="56.628334%" y1="22.9577044%" x2="79.3445291%" y2="89.2324258%" id="linearGradient-1">
            <stop stop-color="#377070" offset="0%"></stop>
            <stop stop-color="#294C4C" offset="100%"></stop>
        </linearGradient>
        <path d="M26.2341709,22.0157959 C36.5939972,17.8949984 45.4630733,14.2333391 52.8413993,11.0308179 C60.2197252,7.82829671 68.0762278,4.23031204 76.4109068,0.236863892 C73.1996034,19.8198602 69.5320889,35.0765302 65.4083634,46.0068737 C61.2846379,56.9372172 57.0956499,65.7268829 52.8413993,72.3758709 C40.5340354,69.6041519 32.0748192,67.4509235 27.4637507,65.9161857 C22.8526823,64.3814479 13.834666,60.7175928 0.409701861,54.9246206 L26.2341709,22.0157959 Z" id="path-2"></path>
        <linearGradient x1="50%" y1="100%" x2="213.379138%" y2="-32.9860423%" id="linearGradient-4">
            <stop stop-color="#A3B0A8" offset="0%"></stop>
            <stop stop-color="#95AC9E" offset="42.3685183%"></stop>
            <stop stop-color="#F1F3F2" offset="100%"></stop>
        </linearGradient>
        <linearGradient x1="50%" y1="0%" x2="50%" y2="100%" id="linearGradient-5">
            <stop stop-color="#4E6F5C" offset="0%"></stop>
            <stop stop-color="#263C2F" offset="100%"></stop>
        </linearGradient>
        <path d="M26.2341709,22.0157959 C36.5939972,17.8949984 45.4630733,14.2333391 52.8413993,11.0308179 C60.2197252,7.82829671 68.0762278,4.23031204 76.4109068,0.236863892 C73.1996034,19.8198602 69.5320889,35.0765302 65.4083634,46.0068737 C61.2846379,56.9372172 57.0956499,65.7268829 52.8413993,72.3758709 C40.5340354,69.6041519 32.0748192,67.4509235 27.4637507,65.9161857 C22.8526823,64.3814479 13.834666,60.7175928 0.409701861,54.9246206 L26.2341709,22.0157959 Z" id="path-6"></path>
        <path d="M0.838003199,89.8322527 C22.975722,77.9698059 41.0508035,65.0071431 55.0632477,50.9442644 C69.0756919,36.8813856 80.7368202,20.00081 90.0466325,0.302537545 C107.217695,16.6105291 117.289476,34.2147956 120.261976,53.1153371 C123.234475,72.0158785 119.024313,91.6825255 107.63149,112.115278 C93.8175749,122.097664 76.2948276,129.209798 55.0632477,133.451682 C33.8316678,137.693566 15.7565863,137.693566 0.838003199,133.451682 L0.838003199,89.8322527 Z" id="path-8"></path>
        <linearGradient x1="72.4953663%" y1="57.9453639%" x2="60.3384169%" y2="37.648684%" id="linearGradient-10">
            <stop stop-color="#667B6E" offset="0%"></stop>
            <stop stop-color="#F1F3F2" offset="100%"></stop>
        </linearGradient>
        <path d="M0.838003199,89.8322527 C22.975722,77.9698059 41.0508035,65.0071431 55.0632477,50.9442644 C69.0756919,36.8813856 80.7368202,20.00081 90.0466325,0.302537545 C107.217695,16.6105291 117.289476,34.2147956 120.261976,53.1153371 C123.234475,72.0158785 119.024313,91.6825255 107.63149,112.115278 C93.8175749,122.097664 76.2948276,129.209798 55.0632477,133.451682 C33.8316678,137.693566 15.7565863,137.693566 0.838003199,133.451682 L0.838003199,89.8322527 Z" id="path-11"></path>
        <linearGradient x1="50%" y1="111.134787%" x2="53.0952298%" y2="57.5021262%" id="linearGradient-13">
            <stop stop-color="#23352B" offset="0%"></stop>
            <stop stop-color="#264333" offset="100%"></stop>
        </linearGradient>
        <linearGradient x1="113.819365%" y1="113.691036%" x2="6.41408343%" y2="13.034965%" id="linearGradient-14">
            <stop stop-color="#517270" offset="0%"></stop>
            <stop stop-color="#283E3D" offset="100%"></stop>
        </linearGradient>
        <linearGradient x1="108.710863%" y1="100%" x2="-10.8425907%" y2="29.910824%" id="linearGradient-15">
            <stop stop-color="#ADCECD" offset="0%"></stop>
            <stop stop-color="#75A09F" offset="100%"></stop>
        </linearGradient>
        <linearGradient x1="26.6283733%" y1="19.2068063%" x2="71.4811447%" y2="64.0669452%" id="linearGradient-16">
            <stop stop-color="#789A88" offset="0%"></stop>
            <stop stop-color="#436150" offset="100%"></stop>
        </linearGradient>
        <linearGradient x1="114.45955%" y1="131.931884%" x2="0%" y2="-24.6275678%" id="linearGradient-17">
            <stop stop-color="#354E40" offset="0%"></stop>
            <stop stop-color="#18261E" offset="100%"></stop>
        </linearGradient>
        <linearGradient x1="50%" y1="-15.7625139%" x2="50%" y2="100%" id="linearGradient-18">
            <stop stop-color="#86B5A6" offset="0%"></stop>
            <stop stop-color="#315448" offset="100%"></stop>
        </linearGradient>
        <linearGradient x1="-30.3514151%" y1="20.2864592%" x2="50%" y2="100%" id="linearGradient-19">
            <stop stop-color="#9AD4D7" offset="0%"></stop>
            <stop stop-color="#61AAAE" offset="100%"></stop>
        </linearGradient>
        <linearGradient x1="50%" y1="0%" x2="50%" y2="100%" id="linearGradient-20">
            <stop stop-color="#786C36" offset="0%"></stop>
            <stop stop-color="#433A19" offset="100%"></stop>
        </linearGradient>
        <linearGradient x1="104.098923%" y1="18.9428964%" x2="7.4819715%" y2="87.0848956%" id="linearGradient-21">
            <stop stop-color="#A1B7BF" offset="0%"></stop>
            <stop stop-color="#435B65" offset="100%"></stop>
        </linearGradient>
        <linearGradient x1="105.598053%" y1="-2.73566979%" x2="100%" y2="106.785764%" id="linearGradient-22">
            <stop stop-color="#A6B8BE" offset="0%"></stop>
            <stop stop-color="#346565" offset="100%"></stop>
        </linearGradient>
        <linearGradient x1="50%" y1="0%" x2="50%" y2="100%" id="linearGradient-23">
            <stop stop-color="#868156" offset="0%"></stop>
            <stop stop-color="#4E4A2B" offset="100%"></stop>
        </linearGradient>
        <linearGradient x1="50%" y1="0%" x2="50%" y2="188.426157%" id="linearGradient-24">
            <stop stop-color="#79BCBF" offset="0%"></stop>
            <stop stop-color="#243B3B" offset="100%"></stop>
        </linearGradient>
        <linearGradient x1="77.5452689%" y1="100%" x2="17.3914517%" y2="0%" id="linearGradient-25">
            <stop stop-color="#786C36" offset="0%"></stop>
            <stop stop-color="#433A19" offset="100%"></stop>
        </linearGradient>
        <linearGradient x1="76.8105004%" y1="85.5243447%" x2="24.0370393%" y2="-17.692695%" id="linearGradient-26">
            <stop stop-color="#786C36" offset="0%"></stop>
            <stop stop-color="#433A19" offset="100%"></stop>
        </linearGradient>
    </defs>
    <g id="Page-1" stroke="none" stroke-width="1" fill="none" fill-rule="evenodd">
        <g id="platinum">
            <g id="Group-4" transform="translate(54.000000, 51.000000)">
                <g id="Group-2" transform="translate(201.000000, 118.000000)">
                    <mask id="mask-3" fill="white">
                        <use xlink:href="#path-2"></use>
                    </mask>
                    <use id="Path-77" fill="url(#linearGradient-1)" xlink:href="#path-2"></use>
                    <path d="M55.2651803,-10.2292464 L46.5741957,-6.65286858 C54.0813371,11.6759447 59.7044544,29.0535059 63.4435477,45.4798152 C67.1826409,61.9061244 68.1513796,76.265599 66.3497637,88.558239 L72.7510157,89.0873329 L70.7640732,22.5527307 L55.2651803,-10.2292464 Z" id="Path-79" fill="url(#linearGradient-4)" mask="url(#mask-3)" transform="translate(59.662606, 39.429043) rotate(32.000000) translate(-59.662606, -39.429043) "></path>
                    <path d="M9.55059525,72.7652252 C20.4712884,68.4845358 29.4170265,64.7819695 36.3878094,61.6575263 C43.3585923,58.5330831 48.1675059,56.2425077 50.81455,54.7858002 L62.767864,54.7858002 L44.2192206,72.7652252 L9.55059525,83.6128218 L9.55059525,72.7652252 Z" id="Path-2" fill="url(#linearGradient-5)" mask="url(#mask-3)" transform="translate(36.159230, 69.199311) rotate(32.000000) translate(-36.159230, -69.199311) "></path>
                </g>
                <g id="Group-2" transform="translate(51.500000, 156.500000) scale(-1, 1) translate(-51.500000, -156.500000) translate(13.000000, 120.000000)">
                    <mask id="mask-7" fill="white">
                        <use xlink:href="#path-6"></use>
                    </mask>
                    <use id="Path-77" fill="url(#linearGradient-1)" xlink:href="#path-6"></use>
                    <path d="M55.2651803,-10.2292464 L46.5741957,-6.65286858 C54.0813371,11.6759447 59.7044544,29.0535059 63.4435477,45.4798152 C67.1826409,61.9061244 68.1513796,76.265599 66.3497637,88.558239 L72.7510157,89.0873329 L70.7640732,22.5527307 L55.2651803,-10.2292464 Z" id="Path-79" fill="url(#linearGradient-4)" mask="url(#mask-7)" transform="translate(59.662606, 39.429043) rotate(32.000000) translate(-59.662606, -39.429043) "></path>
                    <path d="M9.55059525,72.7652252 C20.4712884,68.4845358 29.4170265,64.7819695 36.3878094,61.6575263 C43.3585923,58.5330831 48.1675059,56.2425077 50.81455,54.7858002 L62.767864,54.7858002 L44.2192206,72.7652252 L9.55059525,83.6128218 L9.55059525,72.7652252 Z" id="Path-2" fill="url(#linearGradient-5)" mask="url(#mask-7)" transform="translate(36.159230, 69.199311) rotate(32.000000) translate(-36.159230, -69.199311) "></path>
                </g>
                <g id="Group" transform="translate(169.000000, 0.000000)">
                    <mask id="mask-9" fill="white">
                        <use xlink:href="#path-8"></use>
                    </mask>
                    <use id="Path-76" fill="url(#linearGradient-1)" xlink:href="#path-8"></use>
                    <path d="M89.0004052,-4.75986753 C89.3124195,-2.05766975 90.0089009,1.02359774 91.0898495,4.48393493 C92.1707981,7.94427212 92.9775637,11.093399 93.5101464,13.9313156 C85.2582771,28.8641261 73.882833,42.5287016 59.3838141,54.9250421 C44.8847952,67.3213826 30.1242574,78.5592643 15.1022005,88.638687 L-16.0383642,91.0040995 C25.1654944,67.1927187 51.0160973,50.4870583 61.5134445,40.8871182 C72.0107918,31.2871782 81.173112,16.0715162 89.0004052,-4.75986753 Z" id="Path-78" fill="url(#linearGradient-10)" mask="url(#mask-9)"></path>
                    <path d="M87.5726512,-2.28862361 L93.8817689,14.2767415 C104.797032,27.4777597 110.980345,42.1633895 112.431707,58.3336307 C113.883069,74.5038718 111.23538,91.4230833 104.488641,109.091265 L120.248911,101.217389 L125.337721,23.6916685 L87.5726512,-2.28862361 Z" id="Path-79" fill="url(#linearGradient-4)" mask="url(#mask-9)"></path>
                    <path d="M62.3008888,121.845041 C73.221582,117.564352 82.16732,113.861786 89.1381029,110.737343 C96.1088858,107.612899 100.917799,105.322324 103.564844,103.865616 L115.518158,103.865616 L96.9695141,121.845041 L62.3008888,132.692638 L62.3008888,121.845041 Z" id="Path-2" fill="url(#linearGradient-5)" mask="url(#mask-9)"></path>
                </g>
                <g id="Group" transform="translate(61.000000, 68.500000) scale(-1, 1) translate(-61.000000, -68.500000) ">
                    <mask id="mask-12" fill="white">
                        <use xlink:href="#path-11"></use>
                    </mask>
                    <use id="Path-76" fill="url(#linearGradient-1)" xlink:href="#path-11"></use>
                    <path d="M89.0004052,-4.75986753 C89.3124195,-2.05766975 90.0089009,1.02359774 91.0898495,4.48393493 C92.1707981,7.94427212 92.9775637,11.093399 93.5101464,13.9313156 C85.2582771,28.8641261 73.882833,42.5287016 59.3838141,54.9250421 C44.8847952,67.3213826 30.1242574,78.5592643 15.1022005,88.638687 L-16.0383642,91.0040995 C25.1654944,67.1927187 51.0160973,50.4870583 61.5134445,40.8871182 C72.0107918,31.2871782 81.173112,16.0715162 89.0004052,-4.75986753 Z" id="Path-78" fill="url(#linearGradient-10)" mask="url(#mask-12)"></path>
                    <path d="M87.5726512,-2.28862361 L93.8817689,14.2767415 C104.797032,27.4777597 110.980345,42.1633895 112.431707,58.3336307 C113.883069,74.5038718 110.527746,91.3260887 102.365739,108.800281 L120.248911,101.217389 L125.337721,23.6916685 L87.5726512,-2.28862361 Z" id="Path-79" fill="url(#linearGradient-4)" mask="url(#mask-12)"></path>
                    <path d="M62.3008888,121.845041 C73.221582,117.564352 82.16732,113.861786 89.1381029,110.737343 C96.1088858,107.612899 100.917799,105.322324 103.564844,103.865616 L115.518158,103.865616 L96.9695141,121.845041 L62.3008888,132.692638 L62.3008888,121.845041 Z" id="Path-2" fill="url(#linearGradient-5)" mask="url(#mask-12)"></path>
                </g>
                <path d="M184.406172,201.800238 L190.848535,241.299195 L145.891726,274.800238 L145.891726,201.800238 L184.406172,201.800238 Z M108.442363,202.198974 L145.891726,202.198974 L145.891726,274.138429 L102,241.697932 L108.442363,202.198974 Z" id="Combined-Shape" fill="url(#linearGradient-13)"></path>
                <g id="Group-3" transform="translate(175.000000, 185.000000)">
                    <path d="M25.9395043,17.6208659 C25.9395043,17.6208659 31.5086175,26.4539833 42.6468439,44.1202182 L23.5414603,63.9862716 L2.35229266,40.8035687 L0.536032237,0.610547589 C17.4716803,11.9507598 25.9395043,17.6208659 25.9395043,17.6208659 Z" id="Path-81" fill="url(#linearGradient-14)"></path>
                    <polygon id="Path-82" fill="url(#linearGradient-15)" points="28.7281387 24.5999808 42.2877574 45.3937997 53.5133868 50.7616569 33.7566608 19.2278819"></polygon>
                    <polygon id="Path-83" fill="url(#linearGradient-16)" points="42.1660771 44.4125455 23.7556872 63.2060193 23.7556872 79.7024799 53.6841726 50.7411665"></polygon>
                </g>
                <g id="Group-3" transform="translate(90.000000, 225.000000) scale(-1, 1) translate(-90.000000, -225.000000) translate(63.000000, 185.000000)">
                    <path d="M25.9395043,17.6208659 C25.9395043,17.6208659 31.5086175,26.4539833 42.6468439,44.1202182 L23.5414603,63.9862716 L2.35229266,40.8035687 L0.536032237,0.610547589 C17.4716803,11.9507598 25.9395043,17.6208659 25.9395043,17.6208659 Z" id="Path-81" fill="url(#linearGradient-14)"></path>
                    <polygon id="Path-82" fill="url(#linearGradient-15)" points="28.7281387 24.5999808 42.2877574 45.3937997 53.5133868 50.7616569 33.7566608 19.2278819"></polygon>
                    <polygon id="Path-83" fill="url(#linearGradient-16)" points="42.1660771 44.4125455 23.7556872 63.2060193 23.7556872 79.7024799 53.6841726 50.7411665"></polygon>
                </g>
                <polygon id="Path-84" fill="url(#linearGradient-17)" transform="translate(101.788210, 249.941361) scale(-1, 1) translate(-101.788210, -249.941361) " points="97.853865 235.288415 110.22736 247.872005 110.22736 264.594308 93.3490588 235.288415"></polygon>
                <polygon id="Path-84" fill="url(#linearGradient-17)" points="186.531236 235.604471 198.904732 248.188061 198.904732 264.910364 182.02643 235.604471"></polygon>
                <path d="M146.107084,59.1383506 C153.281104,63.211567 159.5481,69.0899481 164.908072,76.773494 C172.952858,88.3057338 181.176514,102.045216 175.405272,114.720904 C171.557778,123.171363 161.787407,124.296229 146.094159,118.095503 L146.094159,118.085375 C130.408472,124.280377 120.642409,123.153809 116.795971,114.70567 C111.024729,102.029982 119.248385,88.2905 127.293171,76.7582601 C132.656362,69.0701002 138.927666,63.1892737 146.107084,59.1157807 L146.107084,59.1383506 Z" id="Combined-Shape" fill="url(#linearGradient-18)"></path>
                <path d="M146.010048,65.4210982 C151.587001,69.043271 156.45885,74.2707153 160.625596,81.1034312 C166.879467,91.3586597 173.272388,103.576713 168.785929,114.848772 C165.794957,122.363478 158.199647,123.363783 146,117.849688 L146,117.840681 C133.80623,123.349686 126.21427,122.347867 123.224119,114.835225 C118.73766,103.563166 125.130581,91.3451127 131.384452,81.0898842 C135.5537,74.2530652 140.428898,69.0234463 146.010048,65.4010276 L146.010048,65.4210982 Z" id="Combined-Shape" fill="url(#linearGradient-19)"></path>
                <path d="M146.262125,258.988588 L146.262125,259.77329 L190.079902,233.928818 L180.448168,198.185907 L146.262125,202.77888 L146.262125,202.842279 L109.717134,196.617953 L101.231368,233.689643 L146.262125,258.988588 Z" id="Combined-Shape" fill="#7C7041"></path>
                <path d="M179.238157,201.800238 L184.797948,228.206568 L146,250.603097 L146,201.800238 L179.238157,201.800238 Z M113.681015,202.066806 L146,202.066806 L146,250.160657 L108.121224,228.473136 L113.681015,202.066806 Z" id="Combined-Shape" fill="url(#linearGradient-20)"></path>
                <path d="M193.688359,104.397505 C198.89116,98.8792669 203.285089,89.7467652 206.870146,77 C216.979898,81.5818247 224.951142,88.4667336 230.783877,97.654727 C236.616613,106.84272 240.14756,118.076591 241.376719,131.356339 C241.500823,146.467395 240.712932,157.08327 239.013046,163.203965 C237.31316,169.324661 233.692297,174.583163 228.150459,178.979472 L229.94865,185.210134 C227.069312,190.979853 223.585504,196.07602 219.497228,200.498635 C215.408952,204.921251 208.749958,209.657562 199.520247,214.707569 C198.764519,209.721883 197.886504,206.12876 196.886202,203.9282 C195.8859,201.727639 193.911222,199.045133 190.962167,195.88068 C182.036422,202.021798 175.107013,206.41565 170.173941,209.062236 C165.240869,211.708821 157.182889,215.355682 146,220.002816 L146,156.310119 L146,97.654727 C154.50231,98.8507062 160.673956,100.554534 164.514941,102.766209 C168.355925,104.977885 172.974667,110.498426 178.371168,119.327831 C183.379828,114.892519 188.485559,109.915743 193.688359,104.397505 Z" id="Path-71" fill="url(#linearGradient-21)"></path>
                <path d="M98.6883595,104.397505 C103.89116,98.8792669 108.285089,89.7467652 111.870146,77 C121.979898,81.5818247 129.951142,88.4667336 135.783877,97.654727 C141.616613,106.84272 145.14756,118.076591 146.376719,131.356339 C146.500823,146.467395 145.712932,157.08327 144.013046,163.203965 C142.31316,169.324661 138.692297,174.583163 133.150459,178.979472 L134.94865,185.210134 C132.069312,190.979853 128.585504,196.07602 124.497228,200.498635 C120.408952,204.921251 113.749958,209.657562 104.520247,214.707569 C103.764519,209.721883 102.886504,206.12876 101.886202,203.9282 C100.8859,201.727639 98.9112216,199.045133 95.9621668,195.88068 C87.0364215,202.021798 80.107013,206.41565 75.1739411,209.062236 C70.2408693,211.708821 62.1828889,215.355682 51,220.002816 L51,156.310119 L51,97.654727 C59.5023095,98.8507062 65.6739564,100.554534 69.5149405,102.766209 C73.3559247,104.977885 77.974667,110.498426 83.3711676,119.327831 C88.3798282,114.892519 93.4855588,109.915743 98.6883595,104.397505 Z" id="Path-71" fill="url(#linearGradient-21)" transform="translate(98.694692, 148.501408) scale(-1, 1) translate(-98.694692, -148.501408) "></path>
                <path d="M189.857418,119.87102 C195.627346,116.612959 199.641658,113.981921 201.900354,111.977906 C204.159051,109.973892 206.486839,106.977939 208.88372,102.990049 C214.171243,106.727373 217.89677,111.073102 220.060302,116.027238 C222.223833,120.981373 222.990711,126.922525 222.360937,133.850692 C216.417403,138.565954 211.924998,141.845616 208.88372,143.689678 C205.842442,145.533739 200.471247,148.234816 192.770135,151.792909 L189.857418,119.87102 Z" id="Path-72" fill="url(#linearGradient-20)"></path>
                <path d="M70,116.88097 C75.7699279,113.622909 79.78424,110.991871 82.0429363,108.987857 C84.3016327,106.983842 86.6294211,103.98789 89.0263016,100 C94.313825,103.737324 98.0393523,108.083053 100.202883,113.037188 C102.366414,117.991324 103.133293,123.932475 102.503519,130.860643 C96.5599852,135.575905 92.0675794,138.855566 89.0263016,140.699628 C85.9850237,142.54369 80.6138289,145.244767 72.9127173,148.802859 L70,116.88097 Z" id="Path-72" fill="url(#linearGradient-20)" transform="translate(86.358250, 124.401430) scale(-1, 1) translate(-86.358250, -124.401430) "></path>
                <path d="M191.527222,155.890804 C198.250841,153.689231 204.021508,151.392296 208.839222,149 C213.656936,146.607704 218.344867,143.711291 222.903015,140.31076 C224.633711,147.581181 225.499058,153.040272 225.499058,156.688034 C225.499058,160.335796 224.633711,165.048535 222.903015,170.826252 C214.558941,172.102963 208.511598,172.849315 204.760987,173.065307 C201.010376,173.2813 194.097685,173.2813 184.022916,173.065307 L191.527222,155.890804 Z" id="Path-73" fill="url(#linearGradient-20)"></path>
                <path d="M73.5043057,155.580044 C80.2279256,153.378471 85.9985925,151.081536 90.8163063,148.68924 C95.6340201,146.296944 100.321951,143.40053 104.880099,140 C106.610795,147.270421 107.476142,152.729512 107.476142,156.377274 C107.476142,160.025035 106.610795,164.737775 104.880099,170.515492 C96.5360252,171.792202 90.4886826,172.538554 86.7380712,172.754547 C82.9874599,172.97054 76.0747695,172.97054 66,172.754547 L73.5043057,155.580044 Z" id="Path-73" fill="url(#linearGradient-20)" transform="translate(86.738071, 156.458271) scale(-1, 1) translate(-86.738071, -156.458271) "></path>
                <path d="M146.054606,100.545338 C136.506484,104.162407 129.517828,107.661317 125.088638,111.042068 C120.659448,114.42282 117.239678,117.905858 114.829327,121.491183 C112.147754,120.031177 109.539002,117.724216 107.003073,114.570298 C104.467144,111.41638 101.885287,107.267817 99.2575015,102.124609 C94.7163014,117.451479 92.5268372,129.752776 92.6891087,139.0285 C92.9325161,152.942086 93.920517,162.122366 111.352021,181.231019 C122.973023,193.970121 134.540552,199.811925 146.054606,198.756432 L146.054606,100.545338 Z" id="Combined-Shape" fill="url(#linearGradient-22)"></path>
                <path d="M146,100.526522 C155.548121,104.143591 162.536777,107.642501 166.965967,111.023253 C171.395157,114.404004 174.814928,117.887043 177.225278,121.472367 C179.906852,120.012362 182.515604,117.7054 185.051533,114.551482 C187.587462,111.397565 190.169319,107.249002 192.797104,102.105793 C197.338304,117.432664 199.527768,129.733961 199.365497,139.009685 C199.122089,152.923271 198.134089,162.103551 180.702585,181.212203 C169.081582,193.951305 157.514054,199.79311 146,198.737617 L146,100.526522 Z" id="Path-69" fill="url(#linearGradient-22)"></path>
                <path d="M146.059208,191.83417 C157.030717,189.436268 165.074055,186.013181 170.189222,181.564907 C177.87577,174.8805 183.365709,170.067496 187.628003,152.529459 C190.469532,140.837434 190.469532,130.614108 187.628003,121.859483 C184.857798,124.885385 182.863019,126.671157 181.643667,127.216801 C180.424314,127.762445 178.428421,127.762445 175.655987,127.216801 C172.290275,120.581433 168.566518,115.929182 164.484715,113.26005 C160.402912,110.590918 154.241341,108.779052 146,107.824452 L146,107.924919 C137.788351,108.88133 131.646515,110.690904 127.574493,113.35364 C123.49269,116.022773 119.768933,120.675023 116.403221,127.310392 C113.630787,127.856036 111.634894,127.856036 110.415542,127.310392 C109.196189,126.764748 107.20141,124.978975 104.431206,121.953074 C101.589676,130.707699 101.589676,140.931024 104.431206,152.623049 C108.693499,170.161087 114.183439,174.974091 121.869986,181.658498 C126.99435,186.114769 135.057424,189.542165 146.059208,191.940685 L146.059208,191.83417 Z" id="Combined-Shape" fill="url(#linearGradient-23)"></path>
                <path d="M146.04534,188.376278 L155.921704,186.889202 C154.106531,178.79225 153.198944,172.325039 153.198944,167.487569 C153.198944,162.6501 154.106531,157.605074 155.921704,152.352492 C160.865616,156.022011 164.672937,160.48276 167.343667,165.734738 C170.014397,170.986715 170.932296,175.785821 170.097362,180.132055 C176.036663,173.24403 180.183323,167.125413 182.537342,161.776202 C184.891361,156.426991 185.470509,152.210318 184.274786,149.126181 C183.050964,152.192558 182.051002,154.229245 181.274901,155.236243 C180.11075,156.746738 178.12446,158.907637 176.322372,157.817666 C174.520285,156.727696 164.897008,146.484023 162.093099,143.634367 C160.223826,141.734596 156.991189,138.102636 152.395189,132.738486 C154.728228,124.322057 155.190212,118.428202 153.781138,115.056921 C152.372065,111.68564 149.778352,110 146,110 C142.246231,110.016289 139.667632,111.701903 138.264202,115.059681 C136.855129,118.430962 137.317112,124.324817 139.650152,132.741246 C135.054151,138.105396 131.821514,141.737356 129.952241,143.637127 C127.148333,146.486783 117.525056,156.730456 115.722968,157.820426 C113.92088,158.910397 111.93459,156.749498 110.770439,155.239003 C109.994338,154.232005 108.994377,152.195318 107.770554,149.128941 C106.574831,152.213078 107.153979,156.429751 109.507998,161.778962 C111.862017,167.128173 116.008677,173.24679 121.947978,180.134815 C121.113044,175.788581 122.030943,170.989475 124.701673,165.737498 C127.372403,160.48552 131.179724,156.024771 136.123636,152.355252 C137.93881,157.607834 138.846396,162.65286 138.846396,167.490329 C138.846396,172.327799 137.93881,178.79501 136.123636,186.891962 L146,188.379038 L146.013505,188.381071 L146.04534,188.385865 L146.04534,188.376278 Z" id="Combined-Shape" fill="url(#linearGradient-24)"></path>
                <path d="M185.944089,177.825982 C192.792235,178.989641 198.91957,179.571471 204.326091,179.571471 C209.732613,179.571471 215.209264,178.989641 220.756044,177.825982 C216.95939,182.570721 213.988892,186.154153 211.844552,188.576277 C209.700212,190.998401 206.868717,193.96857 203.350067,197.486783 C200.45199,190.404341 197.984404,185.712626 195.947307,183.411637 C193.91021,181.110649 190.575804,179.248763 185.944089,177.825982 Z" id="Path-74" fill="url(#linearGradient-25)"></path>
                <path d="M73,177 C79.8481467,178.16366 85.9754809,178.74549 91.3820026,178.74549 C96.7885244,178.74549 102.265175,178.16366 107.811956,177 C104.015301,181.744739 101.044803,185.328171 98.9004636,187.750295 C96.7561237,190.17242 93.9246285,193.142588 90.4059779,196.660802 C87.5079014,189.57836 85.0403148,184.886644 83.0032181,182.585656 C80.9661213,180.284667 77.6317153,178.422782 73,177 Z" id="Path-74" fill="url(#linearGradient-26)" transform="translate(90.405978, 186.830401) scale(-1, 1) translate(-90.405978, -186.830401) "></path>
            </g>
        </g>
    </g>
</svg>