<?xml version="1.0" encoding="UTF-8"?>
<svg width="400px" height="400px" viewBox="0 0 400 400" version="1.1" xmlns="http://www.w3.org/2000/svg" xmlns:xlink="http://www.w3.org/1999/xlink">
    <!-- Generator: Sketch 47 (45396) - http://www.bohemiancoding.com/sketch -->
    <title>silver</title>
    <desc>Created with Sketch.</desc>
    <defs>
        <linearGradient x1="66.0529471%" y1="66.7815543%" x2="16.9326187%" y2="0%" id="linearGradient-1">
            <stop stop-color="#3F4E47" offset="0%"></stop>
            <stop stop-color="#2A2B0F" offset="100%"></stop>
        </linearGradient>
        <linearGradient x1="31.0304386%" y1="38.3084327%" x2="78.6823409%" y2="94.2918638%" id="linearGradient-2">
            <stop stop-color="#AEBDB3" offset="0%"></stop>
            <stop stop-color="#5B6F69" offset="100%"></stop>
        </linearGradient>
        <linearGradient x1="50%" y1="96.9210301%" x2="48.1972129%" y2="-14.6939467%" id="linearGradient-3">
            <stop stop-color="#778982" offset="0%"></stop>
            <stop stop-color="#A9B8B1" offset="0%"></stop>
            <stop stop-color="#4D5641" offset="100%"></stop>
        </linearGradient>
        <linearGradient x1="50%" y1="0%" x2="50%" y2="100%" id="linearGradient-4">
            <stop stop-color="#3E3F22" offset="0%"></stop>
            <stop stop-color="#43441E" offset="100%"></stop>
        </linearGradient>
        <linearGradient x1="50%" y1="96.9210301%" x2="48.1972129%" y2="-14.6939467%" id="linearGradient-5">
            <stop stop-color="#778982" offset="0%"></stop>
            <stop stop-color="#768880" offset="0%"></stop>
            <stop stop-color="#4D5641" offset="100%"></stop>
        </linearGradient>
        <linearGradient x1="50%" y1="96.9210301%" x2="48.1972129%" y2="-14.6939467%" id="linearGradient-6">
            <stop stop-color="#778982" offset="0%"></stop>
            <stop stop-color="#9DB1A9" offset="0%"></stop>
            <stop stop-color="#4D5641" offset="100%"></stop>
        </linearGradient>
        <linearGradient x1="50%" y1="0%" x2="50%" y2="100%" id="linearGradient-7">
            <stop stop-color="#2C2D13" offset="0%"></stop>
            <stop stop-color="#43441E" offset="100%"></stop>
        </linearGradient>
        <linearGradient x1="77.3154032%" y1="18.1978992%" x2="58.8428467%" y2="107.718793%" id="linearGradient-8">
            <stop stop-color="#73817B" offset="0%"></stop>
            <stop stop-color="#404E47" offset="100%"></stop>
        </linearGradient>
        <linearGradient x1="50%" y1="0%" x2="50%" y2="100%" id="linearGradient-9">
            <stop stop-color="#D9E0DD" offset="0%"></stop>
            <stop stop-color="#B1BEB8" offset="100%"></stop>
        </linearGradient>
        <linearGradient x1="50%" y1="0%" x2="50%" y2="100%" id="linearGradient-10">
            <stop stop-color="#E0E6E3" offset="0%"></stop>
            <stop stop-color="#84968E" offset="100%"></stop>
        </linearGradient>
        <linearGradient x1="50%" y1="0%" x2="50%" y2="100%" id="linearGradient-11">
            <stop stop-color="#EFFCF6" offset="0%"></stop>
            <stop stop-color="#ADC0B8" offset="100%"></stop>
        </linearGradient>
        <linearGradient x1="50%" y1="0%" x2="50%" y2="100%" id="linearGradient-12">
            <stop stop-color="#E5ECE6" offset="0%"></stop>
            <stop stop-color="#C7D5C8" offset="100%"></stop>
        </linearGradient>
        <linearGradient x1="50%" y1="0%" x2="50%" y2="100%" id="linearGradient-13">
            <stop stop-color="#999666" offset="0%"></stop>
            <stop stop-color="#605D36" offset="100%"></stop>
        </linearGradient>
        <linearGradient x1="50%" y1="0%" x2="50%" y2="100%" id="linearGradient-14">
            <stop stop-color="#5B6B5F" offset="0%"></stop>
            <stop stop-color="#2E372E" offset="100%"></stop>
        </linearGradient>
        <ellipse id="path-15" cx="158.703223" cy="129.316472" rx="51.703223" ry="47.3164725"></ellipse>
        <linearGradient x1="50%" y1="0%" x2="50%" y2="154.285976%" id="linearGradient-17">
            <stop stop-color="#787646" offset="0%"></stop>
            <stop stop-color="#342F17" offset="100%"></stop>
        </linearGradient>
        <ellipse id="path-18" cx="159.5" cy="130.5" rx="44.5" ry="41.5"></ellipse>
        <linearGradient x1="50%" y1="0%" x2="50%" y2="100%" id="linearGradient-20">
            <stop stop-color="#D7E0C7" offset="0%"></stop>
            <stop stop-color="#AABFAA" offset="100%"></stop>
        </linearGradient>
        <linearGradient x1="50%" y1="0%" x2="50%" y2="100%" id="linearGradient-21">
            <stop stop-color="#D7E0C7" offset="0%"></stop>
            <stop stop-color="#A1B9A4" offset="100%"></stop>
        </linearGradient>
        <linearGradient x1="50%" y1="0%" x2="50%" y2="100%" id="linearGradient-22">
            <stop stop-color="#E0E7D5" offset="0%"></stop>
            <stop stop-color="#A9BFA9" offset="100%"></stop>
        </linearGradient>
        <linearGradient x1="50%" y1="0%" x2="50%" y2="100%" id="linearGradient-23">
            <stop stop-color="#DDE5D2" offset="0%"></stop>
            <stop stop-color="#ACC1AB" offset="100%"></stop>
        </linearGradient>
        <linearGradient x1="50%" y1="0%" x2="50%" y2="100%" id="linearGradient-24">
            <stop stop-color="#DFE6D2" offset="0%"></stop>
            <stop stop-color="#AEC2AD" offset="100%"></stop>
        </linearGradient>
    </defs>
    <g id="Page-1" stroke="none" stroke-width="1" fill="none" fill-rule="evenodd">
        <g id="silver">
            <g id="Group" transform="translate(41.000000, 53.000000)">
                <path d="M224.57868,137.662954 C248.522188,139.74302 263.682225,140.952121 270.058789,141.290257 C276.435354,141.628393 284.076534,141.628393 292.982329,141.290257 C289.67294,145.774344 286.285396,149.836888 282.819698,153.477891 C279.353999,157.118893 275.656845,160.499409 271.728235,163.619439 L271.728235,168.322491 C265.224322,170.332082 260.93731,171.447633 258.867197,171.669144 C256.797085,171.890656 253.977862,171.890656 250.409529,171.669144 C251.295665,173.270659 250.773369,176.353221 248.84264,180.916829 C246.911911,185.480438 244.2921,189.824784 240.983207,193.949867 C231.840902,197.550994 225.083017,200.537491 220.709553,202.90936 C216.336089,205.281228 210.763058,208.982178 203.990459,214.012209 L192.209352,210.702587 L163.406305,280.577976 L161.356636,224.807967 L187.387965,176.942893 L208.750285,137.662954 L224.57868,137.662954 Z" id="Path-66" fill="url(#linearGradient-1)"></path>
                <path d="M88.5963513,138 C112.53986,140.080066 127.699896,141.289167 134.076461,141.627303 C140.453025,141.965439 148.094205,141.965439 157,141.627303 C153.690611,146.11139 150.303067,150.173934 146.837369,153.814937 C143.371671,157.455939 139.674517,160.836456 135.745907,163.956485 L135.745907,168.659537 C129.241994,170.669128 124.954981,171.784679 122.884869,172.00619 C120.814756,172.227702 117.995533,172.227702 114.4272,172.00619 C115.313337,173.607705 114.791041,176.690267 112.860312,181.253875 C110.929582,185.817484 108.309771,190.16183 105.000879,194.286913 C95.8585734,197.88804 89.1006887,200.874537 84.7272246,203.246406 C80.3537605,205.618274 74.7807293,209.319224 68.0081309,214.349255 L56.2270239,211.039633 L27.4239762,280.915022 L25.3743077,225.145014 L51.4056368,177.279939 L72.7679566,138 L88.5963513,138 Z" id="Path-66" fill="url(#linearGradient-1)" transform="translate(91.187154, 209.457511) scale(-1, 1) translate(-91.187154, -209.457511) "></path>
                <polygon id="Path-67" fill="#161A10" points="242.981932 147.695198 280.168667 147.695198 274.741778 151.410299 233.837506 150.50487"></polygon>
                <polygon id="Path-67" fill="#161A10" transform="translate(61.165580, 146.857550) scale(-1, 1) translate(-61.165580, -146.857550) " points="47.1444256 145 84.3311609 145 78.9042719 148.715101 38 147.809672"></polygon>
                <polygon id="Path-67" fill="#161A10" points="234.144426 158 271.331161 158 265.904272 161.715101 225 160.809672"></polygon>
                <polygon id="Path-67" fill="#161A10" transform="translate(65.834420, 159.857550) scale(-1, 1) translate(-65.834420, -159.857550) " points="51.8132647 158 89 158 83.5731111 161.715101 42.6688391 160.809672"></polygon>
                <polygon id="Path-67" fill="#161A10" points="219.144426 168.284899 256.331161 168.284899 250.904272 172 210 171.094571"></polygon>
                <polygon id="Path-67" fill="#161A10" transform="translate(84.165580, 169.857550) scale(-1, 1) translate(-84.165580, -169.857550) " points="70.1444256 168 107.331161 168 101.904272 171.715101 61 170.809672"></polygon>
                <polygon id="Path-67" fill="#161A10" points="211.144426 177 248.331161 177 242.904272 180.715101 202 179.809672"></polygon>
                <polygon id="Path-67" fill="#161A10" transform="translate(94.165580, 181.857550) scale(-1, 1) translate(-94.165580, -181.857550) " points="80.1444256 180 117.331161 180 111.904272 183.715101 71 182.809672"></polygon>
                <path d="M202.618594,72.8892162 C209.520934,72.1890679 220.874734,64.3469809 236.679993,49.3629552 C252.485252,34.3789295 266.740112,17.9429704 279.444573,0.0550778613 C280.896487,11.4370118 281.622443,20.007823 281.622443,25.7675115 C281.622443,31.5271999 280.896487,36.4894427 279.444573,40.6542398 L274.496628,43.5156354 L275.961917,49.3629552 L279.444573,51.4537619 C279.177398,54.1481048 278.950283,56.1398745 278.763228,57.429071 C278.576173,58.7182675 278.217541,60.7635021 277.687333,63.5647751 L274.496628,63.5647751 L275.961917,72.8892162 C270.884093,79.981032 265.778703,85.8736534 260.645748,90.5670804 C249.528988,100.731928 237.277387,106.529928 223.890946,107.961082 L202.618594,72.8892162 Z" id="Path-62" fill="url(#linearGradient-2)"></path>
                <path d="M205.583091,164.474839 L221.580447,188.183436 L158.954462,235.744312 L158.954462,169.122848 L205.583091,164.474839 Z M112.30104,157 L158.929669,162.155828 L158.929669,236.056025 L96,188.801402 L112.30104,157 Z" id="Combined-Shape" fill="url(#linearGradient-3)"></path>
                <path d="M198.944538,160.852975 L212.919264,187.305559 L158.97026,226.612218 L158.97026,165.141621 L198.944538,160.852975 Z M118.974726,161.140588 L158.949004,165.429234 L158.949004,226.89983 L105,187.593171 L118.974726,161.140588 Z" id="Combined-Shape" fill="url(#linearGradient-4)"></path>
                <path d="M158.999868,212.699197 L201.292461,184 L190.058645,164.396711 L158.729596,171.859668 L158.70122,167.571865 L127.061147,164.396711 L116,183.981218 L158.718044,212.530745 L158.718044,212.890439 L158.985095,212.709222 L159,212.719183 L158.999868,212.699197 Z" id="Combined-Shape" fill="url(#linearGradient-5)"></path>
                <path d="M159.353637,95.3024856 L201.64623,66.6032889 L190.412414,47 L159.083366,54.4629569 L159.05499,50.1751538 L127.414916,47 L116.35377,66.584507 L159.071814,95.1340337 L159.071814,95.4937277 L159.338864,95.3125105 L159.35377,95.3224721 L159.353637,95.3024856 Z" id="Combined-Shape" fill="url(#linearGradient-6)" transform="translate(159.000000, 71.246864) scale(1, -1) translate(-159.000000, -71.246864) "></path>
                <path d="M183.901716,168.84057 L192.51489,183.503844 L159.263995,205.292428 L159.263995,171.217865 L183.901716,168.84057 Z M134.613174,169 L159.250895,171.377295 L159.250895,205.451859 L126,183.663275 L134.613174,169 Z" id="Combined-Shape" fill="url(#linearGradient-7)"></path>
                <path d="M183.901716,59 L192.51489,73.6632747 L159.263995,95.4518586 L159.263995,61.3772951 L183.901716,59 Z M134.613174,59.1594303 L159.250895,61.5367254 L159.250895,95.6112888 L126,73.822705 L134.613174,59.1594303 Z" id="Combined-Shape" fill="url(#linearGradient-4)" transform="translate(159.257445, 77.305644) scale(1, -1) translate(-159.257445, -77.305644) "></path>
                <path d="M225.441263,105.712191 C255.248966,98.069525 275.177034,92.2434053 285.225466,88.233832 C295.273898,84.2242587 304.847306,79.0690366 313.945688,72.7681659 C310.725686,90.2190979 308.056445,103.073935 305.937966,111.332677 C303.819486,119.591419 301.045126,127.958074 297.614885,136.43264 C285.238601,137.685915 276.339545,138.424212 270.917716,138.647532 C265.495887,138.870851 256.470291,138.870851 243.840928,138.647532 L225.441263,105.712191 Z" id="Path" fill="url(#linearGradient-8)"></path>
                <path d="M0.495575396,99.9440253 C30.3032781,92.3013592 50.2313456,86.4752395 60.2797779,82.4656661 C70.3282101,78.4560928 79.9016175,73.3008708 89,67 C85.779998,84.450932 83.1107572,97.3057691 80.9922775,105.564511 C78.8737978,113.823254 76.0994375,122.189908 72.6691966,130.664474 C60.2929131,131.917749 51.393857,132.656047 45.9720282,132.879366 C40.5501994,133.102685 31.5246032,133.102685 18.8952397,132.879366 L0.495575396,99.9440253 Z" id="Path" fill="url(#linearGradient-8)" transform="translate(44.747788, 100.023428) scale(-1, 1) translate(-44.747788, -100.023428) "></path>
                <path d="M210.192767,136.627018 C223.799255,139.631108 232.9049,141.368361 237.509703,141.838776 C242.114507,142.309192 248.342992,142.309192 256.195158,141.838776 C253.243452,145.784734 250.829261,148.66837 248.952583,150.489686 C247.075906,152.311001 245.150855,153.6386 243.177431,154.472482 C235.056655,155.101824 229.112817,155.416496 225.345917,155.416496 C221.579017,155.416496 213.44383,155.101824 200.940355,154.472482 L210.192767,136.627018 Z" id="Path-64" fill="url(#linearGradient-9)"></path>
                <path d="M70.6250106,138 C84.2314981,141.00409 93.3371436,142.741342 97.941947,143.211758 C102.54675,143.682174 108.775235,143.682174 116.627402,143.211758 C113.675696,147.157716 111.261504,150.041352 109.384827,151.862668 C107.50815,153.683983 105.583099,155.011582 103.609674,155.845464 C95.4888982,156.474806 89.5450602,156.789478 85.7781603,156.789478 C82.0112604,156.789478 73.8760731,156.474806 61.3725983,155.845464 L70.6250106,138 Z" id="Path-64" fill="url(#linearGradient-9)" transform="translate(89.000000, 147.394739) scale(-1, 1) translate(-89.000000, -147.394739) "></path>
                <ellipse id="Oval-2" fill="url(#linearGradient-10)" cx="209.5" cy="163" rx="13.5" ry="11"></ellipse>
                <ellipse id="Oval-2" fill="url(#linearGradient-11)" cx="209.528097" cy="161.707035" rx="5.52809666" ry="5.70703545"></ellipse>
                <ellipse id="Oval-2" fill="url(#linearGradient-10)" cx="103.5" cy="163" rx="13.5" ry="11"></ellipse>
                <ellipse id="Oval-2" fill="url(#linearGradient-11)" cx="103.528097" cy="161.707035" rx="5.52809666" ry="5.70703545"></ellipse>
                <path d="M218.704729,105.505988 C222.999351,106.214333 230.170878,105.0842 240.21931,102.115588 C250.267742,99.1469769 259.841149,95.3301489 268.939532,90.6651046 C265.71953,103.585441 263.050289,113.102917 260.931809,119.217532 C258.81333,125.332147 256.038969,131.526658 252.608729,137.801065 C240.232445,138.728966 231.333389,139.275588 225.91156,139.440929 C220.489731,139.60627 211.464135,139.60627 198.834772,139.440929 L218.704729,105.505988 Z" id="Path-63" fill="url(#linearGradient-2)"></path>
                <path d="M27.9961505,74.8341384 C34.8984906,74.1339901 46.2522903,66.291903 62.0575496,51.3078773 C77.8628089,36.3238516 92.1176688,19.8878925 104.822129,2 C106.274043,13.381934 107,21.9527452 107,27.7124336 C107,33.4721221 106.274043,38.4343648 104.822129,42.599162 L99.8741843,45.4605575 L101.339473,51.3078773 L104.822129,53.3986841 C104.554955,56.093027 104.32784,58.0847966 104.140785,59.3739931 C103.95373,60.6631896 103.595098,62.7084243 103.064889,65.5096972 L99.8741843,65.5096972 L101.339473,74.8341384 C96.2616495,81.9259541 91.15626,87.8185755 86.023305,92.5120026 C74.9065444,102.67685 62.6549435,108.47485 49.2685022,109.906004 L27.9961505,74.8341384 Z" id="Path-62" fill="url(#linearGradient-2)" transform="translate(67.498075, 55.953002) scale(-1, 1) translate(-67.498075, -55.953002) "></path>
                <path d="M65.4462662,100.840884 C69.7408879,101.549229 76.9124149,100.419095 86.9608471,97.4504839 C97.0092794,94.4818723 106.582687,90.6650444 115.681069,86 C112.461067,98.9203368 109.791826,108.437813 107.673347,114.552428 C105.554867,120.667043 102.780507,126.861554 99.3502659,133.135961 C86.9739824,134.063862 78.0749263,134.610483 72.6530975,134.775824 C67.2312687,134.941166 58.2056725,134.941166 45.5763089,134.775824 L65.4462662,100.840884 Z" id="Path-63" fill="url(#linearGradient-2)" transform="translate(80.628689, 110.449915) scale(-1, 1) translate(-80.628689, -110.449915) "></path>
                <path d="M178.057707,96.9113769 L203.401243,67.0550378 C218.488253,80.1748866 226.940815,92.8280568 228.758928,105.014549 C230.577041,117.20104 226.157049,131.577468 215.498951,148.143831 L193.613925,150.055038 L178.057707,96.9113769 Z" id="Path-61" fill="url(#linearGradient-12)"></path>
                <path d="M89,97.8563391 L114.343536,68 C129.430546,81.1198487 137.883107,93.773019 139.701221,105.959511 C141.519334,118.146002 137.099342,132.52243 126.441243,149.088793 L104.556217,151 L89,97.8563391 Z" id="Path-61" fill="url(#linearGradient-12)" transform="translate(114.549321, 109.500000) scale(-1, 1) translate(-114.549321, -109.500000) "></path>
                <path d="M179.738194,99.6403929 L202.236581,72.5712624 C215.629873,84.4663208 223.133522,95.938267 224.747528,106.987101 C226.361534,118.035935 222.437745,131.070266 212.97616,146.090092 L193.548019,147.822881 L179.738194,99.6403929 Z" id="Path-61" fill="url(#linearGradient-13)"></path>
                <path d="M93,99.0691305 L115.498386,72 C128.891679,83.8950584 136.395328,95.3670046 138.009334,106.415839 C139.62334,117.464673 135.69955,130.499003 126.237965,145.51883 L106.809825,147.251618 L93,99.0691305 Z" id="Path-61" fill="url(#linearGradient-13)" transform="translate(115.681069, 109.625809) scale(-1, 1) translate(-115.681069, -109.625809) "></path>
                <path d="M186.091289,100.66884 L203.347592,76.9108001 C213.620271,87.3508574 219.375584,97.4195574 220.613529,107.1169 C221.851474,116.814243 218.841921,128.254217 211.584868,141.436822 L196.683449,142.957655 L186.091289,100.66884 Z" id="Path-61" fill="url(#linearGradient-12)"></path>
                <path d="M98,100.75804 L115.256303,77 C125.528982,87.4400572 131.284295,97.5087573 132.52224,107.2061 C133.760186,116.903443 130.750632,128.343417 123.49358,141.526021 L108.592161,143.046855 L98,100.75804 Z" id="Path-61" fill="url(#linearGradient-12)" transform="translate(115.396421, 110.023428) scale(-1, 1) translate(-115.396421, -110.023428) "></path>
                <mask id="mask-16" fill="white">
                    <use xlink:href="#path-15"></use>
                </mask>
                <use id="Oval" fill="url(#linearGradient-14)" xlink:href="#path-15"></use>
                <mask id="mask-19" fill="white">
                    <use xlink:href="#path-18"></use>
                </mask>
                <use id="Oval" fill="url(#linearGradient-17)" xlink:href="#path-18"></use>
                <path d="M167.976776,86.438146 C170.647559,91.7936803 171.367198,96.2042153 170.135693,99.669751 C168.904188,103.135287 166.071738,107.718079 161.638343,113.418127 L171.982951,120.859929 C175.021635,112.891977 177.360292,108.109525 178.998922,106.512573 C180.637552,104.915621 183.877404,102.63468 188.718477,99.669751 C185.34733,96.2475149 182.107478,93.5602523 178.998922,91.6079633 C175.890365,89.6556743 172.216317,87.9324019 167.976776,86.438146 Z" id="Path-58" fill="url(#linearGradient-20)" mask="url(#mask-19)"></path>
                <path d="M135.338433,86.7538099 C138.009216,92.1093443 138.728855,96.5198793 137.497351,99.9854149 C136.265846,103.450951 133.433396,108.033743 129,113.733791 L139.344608,121.175593 C142.383292,113.207641 144.721949,108.425189 146.360579,106.828237 C147.999209,105.231285 151.239061,102.950344 156.080134,99.9854149 C152.708987,96.5631789 149.469136,93.8759163 146.360579,91.9236273 C143.252023,89.9713383 139.577974,88.2480659 135.338433,86.7538099 Z" id="Path-58" fill="url(#linearGradient-21)" mask="url(#mask-19)" transform="translate(142.540067, 103.964702) scale(-1, 1) translate(-142.540067, -103.964702) "></path>
                <path d="M188.627235,106.772112 C181.93074,117.003138 177.878233,125.707782 176.469712,132.886044 C175.061192,140.064306 175.491122,149.821452 177.759503,162.157483 L188.627235,156.030355 C185.664704,149.648941 184.716377,142.460422 185.782253,134.464798 C186.848129,126.469173 189.64061,119.823854 194.159695,114.528842 L188.627235,106.772112 Z" id="Path-59" fill="url(#linearGradient-22)" mask="url(#mask-19)"></path>
                <path d="M136.966871,107 C130.270376,117.231026 126.217869,125.935669 124.809348,133.113931 C123.400828,140.292193 123.830758,150.04934 126.09914,162.385371 L136.966871,156.258243 C134.00434,149.876829 133.056013,142.68831 134.121889,134.692685 C135.187765,126.697061 137.980246,120.051742 142.499331,114.75673 L136.966871,107 Z" id="Path-59" fill="url(#linearGradient-23)" mask="url(#mask-19)" transform="translate(133.249665, 134.692685) scale(-1, 1) translate(-133.249665, -134.692685) "></path>
                <path d="M159.029828,139.719915 C159.019891,139.699876 159.009948,139.679823 159,139.659756 L159,139.780061 C155.696943,146.439571 153.015901,151.591958 150.956874,155.237222 C148.885501,158.904343 146.443552,163.50448 143.631029,169.037632 C146.59765,172.296841 149.039599,174.414162 150.956874,175.389595 C152.869355,176.362588 155.561515,176.764514 159.033355,176.595372 C162.501704,176.763604 165.191455,176.361561 167.102609,175.389243 C169.019884,174.41381 171.461832,172.296489 174.428453,169.03728 C171.61593,163.504128 169.173982,158.903992 167.102609,155.236871 C165.043581,151.591607 162.362539,146.43922 159.059483,139.77971 L159.059483,139.660107 C159.049592,139.680057 159.039708,139.699993 159.029828,139.719915 Z" id="Combined-Shape" fill="url(#linearGradient-24)" mask="url(#mask-19)"></path>
            </g>
        </g>
    </g>
</svg>