<svg width="400" height="400" viewBox="0 0 400 400" xmlns="http://www.w3.org/2000/svg"><title>bronze</title><defs><linearGradient x1="18.249%" y1="12.577%" x2="50%" y2="100%" id="a"><stop stop-color="#6D4F1A" offset="0%"/><stop stop-color="#3B270B" offset="100%"/></linearGradient><linearGradient x1="42.509%" y1="0%" x2="60.683%" y2="110.864%" id="b"><stop stop-color="#60431C" offset="0%"/><stop stop-color="#492F0C" offset="100%"/></linearGradient><linearGradient x1="50%" y1="0%" x2="56.1%" y2="100%" id="c"><stop stop-color="#3F2A0E" offset="0%"/><stop stop-color="#2C1C05" offset="100%"/></linearGradient><linearGradient x1="50%" y1="0%" x2="50%" y2="100%" id="d"><stop stop-color="#3F2A0E" offset="0%"/><stop stop-color="#3B270C" offset="100%"/></linearGradient><linearGradient x1="50%" y1="0%" x2="87.809%" y2="100%" id="e"><stop stop-color="#3C280C" offset="0%"/><stop stop-color="#392409" offset="100%"/></linearGradient><linearGradient x1="50%" y1="100%" x2="50%" y2="-15.994%" id="f"><stop stop-color="#B28E4E" offset="0%"/><stop stop-color="#6B491A" offset="100%"/></linearGradient><linearGradient x1="50%" y1="0%" x2="50%" y2="100%" id="g"><stop stop-color="#6F511C" offset="0%"/><stop stop-color="#3C280C" offset="100%"/></linearGradient><linearGradient x1="69.942%" y1="0%" x2="86.95%" y2="86.306%" id="h"><stop stop-color="#9F7C45" offset="0%"/><stop stop-color="#644114" offset="100%"/></linearGradient><linearGradient x1="36.386%" y1="27.038%" x2="61.656%" y2="86.15%" id="i"><stop stop-color="#A9864D" offset="0%"/><stop stop-color="#613F12" offset="100%"/></linearGradient><linearGradient x1="36.763%" y1="42.408%" x2="52.513%" y2="86.506%" id="j"><stop stop-color="#674A21" offset="0%"/><stop stop-color="#563A14" offset="100%"/></linearGradient><linearGradient x1="50%" y1="0%" x2="50%" y2="100%" id="k"><stop stop-color="#D2B785" offset="0%"/><stop stop-color="#A6804D" offset="100%"/></linearGradient><linearGradient x1="50%" y1="0%" x2="50%" y2="100%" id="l"><stop stop-color="#907342" offset="0%"/><stop stop-color="#594120" offset="100%"/></linearGradient><linearGradient x1="50%" y1="0%" x2="50%" y2="100%" id="m"><stop stop-color="#917442" offset="0%"/><stop stop-color="#58401F" offset="100%"/></linearGradient><linearGradient x1="50%" y1="0%" x2="50%" y2="100%" id="n"><stop stop-color="#F1E2C7" offset="0%"/><stop stop-color="#DEC195" offset="100%"/></linearGradient><linearGradient x1="50%" y1="0%" x2="50%" y2="100%" id="o"><stop stop-color="#92693B" offset="0%"/><stop stop-color="#5A421C" offset="100%"/></linearGradient><linearGradient x1="50%" y1="0%" x2="50%" y2="100%" id="p"><stop stop-color="#7E6337" offset="0%"/><stop stop-color="#604824" offset="100%"/></linearGradient><linearGradient x1="50%" y1="0%" x2="50%" y2="100%" id="q"><stop stop-color="#7E6337" offset="0%"/><stop stop-color="#614825" offset="100%"/></linearGradient></defs><g fill="none" fill-rule="evenodd"><path fill="url(#a)" d="M157.87 120.621l78.274 81.845-60.826 41.012-7.426-7.303L163 262.379z" transform="translate(37 69)"/><path fill="url(#a)" transform="matrix(-1 0 0 1 288.803 69)" d="M89.33 121.341L163 202.466l-60.826 41.012-7.426-7.303-5.945 26.198z"/><path fill="url(#b)" d="M213.883 138.968l56.752-2.223 36.16-1.885-36.16 52.938H222.85l-29.55-36.281z" transform="translate(37 69)"/><path fill="url(#b)" transform="matrix(-1 0 0 1 183.4 69)" d="M37.034 139.846l56.752-2.223 36.16-1.885-36.16 52.938H46.31l-29.856-36.281z"/><path fill="url(#c)" d="M204.813 150.908l36.715-2.987h38.757l-6.225 5.974h-70.5z" transform="translate(37 69)"/><path fill="url(#c)" transform="matrix(-1 0 0 1 206.272 69)" d="M47.527 149.008l36.714-2.987h38.757l-6.225 5.974H46.274z"/><path fill="url(#d)" d="M200.661 158.549l9.899 5.803h60.554l3.12-2.902z" transform="translate(37 69)"/><path fill="url(#d)" transform="matrix(-1 0 0 1 211.348 69)" d="M50.387 158.36l9.9 5.804h60.553l3.12-2.902z"/><path fill="url(#e)" d="M213.863 171.735h49.217l-4.859 4.237-47.085.955z" transform="translate(37 69)"/><path fill="url(#e)" transform="matrix(-1 0 0 1 212.342 69)" d="M64.427 170.877h49.217l-4.86 4.238-47.085.955z"/><path d="M196.953 151.577l34.79 42.875-32.555-2.981-36.11 32.852v-65.754l33.875-6.992zm-67.882.23l34.007 6.842v65.732l-36.241-32.68-32.555 2.982 34.79-42.875z" fill="url(#f)" transform="translate(37 69)"/><path d="M192.583 153.023l30.412 36.616-28.458-2.547-31.566 28.056v-56.154l29.612-5.97zm-59.34.197l29.728 5.842v56.136L131.29 187.29l-28.458 2.546 30.411-36.616z" fill="url(#g)" transform="translate(37 69)"/><path d="M221.048 121.664c33.239-19.528 58.516-34.745 75.833-45.65 17.317-10.905 26.917-17.652 28.801-20.242-3.985 20.544-7.1 35.378-9.344 44.503-2.245 9.125-6.913 18.345-14.003 27.661-5.115 1.243-19.881 3.804-44.3 7.684-24.418 3.88-44.982 6.933-61.69 9.157l17.08-23.113h7.623z" fill="url(#h)" transform="translate(37 69)"/><path d="M24.704 121.42c33.238-19.528 58.516-34.744 75.832-45.65 17.317-10.904 26.918-17.652 28.802-20.241-3.985 20.544-7.1 35.378-9.345 44.502-2.245 9.125-6.913 18.346-14.003 27.662-5.115 1.242-19.881 3.804-44.3 7.684-24.418 3.88-44.981 6.932-61.69 9.157l17.08-23.113h7.624z" fill="url(#h)" transform="matrix(-1 0 0 1 166.338 69)"/><path d="M205.111 87.786c11.368-6.132 19.683-10.93 24.948-14.394 5.264-3.464 13.102-9.294 23.514-17.49h6.41l7.96-9.89c9.012-7.737 15.481-13.57 19.41-17.5C291.28 24.58 300.127 15.09 313.89.04c-1.338 26.506-2.998 46.728-4.978 60.667a246.385 246.385 0 0 1-9.473 41.067c-12.59 7.633-28.936 14.827-49.037 21.582-20.1 6.754-37.69 10.964-52.77 12.629l7.478-48.2z" fill="url(#i)" transform="translate(37 69)"/><path d="M20.846 87.746c11.367-6.133 19.683-10.931 24.947-14.395 5.264-3.463 13.102-9.294 23.514-17.49h6.41l7.96-9.89c9.012-7.737 15.482-13.57 19.41-17.5C107.016 24.54 115.862 15.05 129.626 0c-1.34 26.506-2.998 46.729-4.978 60.667a246.385 246.385 0 0 1-9.473 41.067c-12.591 7.633-28.937 14.827-49.038 21.582-20.1 6.755-37.69 10.964-52.769 12.63l7.478-48.2z" fill="url(#i)" transform="matrix(-1 0 0 1 179.994 69)"/><path d="M213.89 100.93c16.604-6.52 29.558-12.374 38.861-17.564 9.303-5.19 19.057-12.005 29.261-20.443l-3.341 24.125c-7.81 4.924-18.295 10.5-31.454 16.726-13.16 6.228-26.06 11.719-38.702 16.474l5.375-19.318z" fill="url(#j)" transform="translate(37 69)"/><path d="M52.834 105.876c16.605-6.52 29.559-12.374 38.862-17.564 9.302-5.19 19.056-12.005 29.261-20.443l-3.341 24.125c-7.811 4.924-18.296 10.5-31.455 16.726-13.158 6.228-26.059 11.719-38.701 16.474l5.374-19.318z" fill="url(#j)" transform="matrix(-1 0 0 1 205.417 69)"/><path d="M161.944 174.864l-.001.177c19.885 0 34.62-7.532 44.207-22.596 14.38-22.596 14.9-43.834 4.887-63.844-6.676-13.34-22.864-30.802-48.563-52.388-25.799 21.471-42.036 38.877-48.712 52.217-10.014 20.01-9.493 41.247 4.887 63.843 9.439 14.833 23.87 22.364 43.295 22.591z" fill="url(#k)" transform="translate(37 69)"/><path d="M162.19 168.213c17.627 0 30.689-6.118 39.186-18.354 12.747-18.355 13.209-35.606 4.332-51.86-5.918-10.836-20.267-25.02-43.047-42.554-22.869 17.44-37.262 31.579-43.18 42.415-8.876 16.254-8.414 33.505 4.332 51.86 8.451 12.169 21.244 18.332 38.377 18.489z" stroke="url(#l)" stroke-width="3" transform="translate(37 69)"/><path d="M162.443 143.415l6.08 8.863 10.22-2.98-4.52-9.809c-.857-9.164-.857-17.043 0-23.636 1.287-9.89 3.966-16.704 5.655-19.833 1.125-2.086 3.178-5.085 6.158-8.997-5.26-4.487-9.197-7.791-11.813-9.912-2.616-2.12-6.553-5.201-11.813-9.242v.07c-5.24 4.027-9.165 7.098-11.774 9.213-2.616 2.12-6.554 5.425-11.813 9.912 2.98 3.912 5.033 6.911 6.158 8.997 1.689 3.128 4.368 9.944 5.655 19.833.857 6.593.857 14.472 0 23.636l-4.52 9.809 10.22 2.98 6.107-8.904z" fill="url(#m)" transform="translate(37 69)"/><path d="M162.46 93.272a735.499 735.499 0 0 1 3.865-5.825 785.258 785.258 0 0 1 4.116-6.02L172.02 83c-1.565 2.977-2.627 5.304-3.189 6.981-.562 1.678-1.11 4.161-1.643 7.45 3.235 3.387 5.6 5.963 7.094 7.728 1.414 1.67 3.256 4.04 5.527 7.111.13.176.332.385.274.656-.058.27-.235.632-.409 1-2.89 6.108-5.172 10.6-6.848 13.478-1.763 3.028-5.217 8.325-10.36 15.888v.014l-.005-.007-.105.154v-.308c-5.143-7.564-8.596-12.86-10.36-15.888-1.675-2.878-3.958-7.37-6.847-13.479-.174-.367-.351-.729-.41-1-.058-.27.145-.479.275-.655 2.27-3.07 4.113-5.441 5.526-7.11 1.494-1.766 3.86-4.342 7.095-7.728-.534-3.29-1.082-5.773-1.643-7.45-.562-1.679-1.625-4.006-3.189-6.982l1.58-1.574a785.228 785.228 0 0 1 4.116 6.02c.87 1.293 2.19 3.283 3.96 5.972z" fill="url(#n)" transform="translate(37 69)"/><path d="M162.471 98.792l7.903 11.013-7.903 17.013V98.792zm0-.017V126.8l-7.902-17.013 7.902-11.012z" fill="url(#o)" transform="translate(37 69)"/><path d="M200.973 88.51c-8.27 10.728-12.792 20.687-13.566 29.88-.773 9.192 2.472 21.103 9.735 35.733 2.284-2.953 3.561-4.866 3.831-5.742.405-1.312-6.71-16.552-5.293-28.41.945-7.904 4.1-15.774 9.466-23.61l-4.173-7.851z" fill="url(#p)" transform="translate(37 69)"/><path d="M134.638 89.463c-8.271 10.728-12.793 20.688-13.566 29.88-.773 9.193 2.368 21.01 9.424 35.451 2.491-2.764 3.872-4.584 4.142-5.46.405-1.312-6.71-16.552-5.293-28.409.944-7.904 4.1-15.774 9.465-23.61l-4.172-7.852z" fill="url(#q)" transform="matrix(-1 0 0 1 296.767 69)"/></g></svg>