<svg width="400" height="400" viewBox="0 0 400 400" xmlns="http://www.w3.org/2000/svg" xmlns:xlink="http://www.w3.org/1999/xlink"><title>challenger</title><defs><linearGradient x1="0%" y1="-3.197%" x2="50%" y2="67.608%" id="a"><stop stop-color="#636E67" offset="0%"/><stop stop-color="#919991" offset="72.567%"/><stop stop-color="#909890" offset="80.118%"/><stop stop-color="#6D726C" offset="100%"/></linearGradient><linearGradient x1="113.933%" y1="106.727%" x2="18.991%" y2="19.306%" id="b"><stop stop-color="#6C8077" offset="0%"/><stop stop-color="#182521" offset="100%"/></linearGradient><linearGradient x1="88.469%" y1="0%" x2="35.293%" y2="93.301%" id="c"><stop stop-color="#6C726E" offset="0%"/><stop stop-color="#638781" offset="100%"/></linearGradient><linearGradient x1="31.985%" y1="91.998%" x2="86.695%" y2="0%" id="d"><stop stop-color="#65746B" offset="0%"/><stop stop-color="#354039" offset="100%"/></linearGradient><linearGradient x1="50%" y1="0%" x2="50%" y2="100%" id="e"><stop stop-color="#59B2A1" offset="0%"/><stop stop-color="#75D1C4" offset="100%"/></linearGradient><linearGradient x1="86.942%" y1="81.514%" x2="40.564%" y2="21.126%" id="f"><stop stop-color="#98ACA4" offset="0%"/><stop stop-color="#3D4D48" offset="100%"/></linearGradient><linearGradient x1="12.488%" y1="0%" x2="50%" y2="100%" id="g"><stop stop-color="#6B7975" offset="0%"/><stop stop-color="#B7C3BE" offset="100%"/></linearGradient><linearGradient x1="58.201%" y1="23.052%" x2="24.937%" y2="92.947%" id="h"><stop stop-color="#84928B" offset="0%"/><stop stop-color="#4D5953" offset="100%"/></linearGradient><linearGradient x1="96.813%" y1="4.6%" x2="6.595%" y2="100%" id="i"><stop stop-color="#25332E" offset="0%"/><stop stop-color="#265246" offset="100%"/></linearGradient><linearGradient x1="32.778%" y1="21.905%" x2="73.28%" y2="68.392%" id="j"><stop stop-color="#5B6C67" offset="0%"/><stop stop-color="#CDDBD6" offset="100%"/></linearGradient><linearGradient x1="122.296%" y1="14.88%" x2="50%" y2="100%" id="k"><stop stop-color="#7B6153" offset="0%"/><stop stop-color="#31251E" offset="98.94%"/><stop stop-color="#30241D" offset="100%"/></linearGradient><linearGradient x1="50%" y1="0%" x2="50%" y2="100%" id="l"><stop stop-color="#26312F" offset="0%"/><stop stop-color="#3D4C48" offset="100%"/></linearGradient><linearGradient x1="93.226%" y1="16.318%" x2="14.705%" y2="100%" id="m"><stop stop-color="#AABBB4" offset="0%"/><stop stop-color="#2F5349" offset="100%"/></linearGradient><linearGradient x1="103.911%" y1="4.097%" x2="-5.85%" y2="97.068%" id="n"><stop stop-color="#5B483C" offset="0%"/><stop stop-color="#64544A" offset="100%"/></linearGradient><linearGradient x1="50%" y1="0%" x2="15.985%" y2="93.298%" id="o"><stop stop-color="#7C5A40" offset="0%"/><stop stop-color="#483426" offset="100%"/></linearGradient><linearGradient x1="50%" y1="0%" x2="50%" y2="100%" id="p"><stop stop-color="#90A29C" offset="0%"/><stop stop-color="#7F918B" offset="100%"/></linearGradient><linearGradient x1="31.501%" y1="0%" x2="56.195%" y2="100%" id="q"><stop stop-color="#7FA19A" offset="0%"/><stop stop-color="#D0D6D5" offset="100%"/></linearGradient><linearGradient x1="19.195%" y1="13.437%" x2="73.977%" y2="84.534%" id="r"><stop stop-color="#677B74" offset="0%"/><stop stop-color="#B0BDBA" offset="100%"/></linearGradient><linearGradient x1="95.104%" y1="-7.091%" x2="32.183%" y2="107.505%" id="s"><stop stop-color="#6C7773" offset="0%"/><stop stop-color="#3A423F" offset="100%"/></linearGradient><linearGradient x1="42.686%" y1="31.474%" x2="62.271%" y2="79.507%" id="t"><stop stop-color="#805733" offset="0%"/><stop stop-color="#684527" offset="43.478%"/><stop stop-color="#6D462A" offset="100%"/></linearGradient><linearGradient x1="44.173%" y1="100%" x2="38.864%" y2="30.103%" id="u"><stop stop-color="#864721" offset="0%"/><stop stop-color="#CBA147" offset="100%"/></linearGradient><linearGradient x1="-5.995%" y1="-4.2%" x2="50%" y2="100%" id="v"><stop stop-color="#864721" offset="0%"/><stop stop-color="#874821" offset="0%"/><stop stop-color="#E5C357" offset="77.982%"/><stop stop-color="#CBA147" offset="100%"/></linearGradient><linearGradient x1="94.468%" y1="30.996%" x2="-13.734%" y2="88.347%" id="w"><stop stop-color="#A9BAB4" offset="0%"/><stop stop-color="#3A4C45" offset="100%"/></linearGradient><linearGradient x1="15.662%" y1="16.437%" x2="34.269%" y2="84.209%" id="x"><stop stop-color="#2B4A3E" offset="0%"/><stop stop-color="#42B6A1" offset="100%"/></linearGradient><linearGradient x1="3.118%" y1="22.49%" x2="93.35%" y2="95.371%" id="y"><stop stop-color="#E2C463" offset="0%"/><stop stop-color="#E7DD90" offset="47.464%"/><stop stop-color="#D7A13D" offset="100%"/></linearGradient><linearGradient x1="50%" y1="0%" x2="50%" y2="100%" id="z"><stop stop-color="#B26D2E" offset="0%"/><stop stop-color="#C5A14C" offset="100%"/></linearGradient><linearGradient x1="50%" y1="0%" x2="50%" y2="100%" id="A"><stop stop-color="#B37A38" offset="0%"/><stop stop-color="#AF9249" offset="100%"/></linearGradient><linearGradient x1="50%" y1="0%" x2="50%" y2="100%" id="B"><stop stop-color="#B1813D" offset="0%"/><stop stop-color="#DEBB65" offset="42.567%"/><stop stop-color="#DBC464" offset="55.084%"/><stop stop-color="#DDAA54" offset="73.491%"/><stop stop-color="#A05925" offset="100%"/></linearGradient><linearGradient x1="50%" y1="0%" x2="50%" y2="100%" id="D"><stop stop-color="#FFF" stop-opacity="0" offset="0%"/><stop stop-color="#FFF" stop-opacity=".144" offset="30.98%"/><stop stop-color="#FFF" stop-opacity=".298" offset="46.12%"/><stop stop-color="#B4B4B4" stop-opacity=".069" offset="61.907%"/><stop stop-opacity="0" offset="100%"/></linearGradient><path d="M200.172 266.827c24.948 0 45.173-20.61 45.173-46.034 0-20.045-13.993-37.687-31.541-44.005-3.139-1.13-7.774-8.06-13.905-20.788-5.883 12.98-10.226 19.91-13.03 20.788-18.455 5.787-31.869 23.3-31.869 44.005 0 25.424 20.224 46.034 45.172 46.034z" id="C"/><linearGradient x1="50%" y1="0%" x2="50%" y2="100%" id="E"><stop stop-color="#9AC9C8" offset="0%"/><stop stop-color="#6CACAB" offset="26.119%"/><stop stop-color="#93C5C5" offset="47.571%"/><stop stop-color="#5B7C74" offset="81.463%"/><stop stop-color="#45675C" offset="100%"/></linearGradient><linearGradient x1="50%" y1="0%" x2="50%" y2="100%" id="F"><stop stop-color="#0E5646" offset="0%"/><stop stop-color="#2CC7B6" offset="100%"/></linearGradient><linearGradient x1="50%" y1="0%" x2="50%" y2="100%" id="G"><stop stop-color="#D9E3DD" offset="0%"/><stop stop-color="#91DBDA" offset="100%"/></linearGradient><linearGradient x1="50%" y1="0%" x2="50%" y2="100%" id="H"><stop stop-color="#83C9BE" offset="0%"/><stop stop-color="#CEE1DF" offset="100%"/></linearGradient><linearGradient x1="50%" y1="0%" x2="50%" y2="100%" id="I"><stop stop-color="#8C7263" offset="0%"/><stop stop-color="#47362A" offset="100%"/></linearGradient><linearGradient x1="50%" y1="0%" x2="50%" y2="100%" id="J"><stop stop-color="#0F4033" offset="0%"/><stop stop-color="#168D75" offset="100%"/></linearGradient><linearGradient x1="50%" y1="0%" x2="50%" y2="100%" id="K"><stop stop-color="#A45820" offset="0%"/><stop stop-color="#DFBB46" offset="100%"/></linearGradient></defs><g fill="none" fill-rule="evenodd"><path d="M65.138 12.934l10.89 6.238v4.903l3.179-2.556c3.1 1.553 5.33 2.745 6.69 3.577 1.36.833 3.906 2.563 7.637 5.191-4.677-1.488-9.41-1.488-14.198 0-7.182 2.232-23.012 13.47-32.47 22.08-6.305 5.74-16.227 17.267-29.765 34.58-3.864-10.917-6.688-18.61-8.47-23.08C6.848 59.398 4.037 52.966.198 44.57L11.293 3.985 36.43.064l28.707 12.87z" fill="url(#a)" transform="translate(210 245)"/><path d="M24.556 3.384c6.704 7.55 12.35 13.059 16.938 16.527 4.588 3.468 11.089 7.14 19.5 11.018-6.828 4.042-13.975 9.523-21.443 16.44-7.467 6.918-13.828 13.952-19.082 21.102-4.577-12.017-7.718-21.025-9.425-27.022-1.707-5.998-3.956-15.935-6.747-29.81l20.259-8.255z" fill="url(#b)" transform="translate(210 245)"/><path d="M65.138 12.934l10.89 6.238v4.903l3.179-2.556c3.1 1.553 5.33 2.745 6.69 3.577 1.36.833 3.906 2.563 7.637 5.191-4.677-1.488-9.41-1.488-14.198 0-7.182 2.232-23.012 13.47-32.47 22.08-6.305 5.74-16.227 17.267-29.765 34.58-3.864-10.917-6.688-18.61-8.47-23.08C6.848 59.398 4.037 52.966.198 44.57L11.293 3.985 36.43.064l28.707 12.87z" fill="url(#a)" transform="matrix(-1 0 0 1 188 247)"/><path d="M24.556 3.384c6.704 7.55 12.35 13.059 16.938 16.527 4.588 3.468 11.089 7.14 19.5 11.018-6.828 4.042-13.975 9.523-21.443 16.44-7.467 6.918-13.828 13.952-19.082 21.102-4.577-12.017-7.718-21.025-9.425-27.022-1.707-5.998-3.956-15.935-6.747-29.81l20.259-8.255z" fill="url(#b)" transform="matrix(-1 0 0 1 188 247)"/><path d="M59.9 5.055c-3.878-.341-7.452-.877-10.724-1.607-3.271-.73-6.687-1.756-10.247-3.075-1.274 4.783-5.654 10.535-13.138 17.255C18.306 24.348 9.816 30.153.319 35.041c10.335 4.532 17.545 8.14 21.633 10.825 4.087 2.685 7.353 5.959 9.8 9.822L59.899 5.055z" fill="url(#c)" transform="translate(240 81)"/><path d="M55.218 12.164c-4.574-.39-7.61-.718-9.107-.98-1.497-.263-2.884-.943-4.16-2.04-4.049 6.356-8.293 11.82-12.732 16.392-4.44 4.573-9.46 8.65-15.06 12.233 7.003 1.135 11.663 2.18 13.98 3.136 2.317.955 4.225 2.617 5.726 4.986l21.353-33.727z" fill="url(#d)" transform="translate(240 81)"/><path d="M59.9 5.055c-3.878-.341-7.452-.877-10.724-1.607-3.271-.73-6.687-1.756-10.247-3.075-1.274 4.783-5.654 10.535-13.138 17.255C18.306 24.348 9.816 30.153.319 35.041c10.335 4.532 17.545 8.14 21.633 10.825 4.087 2.685 7.353 5.959 9.8 9.822L59.899 5.055z" fill="url(#c)" transform="matrix(-1 0 0 1 159 81)"/><path d="M55.218 12.164c-4.574-.39-7.61-.718-9.107-.98-1.497-.263-2.884-.943-4.16-2.04-4.049 6.356-8.293 11.82-12.732 16.392-4.44 4.573-9.46 8.65-15.06 12.233 7.003 1.135 11.663 2.18 13.98 3.136 2.317.955 4.225 2.617 5.726 4.986l21.353-33.727z" fill="url(#d)" transform="matrix(-1 0 0 1 159 81)"/><path d="M200 104c1.595 7.411 2.865 11.7 3.81 12.866 1.418 1.748 1.522-2.119 3.528-2.374 2.006-.256 3.584.398 2.466 6.812-1.118 6.414-6.012-.392-5.479 12.733.356 8.75 2.776 19.14 7.262 31.167L200 163.667V104z" fill="url(#e)"/><path d="M188.48 103.971c1.595 7.411 2.865 11.7 3.81 12.866 1.417 1.748 1.522-2.119 3.527-2.374 2.006-.256 3.585.399 2.467 6.813-1.118 6.413-6.012-.393-5.48 12.732.356 8.75 2.777 19.14 7.263 31.167l-11.587-1.537V103.97z" fill="url(#e)" transform="matrix(-1 0 0 1 388.547 0)"/><path d="M200 278.441c62.853-.101 87.154-42.92 87.154-83.514 0-40.593-39.986-73.927-86.654-73.927s-92.086 38.407-92.086 79 28.733 78.543 91.586 78.441z" stroke="#8FCDC3" stroke-width="7"/><path d="M1.43 85.2c6.429-.667 16.933-9.2 31.515-25.595C47.526 43.208 58.875 23.52 66.993.539c10.052 7.91 17.189 13.4 21.41 16.472 4.222 3.073 10.821 7.58 19.8 13.52-7.51 15.422-11.436 29.643-11.778 42.663-.34 13.02 2.987 28.166 9.983 45.435l-14.51-7.135C72.608 121.676 59.126 129.178 51.45 134c-7.676 4.822-16.265 11.188-25.768 19.096L1.43 85.2z" fill="url(#f)" transform="translate(239 66)"/><path d="M66.417.044l2.114 9.731c8.322 3.22 14.897 6.582 19.724 10.09 4.827 3.507 8.693 7.731 11.598 12.671l10.094-2.063a3133.31 3133.31 0 0 1-20.44-14.183A4600.075 4600.075 0 0 1 66.416.044z" fill="url(#g)" transform="translate(239 66)"/><path d="M99.91 32.515c-5.07 9.184-8.092 20.398-9.069 33.642-.976 13.244-.595 28.416 1.144 45.516l14.383 7.05c-6.078-19.517-8.935-36.283-8.57-50.297.364-14.013 4.377-26.631 12.037-37.855l-9.925 1.944z" fill="url(#h)" transform="translate(239 66)"/><path d="M91.93 111.47c-20.778 10.139-34.646 17.544-41.604 22.218-6.957 4.673-13.35 11.359-19.177 20.057l10.462 1.342c4.128-6.266 11.707-12.5 22.74-18.705 11.032-6.204 25.03-12.102 41.992-17.696L91.93 111.47z" fill="url(#i)" transform="translate(239 66)"/><path d="M72.432 19c-.692 5.475-1.891 11.21-3.598 17.206-1.707 5.996-5.318 13.1-10.834 21.312 4.512-3.216 8.123-5.492 10.834-6.828 2.711-1.336 7.89-3.393 15.538-6.17.352-2.131 1.05-3.94 2.095-5.427 1.044-1.487 2.48-2.959 4.304-4.416-4.21-3.972-7.504-6.974-9.88-9.006-2.377-2.032-5.197-4.256-8.46-6.671z" fill="url(#j)" transform="translate(239 66)"/><path d="M22.129 97.517c3.477-1.97 6.98-4.618 10.506-7.944 3.527-3.326 6.922-7.184 10.187-11.573.189 8.777.189 15.282 0 19.517a92.638 92.638 0 0 1-1.432 12.612c-1.955 3.535-4.873 7.416-8.755 11.644-3.882 4.228-6.283 6.14-7.203 5.736-8.609-6.07-12.747-9.104-12.413-9.104.333 0 3.37-6.963 9.11-20.888z" fill="url(#k)" transform="translate(239 66)"/><path d="M265.472 201.613c-.62-.573 5.017-4.949 16.909-13.128 11.892-8.18 24.887-15.58 38.984-22.201-18.9 11.163-31.465 19.056-37.697 23.679-6.231 4.623-11.125 9.683-14.681 15.18l-3.515-3.53z" fill="#35413D"/><path d="M30.179 140.469l1.038 2.765c5.645-4.046 10.076-7.124 13.292-9.234 3.216-2.11 15.316-9.877 36.3-23.303-18.905 9.818-31.005 16.284-36.3 19.398-5.295 3.114-10.072 6.572-14.33 10.374z" fill="url(#l)" transform="translate(239 66)"/><path d="M66.424.077l2.061 9.547c-6.913 19.904-14.84 36.459-23.78 49.664-8.94 13.205-19.85 24.413-32.726 33.625L.538 85.474C13.83 79.448 26.12 69.176 37.407 54.66 48.693 40.144 58.365 21.95 66.424.077z" fill="url(#m)" transform="translate(239 66)"/><path d="M46.769 71.909c2.023-2.143 3.49-3.76 4.402-4.852.91-1.091 1.93-2.452 3.056-4.081 5.58-.435 10.33-1.413 14.255-2.934 5.886-2.281 11.56-7.567 11.376-7-.185.567-1.777 17.744-1.511 25.281a46.557 46.557 0 0 0 2.922 14.678c-6.068.664-12.184 2.453-18.349 5.369-6.164 2.915-12.138 6.843-17.92 11.783 1.752-7.448 2.766-14.157 3.042-20.128.276-5.97-.148-12.01-1.273-18.116z" fill="url(#n)" transform="translate(239 66)"/><path fill="url(#o)" d="M59.396 68.311l-5.968 6.56v22.504l19.413-9.961V66z" transform="translate(239 66)"/><path d="M1.43 85.2c6.429-.667 16.933-9.2 31.515-25.595C47.526 43.208 58.875 23.52 66.993.539c10.052 7.91 17.189 13.4 21.41 16.472 4.222 3.073 10.821 7.58 19.8 13.52-7.51 15.422-11.436 29.643-11.778 42.663-.34 13.02 2.987 28.166 9.983 45.435l-14.51-7.135C72.608 121.676 59.126 129.178 51.45 134c-7.676 4.822-16.265 11.188-25.768 19.096L1.43 85.2z" fill="url(#f)" transform="matrix(-1 0 0 1 159 66)"/><path d="M66.759.425l.651 10.595c8.323 3.218 14.898 6.582 19.725 10.09 4.827 3.507 8.693 7.73 11.598 12.67l10.291-2.711c-5.371-3.914-11.917-8.57-19.637-13.966A557.769 557.769 0 0 1 66.759.425z" fill="url(#g)" transform="matrix(-1 0 0 1 159 66)"/><path d="M98.769 33.745c-4.309 8.364-6.951 19.168-7.928 32.412-.976 13.244-.595 28.416 1.144 45.516l14.383 7.05c-6.078-19.517-8.935-36.283-8.57-50.297.364-14.013 4.11-26.479 11.236-37.397l-10.265 2.716z" fill="url(#h)" transform="matrix(-1 0 0 1 159 66)"/><path d="M91.93 111.47c-20.778 10.139-34.646 17.544-41.604 22.218-6.957 4.673-13.35 11.359-19.177 20.057l10.462 1.342c4.128-6.266 11.707-12.5 22.74-18.705 11.032-6.204 25.03-12.102 41.992-17.696L91.93 111.47z" fill="url(#i)" transform="matrix(-1 0 0 1 159 66)"/><path d="M72.432 19c-.692 5.475-1.891 11.21-3.598 17.206-1.707 5.996-5.318 13.1-10.834 21.312 4.512-3.216 8.123-5.492 10.834-6.828 2.711-1.336 7.89-3.393 15.538-6.17.352-2.131 1.05-3.94 2.095-5.427 1.044-1.487 2.48-2.959 4.304-4.416-4.21-3.972-7.504-6.974-9.88-9.006-2.377-2.032-5.197-4.256-8.46-6.671z" fill="url(#j)" transform="matrix(-1 0 0 1 159 66)"/><path d="M22.129 97.517c3.477-1.97 6.98-4.618 10.506-7.944 3.527-3.326 6.922-7.184 10.187-11.573.189 8.777.189 15.282 0 19.517a92.638 92.638 0 0 1-1.432 12.612c-1.955 3.535-4.873 7.416-8.755 11.644-3.882 4.228-6.283 6.14-7.203 5.736-8.609-6.07-12.747-9.104-12.413-9.104.333 0 3.37-6.963 9.11-20.888z" fill="url(#k)" transform="matrix(-1 0 0 1 159 66)"/><path d="M132.528 201.613c.62-.573-5.017-4.949-16.909-13.128-11.892-8.18-24.887-15.58-38.984-22.201 18.9 11.163 31.465 19.056 37.697 23.679 6.231 4.623 11.125 9.683 14.681 15.18l3.515-3.53z" fill="#35413D"/><path d="M30.179 140.469l1.038 2.765c5.645-4.046 10.076-7.124 13.292-9.234 3.216-2.11 15.316-9.877 36.3-23.303-18.905 9.818-31.005 16.284-36.3 19.398-5.295 3.114-10.072 6.572-14.33 10.374z" fill="url(#l)" transform="matrix(-1 0 0 1 159 66)"/><path d="M67.031.593l.602 10.116c-6.345 19.18-13.988 35.374-22.928 48.579-8.94 13.205-19.85 24.413-32.726 33.625L.538 85.474C13.83 79.448 26.12 69.176 37.407 54.66 48.693 40.144 58.567 22.122 67.03.593z" fill="url(#m)" transform="matrix(-1 0 0 1 159 66)"/><path d="M46.769 71.909c2.023-2.143 3.49-3.76 4.402-4.852.91-1.091 1.93-2.452 3.056-4.081 5.58-.435 10.33-1.413 14.255-2.934 5.886-2.281 11.56-7.567 11.376-7-.185.567-1.777 17.744-1.511 25.281a46.557 46.557 0 0 0 2.922 14.678c-6.068.664-12.184 2.453-18.349 5.369-6.164 2.915-12.138 6.843-17.92 11.783 1.752-7.448 2.766-14.157 3.042-20.128.276-5.97-.148-12.01-1.273-18.116z" fill="url(#n)" transform="matrix(-1 0 0 1 159 66)"/><path fill="url(#o)" d="M59.396 68.311l-5.968 6.56v22.504l19.413-9.961V66z" transform="matrix(-1 0 0 1 159 66)"/><path d="M148.097 234c-2.937 4.327-6.458 8.54-10.561 12.637a123.2 123.2 0 0 1-13.102 11.36c-4.378-1.943-7.418-3.327-9.122-4.152-5.79-2.806-9.56-5.125-11.312-6.957 3.926 3.635 9.345 7.13 16.258 10.483.952.462 2.451 1.264 4.498 2.405 5.634-3.981 10.313-7.913 14.038-11.797a92.598 92.598 0 0 0 10.144-12.635l-.84-1.344z" fill="url(#p)" transform="matrix(-1 0 0 1 252.938 0)"/><path d="M294.274 231.525c-2.938 4.328-6.458 8.54-10.562 12.637a123.2 123.2 0 0 1-13.102 11.36c-4.378-1.942-7.418-3.326-9.121-4.152-5.79-2.806-9.86-5.01-12.212-6.613l-.144.18c4.622 3.286 10.389 6.606 17.301 9.96.952.462 2.452 1.263 4.499 2.405 5.634-3.982 10.313-7.914 14.038-11.797a92.598 92.598 0 0 0 10.143-12.636l-.84-1.344z" fill="url(#p)"/><path d="M209.513 175.755c3.705-2.931 6.006-5.81 6.902-8.635.896-2.826 2.538-12.079 4.924-27.759 13.102 6.291 21.955 10.95 26.56 13.978 4.606 3.027 9.61 7.012 15.014 11.954-4.103 5.187-5.34 10.61-3.712 16.27 1.628 5.659 5.701 10.09 12.219 13.296-2.27 7.711-3.404 13.05-3.404 16.015s1.135 5.74 3.404 8.324l-30.954 8.66-30.953-52.103zm-19.038.455c-3.706-2.93-6.007-5.809-6.903-8.635-.896-2.825-3.014-12.21-6.354-28.151-12.148 6.553-20.525 11.343-25.13 14.37-4.605 3.028-9.61 7.012-15.014 11.955 3.312 4.857 4.153 10.116 2.525 15.775-1.628 5.66-5.305 10.256-11.031 13.79-.687 7.326-1.03 12.82-1.03 16.479 0 3.66.343 6.28 1.03 7.86l30.953 8.66 30.954-52.102z" fill="#493529"/><path d="M23.406 0C28.8 2.585 35.66 4.645 43.986 6.18c8.325 1.536 17.008 2.342 26.049 2.42-6.216 8.707-11.316 14.983-15.302 18.829-3.986 3.845-11.043 9.296-21.17 16.354-6.815-3.857-11.701-6.75-14.659-8.68C15.947 33.174 9.646 28.771 0 21.892L4.636 3.27 23.406 0z" fill="url(#q)" transform="translate(239 216)"/><path d="M22.967 11c5.12 1.465 9.281 2.425 12.485 2.878 3.203.453 9.896 1.028 20.077 1.727-4.62 5.925-8.316 10.278-11.087 13.058-2.77 2.78-7.047 6.425-12.83 10.935-6.295-2.628-10.852-4.677-13.673-6.146-2.82-1.47-5.859-3.379-9.117-5.728L2 19.42 22.967 11z" fill="url(#r)" transform="translate(239 216)"/><path d="M70.223 8.503l2.728 3.913 5.905 1.063C68.245 24.233 59.776 32.27 53.452 37.592c-6.325 5.322-13.146 10.234-20.463 14.736-6.754-4.537-11.834-7.983-15.24-10.337-3.406-2.354-7.418-5.228-12.034-8.621l4.84-4.77c5.445 4.056 9.598 7.054 12.458 8.992a135.63 135.63 0 0 0 9.212 5.697c9.477-5.498 16.335-10.187 20.573-14.066 4.238-3.88 10.046-10.786 17.425-20.72z" fill="url(#s)" transform="translate(239 216)"/><path d="M23.406 0C28.8 2.585 35.66 4.645 43.986 6.18c8.325 1.536 17.008 2.342 26.049 2.42-6.216 8.707-11.316 14.983-15.302 18.829-3.986 3.845-11.043 9.296-21.17 16.354-6.815-3.857-11.701-6.75-14.659-8.68C15.947 33.174 9.646 28.771 0 21.892L4.636 3.27 23.406 0z" fill="url(#q)" transform="matrix(-1 0 0 1 158.953 219)"/><path d="M22.967 11c5.12 1.465 9.281 2.425 12.485 2.878 3.203.453 9.896 1.028 20.077 1.727-4.62 5.925-8.316 10.278-11.087 13.058-2.77 2.78-7.047 6.425-12.83 10.935-6.295-2.628-10.852-4.677-13.673-6.146-2.82-1.47-5.859-3.379-9.117-5.728L2 19.42 22.967 11z" fill="url(#r)" transform="matrix(-1 0 0 1 158.953 219)"/><path d="M70.223 8.503l2.728 3.913 5.905 1.063C68.245 24.233 59.776 32.27 53.452 37.592c-6.325 5.322-13.146 10.234-20.463 14.736-6.754-4.537-11.834-7.983-15.24-10.337-3.406-2.354-7.418-5.228-12.034-8.621l4.84-4.77c5.445 4.056 9.598 7.054 12.458 8.992a135.63 135.63 0 0 0 9.212 5.697c9.477-5.498 16.335-10.187 20.573-14.066 4.238-3.88 10.046-10.786 17.425-20.72z" fill="url(#s)" transform="matrix(-1 0 0 1 158.953 219)"/><path d="M248.196 253.362c-.946 2.665-3.9 5.647-8.864 8.947-4.963 3.3-10.79 6.155-17.48 8.567 5.057 2.847 7.741 4.271 8.052 4.271.466 0 8.86-1.757 16.439-7.493 5.053-3.825 9.16-8.222 12.32-13.193l-10.467-1.1z" fill="url(#t)"/><path d="M172.344 255c-.946 2.665-3.9 5.648-8.864 8.947-4.963 3.3-10.79 6.156-17.48 8.567 5.057 2.848 7.74 4.272 8.051 4.272.466 0 8.86-1.758 16.44-7.494 5.053-3.824 9.16-8.222 12.32-13.193L172.344 255z" fill="url(#t)" transform="matrix(-1 0 0 1 328.811 0)"/><path d="M200.492 326.88c8.157-10.675 14.34-18.235 18.55-22.68 4.293-4.535 12.48-11.526 24.558-20.973-.555-.646-1.914-1.695-4.076-3.147-2.163-1.453-5.44-3.518-9.832-6.196l-9.675-16.3-19.525-15.201V242l-.246.192L200 242v.383l-19.525 15.2a136.897 136.897 0 0 1-11.534 14.955c-2.857 3.213-6.126 5.706-8.776 8.053-.79.7-1.782 1.76-2.976 3.178 11.88 9.086 19.968 15.896 24.262 20.43 4.209 4.446 10.392 12.006 18.549 22.681v.645l.246-.322.246.322v-.645z" fill="url(#u)"/><path d="M200.492 318.819c8.157-9.662 14.34-16.504 18.55-20.527 4.293-4.104 11.443-9.967 21.45-17.59l-10.8-9.846-9.675-14.753-19.525-13.756V242l-.246.173L200 242v.347l-19.525 13.756-9.675 14.753-10.8 9.845c10.007 7.624 17.157 13.487 21.45 17.591 4.21 4.023 10.393 10.865 18.55 20.527v.583l.246-.291.246.291v-.583z" fill="url(#v)"/><path d="M240.234 212.087c5.113-1.406 8.88-2.499 11.303-3.278 2.424-.78 6.474-2.202 12.15-4.267l-.733 16.484c-4.578 1.07-8.074 1.793-10.489 2.166-2.414.374-5.55.678-9.408.912l-2.823-12.017z" fill="url(#w)"/><path d="M136.5 211.545c5.113-1.406 8.88-2.499 11.303-3.278 2.423-.78 6.473-2.202 12.15-4.267l-.733 16.484c-4.578 1.07-8.074 1.793-10.489 2.166-2.414.374-5.55.678-9.408.912l-2.823-12.017z" fill="url(#w)" transform="matrix(-1 0 0 1 296.454 0)"/><path d="M241.918 236.844a19.185 19.185 0 0 0 4.383 2.589c1.624.696 3.672 1.18 6.144 1.453-2.748 3.472-4.954 6.015-6.618 7.629-1.664 1.613-4.28 3.745-7.848 6.395l-7.697-8.026 11.636-10.04z" fill="url(#w)"/><path fill="url(#x)" d="M205.175 263.117v41.792l24.604-23.866-20.435-25.482z"/><path fill="url(#x)" transform="matrix(-1 0 0 1 368.605 0)" d="M172 262.556v41.792l24.605-23.866L176.17 255z"/><path d="M157.636 237a19.185 19.185 0 0 0 4.384 2.588c1.623.697 3.671 1.181 6.144 1.454-2.748 3.472-4.954 6.015-6.619 7.629-1.664 1.613-4.28 3.745-7.848 6.395L146 247.04 157.636 237z" fill="url(#w)" transform="matrix(-1 0 0 1 314.164 0)"/><path d="M243.711 224.179h18.681c-1.41 3.54-2.695 6.376-3.856 8.506-1.16 2.13-2.738 4.028-4.733 5.695-4.17-.826-7.012-1.499-8.526-2.018-1.515-.52-3.4-1.47-5.654-2.85l4.088-9.333z" fill="url(#w)"/><path d="M141.089 224h18.681c-1.41 3.54-2.696 6.376-3.856 8.506-1.161 2.13-2.739 4.029-4.733 5.695-4.17-.826-7.013-1.498-8.527-2.018-1.514-.52-3.399-1.47-5.654-2.85l4.089-9.333z" fill="url(#w)" transform="matrix(-1 0 0 1 296.77 0)"/><path d="M221.183 138.783c8.34 3.704 16.097 7.769 23.271 12.194 7.175 4.425 13.769 9.212 19.78 14.36l-9.66 2.813c-5.293-5.52-9.916-9.387-13.87-11.604-3.953-2.217-8.604-3.608-13.953-4.175l-5.568-13.588z" fill="url(#y)"/><path d="M134.203 138.937c8.34 3.704 16.097 7.769 23.272 12.194 7.174 4.425 13.768 9.212 19.78 14.36l-9.661 2.813c-5.293-5.52-9.916-9.387-13.87-11.604-3.953-2.217-8.604-3.608-13.953-4.174l-5.568-13.59z" fill="url(#y)" transform="matrix(-1 0 0 1 311.458 0)"/><path d="M263.53 196.273l8.141-1.74c-.429 5.81-.586 10.044-.472 12.704.114 2.66.458 6.51 1.032 11.554l-7.312.934c-.781-5.075-1.244-8.833-1.389-11.275-.144-2.442-.144-6.501 0-12.177z" fill="url(#z)"/><path d="M126.54 196.519l8.142-1.74c-.429 5.81-.586 10.044-.472 12.703.114 2.66.458 6.512 1.032 11.555l-7.312.934c-.782-5.075-1.245-8.834-1.39-11.275-.144-2.442-.144-6.501 0-12.177z" fill="url(#z)" transform="matrix(-1 0 0 1 261.675 0)"/><path fill="url(#A)" d="M221.117 138.568l5.658 13.866-8.408 30.083-8.002-3.478z"/><path fill="url(#A)" transform="matrix(-1 0 0 1 359.696 0)" d="M182.395 138.44l5.658 13.866-8.408 30.082-8.002-3.478z"/><use fill="url(#B)" xlink:href="#C"/><use fill="url(#D)" xlink:href="#C"/><path d="M200.2 256.525c18.337 0 33.201-15.905 33.201-35.524 0-15.47-10.284-29.083-23.181-33.959-2.307-.872-5.714-6.22-10.22-16.042-4.324 10.016-7.516 15.364-9.577 16.042C176.86 191.508 167 205.022 167 221.001c0 19.62 14.864 35.524 33.2 35.524z" fill="url(#E)"/><ellipse fill="url(#F)" cx="200" cy="222.731" rx="28" ry="27.731"/><path d="M200 148.918l6.326 11.073 11.51 5.929-12.659 7.184L200 184.603v-35.685zm0 .103v35.633l-5.342-11.469L182 166.002l11.509-5.93 6.491-11.05z" fill="url(#G)"/><path d="M200 194.719v16.885l5.562.808 7.783-13.617c-2.53-1.67-4.633-2.728-6.307-3.172-1.673-.444-4.02-.745-7.038-.904z" fill="url(#H)"/><path d="M186.699 194.721l.044 16.984 5.518.709 7.783-13.617c-2.53-1.67-4.633-2.728-6.307-3.172-1.674-.444-4.02-.745-7.038-.904z" fill="url(#H)" transform="matrix(-1 0 0 1 386.743 0)"/><path d="M226.379 153.608c8.625 4.263 14.062 8.163 16.31 11.7 3.373 5.303 0 14.54 1.58 20.33 1.58 5.792 8.143 11.866 9.097 14.851.635 1.99 1.058 4.215 1.267 6.676l-8.5 1.023c.395-1.908.183-4.128-.636-6.66-1.228-3.797-7.196-9.84-8.353-14.481-1.156-4.642 1.956-9.295-1.03-16.442-1.992-4.765-5.94-7.84-11.846-9.226l2.111-7.77z" fill="url(#I)"/><path d="M145.881 153.636c8.625 4.263 14.062 8.163 16.31 11.699 3.373 5.303 0 14.54 1.58 20.331s8.143 11.866 9.097 14.85c.636 1.99 1.058 4.216 1.267 6.676l-8.5 1.024c.395-1.909.183-4.129-.636-6.66-1.228-3.797-7.196-9.84-8.352-14.482-1.157-4.641 1.955-9.294-1.032-16.442-1.991-4.764-5.94-7.84-11.845-9.226l2.111-7.77z" fill="url(#I)" transform="matrix(-1 0 0 1 317.905 0)"/><ellipse fill="url(#J)" cx="200.5" cy="223" rx="12.5" ry="12"/><path d="M254.742 168.076c-2.703 5.09-3.243 10.353-1.62 15.789 1.623 5.435 4.99 9.567 10.102 12.393l8.53-1.637c-6.818-4.672-10.644-8.8-11.476-12.384-.832-3.584.507-9.27 4.018-17.056l-9.554 2.895z" fill="url(#K)"/><path d="M129.26 168.301c-2.702 5.09-3.242 10.353-1.62 15.788 1.623 5.436 4.99 9.567 10.103 12.394l8.53-1.638c-6.819-4.67-10.644-8.799-11.476-12.383-.832-3.585.507-9.27 4.018-17.056l-9.554 2.895z" fill="url(#K)" transform="matrix(-1 0 0 1 273 0)"/></g></svg>