<svg width="400" height="400" viewBox="0 0 400 400" xmlns="http://www.w3.org/2000/svg" xmlns:xlink="http://www.w3.org/1999/xlink"><title>diamond</title><defs><linearGradient x1="-22.577%" y1="10.064%" x2="168.911%" y2="149.386%" id="a"><stop stop-color="#D1D5DF" offset="0%"/><stop stop-color="#79C0E1" offset="40.764%"/><stop stop-color="#5480BF" offset="100%"/></linearGradient><linearGradient x1="71.082%" y1="-2.762%" x2="50%" y2="100%" id="b"><stop stop-color="#5DB0D9" offset="0%"/><stop stop-color="#BDE2FF" offset="42.199%"/><stop stop-color="#5AA1D0" offset="69.377%"/><stop stop-color="#4F6FB7" offset="100%"/></linearGradient><linearGradient x1="-10.239%" y1="66.822%" x2="74.081%" y2="16.598%" id="d"><stop stop-color="#FFF" stop-opacity="0" offset="0%"/><stop stop-color="#7887AC" offset="100%"/></linearGradient><path id="c" d="M95.5 3.468L91.97 9.04v29.223L96.097 56.9l-13.321 47.57 33.852-25.528-3.49-44.754z"/><linearGradient x1="-9.66%" y1="0%" y2="100%" id="e"><stop stop-color="#6575B2" offset="0%"/><stop stop-color="#A5B9DE" offset="100%"/></linearGradient><linearGradient x1="50%" y1="0%" x2="50%" y2="100%" id="f"><stop stop-color="#72A9BD" offset="0%"/><stop stop-color="#3E7088" offset="100%"/></linearGradient><linearGradient x1="16.488%" y1="-20.618%" x2="95.924%" y2="94.86%" id="g"><stop stop-color="#454066" offset="0%"/><stop stop-color="#433E64" offset="0%"/><stop stop-color="#201D34" offset="100%"/></linearGradient><linearGradient x1="50%" y1="0%" x2="50%" y2="100%" id="h"><stop stop-color="#26417F" offset="0%"/><stop stop-color="#222963" offset="100%"/></linearGradient><linearGradient x1="50%" y1="0%" x2="0%" y2="100%" id="i"><stop stop-color="#A7756C" offset="0%"/><stop stop-color="#D1B58F" offset="43.403%"/><stop stop-color="#D3B993" offset="55.261%"/><stop stop-color="#B89788" offset="100%"/></linearGradient><linearGradient x1="-62.879%" y1="57.835%" x2="146.469%" y2="44.321%" id="j"><stop stop-color="#EEE" offset="0%"/><stop stop-color="#D0BB9B" offset="100%"/></linearGradient><linearGradient x1="50%" y1="0%" x2="50%" y2="100%" id="k"><stop stop-color="#EAEDEC" offset="0%"/><stop stop-color="#D0D6D5" offset="100%"/></linearGradient><linearGradient x1="104.951%" y1="0%" x2="6.032%" y2="100%" id="l"><stop stop-color="#D5D4CF" offset="0%"/><stop stop-color="#A0886F" offset="100%"/></linearGradient><linearGradient x1="6.186%" y1="-4.038%" x2="50%" y2="100%" id="m"><stop stop-color="#1D2F82" offset="0%"/><stop stop-color="#403980" offset="100%"/></linearGradient><linearGradient x1="100%" y1="0%" x2="13.927%" y2="100%" id="n"><stop stop-color="#46496E" offset="0%"/><stop stop-color="#28428C" offset="43.005%"/><stop stop-color="#1D2047" offset="100%"/></linearGradient><linearGradient x1="100%" y1="7.678%" x2="0%" y2="100%" id="o"><stop stop-color="#9A7578" offset="0%"/><stop stop-color="#81675D" offset="58.644%"/><stop stop-color="#A18F79" offset="100%"/></linearGradient><linearGradient x1="50%" y1="0%" x2="50%" y2="100%" id="p"><stop stop-color="#383073" offset="0%"/><stop stop-color="#3F3E97" offset="100%"/></linearGradient><linearGradient x1="50%" y1="0%" x2="50%" y2="100%" id="q"><stop stop-color="#485A9D" offset="0%"/><stop stop-color="#4B87B3" offset="100%"/></linearGradient><linearGradient x1="162.065%" y1="-15.148%" x2="14.526%" y2="100%" id="r"><stop stop-color="#22217B" offset="0%"/><stop stop-color="#263785" offset="0%"/><stop stop-color="#2E6398" offset="100%"/></linearGradient><linearGradient x1="102.704%" y1="35.089%" x2="6.488%" y2="50%" id="s"><stop stop-color="#2A3980" offset="0%"/><stop stop-color="#515983" offset="100%"/></linearGradient><linearGradient x1="104.74%" y1="69.13%" x2="-4.503%" y2="50%" id="t"><stop stop-color="#5E86B9" offset="0%"/><stop stop-color="#6652BB" offset="15.674%"/><stop stop-color="#B4BFC8" offset="34.919%"/><stop stop-color="#6B7AA1" offset="77.994%"/><stop stop-color="#2749A6" offset="100%"/></linearGradient><linearGradient x1="70.516%" y1="4.498%" x2="3.678%" y2="100%" id="u"><stop stop-color="#6B5E87" offset="0%"/><stop stop-color="#406CB2" offset="49.196%"/><stop stop-color="#373590" offset="100%"/></linearGradient><linearGradient x1="50%" y1="0%" x2="22.218%" y2="115.091%" id="v"><stop stop-color="#36488F" offset="0%"/><stop stop-color="#2F568D" offset="100%"/></linearGradient><linearGradient x1="118.288%" y1="-2.608%" x2="-28.168%" y2="64.923%" id="w"><stop stop-color="#6765BF" offset="0%"/><stop stop-color="#8DA0A5" offset="56.03%"/><stop stop-color="#2C5A98" offset="100%"/></linearGradient><linearGradient x1="107.27%" y1="7.128%" x2="19.449%" y2="103.965%" id="x"><stop stop-color="#EEE" offset="0%"/><stop stop-color="#2F39AF" offset="100%"/></linearGradient><linearGradient x1="-11.044%" y1="100%" x2="117.639%" y2="11.305%" id="y"><stop stop-color="#7A679B" offset="0%"/><stop stop-color="#85719A" offset="7.684%"/><stop stop-color="#8C7699" offset="12.289%"/><stop stop-color="#CCAD93" offset="55.353%"/><stop stop-color="#967DA1" offset="100%"/></linearGradient><linearGradient x1="90.285%" y1="-6.159%" x2="11.003%" y2="93.915%" id="z"><stop stop-color="#56BBD0" offset="0%"/><stop stop-color="#1D2676" offset="100%"/></linearGradient><linearGradient x1="108.479%" y1="0%" x2="0%" y2="100%" id="A"><stop stop-color="#EEE" offset="0%"/><stop stop-color="#947E6A" offset="100%"/></linearGradient><linearGradient x1="27.684%" y1="20.591%" x2="50%" y2="100%" id="B"><stop stop-color="#2A2791" offset="0%"/><stop stop-color="#2E3086" offset="100%"/></linearGradient><linearGradient x1="27.877%" y1="35.897%" x2="75.152%" y2="62.127%" id="C"><stop stop-color="#217DB1" offset="0%"/><stop stop-color="#1D1D7B" offset="100%"/></linearGradient><linearGradient x1="77.771%" y1="3.036%" x2="26.693%" y2="100%" id="D"><stop stop-color="#434FA2" offset="0%"/><stop stop-color="#404C9D" offset="0%"/><stop stop-color="#1E2564" offset="100%"/></linearGradient><linearGradient x1="100%" y1="18.5%" x2="-20.428%" y2="70.645%" id="E"><stop stop-color="#478BDB" offset="0%"/><stop stop-color="#2253B5" offset="100%"/></linearGradient><linearGradient x1="12.479%" y1="0%" x2="106.877%" y2="96.501%" id="F"><stop stop-color="#8A7364" offset="0%"/><stop stop-color="#5B372F" offset="100%"/></linearGradient><linearGradient x1="94.539%" y1="57.59%" x2="-5.193%" y2="35.931%" id="G"><stop stop-color="#768F95" offset="0%"/><stop stop-color="#6D5BA1" offset="100%"/></linearGradient><linearGradient x1="100%" y1="40.475%" x2="0%" y2="25.58%" id="H"><stop stop-color="#9F7461" offset="0%"/><stop stop-color="#9B715D" offset="6.992%"/><stop stop-color="#664032" offset="100%"/></linearGradient><path id="I" d="M95.5 3.468L91.97 9.04v29.223L96.097 56.9l-13.321 47.57 33.852-25.528-3.49-44.754z"/><linearGradient x1="70.842%" y1="74.064%" x2="50%" y2="14.963%" id="J"><stop stop-color="#ADBCB8" offset="0%"/><stop stop-color="#1A2C24" offset="100%"/></linearGradient><linearGradient x1="69.544%" y1="102.947%" x2="37.837%" y2="27.69%" id="K"><stop stop-color="#38574A" offset="0%"/><stop stop-color="#1A2C24" offset="100%"/></linearGradient><linearGradient x1="54.043%" y1="125.575%" x2="47.401%" y2="-21.026%" id="L"><stop stop-color="#ADBCB8" offset="0%"/><stop stop-color="#1A2C24" offset="100%"/></linearGradient><linearGradient x1="50%" y1="110.453%" x2="50%" y2="14.963%" id="M"><stop stop-color="#ADBCB8" offset="0%"/><stop stop-color="#1A2C24" offset="100%"/></linearGradient><linearGradient x1="50%" y1="75.418%" x2="18.244%" y2="21.187%" id="N"><stop stop-color="#38574A" offset="0%"/><stop stop-color="#1A2C24" offset="100%"/></linearGradient><linearGradient x1="50%" y1="0%" x2="50%" y2="110.214%" id="O"><stop stop-color="#94BAA8" offset="0%"/><stop stop-color="#334D40" offset="100%"/></linearGradient><linearGradient x1="71.204%" y1="5.797%" x2="0%" y2="100%" id="P"><stop stop-color="#628474" offset="0%"/><stop stop-color="#334D40" offset="100%"/></linearGradient><linearGradient x1="36.698%" y1="41.505%" x2="76.055%" y2="85.727%" id="Q"><stop stop-color="#95BBAD" offset="0%"/><stop stop-color="#94BAAC" offset="48.566%"/><stop stop-color="#728F8C" offset="100%"/></linearGradient><linearGradient x1="0%" y1="117.648%" x2="92.132%" y2="0%" id="R"><stop stop-color="#8DA39A" offset="0%"/><stop stop-color="#546A61" offset="100%"/></linearGradient><linearGradient x1="71.974%" y1="42.558%" x2="12.639%" y2="22.507%" id="S"><stop stop-color="#6C857B" offset="0%"/><stop stop-color="#3C4D45" offset="100%"/></linearGradient><linearGradient x1="166.704%" y1="64.472%" x2="16.542%" y2="47.055%" id="T"><stop stop-color="#459DBC" offset="0%"/><stop stop-color="#216487" offset="100%"/></linearGradient><linearGradient x1="166.704%" y1="64.472%" x2="0%" y2="31.356%" id="U"><stop stop-color="#459DBC" offset="0%"/><stop stop-color="#216487" offset="100%"/></linearGradient><linearGradient x1="100%" y1="85.639%" x2="11.162%" y2="18.463%" id="V"><stop stop-color="#5C7E79" offset="0%"/><stop stop-color="#2F4844" offset="100%"/></linearGradient><linearGradient x1="44.362%" y1="24.292%" x2="50%" y2="100%" id="W"><stop stop-color="#96B190" offset="0%"/><stop stop-color="#E1E2D5" offset="100%"/></linearGradient><linearGradient x1="115.395%" y1="100%" x2="0%" y2="100%" id="X"><stop stop-color="#4E6B76" offset="0%"/><stop stop-color="#425B65" offset="0%"/><stop stop-color="#1F2E35" offset="100%"/></linearGradient><linearGradient x1="146.479%" y1="28.585%" x2="18.22%" y2="69.33%" id="Y"><stop stop-color="#96B190" offset="0%"/><stop stop-color="#E1E2D5" offset="100%"/></linearGradient><linearGradient x1="108.366%" y1="107.369%" x2="0%" y2="0%" id="Z"><stop stop-color="#517366" offset="0%"/><stop stop-color="#C8CDC8" offset="60.652%"/><stop stop-color="#E1E2D5" offset="100%"/></linearGradient><linearGradient x1="50%" y1="0%" x2="50%" y2="100%" id="aa"><stop stop-color="#B8D1BC" offset="0%"/><stop stop-color="#658E6C" offset="100%"/></linearGradient><linearGradient x1="50%" y1="0%" x2="50%" y2="100%" id="ab"><stop stop-color="#4F6666" offset="0%"/><stop stop-color="#293939" offset="100%"/></linearGradient><linearGradient x1="50%" y1="0%" x2="50%" y2="100%" id="ac"><stop stop-color="#243636" offset="0%"/><stop stop-color="#293939" offset="100%"/></linearGradient><linearGradient x1="50%" y1="0%" x2="50%" y2="100%" id="ad"><stop stop-color="#A7C4AB" offset="0%"/><stop stop-color="#6E9173" offset="100%"/></linearGradient><linearGradient x1="50%" y1="0%" x2="50%" y2="100%" id="ae"><stop stop-color="#DAE3D8" offset="0%"/><stop stop-color="#93BE89" offset="100%"/></linearGradient><linearGradient x1="50%" y1="0%" x2="50%" y2="100%" id="af"><stop stop-color="#6FA480" offset="0%"/><stop stop-color="#3C6B49" offset="100%"/></linearGradient><linearGradient x1="50%" y1="0%" x2="50%" y2="100%" id="ag"><stop stop-color="#33403E" offset="0%"/><stop stop-color="#171E1D" offset="100%"/></linearGradient><linearGradient x1="50%" y1="0%" x2="50%" y2="100%" id="ah"><stop stop-color="#31403E" offset="0%"/><stop stop-color="#161E1D" offset="100%"/></linearGradient></defs><g fill="none" fill-rule="evenodd"><path fill="url(#a)" d="M95.344 4.069L97 .77l15.09 21.152v6.938h4.743l6.138 47.996-6.345 1.706z" transform="matrix(-1 0 0 1 180 43)"/><g transform="matrix(-1 0 0 1 180 43)"><use fill="url(#b)" xlink:href="#c"/><use fill="url(#d)" xlink:href="#c"/></g><path fill="url(#e)" d="M67 10l8.789 17.892 3.205 2.498 7.915-7.796z" transform="matrix(-1 0 0 1 180 43)"/><path d="M84.085 182.735l11.162 4.137c-10.097 7.073-15.29 10.683-15.577 10.83-.287.146-1.784.072-4.492-.22l3.437-6.568 5.47-8.179z" fill="url(#f)" transform="matrix(-1 0 0 1 180 43)"/><path fill="url(#g)" d="M69.126 190.684l-3.767 3.581-12.602-8.516z" transform="matrix(-1 0 0 1 180 43)"/><path fill="url(#h)" d="M46.193 180.332v3.077l11.748 13.606 7.46-2.714z" transform="matrix(-1 0 0 1 180 43)"/><path d="M80.338 29.042l3.569-6.646L92.213 16c2.395 14.118 3.394 21.87 2.998 23.255-.396 1.385-2.861 8.134-7.394 20.248L51.066 92.72l.407-3.335 8.766-11.312 18.409-29.37 1.69-19.662z" fill="url(#i)" transform="matrix(-1 0 0 1 180 43)"/><path fill="url(#j)" d="M94.54 41.313l2.723 15.901-2.574 8.478-2.192.911-4.766-7.792z" transform="matrix(-1 0 0 1 180 43)"/><path fill="url(#k)" d="M87.755 58.842l4.748 7.689-17.537 4.587z" transform="matrix(-1 0 0 1 180 43)"/><path fill="url(#l)" d="M93.417 67.785L75.653 97.418l-28.59 22.97v9.616L82.99 104.58z" transform="matrix(-1 0 0 1 180 43)"/><path fill="url(#m)" d="M59.532 169.675l24.753 13.124-21.274-2.083 6.015 10.04-23.112-7.065.745-15.405z" transform="matrix(-1 0 0 1 180 43)"/><path fill="url(#n)" d="M48.056 128.65L83.533 104l-27.34 26.418 1.912 6.932 10.686-2.176-4.943 10.56 1.946 7.925L56.193 157l-25.968-3.34 21.368-25.01z" transform="matrix(-1 0 0 1 180 43)"/><path fill="url(#o)" d="M110.074 84L83.47 103.697l-27.581 26.586 1.644 4.462L83.47 120.59l-7.77-1.264z" transform="matrix(-1 0 0 1 180 43)"/><path fill="url(#p)" d="M108.782 85l1.154 19.16L94 115.98z" transform="matrix(-1 0 0 1 180 43)"/><path fill="url(#q)" d="M116.65 78.812l-7.985 6.058 1.228 18.618 6.897-1.376z" transform="matrix(-1 0 0 1 180 43)"/><path fill="url(#r)" d="M71.817 142.757l8.243-1.038-.895 5.84-9.979 6.17-4.775-5.652z" transform="matrix(-1 0 0 1 180 43)"/><path fill="url(#s)" d="M55 162.917L105.938 161l13.972 8.277z" transform="matrix(-1 0 0 1 180 43)"/><path fill="url(#t)" d="M66.982 154.734L119.09 153l17.021 5.557-14.467 10.12-22.853-6.423H74.927l-18.087 1.099V157z" transform="matrix(-1 0 0 1 180 43)"/><path fill="url(#u)" d="M108.192 86l-14.25 30.134-16.453 1.37z" transform="matrix(-1 0 0 1 180 43)"/><path fill="url(#v)" d="M75.776 135L70 143.256l9.515-.502-.932 5.173 20.865-8.354-7.34-2.832z" transform="matrix(-1 0 0 1 180 43)"/><path fill="url(#w)" d="M77.512 117.463l-1.981 1.942 6.575 1.13-24.574 14.214.592 2.713 9.667-2.22-7.092 10.472 2.202 5.774-6.344 2.68v3.533L69.33 153.7l-1.54-5.843 9.158-12.615 6.138 5.849 6.593-3.443h3.715l6.15 2.033 7.502-13.754v-11.133z" transform="matrix(-1 0 0 1 180 43)"/><path fill="url(#x)" d="M49.384 63.712l1.739-8.24v-6.09l13.552-10.65L67.975 10l8.002 17.463-6.798 16-16.985 27.102L47 69.269z" transform="matrix(-1 0 0 1 180 43)"/><path fill="url(#y)" d="M76.687 26.591L63.271 50.934l-13.616 22.49v6.14L70.03 57.996l8.72-21.44V29.38z" transform="matrix(-1 0 0 1 180 43)"/><path fill="url(#z)" d="M73.797 70.014L50.394 90.78l-17.175 26.005 14.157 1.996v5.702h3.018v-6.877l25.868-20.409 18.355-31.335z" transform="matrix(-1 0 0 1 180 43)"/><path fill="url(#A)" d="M78.624 25.162v10.999L66.337 61.27 47 81.955v13.207l19.337-23.074 12.287-23.373 3.28-23.553z" transform="matrix(-1 0 0 1 180 43)"/><path fill="url(#B)" d="M27 86.4l12.31-14.74L45.064 61l6.209 6.943v24.976L33.17 111.8z" transform="matrix(-1 0 0 1 180 43)"/><path fill="url(#C)" d="M36.99 86.12L51.075 74l-5.263 23.82-14.905 22.485L23 115.792z" transform="matrix(-1 0 0 1 180 43)"/><path fill="url(#D)" d="M33.588 78.563l8.175 19.924-1.838 1.727-17.291 16.257-3.53-3.19 12.025-15.764z" transform="matrix(-1 0 0 1 180 43)"/><path d="M.676 111.451L24.69 87.353l9.01-9.504-2.222 20.016C16.353 117.847 8.221 128.247 7.08 129.063c-1.14.817-3.275-5.054-6.404-17.612z" fill="url(#E)" transform="matrix(-1 0 0 1 180 43)"/><path fill="#2F2C54" d="M105 208l-37.129 3.545 13.226 9.45z"/><path fill="#A79E93" d="M95.546 208.97l-15.91 1.465 2.049 7.277z"/><path fill="url(#f)" d="M98.85 178.021l.444 6.022 12.86-9.353v-6.192" transform="matrix(-1 0 0 1 180 43)"/><path fill="url(#F)" d="M57.6 163.31l.855-.058 17.154 1.673 23.376 13.04.294 6.092z" transform="matrix(-1 0 0 1 180 43)"/><path fill="url(#G)" d="M63.05 180.718l21.069 2.019-5.294 7.865-9.822.156z" transform="matrix(-1 0 0 1 180 43)"/><path fill="url(#H)" d="M68.946 190.548l-3.628 3.764 9.945 3.196 3.76-7.23z" transform="matrix(-1 0 0 1 180 43)"/><path fill="url(#a)" d="M95.344 4.069L97 .77l15.09 21.152v6.938h4.743l6.138 47.996-6.345 1.706z" transform="translate(219 43)"/><g transform="translate(219 43)"><use fill="url(#b)" xlink:href="#I"/><use fill="url(#d)" xlink:href="#I"/></g><path fill="url(#e)" d="M67 10l8.789 17.892 3.205 2.498 7.915-7.796z" transform="translate(219 43)"/><path d="M84.085 182.735l11.162 4.137c-10.097 7.073-15.29 10.683-15.577 10.83-.287.146-1.784.072-4.492-.22l3.437-6.568 5.47-8.179z" fill="url(#f)" transform="translate(219 43)"/><path fill="url(#g)" d="M69.126 190.684l-3.767 3.581-12.602-8.516z" transform="translate(219 43)"/><path fill="url(#h)" d="M46.193 180.332v3.077l11.748 13.606 7.46-2.714z" transform="translate(219 43)"/><path d="M80.338 29.042l3.569-6.646L92.213 16c2.395 14.118 3.394 21.87 2.998 23.255-.396 1.385-2.861 8.134-7.394 20.248L51.066 92.72l.407-3.335 8.766-11.312 18.409-29.37 1.69-19.662z" fill="url(#i)" transform="translate(219 43)"/><path fill="url(#j)" d="M94.54 41.313l2.723 15.901-2.574 8.478-2.192.911-4.766-7.792z" transform="translate(219 43)"/><path fill="url(#k)" d="M87.755 58.842l4.748 7.689-17.537 4.587z" transform="translate(219 43)"/><path fill="url(#l)" d="M93.417 67.785L75.653 97.418l-28.59 22.97v9.616L82.99 104.58z" transform="translate(219 43)"/><path fill="url(#m)" d="M59.532 169.675l24.753 13.124-21.274-2.083 6.015 10.04-23.112-7.065.745-15.405z" transform="translate(219 43)"/><path fill="url(#n)" d="M48.056 128.65L83.533 104l-27.34 26.418 1.912 6.932 10.686-2.176-4.943 10.56 1.946 7.925L56.193 157l-25.968-3.34 21.368-25.01z" transform="translate(219 43)"/><path fill="url(#o)" d="M110.074 84L83.47 103.697l-27.581 26.586 1.644 4.462L83.47 120.59l-7.77-1.264z" transform="translate(219 43)"/><path fill="url(#p)" d="M108.782 85l1.154 19.16L94 115.98z" transform="translate(219 43)"/><path fill="url(#q)" d="M116.65 78.812l-7.985 6.058 1.228 18.618 6.897-1.376z" transform="translate(219 43)"/><path fill="url(#r)" d="M71.817 142.757l8.243-1.038-.895 5.84-9.979 6.17-4.775-5.652z" transform="translate(219 43)"/><path fill="url(#s)" d="M55 162.917L105.938 161l13.972 8.277z" transform="translate(219 43)"/><path fill="url(#t)" d="M66.982 154.734L119.09 153l17.021 5.557-14.467 10.12-22.853-6.423H74.927l-18.087 1.099V157z" transform="translate(219 43)"/><path fill="url(#u)" d="M108.192 86l-14.25 30.134-16.453 1.37z" transform="translate(219 43)"/><path fill="url(#v)" d="M75.776 135L70 143.256l9.515-.502-.932 5.173 20.865-8.354-7.34-2.832z" transform="translate(219 43)"/><path fill="url(#w)" d="M77.512 117.463l-1.981 1.942 6.575 1.13-24.574 14.214.592 2.713 9.667-2.22-7.092 10.472 2.202 5.774-6.344 2.68v3.533L69.33 153.7l-1.54-5.843 9.158-12.615 6.138 5.849 6.593-3.443h3.715l6.15 2.033 7.502-13.754v-11.133z" transform="translate(219 43)"/><path fill="url(#x)" d="M49.384 63.712l1.739-8.24v-6.09l13.552-10.65L67.975 10l8.002 17.463-6.798 16-16.985 27.102L47 69.269z" transform="translate(219 43)"/><path fill="url(#y)" d="M76.687 26.591L63.271 50.934l-13.616 22.49v6.14L70.03 57.996l8.72-21.44V29.38z" transform="translate(219 43)"/><path fill="url(#z)" d="M73.797 70.014L50.394 90.78l-17.175 26.005 14.157 1.996v5.702h3.018v-6.877l25.868-20.409 18.355-31.335z" transform="translate(219 43)"/><path fill="url(#A)" d="M78.624 25.162v10.999L66.337 61.27 47 81.955v13.207l19.337-23.074 12.287-23.373 3.28-23.553z" transform="translate(219 43)"/><path fill="url(#B)" d="M27 86.4l12.31-14.74L45.064 61l6.209 6.943v24.976L33.17 111.8z" transform="translate(219 43)"/><path fill="url(#C)" d="M36.99 86.12L51.075 74l-5.263 23.82-14.905 22.485L23 115.792z" transform="translate(219 43)"/><path fill="url(#D)" d="M33.588 78.563l8.175 19.924-1.838 1.727-17.291 16.257-3.53-3.19 12.025-15.764z" transform="translate(219 43)"/><path d="M.676 111.451L24.69 87.353l9.01-9.504-2.222 20.016C16.353 117.847 8.221 128.247 7.08 129.063c-1.14.817-3.275-5.054-6.404-17.612z" fill="url(#E)" transform="translate(219 43)"/><path fill="#2F2C54" d="M294 208l37.129 3.545-13.226 9.45z"/><path fill="#A79E93" d="M303.454 208.97l15.91 1.465-2.049 7.277z"/><path fill="url(#f)" d="M98.85 178.021l.444 6.022 12.86-9.353v-6.192" transform="translate(219 43)"/><path fill="url(#F)" d="M57.6 163.31l.855-.058 17.154 1.673 23.376 13.04.294 6.092z" transform="translate(219 43)"/><path fill="url(#G)" d="M63.05 180.718l21.069 2.019-5.294 7.865-9.822.156z" transform="translate(219 43)"/><path fill="url(#H)" d="M68.946 190.548l-3.628 3.764 9.945 3.196 3.76-7.23z" transform="translate(219 43)"/><path d="M56.752 33.193L90.985 6.32l22.547 10.396c-9.054 5.808-17.591 12.741-25.612 20.8-7.998 8.036-18.363 18.573-31.097 31.611v.126l-.061-.063-.053.054v-.107C43.976 56.098 33.61 45.56 25.613 37.527 17.592 29.466 9.054 22.532 0 16.724L22.547 6.33l34.162 4.907.043 21.957z" fill="url(#J)" transform="translate(172 247.624)"/><path d="M56.981 63.203c12.236-11.809 22.197-21.352 29.882-28.63 7.707-7.298 15.911-13.578 24.612-18.838L77.252.995 51.576 20.05l.889 7.26-28.42-20.982-21.666 9.415c8.7 5.26 16.904 11.54 24.612 18.838 7.682 7.275 17.638 16.814 29.868 28.616l.013.11.05-.048.06.057v-.114z" fill="url(#K)" transform="translate(172 247.624)"/><path d="M56.811 69.139C69.551 56.095 79.92 45.554 87.92 37.517c8.02-8.06 16.558-14.993 25.612-20.801L90.985 6.32 56.71 33.169v34.967l-5.673-55.784-28.489-6.023L0 16.725c9.054 5.808 17.592 12.742 25.613 20.801 7.997 8.035 18.363 18.572 31.096 31.61v.108l.053-.054.061.063-.012-.114z" fill="url(#L)" transform="translate(115 247.624)"/><path d="M56.981 63.203c12.236-11.809 22.197-21.352 29.882-28.63 7.707-7.298 15.911-13.578 24.612-18.838L77.252.995 51.576 20.05l.889 7.26-28.42-20.982-21.666 9.415c8.7 5.26 16.904 11.54 24.612 18.838 7.682 7.275 17.638 16.814 29.868 28.616l.013.11.05-.048.06.057v-.114z" fill="url(#K)" transform="translate(115 247.624)"/><path d="M47.721 27.32L76.496.322l18.957 10.469c-7.613 5.849-14.79 12.831-21.534 20.947-6.724 8.092-15.439 18.703-26.145 31.833v.127l-.052-.064-.043.054v-.107C36.973 50.45 28.258 39.84 21.534 31.748 14.79 23.632 7.612 16.649 0 10.8L18.957.33 47.72 27.32z" fill="url(#M)" transform="translate(152 245)"/><path d="M47.856 24.773L75.506.323l18.217 9.48C86.408 15.101 79.51 21.424 73.03 28.775c-6.461 7.328-14.835 16.938-25.123 28.83v.115l-.05-.058-.042.05v-.098c-10.287-11.892-18.661-21.502-25.122-28.83C16.213 21.432 9.315 15.108 2 9.811L20.216.331l27.64 24.442z" fill="url(#N)" transform="translate(152 245)"/><path d="M85.027.855L85 .813v.078c-6.977 9.622-13.194 18.067-18.652 25.333-5.468 7.28-10.238 14.04-14.31 20.283L85 62.497v1.692l32.618-16.454c-4.072-6.242-8.842-13.003-14.31-20.283-5.457-7.266-11.547-16.126-18.27-26.58V.839l-.011.016z" fill="url(#O)" transform="translate(115 109)"/><path d="M85.027 8.126L85 8.09v.069c-6.977 8.517-13.194 15.992-18.652 22.424-5.468 6.444-10.238 12.428-14.31 17.954L85 62.692v1.497l32.618-14.565c-4.072-5.525-8.842-11.51-14.31-17.954-5.457-6.432-11.547-14.274-18.27-23.528v-.03l-.011.014z" fill="url(#P)" transform="translate(115 109)"/><path d="M147.359 121.34l17.965 17.74c-6.196 4.367-10.74 7.671-13.63 9.91-2.892 2.24-9.109 7.273-18.651 15.097-1.9-4.565-3.562-7.784-4.987-9.656-1.424-1.872-4.835-5.322-10.234-10.35-7.579 4.287-12.888 7.737-15.929 10.35-3.04 2.612-8.672 8.575-16.893 17.888V98.172l62.359 23.167z" fill="url(#Q)" transform="translate(115 109)"/><path d="M68.717 121.3l17.965 17.741c-6.195 4.368-10.739 7.672-13.63 9.911-2.891 2.24-9.108 7.272-18.65 15.096-1.9-4.565-3.563-7.784-4.987-9.656-1.424-1.872-4.836-5.322-10.235-10.35-7.578 4.288-12.888 7.738-15.928 10.35-3.041 2.613-8.62 8.594-16.738 17.943L4.83 97.129l63.886 24.172z" fill="url(#Q)" transform="matrix(-1 0 0 1 206.514 109)"/><path fill="url(#R)" transform="rotate(9 -486.237 928.201)" d="M147.08 127.474l12.744 9.114-22.146 22.127 17.859-21.448-13.212-9.793z"/><path fill="url(#R)" transform="scale(-1 1) rotate(9 -749.988 -809.892)" d="M20.22 128.728l12.742 9.114-22.145 22.128 17.859-21.449-13.212-9.793z"/><path fill="url(#S)" d="M33.606 65.99l-9.935 30.442-19.24-10.928 7.924-17.77 3.324-1.744z" transform="matrix(-1 0 0 1 168 154)"/><path fill="url(#T)" d="M28.465.971l-4.331 14.872 10.204 7.727V12.458z" transform="matrix(-1 0 0 1 168 154)"/><path fill="url(#U)" d="M20 92.626l3.35 5.403 10.818-32.468-1.253-.578z" transform="matrix(-1 0 0 1 168 154)"/><path fill="#253C37" d="M163.995 238.913l-18.295 9.39-11.04-29.365-1.692 1.362 11.666 32.256 19.87-11.596z"/><path fill="url(#V)" d="M5.189 29.466l12.951-4.032 16.528-2.946L7.866 41.642z" transform="matrix(-1 0 0 1 168 154)"/><path fill="url(#W)" d="M8.482 13.881l13.354-6.824L28.6.843l-4.277 15.183-11.88 11.847H.772z" transform="matrix(-1 0 0 1 168 154)"/><path fill="url(#T)" d="M39.513 20.639l1.81 19.6-10.448-3.34z" transform="matrix(-1 0 0 1 168 154)"/><path fill="url(#W)" d="M21.432 42.643v11.55l-7.345 8.81-3.419-18.74z" transform="matrix(-1 0 0 1 168 154)"/><path fill="url(#X)" d="M9.452 41.738l21.529-4.96L41.379 40.4l-26.275 4.231H7.695zm25.214-18.226l-22.403 4.234 12.016-11.918z" transform="matrix(-1 0 0 1 168 154)"/><path fill="url(#W)" d="M39.52 20.344l-8.699 16.659-23.33 4.995 27.495-20.86z" transform="matrix(-1 0 0 1 168 154)"/><path fill="url(#T)" d="M21.58 54.1l.662 10.009-7.814 4.6v-6.627z" transform="matrix(-1 0 0 1 168 154)"/><path fill="url(#Y)" d="M21.664 53.512h9.88l13.447-10.11-1.378-2.987-13.476 2.987z" transform="matrix(-1 0 0 1 168 154)"/><path fill="url(#V)" d="M21.242 43.182l.395 10.561 8.748-10.561z" transform="matrix(-1 0 0 1 168 154)"/><path fill="url(#U)" d="M31.87 53.548l13.28-10.136-.97 21.66z" transform="matrix(-1 0 0 1 168 154)"/><path fill="url(#X)" d="M21.798 53.52l10.017-.087 12.15 11.475-21.439-.4z" transform="matrix(-1 0 0 1 168 154)"/><path fill="url(#Z)" transform="translate(127.605 154)" d="M19.617 65H7l12.617 28.419 13.778-6.71-12.477-.71-6.95-17.444 12.766-1.37z"/><path fill="url(#S)" d="M33.606 65.99l-9.935 30.442-19.24-10.928 7.924-17.77 3.324-1.744z" transform="translate(232 151)"/><path fill="url(#T)" d="M28.465.971l-4.331 14.872 10.204 7.727V12.458z" transform="translate(232 151)"/><path fill="url(#U)" d="M20 92.626l3.35 5.403 10.818-32.468-1.253-.578z" transform="translate(232 151)"/><path fill="#253C37" d="M236.005 235.913l18.295 9.39 11.04-29.365 1.692 1.362-11.666 32.256-19.87-11.596z"/><path fill="url(#V)" d="M5.189 29.466l12.951-4.032 16.528-2.946L7.866 41.642z" transform="translate(232 151)"/><path fill="url(#W)" d="M8.482 13.881l13.354-6.824L28.6.843l-4.277 15.183-11.88 11.847H.772z" transform="translate(232 151)"/><path fill="url(#T)" d="M39.513 20.639l1.81 19.6-10.448-3.34z" transform="translate(232 151)"/><path fill="url(#W)" d="M21.432 42.643v11.55l-7.345 8.81-3.419-18.74z" transform="translate(232 151)"/><path fill="url(#X)" d="M9.452 41.738l21.529-4.96L41.379 40.4l-26.275 4.231H7.695zm25.214-18.226l-22.403 4.234 12.016-11.918z" transform="translate(232 151)"/><path fill="url(#W)" d="M39.52 20.344l-8.699 16.659-23.33 4.995 27.495-20.86z" transform="translate(232 151)"/><path fill="url(#T)" d="M21.58 54.1l.662 10.009-7.814 4.6v-6.627z" transform="translate(232 151)"/><path fill="url(#Y)" d="M21.664 53.512h9.88l13.447-10.11-1.378-2.987-13.476 2.987z" transform="translate(232 151)"/><path fill="url(#V)" d="M21.242 43.182l.395 10.561 8.748-10.561z" transform="translate(232 151)"/><path fill="url(#U)" d="M31.87 53.548l13.28-10.136-.97 21.66z" transform="translate(232 151)"/><path fill="url(#X)" d="M21.798 53.52l10.017-.087 12.15 11.475-21.439-.4z" transform="translate(232 151)"/><path fill="url(#Z)" transform="matrix(-1 0 0 1 272.395 151)" d="M19.617 65H7l12.617 28.419 13.778-6.71-12.477-.71-6.95-17.444 12.766-1.37z"/><path d="M46.6.109c7.347 2.47 13.013 5.882 16.998 10.235 3.985 4.352 6.85 10.258 8.594 17.718L46.6 24.74V.109zM46.592 0v24.631L21 27.953c1.744-7.46 4.608-13.366 8.593-17.718C33.578 5.882 39.244 2.47 46.592 0z" fill="url(#aa)" transform="translate(153 143)"/><path d="M47.186 6.084c5.794 1.91 10.262 4.545 13.404 7.909 3.142 3.363 5.401 7.927 6.776 13.69l-20.18-2.566V6.084zM47.18 6v19.033L27 27.599c1.375-5.764 3.634-10.327 6.776-13.69 3.142-3.364 7.61-6 13.404-7.909z" fill="url(#ab)" transform="translate(153 143)"/><path d="M47 11.754c3.894 1.368 6.898 3.258 9.01 5.668s3.63 5.68 4.555 9.811L47 25.394v-13.64zm-.004-.06v13.64L33.43 27.173c.924-4.13 2.442-7.401 4.555-9.811 2.112-2.41 5.115-4.3 9.01-5.668z" fill="url(#ac)" transform="translate(153 143)"/><path d="M199.864 159.165l-.001-.001c-3.839 3.982-7.195 6.825-10.068 8.53-4.322 2.566-9.19 4.295-14.832 3.467-5.642-.827-8.06-1.66-10.047-6.041-1.324-2.92-1.324-8.294 0-16.12-5.998 5.118-9.622 9.232-10.873 12.34-1.876 4.664 3.69 15.053 4.37 19.72.453 3.112.453 6.531 0 10.257-2.978 4.075-4.726 9.743-5.247 17.004-.78 10.892.877 18.16 11.75 31.49 7.25 8.887 16.46 14.828 27.633 17.824l7.314 9.96v.08l.03-.04.004.008v-.014l7.314-9.961c11.173-2.996 20.384-8.937 27.633-17.824 10.873-13.33 12.53-20.598 11.75-31.49-.52-7.261-2.27-12.93-5.247-17.004-.453-3.726-.453-7.145 0-10.257.68-4.667 6.246-15.056 4.37-19.72-1.25-3.108-4.875-7.222-10.873-12.34 1.324 7.826 1.324 13.2 0 16.12-1.986 4.38-4.405 5.214-10.047 6.041-5.643.828-10.51-.9-14.832-3.467-2.873-1.705-6.229-4.548-10.068-8.528v-.068l-.033.034z" fill="#306067"/><path d="M47.001 15.175L47 15.174c-3.474 3.77-6.51 6.462-9.11 8.077-3.912 2.43-8.316 4.066-13.422 3.283-5.106-.784-7.294-1.573-9.091-5.72-1.198-2.766-1.198-7.854 0-15.264-5.428 4.846-8.708 8.741-9.84 11.685C3.84 21.65 8.876 31.487 9.492 35.907c.41 2.946.41 6.184 0 9.712-2.695 3.858-4.277 9.225-4.748 16.1-.706 10.313.793 17.195 10.633 29.817 6.56 8.414 14.894 14.04 25.005 16.876L47 117.844v.075l.026-.038.005.007v-.013l6.618-9.432c10.11-2.836 18.446-8.462 25.005-16.876 9.84-12.622 11.34-19.504 10.633-29.817-.47-6.875-2.053-12.242-4.747-16.1-.41-3.528-.41-6.766 0-9.712.615-4.42 5.651-14.257 3.954-18.672-1.132-2.944-4.412-6.839-9.84-11.685 1.198 7.41 1.198 12.498 0 15.263-1.797 4.148-3.985 4.937-9.091 5.72-5.106.784-9.51-.852-13.422-3.282-2.6-1.615-5.636-4.307-9.11-8.075v-.065l-.03.033z" fill="url(#ad)" transform="translate(153 143)"/><path d="M46.603 18.017l-.03-.017v.034c-16.254 9.121-25.886 18.328-28.895 27.621-4.518 13.953-3.824 27.39 5.998 39.329C30.224 92.944 37.999 96.625 47 96.03c8.462.592 15.967-3.095 22.516-11.054 9.822-11.939 10.516-25.376 5.998-39.329-3.01-9.293-12.641-18.5-28.895-27.62v-.019l-.016.01z" fill="url(#ae)" transform="translate(153 143)"/><path d="M47.027 26.428L47 26.413v.03c-14.656 7.83-23.341 15.734-26.055 23.712-4.074 11.978-3.448 23.514 5.409 33.763C32.248 90.738 39.13 93.95 47 93.55v.018c7.888.394 14.784-2.825 20.688-9.658 8.857-10.25 9.483-21.785 5.409-33.763-2.714-7.978-11.399-15.882-26.055-23.712v-.016l-.015.008z" fill="url(#af)" transform="translate(153 143)"/><path d="M47.34 35.012a164.61 164.61 0 0 0-.34-.158v.317c-3.684 1.73-6.26 3.11-7.726 4.142-1.514 1.065-3.479 2.907-5.893 5.526 1.552 2.443 2.812 4.23 3.78 5.363.97 1.133 2.282 2.354 3.939 3.663-.485 2.19-1.094 3.632-1.826 4.328-.732.696-2.178 1.207-4.338 1.533-1.921-1.92-3.402-3.586-4.443-4.996-1.04-1.41-1.999-3.05-2.874-4.917-.79.912-1.429 2.145-1.914 3.699a15.107 15.107 0 0 0-.704 4.681c2.366.513 4.04 1.55 5.024 3.11 1.476 2.34 1.532 4.551 0 7.09-1.531 2.538-5.024 5.743-5.024 6.151 0 .273 1.4 1.76 4.199 4.463 3.211-5.096 5.865-8.845 7.962-11.247 2.082-2.386 5.451-5.548 10.107-9.485 4.567 3.87 7.879 6.982 9.935 9.338 2.097 2.403 4.751 6.152 7.962 11.247 2.8-2.702 4.2-4.19 4.2-4.462 0-.408-3.494-3.614-5.025-6.152-1.532-2.538-1.476-4.749 0-7.09.984-1.56 2.658-2.596 5.024-3.11a15.107 15.107 0 0 0-.704-4.68c-.485-1.554-1.123-2.787-1.914-3.7-.875 1.868-1.834 3.507-2.874 4.918-1.041 1.41-2.522 3.075-4.443 4.996-2.16-.326-3.606-.837-4.338-1.533-.732-.696-1.341-2.139-1.826-4.328 1.657-1.31 2.97-2.53 3.938-3.663.969-1.133 2.229-2.92 3.78-5.363-2.413-2.62-4.378-4.461-5.892-5.527-1.466-1.031-4.042-2.412-7.726-4.141V35l-.027.012z" fill="url(#ag)" transform="translate(153 143)"/><path fill="url(#ah)" d="M157 166.701l9.46 13.144-4.73 4.758-4.73-9.846z" transform="translate(43 43)"/><path fill="url(#ah)" transform="matrix(-1 0 0 1 347.6 43)" d="M147.57 166.71l9.46 13.144-4.73 4.758-4.73-9.846z"/></g></svg>