<svg width="400" height="400" viewBox="0 0 400 400" xmlns="http://www.w3.org/2000/svg"><title>gold</title><defs><linearGradient x1="114.86%" y1="-14.498%" x2="27.727%" y2="72.258%" id="a"><stop stop-color="#BC6F1A" offset="0%"/><stop stop-color="#EBC86E" offset="30.33%"/><stop stop-color="#A6864F" offset="100%"/></linearGradient><linearGradient x1="100%" y1="0%" x2="33.775%" y2="69.235%" id="b"><stop stop-color="#391B09" offset="0%"/><stop stop-color="#6A1005" offset="41.765%"/><stop stop-color="#451808" offset="100%"/></linearGradient><linearGradient x1="50%" y1="108.696%" x2="50%" y2="17.934%" id="c"><stop stop-color="#4D1D04" offset="0%"/><stop stop-color="#371704" offset="69.867%"/><stop stop-color="#320204" offset="100%"/></linearGradient><linearGradient x1="87.434%" y1="100%" x2="0%" y2="0%" id="d"><stop stop-color="#870B0A" offset="0%"/><stop stop-color="#380404" offset="100%"/></linearGradient><linearGradient x1="50%" y1="0%" x2="50%" y2="100%" id="e"><stop stop-color="#370808" offset="0%"/><stop stop-color="#4D1610" offset="100%"/></linearGradient><linearGradient x1="35.479%" y1="44.237%" x2="68.676%" y2="89.442%" id="f"><stop stop-color="#954B11" offset="0%"/><stop stop-color="#AE722F" offset="100%"/></linearGradient><linearGradient x1="50%" y1="0%" x2="50%" y2="100%" id="g"><stop stop-color="#3F0303" offset="0%"/><stop stop-color="#8D0303" offset="100%"/></linearGradient><linearGradient x1="35.479%" y1="44.237%" x2="68.676%" y2="89.442%" id="h"><stop stop-color="#954B11" offset="0%"/><stop stop-color="#6C3F0C" offset="100%"/></linearGradient><linearGradient x1="50%" y1="0%" x2="50%" y2="100%" id="i"><stop stop-color="#8E6238" offset="0%"/><stop stop-color="#54351C" offset="100%"/></linearGradient><linearGradient x1="50%" y1="0%" x2="50%" y2="100%" id="j"><stop stop-color="#CE2B0B" offset="0%"/><stop stop-color="#3E2C1B" offset="100%"/></linearGradient><linearGradient x1="43.77%" y1="37.062%" x2="68.961%" y2="84.229%" id="k"><stop stop-color="#441704" offset="0%"/><stop stop-color="#5E2406" offset="100%"/></linearGradient><linearGradient x1="23.4%" y1="9.984%" x2="58.037%" y2="90.272%" id="l"><stop stop-color="#954812" offset="0%"/><stop stop-color="#CA993A" offset="100%"/></linearGradient><linearGradient x1="50%" y1="0%" x2="50%" y2="100%" id="m"><stop stop-color="#CD8822" offset="0%"/><stop stop-color="#813F1A" offset="100%"/></linearGradient><linearGradient x1="50%" y1="0%" x2="50%" y2="100%" id="n"><stop stop-color="#CA7B12" offset="0%"/><stop stop-color="#EFD37B" offset="100%"/></linearGradient><linearGradient x1="50%" y1="0%" x2="50%" y2="100%" id="o"><stop stop-color="#7E0C04" offset="0%"/><stop stop-color="#A53B2E" offset="100%"/></linearGradient><linearGradient x1="50%" y1="0%" x2="50%" y2="100%" id="p"><stop stop-color="#FFF7DE" offset="0%"/><stop stop-color="#FFEBB9" offset="100%"/></linearGradient></defs><g transform="translate(62 48)" fill="none" fill-rule="evenodd"><path fill="url(#a)" transform="rotate(-45 138.02 113.517)" d="M103.539 78.845h68.964v69.344h-68.964z"/><path fill="url(#b)" transform="rotate(-45 140.02 122.406)" d="M115.637 97.406h48.765v50h-48.765z"/><path d="M136.542 202.431c-30.994-4.198-46.49-5.027-46.49-2.485 0 2.628-5.048 10.413-15.142 23.353l15.141 53.082 28.137 7.67 18.354 16.412v2.37l1.325-1.185 1.893 1.693v-3.386l18.354-16.413 28.136-7.67 15.142-53.08c-10.094-12.942-15.142-20.726-15.142-23.354 0-2.629-16.57-1.653-49.708 2.925v.068z" fill="url(#c)"/><path d="M193.251 204.529l-5.055 10.291c4.404 10.837 8.908 19.72 13.509 26.648 4.243 6.39 12.94 15.05 19.075 19.508.345.251-.3.251-1.934 0-4.59 1.75-7.99 3.415-10.2 4.995-2.211 1.58-4.525 4-6.941 7.257-2.697-.251-4.848-.377-6.453-.377-1.606 0-3.958.126-7.056.377-4.212.89-6.978 1.335-8.299 1.335-1.32 0-4.814-.445-10.481-1.335l-1.66-.377c-3.137-1.406-5.58-2.307-7.326-2.704-1.746-.396-5.553-1.788-11.42-4.176 5.532-6.918 8.893-17.642 10.083-32.172 1.19-14.53.3-29.36-2.666-44.49l36.824 15.22z" fill="url(#d)"/><path d="M97.883 204.22l-5.056 10.292c4.405 10.837 8.908 19.72 13.51 26.648 4.242 6.39 12.939 15.05 19.074 19.508.346.25-.299.25-1.933 0-4.59 1.75-7.99 3.415-10.2 4.995-2.212 1.58-4.525 3.999-6.942 7.256-2.697-.25-4.848-.376-6.453-.376-1.605 0-3.957.125-7.056.376-4.211.89-6.977 1.336-8.298 1.336-1.32 0-4.815-.445-10.481-1.336l-1.66-.376c-3.138-1.406-5.58-2.307-7.326-2.704-1.747-.396-5.553-1.788-11.42-4.176 5.532-6.918 8.893-17.642 10.082-32.172 1.19-14.53.301-29.36-2.665-44.491l36.824 15.22z" fill="url(#d)" transform="matrix(-1 0 0 1 179.143 0)"/><path d="M99.681 207.951c.357 10.89-.49 22.997-2.541 36.318-2.051 13.321-4.698 23.023-7.942 29.104l-4.976-.593c5.364-14.494 8.88-25.299 10.546-32.415 1.666-7.115 3.304-17.92 4.913-32.414z" fill="url(#e)"/><path d="M187.111 209c.357 10.89-.49 22.997-2.541 36.318-2.051 13.321-4.698 23.023-7.942 29.104l-4.976-.593c5.364-14.494 8.88-25.299 10.546-32.415 1.666-7.115 3.304-17.92 4.913-32.414z" fill="url(#e)" transform="matrix(-1 0 0 1 358.843 0)"/><path d="M106.308 220c.826 11.528 1.239 19.983 1.239 25.364 0 5.38-.744 14.597-2.231 27.648 5.335-1.564 8.122-2.537 8.36-2.92.17-.272.803-9.75-1.312-25.926-.571-4.367-2.177-12.422-4.817-24.166" fill="url(#e)"/><path d="M160.94 220c.827 11.528 1.24 19.983 1.24 25.364 0 5.38-.744 14.597-2.231 27.648 5.336-1.564 8.122-2.537 8.36-2.92.17-.272.803-9.75-1.312-25.926-.571-4.367-2.177-12.422-4.817-24.166" fill="url(#e)" transform="matrix(-1 0 0 1 328.48 0)"/><path d="M236.518 139.277c8.447-1.5 15.752-4.011 21.916-7.533 6.164-3.521 14.314-9.033 24.451-16.536-3.234 9.173-5.5 18.283-6.797 27.331-1.297 9.048-2.16 17.526-2.59 25.433-10.856 2.502-18.63 4.13-23.322 4.885-4.693.754-12.214 1.585-22.562 2.491l8.904-36.071z" fill="url(#f)"/><path d="M139.26 244.763c5.387-6.165 11.56-11.516 18.52-16.052 7.345-4.787 16.737-9.43 28.175-13.93-4.02-4.125-8.514-7.345-13.48-9.662-4.965-2.316-10.59-3.817-16.878-4.501l-17.223 2.105v.274L122.036 201c-6.287.685-11.913 2.185-16.878 4.502-4.965 2.316-9.459 5.536-13.48 9.66 11.439 4.5 20.83 9.144 28.175 13.931 6.96 4.536 13.134 9.887 18.521 16.052v.647c.092-.11.185-.218.278-.327.204.235.406.472.607.71v-1.412z" fill="url(#g)"/><path d="M265.475 167.838s-8.624 9.556-12.917 18.116c-2.862 5.707-4.07 10.662-3.623 14.865-14.616-6.983-25.694-11.078-33.236-12.286-7.541-1.208-18.037.89-31.489 6.292l-30.92 9.245 8.938-20.545 103.247-15.687z" fill="url(#h)"/><path d="M125.84 169s-8.625 9.556-12.918 18.116c-2.862 5.707-4.07 10.662-3.623 14.865-14.616-6.983-25.694-11.078-33.236-12.286-7.541-1.208-18.038.89-31.489 6.292l-30.92 9.245 8.938-20.545L125.839 169z" fill="url(#h)" transform="matrix(-1 0 0 1 139.494 0)"/><ellipse fill="url(#i)" cx="195.547" cy="197.5" rx="13.167" ry="11.5"/><ellipse fill="url(#i)" cx="87.289" cy="197.5" rx="13.167" ry="11.5"/><ellipse fill="url(#j)" cx="195.547" cy="197" rx="8.29" ry="8"/><ellipse fill="url(#j)" cx="87.289" cy="197" rx="8.29" ry="8"/><path d="M8.904 141.986c8.447-1.5 15.752-4.011 21.916-7.533 6.164-3.521 14.314-9.033 24.451-16.536-3.234 9.173-5.5 18.283-6.797 27.331-1.297 9.048-2.16 17.526-2.59 25.433-10.855 2.502-18.63 4.13-23.322 4.885-4.693.754-12.214 1.585-22.562 2.491l8.904-36.071z" fill="url(#f)" transform="matrix(-1 0 0 1 55.271 0)"/><path d="M193.543 103.467l7.337-2.35 3.842-11.396c12.619-5.171 23.78-15.751 33.484-31.741S254.758 22.894 258.75.692c9.522 19.518 16.032 36.047 19.53 49.588 3.5 13.542 5.029 28.128 4.589 43.76-1.173 4.197-10.872 11.396-29.098 21.597-18.225 10.201-32.178 16.241-41.86 18.12l-18.368-30.29z" fill="url(#f)"/><path d="M0 104.774l7.337-2.35 3.842-11.396c12.619-5.17 23.78-15.75 33.484-31.74C54.367 43.297 61.215 24.201 65.207 2c9.522 19.518 16.032 36.047 19.53 49.588 3.5 13.541 5.029 28.128 4.589 43.76-1.174 4.197-10.873 11.396-29.098 21.597-18.225 10.2-32.178 16.241-41.86 18.12L0 104.775z" fill="url(#f)" transform="matrix(-1 0 0 1 89.4 0)"/><path d="M194.164 113.367c10.203-7.336 17.383-12.865 21.541-16.587 4.158-3.721 8.214-8.249 12.167-13.583 1.685 6.02 2.754 10.92 3.205 14.698.452 3.778.452 7.818 0 12.12-3.74 3.85-8.142 7.372-13.206 10.567-5.064 3.195-9.783 5.427-14.157 6.696l-9.55-13.91z" fill="url(#k)"/><path d="M228.982 125.41c10.869-3.26 20.505-7.857 28.908-13.789 8.404-5.932 17.462-12.311 27.174-19.138-.137 6.09-.535 11.637-1.193 16.641-.658 5.005-2.23 9.32-4.715 12.946-8.395 5.845-14.87 9.783-19.425 11.815-4.555 2.032-13.798 5.894-27.728 11.585l-3.021-20.06z" fill="url(#f)"/><path d="M0 127.927c10.87-3.26 20.506-7.856 28.909-13.788C37.312 108.207 46.37 101.827 56.083 95c-.138 6.09-.536 11.637-1.194 16.642-.658 5.004-2.23 9.32-4.715 12.946-8.395 5.844-14.87 9.782-19.425 11.814-4.555 2.032-13.798 5.894-27.728 11.585L0 127.927z" fill="url(#f)" transform="matrix(-1 0 0 1 56.083 0)"/><path d="M51.69 117.17c10.204-7.336 17.384-12.865 21.542-16.587 4.158-3.722 8.214-8.25 12.167-13.583 1.685 6.02 2.753 10.92 3.205 14.697.451 3.778.451 7.818 0 12.12-3.74 3.85-8.142 7.373-13.206 10.568-5.065 3.195-9.784 5.427-14.157 6.696l-9.55-13.91z" fill="url(#k)" transform="matrix(-1 0 0 1 140.633 0)"/><path d="M204.958 126.671c5.748-1.845 11.486-4.956 17.215-9.33 5.729-4.376 11.38-9.963 16.952-16.763 1.275 7.414 1.913 13.873 1.913 19.375 0 5.501-.638 11.995-1.913 19.48-1.226 2.758-6.01 6.497-14.352 11.217-8.342 4.72-16.706 8.418-25.091 11.097l5.276-35.076z" fill="url(#k)"/><path d="M45.263 128.094c5.748-1.846 11.487-4.956 17.215-9.331 5.73-4.376 11.38-9.963 16.953-16.763 1.275 7.415 1.913 13.873 1.913 19.375 0 5.502-.638 11.995-1.913 19.48-1.226 2.759-6.01 6.498-14.353 11.217-8.342 4.72-16.705 8.419-25.09 11.097l5.275-35.075z" fill="url(#k)" transform="matrix(-1 0 0 1 121.33 0)"/><path d="M206.67 155.143c4.928-1.19 10.584-3.577 16.97-7.163a118.388 118.388 0 0 0 18.127-12.55c.473 3.127.473 8.704 0 16.732-.302 5.134-.574 9.46-.814 12.98-.09 1.321-.217 3.048-.378 5.178-5.164 2.527-10.81 4.527-16.935 6.002-6.126 1.474-13.273 1.947-21.44 1.418l4.47-22.597z" fill="url(#k)"/><path d="M39.581 154.712c4.928-1.19 10.585-3.577 16.97-7.163A118.388 118.388 0 0 0 74.678 135c.473 3.126.473 8.703 0 16.731-.302 5.134-.573 9.46-.814 12.98-.09 1.321-.216 3.048-.377 5.179-5.165 2.526-10.81 4.527-16.936 6-6.125 1.475-13.272 1.948-21.44 1.419l4.47-22.597z" fill="url(#k)" transform="matrix(-1 0 0 1 110.144 0)"/><path d="M165.126 123.987c4.584-6.786 7.854-12.548 9.81-17.286 1.956-4.739 3.24-10.009 3.85-15.81 7.17 5.706 12.777 10.975 16.823 15.81 4.045 4.834 7.91 10.596 11.596 17.286-3.277 7.155-7.142 13.195-11.596 18.119-4.454 4.924-11.345 7.95-20.673 9.079h-8.69l-1.12-27.198z" fill="url(#l)"/><path d="M72.172 124.096c4.584-6.786 7.855-12.549 9.81-17.287C83.938 102.07 85.222 96.8 85.833 91c7.17 5.705 12.777 10.975 16.822 15.809 4.046 4.834 7.911 10.597 11.597 17.287-3.277 7.155-7.143 13.194-11.597 18.118-4.454 4.924-11.345 7.95-20.673 9.08h-8.689l-1.12-27.198z" fill="url(#l)" transform="matrix(-1 0 0 1 186.424 0)"/><path d="M168.863 149.781c6.915 1.1 14.151-1.376 21.708-7.428 7.556-6.053 13.127-13.837 16.711-23.353 3.298 8.64 5.197 15.56 5.697 20.757.5 5.198-.144 11.334-1.93 18.408-5.946 4.143-13.37 7.517-22.27 10.124-8.902 2.606-17.861 4.029-26.88 4.268l6.964-22.776z" fill="url(#l)"/><path d="M73.283 149.781c6.916 1.1 14.152-1.376 21.709-7.428 7.556-6.053 13.127-13.837 16.71-23.353 3.3 8.64 5.198 15.56 5.698 20.757.5 5.198-.144 11.334-1.931 18.408-5.945 4.143-13.369 7.517-22.27 10.124-8.9 2.606-17.86 4.029-26.879 4.268l6.963-22.776z" fill="url(#l)" transform="matrix(-1 0 0 1 183.884 0)"/><path d="M167.248 170.033c7.155.135 15.344-1.159 24.568-3.882 9.224-2.723 17.333-6.548 24.325-11.473-.875 5.327-1.619 9.328-2.231 12.003-.612 2.675-1.66 6.501-3.141 11.477-3.342 3.029-9.7 5.266-19.074 6.711-9.374 1.446-17.523 1.446-24.447 0v-14.836z" fill="url(#l)"/><path d="M65.345 171.355c7.155.135 15.345-1.16 24.568-3.883 9.224-2.723 17.333-6.547 24.325-11.472-.875 5.326-1.619 9.327-2.23 12.003-.613 2.675-1.66 6.5-3.142 11.477-3.342 3.028-9.7 5.265-19.074 6.71-9.374 1.446-17.523 1.446-24.447 0v-14.835z" fill="url(#l)" transform="matrix(-1 0 0 1 179.583 0)"/><path d="M138.69 120.516c3.709 1.505 6.616 3.205 8.722 5.099 2.138 1.922 4.574 4.223 7.308 6.9 1.457-3.652 2.262-7.675 2.414-12.068.152-4.393-.383-8.152-1.606-11.277 6.02 1.92 10.974 4.777 14.86 8.57 5.83 5.69 7.09 11.578 7.849 17.958a53.517 53.517 0 0 1 0 12.714c-1.353 1.642-2.597 2.844-3.733 3.605-1.137.762-2.508 1.58-4.116 2.458.49 3.353.662 6.61.515 9.774-.147 3.163-.629 6.098-1.447 8.805 3.288 2.251 5.88 3.629 7.774 4.133 1.895.504 5.312.726 10.254.666-.915 4.254-1.924 7.519-3.027 9.794-1.103 2.275-2.768 4.793-4.994 7.555-3.288.17-5.647.17-7.078 0-1.431-.169-3.262-.664-5.492-1.485-2.845 5.116-5.338 8.764-7.479 10.943-3.212 3.269-5.567 4.743-9.881 6.575-2.877 1.221-6.557 1.827-11.04 1.815v-.17c-4.382-.01-7.987-.615-10.815-1.816-4.314-1.832-6.67-3.306-9.88-6.575-2.142-2.179-4.635-5.826-7.48-10.942-2.23.82-4.06 1.316-5.492 1.485-1.43.17-3.79.17-7.078 0-2.226-2.762-3.89-5.28-4.994-7.556-1.103-2.275-2.112-5.54-3.027-9.794 4.942.06 8.36-.161 10.254-.665 1.895-.505 4.486-1.882 7.774-4.133-.818-2.707-1.3-5.642-1.447-8.805-.147-3.164.025-6.422.515-9.774-1.608-.878-2.98-1.697-4.116-2.458-1.136-.762-2.38-1.963-3.733-3.606a53.517 53.517 0 0 1 0-12.713c.758-6.38 2.019-12.269 7.849-17.958 3.886-3.793 8.84-6.65 14.86-8.57-1.223 3.125-1.758 6.884-1.606 11.277.152 4.393.957 8.415 2.414 12.068 2.734-2.678 5.17-4.978 7.308-6.9 2.138-1.923 5.102-3.646 8.891-5.168v.239z" fill="url(#m)"/><path d="M138.725 135.023c8.85 6.286 14.68 11.725 17.49 16.318 4.215 6.89 9.519 18.06 2.473 31.756-4.697 9.13-11.351 14.107-19.963 14.929v-63.003zm-.008-.023v63.054c-8.767-1.125-15.5-6.252-20.196-15.383-7.045-13.696-1.742-24.866 2.473-31.755 2.81-4.593 8.718-9.898 17.723-15.916z" fill="url(#n)"/><path d="M138.917 108.288v-.76l-13.828 9.365 4.603 4.587 8.8-6.428v.161l9.226 6.739 4.603-4.588-13.404-9.076z" fill="url(#o)"/><path d="M138.008 164.499c2.492 4.734 4.644 6.533 6.455 5.397 2.717-1.704 1.868-7.896 4.112-12.023 1.496-2.751 3.558-5.643 6.187-8.674 2.695 4.107 3.898 6.239 3.606 6.396-.229.124-3.396.928-7.155 8.164-.68 1.308-1.559 4.484-2.638 9.527.247 2.47.485 4.278.712 5.423.228 1.145 1.066 5.67 2.516 13.574-2.954-7.087-5.401-11.97-7.34-14.648-1.939-2.678-4.09-4.748-6.455-6.21V164.5z" fill="url(#p)"/><path d="M117.61 164.5c2.492 4.734 4.643 6.533 6.455 5.397 2.717-1.703 1.868-7.895 4.112-12.022 1.495-2.752 3.557-5.643 6.186-8.675 2.696 4.107 3.898 6.24 3.607 6.397-.23.123-3.397.927-7.156 8.163-.68 1.309-1.559 4.485-2.637 9.528.247 2.47.484 4.278.712 5.423.227 1.145.948 5.283 2.163 12.414-2.72-6.314-5.049-10.81-6.987-13.488-1.94-2.678-4.09-4.748-6.455-6.21v-6.926z" fill="url(#p)" transform="matrix(-1 0 0 1 255.622 0)"/></g></svg>