<svg width="400" height="400" viewBox="0 0 400 400" xmlns="http://www.w3.org/2000/svg"><title>king</title><defs><linearGradient x1="50%" y1="0%" x2="50%" y2="100%" id="a"><stop stop-color="#728883" offset="0%"/><stop stop-color="#3E504C" offset="100%"/></linearGradient><linearGradient x1="50%" y1="0%" x2="50%" y2="100%" id="b"><stop stop-color="#8E886F" offset="0%"/><stop stop-color="#55503C" offset="100%"/></linearGradient><linearGradient x1="100%" y1="67.219%" x2="29.211%" y2="37.164%" id="c"><stop stop-color="#747C77" offset="0%"/><stop stop-color="#404642" offset="100%"/></linearGradient><linearGradient x1="54.86%" y1="0%" x2="50%" y2="100%" id="d"><stop stop-color="#93988D" offset="0%"/><stop stop-color="#5A5F54" offset="100%"/></linearGradient><linearGradient x1="50%" y1="0%" x2="50%" y2="100%" id="e"><stop stop-color="#798179" offset="0%"/><stop stop-color="#444A44" offset="100%"/></linearGradient><linearGradient x1="113.265%" y1="66.39%" x2="31.433%" y2="29.045%" id="f"><stop stop-color="#607363" offset="0%"/><stop stop-color="#4D524E" offset="100%"/></linearGradient><linearGradient x1="25.65%" y1="4.617%" x2="50%" y2="100%" id="g"><stop stop-color="#844614" offset="0%"/><stop stop-color="#CC9837" offset="100%"/></linearGradient><linearGradient x1="109.813%" y1="66.611%" x2="13.261%" y2="0%" id="h"><stop stop-color="#97908A" offset="0%"/><stop stop-color="#5E5752" offset="100%"/></linearGradient><linearGradient x1="50%" y1="0%" x2="50%" y2="100%" id="i"><stop stop-color="#6D3C17" offset="0%"/><stop stop-color="#DDB653" offset="100%"/></linearGradient><linearGradient x1="50%" y1="0%" x2="50%" y2="100%" id="j"><stop stop-color="#2F4682" offset="0%"/><stop stop-color="#0BAAC6" offset="100%"/></linearGradient><linearGradient x1="50%" y1="0%" x2="50%" y2="100%" id="k"><stop stop-color="#3C2414" offset="0%"/><stop stop-color="#412F20" offset="100%"/></linearGradient><linearGradient x1="10.15%" y1="-11.176%" y2="100%" id="l"><stop stop-color="#E7E1BA" offset="0%"/><stop stop-color="#C5972B" offset="68.893%"/><stop stop-color="#7E4910" offset="100%"/></linearGradient><linearGradient x1="93.757%" y1="0%" x2="50%" y2="100%" id="m"><stop stop-color="#E4CD80" offset="0%"/><stop stop-color="#C49E49" offset="100%"/></linearGradient><linearGradient x1="50%" y1="0%" x2="10.431%" y2="100%" id="n"><stop stop-color="#6C2808" offset="0%"/><stop stop-color="#C09030" offset="78.241%"/><stop stop-color="#8A551D" offset="100%"/></linearGradient><linearGradient x1="94.364%" y1="6.633%" x2="7.803%" y2="103.754%" id="o"><stop stop-color="#442F1C" offset="0%"/><stop stop-color="#452619" offset="100%"/></linearGradient><linearGradient x1="0%" y1="21.393%" x2="50%" y2="100%" id="p"><stop stop-color="#7D6143" offset="0%"/><stop stop-color="#6B5E50" offset="100%"/></linearGradient><linearGradient x1="0%" y1="0%" x2="86.084%" y2="100%" id="q"><stop stop-color="#7B5B3A" offset="0%"/><stop stop-color="#82725C" offset="55.583%"/><stop stop-color="#523C35" offset="100%"/></linearGradient><linearGradient x1="15.703%" y1="0%" x2="90.59%" y2="100%" id="r"><stop stop-color="#6A3914" offset="0%"/><stop stop-color="#554020" offset="100%"/></linearGradient><linearGradient x1="101.174%" y1="120.66%" x2="4.446%" y2="29.457%" id="s"><stop stop-color="#7E6146" offset="0%"/><stop stop-color="#745940" offset="13.52%"/><stop stop-color="#402D1E" offset="100%"/></linearGradient><linearGradient x1="91.32%" y1="20.069%" x2="23.308%" y2="85.941%" id="t"><stop stop-color="#88642B" offset="0%"/><stop stop-color="#56493F" offset="100%"/></linearGradient><linearGradient x1="50%" y1="0%" x2="50%" y2="100%" id="u"><stop stop-color="#E8BA50" offset="0%"/><stop stop-color="#B25E12" offset="100%"/></linearGradient><linearGradient x1="31.09%" y1="100%" x2="75.907%" y2="19.716%" id="v"><stop stop-color="#483E71" offset="0%"/><stop stop-color="#20527F" offset="100%"/></linearGradient><linearGradient x1="106.729%" y1="36.297%" x2="0%" y2="83.055%" id="w"><stop stop-color="#C79949" offset="0%"/><stop stop-color="#A15A0A" offset="100%"/></linearGradient><linearGradient x1="78.417%" y1="5.011%" x2="50%" y2="100%" id="x"><stop stop-color="#B17A2F" offset="0%"/><stop stop-color="#CF9940" offset="100%"/></linearGradient><linearGradient x1="50%" y1="0%" x2="50%" y2="100%" id="y"><stop stop-color="#DAB863" offset="0%"/><stop stop-color="#E9D66A" offset="22.768%"/><stop stop-color="#EAC664" offset="56.001%"/><stop stop-color="#C47C3B" offset="100%"/></linearGradient><linearGradient x1="50%" y1="0%" x2="50%" y2="105.974%" id="z"><stop stop-color="#C87328" offset="0%"/><stop stop-color="#DFB76F" offset="100%"/></linearGradient><linearGradient x1="50%" y1="0%" x2="50%" y2="100%" id="A"><stop stop-color="#063352" offset="0%"/><stop stop-color="#259DCF" offset="64.33%"/><stop stop-color="#CBFFFC" offset="100%"/></linearGradient></defs><g fill="none" fill-rule="evenodd"><ellipse fill="url(#a)" cx="200.5" cy="184.5" rx="92.5" ry="97.5"/><ellipse fill="url(#b)" cx="200.5" cy="184.5" rx="76.5" ry="77.5"/><path fill="url(#c)" d="M58.112 10.668l9.295 6.198-28.382 33.899-11.313-6.117z" transform="translate(219 79)"/><path d="M.796 26.022c12.692-.243 23.09-2.442 31.191-6.595 8.103-4.153 14.436-10.53 19-19.133 3.525 2.673 6.049 4.74 7.571 6.201a23.692 23.692 0 0 1 3.852 4.762c-6.801 9.456-12.094 16.472-15.878 21.048-3.784 4.576-9.726 11.147-17.827 19.711L.796 26.022z" fill="url(#d)" transform="translate(219 79)"/><path d="M52.982 7.432l2.463 1.895-25.012 30.257L15.28 29.03c10.95-2.812 18.938-5.658 23.965-8.538 5.028-2.88 9.607-7.234 13.736-13.061z" fill="url(#e)" transform="translate(219 79)"/><path fill="url(#c)" d="M58.112 10.668l9.295 6.198-28.382 33.899-11.313-6.117z" transform="matrix(-1 0 0 1 180 79)"/><path d="M.796 26.022c12.692-.243 23.09-2.442 31.191-6.595 8.103-4.153 14.436-10.53 19-19.133 3.525 2.673 6.049 4.74 7.571 6.201a23.692 23.692 0 0 1 3.852 4.762c-6.801 9.456-12.094 16.472-15.878 21.048-3.784 4.576-9.726 11.147-17.827 19.711L.796 26.022z" fill="url(#d)" transform="matrix(-1 0 0 1 180 79)"/><path d="M52.982 7.432l2.463 1.895-25.012 30.257L15.28 29.03c10.95-2.812 18.938-5.658 23.965-8.538 5.028-2.88 9.607-7.234 13.736-13.061z" fill="url(#e)" transform="matrix(-1 0 0 1 180 79)"/><path fill="url(#f)" d="M245.102 232.894l42.497 18.324-30.18 49.104-41.126-63.536z"/><path fill="url(#f)" transform="matrix(-1 0 0 1 303.306 0)" d="M144.81 235l42.496 18.323-30.18 49.105L116 238.892z"/><path d="M241.359 236.688l22.835 15.4 9.567 5.436c-9.04 10.44-15.34 18.685-18.898 24.732-3.558 6.048-7.73 15.601-12.515 28.66.232-5.817-3.008-14.412-9.72-25.785-6.71-11.374-14.601-21.642-23.671-30.804l6.149-28.07 26.253 10.431z" fill="url(#g)"/><path d="M160.402 236.431l22.835 15.4 9.567 5.436c-9.04 10.44-15.34 18.684-18.898 24.732-3.558 6.048-7.73 15.6-12.515 28.66.232-5.817-3.008-14.412-9.72-25.785-6.71-11.374-14.601-21.642-23.671-30.804l6.15-28.07 26.252 10.431z" fill="url(#g)" transform="matrix(-1 0 0 1 320.804 0)"/><path d="M231.824 241.03c6.263 3.66 10.567 6.221 12.911 7.684 10.465 6.528 15.03 9.871 14.791 10.1-.228.217-3.46 4.272-8.047 13.319-1.235 2.436-3.169 7.004-5.8 13.702-4.305-7.768-7.827-13.614-10.567-17.538-2.74-3.925-8.05-10.728-15.931-20.41l12.643-6.857z" fill="url(#h)"/><path d="M152.644 242c6.262 3.66 10.566 6.221 12.91 7.684 10.466 6.528 15.03 9.871 14.791 10.1-.227.218-3.46 4.273-8.047 13.32-1.235 2.436-3.168 7.003-5.8 13.702-4.304-7.769-7.827-13.615-10.567-17.539-2.74-3.924-8.05-10.728-15.931-20.41L152.644 242z" fill="url(#h)" transform="matrix(-1 0 0 1 320.354 0)"/><path fill="url(#i)" d="M216.158 244.505l21.53 20.43-28.842 33.298v-53.728z"/><path fill="url(#i)" transform="matrix(-1 0 0 1 352.842 0)" d="M169.312 245l21.53 20.43L162 298.728V245z"/><path fill="url(#j)" d="M212.657 246.558v34.91l14.25-14.47z"/><path fill="url(#j)" transform="matrix(-1 0 0 1 360.249 0)" d="M173 247v34.91l14.249-14.47z"/><path d="M105.555 27.6l13.698 2.122c-12.038 26.933-19.054 46.33-21.048 58.193-1.995 11.863-1.529 27.173 1.397 45.93l-8.478-4.912c-4.481-14.1-5.168-31.378-2.061-51.833 3.107-20.456 8.604-36.956 16.492-49.5z" fill="url(#k)" transform="translate(235 81)"/><path d="M8.178 25l-7.12-.516c-.552 14.861 2.874 28.161 10.28 39.9 7.405 11.739 17.205 21.226 29.4 28.46l10.604-8.756c-12.768-3.775-22.86-10.342-30.275-19.704C13.653 55.023 9.357 41.894 8.178 25z" fill="url(#l)" transform="matrix(-1 0 0 1 287.342 81)"/><path fill="url(#m)" d="M43.982 25.034L73.363.868l-23.946 23.81z" transform="translate(235 81)"/><path d="M.928 87.803c16.302-5.796 28.155-13.572 35.559-23.328 7.403-9.756 11.508-23.01 12.315-39.76 6.564-5.525 11.47-9.883 14.717-13.074C66.765 8.45 70.107 4.702 73.544.397c9.61 8.295 17.155 14.644 22.637 19.046 5.483 4.403 9.089 7.009 10.818 7.818-8.039 16.752-13.202 32.58-15.49 47.481-2.29 14.902-2.29 32.697 0 53.386-6.675-3.047-16.005-3.864-27.99-2.45-11.985 1.412-28.13 6.013-48.435 13.802L.928 87.803z" fill="url(#n)" transform="translate(235 81)"/><path d="M12.748 104.473c13.04-8.971 23.338-19.199 30.895-30.683 7.557-11.485 12.97-25.281 16.24-41.39l12.9-22.537c4.626 2.795 7.89 4.936 9.795 6.425 1.905 1.49 6.042 5.135 12.413 10.936-.013 5.966-1.904 14.564-5.674 25.794-3.77 11.23-10.407 22.169-19.912 32.818l-6.285 2.19c-6.383 1.266-10.217 2.861-11.501 4.785-1.284 1.925-2.23 5.812-2.838 11.662h2.303c-1.917 7.627-7.897 13.802-17.94 18.524-10.044 4.722-19.272 5.698-27.684 2.927l7.288-21.451z" fill="url(#o)" transform="translate(235 81)"/><path d="M90.28 32.253c3.366 9.135 4.494 14.435 2.69 15.994-1.803 1.56-12.472-3.98-19.062-8.017-4.394-2.69-8.696-6.19-12.908-10.497 4.08-4.906 7.419-8.358 10.017-10.355 2.598-1.997 6.08-3.79 10.447-5.378 3.633 6.079 6.571 12.163 8.816 18.253z" fill="url(#p)" transform="matrix(-1 0 0 1 389.824 81)"/><path d="M317.296 111.143c.893-1.378-.707-2.84-1.542-3.554-.836-.713-2.787-2.733-4.675-.721-1.89 2.01-6.357 9.331-4.728 10.451 1.629 1.12 10.053-4.797 10.945-6.176z" fill="#674930"/><path d="M77.685 106.91c-11.662-11.136-19.812-20.015-24.45-26.639-6.959-9.935-5.674-13.87-10.271-19.015-4.598-5.145-7.856-4.767-13.588-7.686a119.304 119.304 0 0 0-11.691-5.19c2.907 14.285 5.202 23.436 6.887 27.454 2.527 6.027 6.707 9.813 8.74 9.813 2.032 0 4.476-1.116 7.474.41 2.997 1.527 6.091 3.972 7.475 8.025.923 2.702 1.617 6.213 2.082 10.533h-2.658c2.6 4.808 5.235 8.417 7.908 10.826 2.673 2.409 5.83 4.02 9.468 4.833-3.887-2.702-6.757-6.227-8.61-10.575-2.779-6.522.246-6.918-3.217-15.617-3.463-8.699-5.23-10.351-9.333-13.81-4.104-3.46-4.558 3.089-10.59-2.986-4.02-4.049-6.933-10.107-8.739-18.174 4.78-1.276 9.73.627 14.848 5.709 7.678 7.622 1.523 8.903 12.736 21.236a111.102 111.102 0 0 0 25.529 20.853z" fill="url(#q)" transform="scale(-1 1) rotate(-2 2202.743 9588.27)"/><path fill="url(#r)" d="M73 1l31.722 26.604 14.784 2.717z" transform="translate(235 81)"/><path d="M106.073 27.087l13.36 2.713c-12.158 26.88-19.234 46.252-21.228 58.115-1.995 11.863-1.529 27.173 1.397 45.93l-8.478-4.912c-4.481-14.1-5.168-31.378-2.061-51.833 3.107-20.456 8.777-37.127 17.01-50.013z" fill="url(#k)" transform="matrix(-1 0 0 1 163 81)"/><path d="M8.178 25l-7.12-.516c-.552 14.861 2.874 28.161 10.28 39.9 7.405 11.739 17.205 21.226 29.4 28.46l10.604-8.756c-12.768-3.775-22.86-10.342-30.275-19.704C13.653 55.023 9.357 41.894 8.178 25z" fill="url(#l)" transform="translate(110.658 81)"/><path fill="url(#m)" d="M43.982 25.034L73.363.868l-23.946 23.81z" transform="matrix(-1 0 0 1 163 81)"/><path d="M.928 87.803c16.302-5.796 28.155-13.572 35.559-23.328 7.403-9.756 11.508-23.01 12.315-39.76 6.564-5.525 11.47-9.883 14.717-13.074C66.765 8.45 70.107 4.702 73.544.397c9.61 8.295 17.155 14.644 22.637 19.046 5.483 4.403 9.089 7.009 10.818 7.818-8.039 16.752-13.202 32.58-15.49 47.481-2.29 14.902-2.29 32.697 0 53.386-6.675-3.047-16.005-3.864-27.99-2.45-11.985 1.412-28.13 6.013-48.435 13.802L.928 87.803z" fill="url(#n)" transform="matrix(-1 0 0 1 163 81)"/><path d="M12.748 104.473c13.04-8.971 23.338-19.199 30.895-30.683 7.557-11.485 12.97-25.281 16.24-41.39l12.9-22.537c4.626 2.795 7.89 4.936 9.795 6.425 1.905 1.49 6.042 5.135 12.413 10.936-.013 5.966-1.904 14.564-5.674 25.794-3.77 11.23-10.407 22.169-19.912 32.818l-6.285 2.19c-6.383 1.266-10.217 2.861-11.501 4.785-1.284 1.925-2.23 5.812-2.838 11.662h2.303c-1.917 7.627-7.897 13.802-17.94 18.524-10.044 4.722-19.272 5.698-27.684 2.927l7.288-21.451z" fill="url(#o)" transform="matrix(-1 0 0 1 163 81)"/><path d="M90.28 32.253c3.366 9.135 4.494 14.435 2.69 15.994-1.803 1.56-12.472-3.98-19.062-8.017-4.394-2.69-8.696-6.19-12.908-10.497 4.08-4.906 7.419-8.358 10.017-10.355 2.598-1.997 6.08-3.79 10.447-5.378 3.633 6.079 6.571 12.163 8.816 18.253z" fill="url(#p)" transform="translate(8.176 81)"/><path d="M80.704 111.143c-.893-1.378.707-2.84 1.542-3.554.836-.713 2.787-2.733 4.675-.721 1.89 2.01 6.357 9.331 4.728 10.451-1.629 1.12-10.053-4.797-10.945-6.176z" fill="#674930"/><path d="M77.685 106.91c-11.662-11.136-19.812-20.015-24.45-26.639-6.959-9.935-5.674-13.87-10.271-19.015-4.598-5.145-7.856-4.767-13.588-7.686a119.304 119.304 0 0 0-11.691-5.19c2.907 14.285 5.202 23.436 6.887 27.454 2.527 6.027 6.707 9.813 8.74 9.813 2.032 0 4.476-1.116 7.474.41 2.997 1.527 6.091 3.972 7.475 8.025.923 2.702 1.617 6.213 2.082 10.533h-2.658c2.6 4.808 5.235 8.417 7.908 10.826 2.673 2.409 5.83 4.02 9.468 4.833-3.887-2.702-6.757-6.227-8.61-10.575-2.779-6.522.246-6.918-3.217-15.617-3.463-8.699-5.23-10.351-9.333-13.81-4.104-3.46-4.558 3.089-10.59-2.986-4.02-4.049-6.933-10.107-8.739-18.174 4.78-1.276 9.73.627 14.848 5.709 7.678 7.622 1.523 8.903 12.736 21.236a111.102 111.102 0 0 0 25.529 20.853z" fill="url(#q)" transform="rotate(-2 2401.743 -1812.433)"/><path fill="url(#r)" d="M73 1l31.722 26.604 14.784 2.717z" transform="matrix(-1 0 0 1 163 81)"/><path d="M326.611 208.587c-9.058-2.154-16.983-3.082-23.776-2.786-6.793.296-13.465 1.86-20.017 4.694v7.348c4.602-3.148 11.274-5.028 20.017-5.64 8.743-.61 19.199.072 31.367 2.048l-7.59-5.664z" fill="url(#s)"/><path fill="url(#t)" d="M233.236 161.77l15.63 11.819v12.148l6.498 15.022-14.12 8.566-20.464-25.236z"/><path fill="url(#t)" transform="matrix(-1 0 0 1 326.583 0)" d="M158.456 162l15.63 11.82v12.147l6.497 15.023-14.119 8.565L146 184.32z"/><path fill="url(#u)" d="M209.126 184.903l3.134-70.072 31.087 33.146-13.512 43.977z"/><path fill="url(#u)" transform="matrix(-1 0 0 1 354.22 0)" d="M160 185.071L163.134 115l31.087 33.146-13.513 43.976z"/><path d="M216.555 171.566c.692-9.885 1.038-17.361 1.038-22.43 0-5.068-.346-10.614-1.038-16.638 5.1 5.012 8.863 8.873 11.29 11.583 2.427 2.71 4.495 5.36 6.204 7.951-1.775 4.892-3.014 8.62-3.715 11.183-.7 2.565-2.378 7.037-5.032 13.417l-8.747-5.066z" fill="url(#v)"/><path d="M168 171.068c.692-9.885 1.039-17.362 1.039-22.43 0-5.068-.347-10.614-1.039-16.638 5.1 5.012 8.863 8.872 11.29 11.583 2.427 2.71 4.495 5.36 6.204 7.951-1.775 4.891-3.013 8.62-3.714 11.183-.701 2.564-2.379 7.037-5.033 13.417L168 171.068z" fill="url(#v)" transform="matrix(-1 0 0 1 353.494 0)"/><path d="M256.449 205.966c4.559-1.655 9.55-3.644 14.975-5.966a407.501 407.501 0 0 0 16.433-7.478c-.968 9.31-2.342 16.638-4.123 21.987-1.781 5.348-4.462 9.434-8.042 12.258-8.603.88-15.018 1.41-19.243 1.593-4.226.183-10.12.183-17.684 0l8.144-17.198 9.54-5.196z" fill="url(#w)"/><path d="M131.683 208.444c4.56-1.655 9.551-3.644 14.976-5.966A407.502 407.502 0 0 0 163.092 195c-.968 9.31-2.343 16.638-4.124 21.987-1.78 5.348-4.461 9.434-8.042 12.257-8.603.88-15.017 1.412-19.243 1.594-4.226.182-10.12.182-17.683 0l8.144-17.198 9.54-5.196z" fill="url(#w)" transform="matrix(-1 0 0 1 277.092 0)"/><path d="M11.982 45.804c2.901.818 5.142 1.326 6.723 1.522 1.58.196 4.947.196 10.1 0-3.062 4.013-5.45 6.862-7.161 8.548-1.712 1.687-3.956 3.398-6.73 5.134-2.85-1.818-4.819-3.14-5.91-3.965-1.091-.825-3.945-3.571-8.562-8.24l11.54-3zM25.713 27.01c1.545-.136 3.455-.628 5.73-1.474 2.274-.847 5.12-2.126 8.537-3.838-1.188 5.236-2.554 9.7-4.098 13.388-1.545 3.688-3.338 6.818-5.38 9.389-4.08-.357-6.987-.825-8.72-1.404a94.41 94.41 0 0 1-5.855-2.202l9.786-13.86zm.025-14.774c2.431-.7 4.643-1.722 6.634-3.065 1.992-1.344 4.604-4.222 7.836-8.636 1.057 4.289 1.502 8.016 1.335 11.183-.168 3.167-.965 5.853-2.392 8.057-2.972 1.713-5.232 2.814-6.779 3.303-1.547.489-5.658 1.4-12.334 2.735l5.7-13.577z" transform="translate(216 195)" fill="url(#x)"/><path d="M11.982 45.804c2.901.818 5.142 1.326 6.723 1.522 1.58.196 4.947.196 10.1 0-3.062 4.013-5.45 6.862-7.161 8.548-1.712 1.687-3.956 3.398-6.73 5.134-2.85-1.818-4.819-3.14-5.91-3.965-1.091-.825-3.945-3.571-8.562-8.24l11.54-3zM25.713 27.01c1.545-.136 3.455-.628 5.73-1.474 2.274-.847 5.12-2.126 8.537-3.838-1.188 5.236-2.554 9.7-4.098 13.388-1.545 3.688-3.338 6.818-5.38 9.389-4.08-.357-6.987-.825-8.72-1.404a94.41 94.41 0 0 1-5.855-2.202l9.786-13.86zm.025-14.774c2.431-.7 4.643-1.722 6.634-3.065 1.992-1.344 4.604-4.222 7.836-8.636 1.057 4.289 1.502 8.016 1.335 11.183-.168 3.167-.965 5.853-2.392 8.057-2.972 1.713-5.232 2.814-6.779 3.303-1.547.489-5.658 1.4-12.334 2.735l5.7-13.577z" transform="matrix(-1 0 0 1 184 195)" fill="url(#x)"/><path d="M199.765 251.238c24.723 0 44.766-18.16 44.766-40.56 0-13.308-7.074-25.12-18-32.515-.996-.675-2.159-7.062-3.487-19.163-7.454 11.52-11.638 17.908-12.554 19.163-4.135 5.665-4.791 10.64-10.595 10.64-4.847 0-8.218-8.447-10.461-12.522-.385-.7-4.363-6.46-11.933-17.281 1.084 10.423 1.084 15.917 0 16.482C164.055 182.48 155 195.62 155 210.678c0 22.4 20.042 40.56 44.765 40.56z" fill="url(#y)"/><path fill="url(#z)" d="M199.885 159.282h2.296l6.691-10.462v10.462l-5.398 4.113-1.293 4.351 3.382-4.35 17.545-6.082-5.642 9.028-6.874 1.404-1.72 3.557 5.545-1.636v3.857h-5.545l-3.31 7.961 2.038 3.188h-7.715z"/><path fill="url(#z)" transform="matrix(-1 0 0 1 376.792 0)" d="M176.785 159.275h2.295l6.692-10.462v10.462l-5.398 4.113-1.294 4.351 3.382-4.35 17.546-6.082-5.642 9.029-6.874 1.403-1.72 3.557 5.545-1.636v3.857h-5.545l-3.31 7.961 2.037 3.188h-7.714z"/><ellipse fill="url(#A)" cx="200" cy="212.5" rx="30" ry="28.5"/></g></svg>