<svg width="400" height="400" viewBox="0 0 400 400" xmlns="http://www.w3.org/2000/svg" xmlns:xlink="http://www.w3.org/1999/xlink"><title>platinum</title><defs><linearGradient x1="56.628%" y1="22.958%" x2="79.345%" y2="89.232%" id="b"><stop stop-color="#377070" offset="0%"/><stop stop-color="#294C4C" offset="100%"/></linearGradient><path d="M26.234 22.016c10.36-4.121 19.23-7.783 26.607-10.985C60.22 7.828 68.076 4.23 76.411.237c-3.211 19.583-6.879 34.84-11.003 45.77-4.123 10.93-8.312 19.72-12.567 26.369-12.307-2.772-20.766-4.925-25.377-6.46-4.611-1.535-13.63-5.198-27.054-10.991l25.824-32.91z" id="a"/><linearGradient x1="50%" y1="100%" x2="213.379%" y2="-32.986%" id="c"><stop stop-color="#A3B0A8" offset="0%"/><stop stop-color="#95AC9E" offset="42.369%"/><stop stop-color="#F1F3F2" offset="100%"/></linearGradient><linearGradient x1="50%" y1="0%" x2="50%" y2="100%" id="e"><stop stop-color="#4E6F5C" offset="0%"/><stop stop-color="#263C2F" offset="100%"/></linearGradient><path d="M26.234 22.016c10.36-4.121 19.23-7.783 26.607-10.985C60.22 7.828 68.076 4.23 76.411.237c-3.211 19.583-6.879 34.84-11.003 45.77-4.123 10.93-8.312 19.72-12.567 26.369-12.307-2.772-20.766-4.925-25.377-6.46-4.611-1.535-13.63-5.198-27.054-10.991l25.824-32.91z" id="f"/><path d="M.838 89.832C22.976 77.97 41.051 65.007 55.063 50.944 69.076 36.881 80.737 20.001 90.047.303c17.17 16.308 27.242 33.912 30.215 52.812 2.972 18.9-1.238 38.568-12.63 59-13.814 9.983-31.337 17.095-52.569 21.337-21.231 4.242-39.306 4.242-54.225 0v-43.62z" id="h"/><linearGradient x1="72.495%" y1="57.945%" x2="60.338%" y2="37.649%" id="i"><stop stop-color="#667B6E" offset="0%"/><stop stop-color="#F1F3F2" offset="100%"/></linearGradient><path d="M.838 89.832C22.976 77.97 41.051 65.007 55.063 50.944 69.076 36.881 80.737 20.001 90.047.303c17.17 16.308 27.242 33.912 30.215 52.812 2.972 18.9-1.238 38.568-12.63 59-13.814 9.983-31.337 17.095-52.569 21.337-21.231 4.242-39.306 4.242-54.225 0v-43.62z" id="k"/><linearGradient x1="50%" y1="111.135%" x2="53.095%" y2="57.502%" id="m"><stop stop-color="#23352B" offset="0%"/><stop stop-color="#264333" offset="100%"/></linearGradient><linearGradient x1="113.819%" y1="113.691%" x2="6.414%" y2="13.035%" id="n"><stop stop-color="#517270" offset="0%"/><stop stop-color="#283E3D" offset="100%"/></linearGradient><linearGradient x1="108.711%" y1="100%" x2="-10.843%" y2="29.911%" id="o"><stop stop-color="#ADCECD" offset="0%"/><stop stop-color="#75A09F" offset="100%"/></linearGradient><linearGradient x1="26.628%" y1="19.207%" x2="71.481%" y2="64.067%" id="p"><stop stop-color="#789A88" offset="0%"/><stop stop-color="#436150" offset="100%"/></linearGradient><linearGradient x1="114.46%" y1="131.932%" x2="0%" y2="-24.628%" id="q"><stop stop-color="#354E40" offset="0%"/><stop stop-color="#18261E" offset="100%"/></linearGradient><linearGradient x1="50%" y1="-15.763%" x2="50%" y2="100%" id="r"><stop stop-color="#86B5A6" offset="0%"/><stop stop-color="#315448" offset="100%"/></linearGradient><linearGradient x1="-30.351%" y1="20.286%" x2="50%" y2="100%" id="s"><stop stop-color="#9AD4D7" offset="0%"/><stop stop-color="#61AAAE" offset="100%"/></linearGradient><linearGradient x1="50%" y1="0%" x2="50%" y2="100%" id="t"><stop stop-color="#786C36" offset="0%"/><stop stop-color="#433A19" offset="100%"/></linearGradient><linearGradient x1="104.099%" y1="18.943%" x2="7.482%" y2="87.085%" id="u"><stop stop-color="#A1B7BF" offset="0%"/><stop stop-color="#435B65" offset="100%"/></linearGradient><linearGradient x1="105.598%" y1="-2.736%" y2="106.786%" id="v"><stop stop-color="#A6B8BE" offset="0%"/><stop stop-color="#346565" offset="100%"/></linearGradient><linearGradient x1="50%" y1="0%" x2="50%" y2="100%" id="w"><stop stop-color="#868156" offset="0%"/><stop stop-color="#4E4A2B" offset="100%"/></linearGradient><linearGradient x1="50%" y1="0%" x2="50%" y2="188.426%" id="x"><stop stop-color="#79BCBF" offset="0%"/><stop stop-color="#243B3B" offset="100%"/></linearGradient><linearGradient x1="77.545%" y1="100%" x2="17.391%" y2="0%" id="y"><stop stop-color="#786C36" offset="0%"/><stop stop-color="#433A19" offset="100%"/></linearGradient><linearGradient x1="76.811%" y1="85.524%" x2="24.037%" y2="-17.693%" id="z"><stop stop-color="#786C36" offset="0%"/><stop stop-color="#433A19" offset="100%"/></linearGradient></defs><g fill="none" fill-rule="evenodd"><g transform="translate(255 169)"><mask id="d" fill="#fff"><use xlink:href="#a"/></mask><use fill="url(#b)" xlink:href="#a"/><path d="M55.265-10.23l-8.69 3.577c7.506 18.329 13.13 35.707 16.869 52.133 3.739 16.426 4.707 30.786 2.906 43.078l6.401.53-1.987-66.535L55.265-10.23z" fill="url(#c)" mask="url(#d)" transform="rotate(32 59.663 39.429)"/><path d="M9.55 72.765c10.921-4.28 19.867-7.983 26.838-11.107 6.97-3.125 11.78-5.415 14.427-6.872h11.953l-18.549 17.98L9.551 83.612V72.765z" fill="url(#e)" mask="url(#d)" transform="rotate(32 36.16 69.2)"/></g><g transform="matrix(-1 0 0 1 144 171)"><mask id="g" fill="#fff"><use xlink:href="#f"/></mask><use fill="url(#b)" xlink:href="#f"/><path d="M55.265-10.23l-8.69 3.577c7.506 18.329 13.13 35.707 16.869 52.133 3.739 16.426 4.707 30.786 2.906 43.078l6.401.53-1.987-66.535L55.265-10.23z" fill="url(#c)" mask="url(#g)" transform="rotate(32 59.663 39.429)"/><path d="M9.55 72.765c10.921-4.28 19.867-7.983 26.838-11.107 6.97-3.125 11.78-5.415 14.427-6.872h11.953l-18.549 17.98L9.551 83.612V72.765z" fill="url(#e)" mask="url(#g)" transform="rotate(32 36.16 69.2)"/></g><g transform="translate(223 51)"><mask id="j" fill="#fff"><use xlink:href="#h"/></mask><use fill="url(#b)" xlink:href="#h"/><path d="M89-4.76c.312 2.702 1.009 5.784 2.09 9.244 1.08 3.46 1.888 6.61 2.42 9.447-8.252 14.933-19.627 28.598-34.126 40.994-14.5 12.396-29.26 23.634-44.282 33.714l-31.14 2.365c41.203-23.811 67.054-40.517 77.551-50.117C72.011 31.287 81.173 16.072 89-4.76z" fill="url(#i)" mask="url(#j)"/><path d="M87.573-2.289l6.309 16.566c10.915 13.2 17.098 27.886 18.55 44.057 1.451 16.17-1.197 33.09-7.943 50.757l15.76-7.874 5.089-77.525-37.765-25.98z" fill="url(#c)" mask="url(#j)"/><path d="M62.3 121.845c10.922-4.28 19.867-7.983 26.838-11.108 6.97-3.124 11.78-5.415 14.427-6.871h11.953L96.97 121.845 62.3 132.693v-10.848z" fill="url(#e)" mask="url(#j)"/></g><g transform="matrix(-1 0 0 1 176 51)"><mask id="l" fill="#fff"><use xlink:href="#k"/></mask><use fill="url(#b)" xlink:href="#k"/><path d="M89-4.76c.312 2.702 1.009 5.784 2.09 9.244 1.08 3.46 1.888 6.61 2.42 9.447-8.252 14.933-19.627 28.598-34.126 40.994-14.5 12.396-29.26 23.634-44.282 33.714l-31.14 2.365c41.203-23.811 67.054-40.517 77.551-50.117C72.011 31.287 81.173 16.072 89-4.76z" fill="url(#i)" mask="url(#l)"/><path d="M87.573-2.289l6.309 16.566c10.915 13.2 17.098 27.886 18.55 44.057 1.451 16.17-1.904 32.992-10.066 50.466l17.883-7.583 5.089-77.525-37.765-25.98z" fill="url(#c)" mask="url(#l)"/><path d="M62.3 121.845c10.922-4.28 19.867-7.983 26.838-11.108 6.97-3.124 11.78-5.415 14.427-6.871h11.953L96.97 121.845 62.3 132.693v-10.848z" fill="url(#e)" mask="url(#l)"/></g><path d="M184.406 201.8l6.443 39.5-44.957 33.5v-73h38.514zm-75.964.399h37.45v71.94L102 241.697l6.442-39.499z" fill="url(#m)" transform="translate(54 51)"/><path d="M25.94 17.62l16.707 26.5L23.54 63.986 2.352 40.804.536.61 25.94 17.62z" fill="url(#n)" transform="translate(229 236)"/><path fill="url(#o)" d="M28.728 24.6l13.56 20.794 11.225 5.368-19.756-31.534z" transform="translate(229 236)"/><path fill="url(#p)" d="M42.166 44.413l-18.41 18.793v16.496l29.928-28.96z" transform="translate(229 236)"/><path d="M25.94 17.62l16.707 26.5L23.54 63.986 2.352 40.804.536.61 25.94 17.62z" fill="url(#n)" transform="matrix(-1 0 0 1 171 236)"/><path fill="url(#o)" d="M28.728 24.6l13.56 20.794 11.225 5.368-19.756-31.534z" transform="matrix(-1 0 0 1 171 236)"/><path fill="url(#p)" d="M42.166 44.413l-18.41 18.793v16.496l29.928-28.96z" transform="matrix(-1 0 0 1 171 236)"/><path fill="url(#q)" transform="matrix(-1 0 0 1 257.576 51)" d="M97.854 235.288l12.373 12.584v16.722L93.35 235.288z"/><path fill="url(#q)" d="M186.531 235.604l12.374 12.584v16.722l-16.879-29.306z" transform="translate(54 51)"/><path d="M146.107 59.138c7.174 4.074 13.441 9.952 18.801 17.635 8.045 11.533 16.269 25.272 10.497 37.948-3.847 8.45-13.618 9.575-29.31 3.375v-.01c-15.687 6.194-25.453 5.068-29.299-3.38-5.771-12.676 2.452-26.416 10.497-37.948 5.363-7.688 11.635-13.569 18.814-17.642v.022z" fill="url(#r)" transform="translate(54 51)"/><path d="M146.01 65.421c5.577 3.622 10.449 8.85 14.616 15.682 6.253 10.256 12.646 22.474 8.16 33.746-2.991 7.514-10.586 8.515-22.786 3v-.008c-12.194 5.509-19.786 4.507-22.776-3.006-4.486-11.272 1.907-23.49 8.16-33.745 4.17-6.837 9.045-12.067 14.626-15.689v.02z" fill="url(#s)" transform="translate(54 51)"/><path d="M200.262 309.989v.784l43.818-25.844-9.632-35.743-34.186 4.593v.063l-36.545-6.224-8.486 37.072 45.031 25.299z" fill="#7C7041"/><path d="M179.238 201.8l5.56 26.407L146 250.603V201.8h33.238zm-65.557.267H146v48.094l-37.879-21.688 5.56-26.406z" fill="url(#t)" transform="translate(54 51)"/><path d="M193.688 104.398c5.203-5.519 9.597-14.651 13.182-27.398 10.11 4.582 18.081 11.467 23.914 20.655 5.833 9.188 9.364 20.422 10.593 33.701.124 15.111-.664 25.727-2.364 31.848-1.7 6.12-5.32 11.38-10.863 15.775l1.799 6.231c-2.88 5.77-6.363 10.866-10.452 15.289-4.088 4.422-10.747 9.159-19.977 14.209-.755-4.986-1.633-8.58-2.634-10.78-1-2.2-2.975-4.883-5.924-8.047-8.926 6.14-15.855 10.535-20.788 13.181-4.933 2.647-12.991 6.294-24.174 10.94V97.656c8.502 1.196 14.674 2.9 18.515 5.111 3.84 2.212 8.46 7.732 13.856 16.562 5.009-4.435 10.115-9.412 15.317-14.93z" fill="url(#u)" transform="translate(54 51)"/><path d="M98.688 104.398c5.203-5.519 9.597-14.651 13.182-27.398 10.11 4.582 18.081 11.467 23.914 20.655 5.833 9.188 9.364 20.422 10.593 33.701.124 15.111-.664 25.727-2.364 31.848-1.7 6.12-5.32 11.38-10.863 15.775l1.799 6.231c-2.88 5.77-6.363 10.866-10.452 15.289-4.088 4.422-10.747 9.159-19.977 14.209-.755-4.986-1.633-8.58-2.634-10.78-1-2.2-2.975-4.883-5.924-8.047-8.926 6.14-15.855 10.535-20.788 13.181-4.933 2.647-12.991 6.294-24.174 10.94V97.656c8.502 1.196 14.674 2.9 18.515 5.111 3.84 2.212 8.46 7.732 13.856 16.562 5.009-4.435 10.115-9.412 15.317-14.93z" fill="url(#u)" transform="matrix(-1 0 0 1 251.39 51)"/><path d="M189.857 119.871c5.77-3.258 9.785-5.89 12.043-7.893 2.26-2.004 4.587-5 6.984-8.988 5.287 3.737 9.013 8.083 11.176 13.037 2.164 4.954 2.93 10.896 2.3 17.824-5.943 4.715-10.435 7.995-13.476 9.839-3.042 1.844-8.413 4.545-16.114 8.103l-2.913-31.922z" fill="url(#t)" transform="translate(54 51)"/><path d="M70 116.881c5.77-3.258 9.784-5.89 12.043-7.893 2.259-2.004 4.586-5 6.983-8.988 5.288 3.737 9.013 8.083 11.177 13.037 2.163 4.954 2.93 10.895 2.3 17.824-5.943 4.715-10.435 7.995-13.477 9.839-3.041 1.844-8.412 4.545-16.113 8.103L70 116.88z" fill="url(#t)" transform="matrix(-1 0 0 1 226.716 51)"/><path d="M191.527 155.89c6.724-2.2 12.495-4.498 17.312-6.89 4.818-2.392 9.506-5.289 14.064-8.69 1.73 7.271 2.596 12.73 2.596 16.378 0 3.648-.865 8.36-2.596 14.138-8.344 1.277-14.391 2.023-18.142 2.24-3.75.215-10.663.215-20.738 0l7.504-17.175z" fill="url(#t)" transform="translate(54 51)"/><path d="M73.504 155.58c6.724-2.202 12.495-4.498 17.312-6.89 4.818-2.393 9.506-5.29 14.064-8.69 1.73 7.27 2.596 12.73 2.596 16.377 0 3.648-.865 8.36-2.596 14.138-8.344 1.277-14.391 2.024-18.142 2.24-3.75.216-10.663.216-20.738 0l7.504-17.175z" fill="url(#t)" transform="matrix(-1 0 0 1 227.476 51)"/><path d="M146.055 100.545c-9.549 3.617-16.537 7.116-20.966 10.497-4.43 3.38-7.85 6.864-10.26 10.45-2.681-1.46-5.29-3.768-7.826-6.922-2.536-3.154-5.118-7.302-7.745-12.445-4.542 15.326-6.731 27.628-6.569 36.904.244 13.913 1.232 23.093 18.663 42.202 11.621 12.74 23.189 18.58 34.703 17.525v-98.21z" fill="url(#v)" transform="translate(54 51)"/><path d="M146 100.527c9.548 3.617 16.537 7.116 20.966 10.496 4.43 3.381 7.849 6.864 10.26 10.45 2.68-1.46 5.29-3.768 7.826-6.922 2.535-3.153 5.117-7.302 7.745-12.445 4.541 15.327 6.73 27.628 6.568 36.904-.243 13.913-1.23 23.094-18.662 42.202-11.621 12.74-23.189 18.581-34.703 17.526v-98.211z" fill="url(#v)" transform="translate(54 51)"/><path d="M146.06 191.834c10.97-2.398 19.014-5.82 24.13-10.27 7.686-6.683 13.176-11.497 17.438-29.035 2.842-11.692 2.842-21.915 0-30.67-2.77 3.026-4.765 4.812-5.984 5.358-1.22.545-3.216.545-5.988 0-3.366-6.636-7.09-11.288-11.171-13.957-4.082-2.67-10.244-4.48-18.485-5.436v.1c-8.212.957-14.353 2.767-18.426 5.43-4.081 2.669-7.805 7.321-11.17 13.956-2.773.546-4.77.546-5.988 0-1.22-.545-3.215-2.331-5.985-5.357-2.841 8.755-2.841 18.978 0 30.67 4.262 17.538 9.752 22.351 17.439 29.035 5.124 4.457 13.187 7.884 24.19 10.283v-.107z" fill="url(#w)" transform="translate(54 51)"/><path d="M146.045 188.376l9.877-1.487c-1.815-8.097-2.723-14.564-2.723-19.401 0-4.838.908-9.883 2.723-15.136 4.944 3.67 8.75 8.13 11.422 13.383 2.67 5.252 3.588 10.05 2.753 14.397 5.94-6.888 10.086-13.007 12.44-18.356 2.354-5.349 2.934-9.566 1.738-12.65-1.224 3.067-2.224 5.103-3 6.11-1.164 1.51-3.15 3.672-4.953 2.582-1.802-1.09-11.425-11.334-14.229-14.184-1.87-1.9-5.102-5.531-9.698-10.896 2.333-8.416 2.795-14.31 1.386-17.681-1.409-3.371-4.003-5.057-7.781-5.057-3.754.016-6.332 1.702-7.736 5.06-1.409 3.371-.947 9.265 1.386 17.681-4.596 5.364-7.828 8.996-9.698 10.896-2.804 2.85-12.427 13.093-14.229 14.183-1.802 1.09-3.788-1.07-4.953-2.581-.776-1.007-1.776-3.044-3-6.11-1.195 3.084-.616 7.3 1.738 12.65 2.354 5.35 6.5 11.468 12.44 18.356-.835-4.346.083-9.146 2.754-14.398 2.67-5.251 6.478-9.712 11.422-13.382 1.815 5.253 2.722 10.298 2.722 15.135 0 4.838-.907 11.305-2.722 19.402l9.876 1.487.014.002.031.005v-.01z" fill="url(#x)" transform="translate(54 51)"/><path d="M185.944 177.826c6.848 1.164 12.976 1.745 18.382 1.745 5.407 0 10.883-.581 16.43-1.745-3.797 4.745-6.767 8.328-8.911 10.75-2.145 2.422-4.976 5.393-8.495 8.91-2.898-7.082-5.366-11.773-7.403-14.074s-5.371-4.163-10.003-5.586z" fill="url(#y)" transform="translate(54 51)"/><path d="M73 177c6.848 1.164 12.975 1.745 18.382 1.745 5.407 0 10.883-.581 16.43-1.745-3.797 4.745-6.767 8.328-8.912 10.75-2.144 2.422-4.975 5.393-8.494 8.91-2.898-7.082-5.366-11.773-7.403-14.074S77.632 178.423 73 177z" fill="url(#z)" transform="matrix(-1 0 0 1 234.812 51)"/></g></svg>