<svg width="400" height="400" viewBox="0 0 400 400" xmlns="http://www.w3.org/2000/svg" xmlns:xlink="http://www.w3.org/1999/xlink"><title>silver</title><defs><linearGradient x1="66.053%" y1="66.782%" x2="16.933%" y2="0%" id="a"><stop stop-color="#3F4E47" offset="0%"/><stop stop-color="#2A2B0F" offset="100%"/></linearGradient><linearGradient x1="31.03%" y1="38.308%" x2="78.682%" y2="94.292%" id="b"><stop stop-color="#AEBDB3" offset="0%"/><stop stop-color="#5B6F69" offset="100%"/></linearGradient><linearGradient x1="50%" y1="96.921%" x2="48.197%" y2="-14.694%" id="c"><stop stop-color="#778982" offset="0%"/><stop stop-color="#A9B8B1" offset="0%"/><stop stop-color="#4D5641" offset="100%"/></linearGradient><linearGradient x1="50%" y1="0%" x2="50%" y2="100%" id="d"><stop stop-color="#3E3F22" offset="0%"/><stop stop-color="#43441E" offset="100%"/></linearGradient><linearGradient x1="50%" y1="96.921%" x2="48.197%" y2="-14.694%" id="e"><stop stop-color="#778982" offset="0%"/><stop stop-color="#768880" offset="0%"/><stop stop-color="#4D5641" offset="100%"/></linearGradient><linearGradient x1="50%" y1="96.921%" x2="48.197%" y2="-14.694%" id="f"><stop stop-color="#778982" offset="0%"/><stop stop-color="#9DB1A9" offset="0%"/><stop stop-color="#4D5641" offset="100%"/></linearGradient><linearGradient x1="50%" y1="0%" x2="50%" y2="100%" id="g"><stop stop-color="#2C2D13" offset="0%"/><stop stop-color="#43441E" offset="100%"/></linearGradient><linearGradient x1="77.315%" y1="18.198%" x2="58.843%" y2="107.719%" id="h"><stop stop-color="#73817B" offset="0%"/><stop stop-color="#404E47" offset="100%"/></linearGradient><linearGradient x1="50%" y1="0%" x2="50%" y2="100%" id="i"><stop stop-color="#D9E0DD" offset="0%"/><stop stop-color="#B1BEB8" offset="100%"/></linearGradient><linearGradient x1="50%" y1="0%" x2="50%" y2="100%" id="j"><stop stop-color="#E0E6E3" offset="0%"/><stop stop-color="#84968E" offset="100%"/></linearGradient><linearGradient x1="50%" y1="0%" x2="50%" y2="100%" id="k"><stop stop-color="#EFFCF6" offset="0%"/><stop stop-color="#ADC0B8" offset="100%"/></linearGradient><linearGradient x1="50%" y1="0%" x2="50%" y2="100%" id="l"><stop stop-color="#E5ECE6" offset="0%"/><stop stop-color="#C7D5C8" offset="100%"/></linearGradient><linearGradient x1="50%" y1="0%" x2="50%" y2="100%" id="m"><stop stop-color="#999666" offset="0%"/><stop stop-color="#605D36" offset="100%"/></linearGradient><linearGradient x1="50%" y1="0%" x2="50%" y2="100%" id="n"><stop stop-color="#5B6B5F" offset="0%"/><stop stop-color="#2E372E" offset="100%"/></linearGradient><ellipse id="o" cx="158.703" cy="129.316" rx="51.703" ry="47.316"/><linearGradient x1="50%" y1="0%" x2="50%" y2="154.286%" id="q"><stop stop-color="#787646" offset="0%"/><stop stop-color="#342F17" offset="100%"/></linearGradient><ellipse id="p" cx="159.5" cy="130.5" rx="44.5" ry="41.5"/><linearGradient x1="50%" y1="0%" x2="50%" y2="100%" id="r"><stop stop-color="#D7E0C7" offset="0%"/><stop stop-color="#AABFAA" offset="100%"/></linearGradient><linearGradient x1="50%" y1="0%" x2="50%" y2="100%" id="t"><stop stop-color="#D7E0C7" offset="0%"/><stop stop-color="#A1B9A4" offset="100%"/></linearGradient><linearGradient x1="50%" y1="0%" x2="50%" y2="100%" id="u"><stop stop-color="#E0E7D5" offset="0%"/><stop stop-color="#A9BFA9" offset="100%"/></linearGradient><linearGradient x1="50%" y1="0%" x2="50%" y2="100%" id="v"><stop stop-color="#DDE5D2" offset="0%"/><stop stop-color="#ACC1AB" offset="100%"/></linearGradient><linearGradient x1="50%" y1="0%" x2="50%" y2="100%" id="w"><stop stop-color="#DFE6D2" offset="0%"/><stop stop-color="#AEC2AD" offset="100%"/></linearGradient></defs><g transform="translate(41 53)" fill="none" fill-rule="evenodd"><path d="M224.579 137.663c23.943 2.08 39.103 3.29 45.48 3.627 6.376.338 14.018.338 22.923 0-3.31 4.484-6.697 8.547-10.162 12.188a108.175 108.175 0 0 1-11.092 10.141v4.703c-6.504 2.01-10.79 3.126-12.86 3.347-2.07.222-4.89.222-8.458 0 .886 1.602.363 4.684-1.567 9.248-1.931 4.563-4.55 8.908-7.86 13.033-9.142 3.601-15.9 6.587-20.273 8.96-4.374 2.371-9.947 6.072-16.72 11.102l-11.78-3.31-28.804 69.876-2.05-55.77 26.032-47.865 21.362-39.28h15.829z" fill="url(#a)"/><path d="M88.596 138c23.944 2.08 39.104 3.29 45.48 3.627 6.377.338 14.018.338 22.924 0-3.31 4.484-6.697 8.547-10.163 12.188a108.174 108.174 0 0 1-11.091 10.141v4.704c-6.504 2.01-10.791 3.125-12.861 3.346-2.07.222-4.89.222-8.458 0 .886 1.602.364 4.684-1.567 9.248-1.93 4.563-4.55 8.908-7.86 13.033-9.141 3.601-15.9 6.588-20.273 8.96-4.373 2.371-9.946 6.072-16.719 11.102l-11.781-3.31-28.803 69.876-2.05-55.77 26.032-47.865L72.768 138h15.828z" fill="url(#a)" transform="matrix(-1 0 0 1 182.374 0)"/><path fill="#161A10" d="M242.982 147.695h37.187l-5.427 3.715-40.904-.905zM75.187 145H38l5.427 3.715 40.904-.905zm158.957 13h37.187l-5.427 3.715L225 160.81zm-154.288 0H42.669l5.427 3.715L89 160.81zm139.288 10.285h37.187L250.904 172 210 171.095zM98.187 168H61l5.427 3.715 40.904-.905zm112.957 9h37.187l-5.427 3.715L202 179.81zm-102.957 3H71l5.427 3.715 40.904-.905z"/><path d="M202.619 72.89c6.902-.7 18.256-8.543 34.061-23.527 15.805-14.984 30.06-31.42 42.765-49.308 1.451 11.382 2.177 19.953 2.177 25.713 0 5.76-.726 10.721-2.177 14.886l-4.948 2.862 1.465 5.847 3.483 2.09c-.268 2.695-.495 4.687-.682 5.976-.187 1.29-.545 3.335-1.076 6.136h-3.19l1.465 9.324c-5.078 7.092-10.183 12.985-15.316 17.678-11.117 10.165-23.369 15.963-36.755 17.394L202.619 72.89z" fill="url(#b)"/><path d="M205.583 164.475l15.997 23.708-62.626 47.561v-66.621l46.63-4.648zM112.301 157l46.629 5.156v73.9L96 188.801 112.301 157z" fill="url(#c)"/><path d="M198.945 160.853l13.974 26.453-53.949 39.306v-61.47l39.975-4.289zm-79.97.288l39.974 4.288v61.47L105 187.594l13.975-26.452z" fill="url(#d)"/><path d="M159 212.7l42.292-28.7-11.233-19.603-31.33 7.463-.028-4.288-31.64-3.175L116 183.98l42.718 28.55v.36l.267-.182.015.01v-.02z" fill="url(#e)"/><path d="M159.354 95.302l42.292-28.699L190.412 47l-31.329 7.463-.028-4.288L127.415 47l-11.061 19.585 42.718 28.549v.36l.267-.181.015.01v-.02z" fill="url(#f)" transform="matrix(1 0 0 -1 0 142.494)"/><path d="M183.902 168.84l8.613 14.664-33.251 21.788v-34.074l24.638-2.377zm-49.289.16l24.638 2.377v34.075L126 183.663 134.613 169z" fill="url(#g)"/><path d="M183.902 59l8.613 14.663-33.251 21.789V61.377L183.902 59zm-49.289.16l24.638 2.377V95.61L126 73.823l8.613-14.664z" fill="url(#d)" transform="matrix(1 0 0 -1 0 154.611)"/><path d="M225.441 105.712c29.808-7.642 49.736-13.469 59.784-17.478 10.049-4.01 19.622-9.165 28.72-15.466-3.22 17.451-5.889 30.306-8.007 38.565-2.119 8.258-4.893 16.625-8.323 25.1-12.376 1.253-21.275 1.991-26.697 2.215-5.422.223-14.448.223-27.077 0l-18.4-32.936z" fill="url(#h)"/><path d="M.496 99.944C30.303 92.301 50.23 86.475 60.28 82.466 70.328 78.456 79.902 73.3 89 67c-3.22 17.45-5.89 30.306-8.008 38.565-2.118 8.258-4.893 16.625-8.323 25.1-12.376 1.253-21.275 1.991-26.697 2.214-5.422.224-14.447.224-27.077 0L.495 99.944z" fill="url(#h)" transform="matrix(-1 0 0 1 89.496 0)"/><path d="M210.193 136.627c13.606 3.004 22.712 4.741 27.317 5.212 4.605.47 10.833.47 18.685 0-2.952 3.946-5.366 6.83-7.242 8.65-1.877 1.822-3.802 3.15-5.776 3.983-8.12.63-14.064.944-17.831.944-3.767 0-11.902-.314-24.406-.944l9.253-17.845z" fill="url(#i)"/><path d="M70.625 138c13.606 3.004 22.712 4.741 27.317 5.212 4.605.47 10.833.47 18.685 0-2.951 3.946-5.365 6.83-7.242 8.65-1.877 1.822-3.802 3.15-5.775 3.983-8.121.63-14.065.944-17.832.944-3.767 0-11.902-.314-24.405-.944L70.625 138z" fill="url(#i)" transform="matrix(-1 0 0 1 178 0)"/><ellipse fill="url(#j)" cx="209.5" cy="163" rx="13.5" ry="11"/><ellipse fill="url(#k)" cx="209.528" cy="161.707" rx="5.528" ry="5.707"/><ellipse fill="url(#j)" cx="103.5" cy="163" rx="13.5" ry="11"/><ellipse fill="url(#k)" cx="103.528" cy="161.707" rx="5.528" ry="5.707"/><path d="M218.705 105.506c4.294.708 11.466-.422 21.514-3.39 10.049-2.969 19.622-6.786 28.72-11.45-3.22 12.92-5.889 22.437-8.007 28.552-2.119 6.114-4.893 12.309-8.323 18.583-12.377.928-21.276 1.475-26.697 1.64-5.422.165-14.448.165-27.077 0l19.87-33.935z" fill="url(#b)"/><path d="M27.996 74.834c6.902-.7 18.256-8.542 34.062-23.526C77.863 36.324 92.118 19.888 104.822 2 106.274 13.382 107 21.953 107 27.712c0 5.76-.726 10.722-2.178 14.887l-4.948 2.862 1.465 5.847 3.483 2.09c-.267 2.695-.494 4.687-.681 5.976-.187 1.29-.546 3.334-1.076 6.136h-3.19l1.464 9.324c-5.077 7.092-10.183 12.985-15.316 17.678-11.116 10.165-23.368 15.963-36.754 17.394L27.996 74.834z" fill="url(#b)" transform="matrix(-1 0 0 1 134.996 0)"/><path d="M65.446 100.84c4.295.71 11.466-.42 21.515-3.39 10.048-2.968 19.622-6.785 28.72-11.45-3.22 12.92-5.89 22.438-8.008 28.552-2.118 6.115-4.892 12.31-8.323 18.584-12.376.928-21.275 1.474-26.697 1.64-5.422.165-14.447.165-27.077 0l19.87-33.935z" fill="url(#b)" transform="matrix(-1 0 0 1 161.257 0)"/><path d="M178.058 96.911L203.4 67.055c15.087 13.12 23.54 25.773 25.358 37.96 1.818 12.186-2.602 26.562-13.26 43.129l-21.885 1.911-15.556-53.144z" fill="url(#l)"/><path d="M89 97.856L114.344 68c15.087 13.12 23.54 25.773 25.357 37.96 1.818 12.186-2.602 26.562-13.26 43.129L104.556 151 89 97.856z" fill="url(#l)" transform="matrix(-1 0 0 1 229.099 0)"/><path d="M179.738 99.64l22.499-27.069c13.393 11.895 20.897 23.367 22.51 34.416 1.615 11.049-2.31 24.083-11.77 39.103l-19.429 1.733-13.81-48.183z" fill="url(#m)"/><path d="M93 99.07L115.498 72c13.394 11.895 20.897 23.367 22.511 34.416 1.614 11.049-2.31 24.083-11.771 39.103l-19.428 1.733L93 99.069z" fill="url(#m)" transform="matrix(-1 0 0 1 231.362 0)"/><path d="M186.091 100.669l17.257-23.758c10.272 10.44 16.028 20.509 17.266 30.206 1.237 9.697-1.772 21.137-9.03 34.32l-14.9 1.52-10.593-42.288z" fill="url(#l)"/><path d="M98 100.758L115.256 77c10.273 10.44 16.028 20.509 17.266 30.206 1.238 9.697-1.771 21.137-9.028 34.32l-14.902 1.52L98 100.759z" fill="url(#l)" transform="matrix(-1 0 0 1 230.793 0)"/><use fill="url(#n)" xlink:href="#o"/><mask id="s" fill="#fff"><use xlink:href="#p"/></mask><use fill="url(#q)" xlink:href="#p"/><path d="M167.977 86.438c2.67 5.356 3.39 9.766 2.159 13.232-1.232 3.465-4.064 8.048-8.498 13.748l10.345 7.442c3.039-7.968 5.377-12.75 7.016-14.347 1.639-1.597 4.878-3.878 9.72-6.843-3.372-3.422-6.612-6.11-9.72-8.062-3.109-1.952-6.783-3.676-11.022-5.17z" fill="url(#r)" mask="url(#s)"/><path d="M135.338 86.754c2.671 5.355 3.39 9.766 2.16 13.231-1.232 3.466-4.065 8.049-8.498 13.749l10.345 7.442c3.038-7.968 5.377-12.75 7.016-14.348 1.638-1.597 4.878-3.878 9.72-6.843-3.372-3.422-6.612-6.11-9.72-8.061-3.109-1.953-6.783-3.676-11.023-5.17z" fill="url(#t)" mask="url(#s)" transform="matrix(-1 0 0 1 285.08 0)"/><path d="M188.627 106.772c-6.696 10.231-10.749 18.936-12.157 26.114-1.409 7.178-.979 16.935 1.29 29.271l10.867-6.127c-2.962-6.381-3.91-13.57-2.845-21.565 1.066-7.996 3.859-14.641 8.378-19.936l-5.533-7.757z" fill="url(#u)" mask="url(#s)"/><path d="M136.967 107c-6.697 10.231-10.75 18.936-12.158 26.114-1.408 7.178-.978 16.935 1.29 29.271l10.868-6.127c-2.963-6.381-3.911-13.57-2.845-21.565 1.066-7.996 3.858-14.641 8.377-19.936L136.967 107z" fill="url(#v)" mask="url(#s)" transform="matrix(-1 0 0 1 266.5 0)"/><path d="M159.03 139.72l-.03-.06v.12c-3.303 6.66-5.984 11.812-8.043 15.457-2.071 3.667-4.513 8.267-7.326 13.8 2.967 3.26 5.409 5.377 7.326 6.353 1.912.973 4.605 1.375 8.076 1.205 3.469.169 6.158-.233 8.07-1.206 1.917-.975 4.359-3.093 7.325-6.352-2.812-5.533-5.254-10.133-7.325-13.8-2.06-3.645-4.74-8.798-8.044-15.457v-.12l-.03.06z" fill="url(#w)" mask="url(#s)"/></g></svg>