<?xml version="1.0" encoding="UTF-8"?>
<svg width="702px" height="431px" viewBox="0 0 702 431" version="1.1" xmlns="http://www.w3.org/2000/svg" xmlns:xlink="http://www.w3.org/1999/xlink">
    <!-- Generator: Sketch 47 (45396) - http://www.bohemiancoding.com/sketch -->
    <title>frame</title>
    <desc>Created with Sketch.</desc>
    <defs>
        <rect id="path-1" x="415.065076" y="415.02043" width="8" height="8"></rect>
        <rect id="path-2" x="85.1518715" y="401.639672" width="5" height="5"></rect>
        <rect id="path-3" x="745.934029" y="403.849155" width="5" height="5"></rect>
    </defs>
    <g id="Page-1" stroke="none" stroke-width="1" fill="none" fill-rule="evenodd">
        <g id="iPhone-7-Copy-2" transform="translate(-23.000000, -524.000000)">
            <g id="frame" transform="translate(-44.000000, 524.000000)">
                <g id="Group">
                    <circle id="Oval-2" fill="#EFCB91" cx="282.5" cy="10.5" r="2.5"></circle>
                    <rect id="Rectangle-3" stroke="#F6D194" stroke-width="1.70000005" transform="translate(282.606602, 10.606602) rotate(45.000000) translate(-282.606602, -10.606602) " x="275.956602" y="3.95660174" width="13.3" height="13.3"></rect>
                    <rect id="Rectangle-3" stroke="#F6D194" stroke-width="0.5" transform="translate(282.500000, 10.500000) rotate(45.000000) translate(-282.500000, -10.500000) " x="278.25" y="6.25" width="8.5" height="8.5"></rect>
                    <circle id="Oval" fill="#F6D194" cx="204.5" cy="27.5" r="1.5"></circle>
                    <path d="M97.5,14 L275.881758,14" id="Line-2" stroke="#F6D194" stroke-width="2" stroke-linecap="square"></path>
                    <polyline id="Line" stroke="#F6D194" stroke-linecap="square" points="71.2450484 426.459701 68.1015675 426.459701 68.1015675 10.5 272.5 10.5"></polyline>
                    <polyline id="Path-2" stroke="#F6D194" stroke-width="2" points="228.605135 13.9694535 235.89115 4.14177692 278.976575 4.14177692"></polyline>
                    <rect id="Rectangle-4" fill="#F6D194" x="209" y="26" width="74" height="3"></rect>
                </g>
                <g id="Group" transform="translate(456.000000, 213.500000) scale(-1, 1) translate(-456.000000, -213.500000) translate(69.000000, 0.000000)">
                    <circle id="Oval-2" fill="#EFCB91" cx="282.5" cy="10.5" r="2.5"></circle>
                    <rect id="Rectangle-3" stroke="#F6D194" stroke-width="1.70000005" transform="translate(282.606602, 10.606602) rotate(45.000000) translate(-282.606602, -10.606602) " x="275.956602" y="3.95660174" width="13.3" height="13.3"></rect>
                    <rect id="Rectangle-3" stroke="#F6D194" stroke-width="0.5" transform="translate(282.500000, 10.500000) rotate(45.000000) translate(-282.500000, -10.500000) " x="278.25" y="6.25" width="8.5" height="8.5"></rect>
                    <circle id="Oval" fill="#F6D194" cx="204.5" cy="27.5" r="1.5"></circle>
                    <path d="M97.5,14 L275.881758,14" id="Line-2" stroke="#F6D194" stroke-width="2" stroke-linecap="square"></path>
                    <polyline id="Line" stroke="#F6D194" stroke-linecap="square" points="773.541141 426.463516 456.563227 426.463516 424 408.932847 384.616115 426.463516 75.4466604 426.463516 75.4466604 10.5 272.5 10.5"></polyline>
                    <polyline id="Path-2" stroke="#F6D194" stroke-width="2" points="228.605135 13.9694535 235.89115 4.14177692 278.976575 4.14177692"></polyline>
                    <rect id="Rectangle-4" fill="#F6D194" x="209" y="26" width="74" height="3"></rect>
                </g>
                <polyline id="Path-10" stroke="#F6D194" points="349.59228 426.487698 359.008455 415.96521 393.935554 415.96521 419 429.990885 444.910231 415.96521 483.548311 415.96521 493.219575 426.487698"></polyline>
                <polyline id="Path-12" stroke="#F6D194" stroke-width="2" points="79.6292897 312.274944 79.6292897 413.582601 179.323306 413.582601"></polyline>
                <polyline id="Path-12" stroke="#F6D194" stroke-width="2" transform="translate(707.062030, 365.851648) scale(-1, 1) translate(-707.062030, -365.851648) " points="657.215022 315.197819 657.215022 416.505476 756.909039 416.505476"></polyline>
                <path d="M79.1124621,385.104816 L104.764971,412.882227" id="Path-13" stroke="#F6D194"></path>
                <path d="M757.005719,388.134561 L731.35321,415.911972" id="Path-13" stroke="#F6D194"></path>
                <path d="M455.5,421 L478.5,421" id="Line-4" stroke="#F6D194" stroke-width="2" stroke-linecap="square"></path>
                <path d="M363.5,421 L386.5,421" id="Line-4" stroke="#F6D194" stroke-width="2" stroke-linecap="square"></path>
                <g id="Rectangle-5" transform="translate(419.065076, 419.020430) rotate(45.000000) translate(-419.065076, -419.020430) ">
                    <use fill="#F6D194" fill-rule="evenodd" xlink:href="#path-1"></use>
                    <rect stroke="#F6D194" stroke-width="1" x="415.565076" y="415.52043" width="7" height="7"></rect>
                </g>
                <g id="Rectangle-5" transform="translate(87.651872, 404.139672) rotate(45.000000) translate(-87.651872, -404.139672) ">
                    <use fill="#F6D194" fill-rule="evenodd" xlink:href="#path-2"></use>
                    <rect stroke="#F6D194" stroke-width="1" x="85.6518715" y="402.139672" width="4" height="4"></rect>
                </g>
                <g id="Rectangle-5" transform="translate(748.434029, 406.349155) rotate(45.000000) translate(-748.434029, -406.349155) ">
                    <use fill="#F6D194" fill-rule="evenodd" xlink:href="#path-3"></use>
                    <rect stroke="#F6D194" stroke-width="1" x="746.434029" y="404.349155" width="4" height="4"></rect>
                </g>
            </g>
        </g>
    </g>
</svg>