<?xml version="1.0" encoding="UTF-8"?>
<svg width="311px" height="82px" viewBox="0 0 311 82" version="1.1" xmlns="http://www.w3.org/2000/svg" xmlns:xlink="http://www.w3.org/1999/xlink">
    <!-- Generator: Sketch 47 (45396) - http://www.bohemiancoding.com/sketch -->
    <title>btn1</title>
    <desc>Created with Sketch.</desc>
    <defs>
        <linearGradient x1="50%" y1="0%" x2="50%" y2="100%" id="linearGradient-1">
            <stop stop-color="#FBEAC6" offset="0%"></stop>
            <stop stop-color="#F6D194" offset="100%"></stop>
        </linearGradient>
    </defs>
    <g id="Page-1" stroke="none" stroke-width="1" fill="none" fill-rule="evenodd">
        <g id="iPhone-7-Copy-2" transform="translate(-42.000000, -1033.000000)" fill="url(#linearGradient-1)">
            <g id="btn1" transform="translate(42.000000, 1033.000000)">
                <path d="M16,0 L295,0 C303.836556,-1.623249e-15 311,7.163444 311,16 L311,66 C311,74.836556 303.836556,82 295,82 L16,82 C7.163444,82 1.082166e-15,74.836556 0,66 L0,16 L0,16 C-1.082166e-15,7.163444 7.163444,1.623249e-15 16,0 L16,0 Z M19.2,3 L19.2,3 C10.8052718,3 4,9.8052718 4,18.2 L4,18.2 L4,63.8 C4,72.1947282 10.8052718,79 19.2,79 L19.2,79 L291.8,79 C300.194728,79 307,72.1947282 307,63.8 L307,63.8 L307,18.2 C307,9.8052718 300.194728,3 291.8,3 L291.8,3 L19.2,3 Z" id="Combined-Shape"></path>
                <path d="M20,8 L292,8 C297.522847,8 302,12.4771525 302,18 L302,63 C302,68.5228475 297.522847,73 292,73 L20,73 C14.4771525,73 10,68.5228475 10,63 L10,18 L10,18 C10,12.4771525 14.4771525,8 20,8 L20,8 Z M17.4395006,27.3323988 L17.4395006,53.1367621 L18.4395006,53.1367621 L18.4395006,27.3323988 L17.4395006,27.3323988 Z M291.520133,27.3304905 L291.520133,53.1348537 L292.520133,53.1348537 L292.520133,27.3304905 L291.520133,27.3304905 Z M17.9223135,65.7687797 C19.5801601,65.7687797 20.9241103,64.4357404 20.9241103,62.7913532 C20.9241103,61.1469659 19.5801601,59.8139266 17.9223135,59.8139266 C16.2644669,59.8139266 14.9205166,61.1469659 14.9205166,62.7913532 C14.9205166,64.4357404 16.2644669,65.7687797 17.9223135,65.7687797 Z M18.0047915,21.8946571 C19.6626381,21.8946571 21.0065883,20.5616179 21.0065883,18.9172306 C21.0065883,17.2728433 19.6626381,15.9398041 18.0047915,15.9398041 C16.3469449,15.9398041 15.0029947,17.2728433 15.0029947,18.9172306 C15.0029947,20.5616179 16.3469449,21.8946571 18.0047915,21.8946571 Z M292.240585,65.6748226 C293.898431,65.6748226 295.242381,64.3417834 295.242381,62.6973961 C295.242381,61.0530088 293.898431,59.7199696 292.240585,59.7199696 C290.582738,59.7199696 289.238788,61.0530088 289.238788,62.6973961 C289.238788,64.3417834 290.582738,65.6748226 292.240585,65.6748226 Z M292.236002,21.6805408 C293.893849,21.6805408 295.237799,20.3475015 295.237799,18.7031143 C295.237799,17.058727 293.893849,15.7256877 292.236002,15.7256877 C290.578156,15.7256877 289.234206,17.058727 289.234206,18.7031143 C289.234206,20.3475015 290.578156,21.6805408 292.236002,21.6805408 Z" id="Combined-Shape"></path>
            </g>
        </g>
    </g>
</svg>