<?xml version="1.0" encoding="UTF-8"?>
<svg width="666px" height="82px" viewBox="0 0 666 82" version="1.1" xmlns="http://www.w3.org/2000/svg" xmlns:xlink="http://www.w3.org/1999/xlink">
    <!-- Generator: Sketch 47 (45396) - http://www.bohemiancoding.com/sketch -->
    <title>btn3</title>
    <desc>Created with Sketch.</desc>
    <defs>
        <linearGradient x1="50%" y1="0%" x2="50%" y2="100%" id="linearGradient-1">
            <stop stop-color="#FBEAC6" offset="0%"></stop>
            <stop stop-color="#F6D194" offset="100%"></stop>
        </linearGradient>
    </defs>
    <g id="Page-1" stroke="none" stroke-width="1" fill="none" fill-rule="evenodd">
        <g id="iPhone-7-Copy-2" transform="translate(-43.000000, -1156.000000)" fill="url(#linearGradient-1)">
            <g id="btn3" transform="translate(43.000000, 1156.000000)">
                <path d="M16.5376522,0 L649.05388,0 L649.05388,-1.77635684e-15 C657.890436,5.93879009e-14 665.05388,7.163444 665.05388,16 L665.05388,66 L665.05388,66 C665.05388,74.836556 657.890436,82 649.05388,82 L16.5376522,82 L16.5376522,82 C7.70109618,82 0.537652181,74.836556 0.537652181,66 L0.537652181,16 L0.537652181,16 C0.537652181,7.163444 7.70109618,-1.53107837e-16 16.5376522,-1.77635684e-15 L16.5376522,0 Z M22.7376522,3 L22.7376522,3 C14.342924,3 7.53765218,9.8052718 7.53765218,18.2 L7.53765218,63.8 C7.53765218,72.1947282 14.342924,79 22.7376522,79 L642.753421,79 C651.148149,79 657.953421,72.1947282 657.953421,63.8 L657.953421,18.2 C657.953421,9.8052718 651.148149,3 642.753421,3 L642.753421,3 L22.7376522,3 Z" id="Combined-Shape"></path>
                <path d="M22.693175,8.55302962 L641.801041,8.55302962 L641.801041,8.55302962 C647.323889,8.55302962 651.801041,13.0301821 651.801041,18.5530296 L651.801041,63.5530296 L651.801041,63.5530296 C651.801041,69.0758771 647.323889,73.5530296 641.801041,73.5530296 L22.693175,73.5530296 C17.1703275,73.5530296 12.693175,69.0758771 12.693175,63.5530296 L12.693175,18.5530296 L12.693175,18.5530296 C12.693175,13.0301821 17.1703275,8.55302962 22.693175,8.55302962 L22.693175,8.55302962 Z M25.4395006,27.3323988 L25.4395006,53.1367621 L26.4395006,53.1367621 L26.4395006,27.3323988 L25.4395006,27.3323988 Z M25.9223135,65.7687797 C27.5801601,65.7687797 28.9241103,64.4357404 28.9241103,62.7913532 C28.9241103,61.1469659 27.5801601,59.8139266 25.9223135,59.8139266 C24.2644669,59.8139266 22.9205166,61.1469659 22.9205166,62.7913532 C22.9205166,64.4357404 24.2644669,65.7687797 25.9223135,65.7687797 Z M26.0047915,21.8946571 C27.6626381,21.8946571 29.0065883,20.5616179 29.0065883,18.9172306 C29.0065883,17.2728433 27.6626381,15.9398041 26.0047915,15.9398041 C24.3469449,15.9398041 23.0029947,17.2728433 23.0029947,18.9172306 C23.0029947,20.5616179 24.3469449,21.8946571 26.0047915,21.8946571 Z M639.439501,27.3323988 L639.439501,53.1367621 L640.439501,53.1367621 L640.439501,27.3323988 L639.439501,27.3323988 Z M639.922313,65.7687797 C641.58016,65.7687797 642.92411,64.4357404 642.92411,62.7913532 C642.92411,61.1469659 641.58016,59.8139266 639.922313,59.8139266 C638.264467,59.8139266 636.920517,61.1469659 636.920517,62.7913532 C636.920517,64.4357404 638.264467,65.7687797 639.922313,65.7687797 Z M640.004791,21.8946571 C641.662638,21.8946571 643.006588,20.5616179 643.006588,18.9172306 C643.006588,17.2728433 641.662638,15.9398041 640.004791,15.9398041 C638.346945,15.9398041 637.002995,17.2728433 637.002995,18.9172306 C637.002995,20.5616179 638.346945,21.8946571 640.004791,21.8946571 Z" id="Combined-Shape"></path>
            </g>
        </g>
    </g>
</svg>