<?xml version="1.0" encoding="UTF-8"?>
<svg width="330px" height="180px" viewBox="0 0 330 180" version="1.1" xmlns="http://www.w3.org/2000/svg" xmlns:xlink="http://www.w3.org/1999/xlink">
    <!-- Generator: Sketch 47 (45396) - http://www.bohemiancoding.com/sketch -->
    <title>carda</title>
    <desc>Created with Sketch.</desc>
    <defs>
        <linearGradient x1="50%" y1="0%" x2="50%" y2="100%" id="linearGradient-1">
            <stop stop-color="#000000" stop-opacity="0.406901042" offset="0%"></stop>
            <stop stop-color="#000000" stop-opacity="0" offset="100%"></stop>
        </linearGradient>
        <path d="M316.268966,180 L12.7310342,180 C12.9073587,179.173411 13,178.317194 13,177.440023 C13,170.487305 7.17970175,164.851014 8.90885878e-16,164.851014 L0,21.3912279 C1.04072876,21.5539172 2.1175235,21.6392883 3.22000879,21.6392883 C12.1780723,21.6392883 19.4400176,16.002997 19.4400176,9.05027933 L310,9.05027933 C310,16.002997 317.261945,21.6392883 326.220009,21.6392883 C326.740489,21.6392883 327.255243,21.6202612 327.76318,21.5830542 C328.170281,21.6202612 328.582846,21.6392883 329,21.6392883 C329.336472,21.6392883 329.669958,21.6269095 330,21.6025966 L330,164.887705 C329.669958,164.863392 329.336472,164.851014 329,164.851014 C321.820298,164.851014 316,170.487305 316,177.440023 C316,178.317194 316.092641,179.173411 316.268966,180 Z" id="path-2"></path>
        <path d="M165.327239,36.8749009 L131.292291,10.1626372 L199.362188,10.1626372 L165.327239,36.8749009 Z M164.880008,29.7360131 C167.089147,29.7360131 168.880008,27.9351473 168.880008,25.7136667 C168.880008,23.4921861 167.089147,21.6913203 164.880008,21.6913203 C162.670869,21.6913203 160.880008,23.4921861 160.880008,25.7136667 C160.880008,27.9351473 162.670869,29.7360131 164.880008,29.7360131 Z" id="path-3"></path>
        <filter x="-7.3%" y="-11.2%" width="114.7%" height="141.2%" filterUnits="objectBoundingBox" id="filter-4">
            <feMorphology radius="0.5" operator="dilate" in="SourceAlpha" result="shadowSpreadOuter1"></feMorphology>
            <feOffset dx="0" dy="3" in="shadowSpreadOuter1" result="shadowOffsetOuter1"></feOffset>
            <feGaussianBlur stdDeviation="1" in="shadowOffsetOuter1" result="shadowBlurOuter1"></feGaussianBlur>
            <feComposite in="shadowBlurOuter1" in2="SourceAlpha" operator="out" result="shadowBlurOuter1"></feComposite>
            <feColorMatrix values="0 0 0 0 0   0 0 0 0 0   0 0 0 0 0  0 0 0 0.319151947 0" type="matrix" in="shadowBlurOuter1"></feColorMatrix>
        </filter>
        <path d="M173.521822,94.2739176 L196.054828,70.2761374 L187.177017,61.5473507 L164.911692,85.1786349 L142.523927,61.5293913 L133.472794,70.2699682 L156.241556,94.3806765 L133.509557,118.507265 L142.596052,127.210038 L164.856107,103.502953 L187.243009,127.209295 L196.479535,118.525224 L173.521822,94.2739176 Z" id="path-5"></path>
        <filter x="-8.7%" y="-5.3%" width="117.5%" height="116.7%" filterUnits="objectBoundingBox" id="filter-6">
            <feOffset dx="0" dy="2" in="SourceAlpha" result="shadowOffsetOuter1"></feOffset>
            <feGaussianBlur stdDeviation="1.5" in="shadowOffsetOuter1" result="shadowBlurOuter1"></feGaussianBlur>
            <feColorMatrix values="0 0 0 0 0   0 0 0 0 0   0 0 0 0 0  0 0 0 0.707059556 0" type="matrix" in="shadowBlurOuter1"></feColorMatrix>
        </filter>
    </defs>
    <g id="Page-1" stroke="none" stroke-width="1" fill="none" fill-rule="evenodd">
        <g id="iPhone-7" transform="translate(-394.000000, -812.000000)">
            <g id="carda" transform="translate(394.000000, 812.000000)">
                <path d="M329.5,164.35983 L329.5,10.5358343 C329.333729,10.5405533 329.167044,10.5429185 329,10.5429185 C321.781042,10.5429185 315.848632,6.11962754 315.514816,0.5 L13.4851845,0.5 C13.159108,5.98933284 7.49104151,10.3371616 0.5,10.5358251 L0.5,164.359827 C7.72094699,164.614803 13.5,170.36996 13.5,177.440023 C13.5,178.134954 13.4440978,178.823084 13.3336951,179.5 L315.666305,179.5 C315.555902,178.823084 315.5,178.134954 315.5,177.440023 C315.5,170.207504 321.547686,164.351014 329,164.351014 C329.16704,164.351014 329.333725,164.353957 329.5,164.35983 Z" id="Combined-Shape" stroke="#F07474"></path>
                <g id="Combined-Shape">
                    <use fill="url(#linearGradient-1)" fill-rule="evenodd" xlink:href="#path-2"></use>
                    <use fill-opacity="0.4" fill="#F07474" fill-rule="evenodd" xlink:href="#path-2"></use>
                    <path stroke="#F07474" stroke-width="1" d="M315.666305,179.5 C315.555902,178.823084 315.5,178.134954 315.5,177.440023 C315.5,170.207504 321.547686,164.351014 329,164.351014 C329.16704,164.351014 329.333725,164.353957 329.5,164.35983 L329.5,22.1304716 C329.333725,22.1363448 329.16704,22.1392883 329,22.1392883 C328.56986,22.1392883 328.142104,22.1197698 327.799708,22.0817181 C327.276863,22.1200171 326.749917,22.1392883 326.220009,22.1392883 C317.221968,22.1392883 309.847283,16.576558 309.511911,9.55027933 L19.9281063,9.55027933 C19.5927346,16.576558 12.2180497,22.1392883 3.22000879,22.1392883 C2.3019029,22.1392883 1.39317539,22.0814389 0.5,21.9672224 L0.5,164.359827 C7.72094699,164.614803 13.5,170.36996 13.5,177.440023 C13.5,178.134954 13.4440978,178.823084 13.3336951,179.5 L315.666305,179.5 Z"></path>
                </g>
                <g id="Combined-Shape">
                    <use fill="black" fill-opacity="1" filter="url(#filter-4)" xlink:href="#path-3"></use>
                    <use stroke="#F07474" stroke-width="1" fill="#F07474" fill-rule="evenodd" xlink:href="#path-3"></use>
                </g>
                <g id="Combined-Shape">
                    <use fill="black" fill-opacity="1" filter="url(#filter-6)" xlink:href="#path-5"></use>
                    <use fill="#FB5959" fill-rule="evenodd" xlink:href="#path-5"></use>
                </g>
            </g>
        </g>
    </g>
</svg>