<?xml version="1.0" encoding="UTF-8"?>
<svg width="330px" height="234px" viewBox="0 0 330 234" version="1.1" xmlns="http://www.w3.org/2000/svg" xmlns:xlink="http://www.w3.org/1999/xlink">
    <!-- Generator: Sketch 47 (45396) - http://www.bohemiancoding.com/sketch -->
    <title>cardb</title>
    <desc>Created with Sketch.</desc>
    <defs>
        <linearGradient x1="50%" y1="0%" x2="50%" y2="100%" id="linearGradient-1">
            <stop stop-color="#000000" stop-opacity="0.406901042" offset="0%"></stop>
            <stop stop-color="#000000" stop-opacity="0" offset="100%"></stop>
        </linearGradient>
        <path d="M316.152896,233.380256 L12.8471036,233.380256 C12.9477705,232.752434 13,232.109213 13,231.454245 C13,224.540153 7.17970175,218.935175 8.90885878e-16,218.935175 L0,21.2723877 C1.04072876,21.4341733 2.1175235,21.5190701 3.22000879,21.5190701 C12.1780723,21.5190701 19.4400176,15.9140915 19.4400176,9 L310,9 C310,15.9140915 317.261945,21.5190701 326.220009,21.5190701 C326.740489,21.5190701 327.255243,21.5001486 327.76318,21.4631483 C328.170281,21.5001486 328.582846,21.5190701 329,21.5190701 C329.336472,21.5190701 329.669958,21.50676 330,21.4825821 L330,218.971663 C329.669958,218.947485 329.336472,218.935175 329,218.935175 C321.820298,218.935175 316,224.540153 316,231.454245 C316,232.109213 316.052229,232.752434 316.152896,233.380256 Z" id="path-2"></path>
        <path d="M165.327239,36.6700403 L131.292291,10.1061782 L199.362188,10.1061782 L165.327239,36.6700403 Z M164.880008,29.570813 C167.089147,29.570813 168.880008,27.779952 168.880008,25.570813 C168.880008,23.361674 167.089147,21.570813 164.880008,21.570813 C162.670869,21.570813 160.880008,23.361674 160.880008,25.570813 C160.880008,27.779952 162.670869,29.570813 164.880008,29.570813 Z" id="path-3"></path>
        <filter x="-7.3%" y="-11.3%" width="114.7%" height="141.4%" filterUnits="objectBoundingBox" id="filter-4">
            <feMorphology radius="0.5" operator="dilate" in="SourceAlpha" result="shadowSpreadOuter1"></feMorphology>
            <feOffset dx="0" dy="3" in="shadowSpreadOuter1" result="shadowOffsetOuter1"></feOffset>
            <feGaussianBlur stdDeviation="1" in="shadowOffsetOuter1" result="shadowBlurOuter1"></feGaussianBlur>
            <feComposite in="shadowBlurOuter1" in2="SourceAlpha" operator="out" result="shadowBlurOuter1"></feComposite>
            <feColorMatrix values="0 0 0 0 0   0 0 0 0 0   0 0 0 0 0  0 0 0 0.319151947 0" type="matrix" in="shadowBlurOuter1"></feColorMatrix>
        </filter>
        <polygon id="path-5" points="125 129.220302 130.95787 119.964334 156.223603 136.14553 195.498686 96 204.82419 104.954136 158.480493 151.959192"></polygon>
        <filter x="-8.8%" y="-8.9%" width="117.5%" height="125.0%" filterUnits="objectBoundingBox" id="filter-6">
            <feOffset dx="0" dy="2" in="SourceAlpha" result="shadowOffsetOuter1"></feOffset>
            <feGaussianBlur stdDeviation="2" in="shadowOffsetOuter1" result="shadowBlurOuter1"></feGaussianBlur>
            <feColorMatrix values="0 0 0 0 0   0 0 0 0 0   0 0 0 0 0  0 0 0 0.5 0" type="matrix" in="shadowBlurOuter1"></feColorMatrix>
        </filter>
    </defs>
    <g id="Page-1" stroke="none" stroke-width="1" fill="none" fill-rule="evenodd">
        <g id="iPhone-7" transform="translate(-394.000000, -762.000000)">
            <g id="cardb" transform="translate(394.000000, 762.000000)">
                <path d="M329.5,217.509094 L329.5,13.490906 C329.333725,13.4969639 329.16704,13.5 329,13.5 C321.711552,13.5 315.772114,7.72419953 315.509088,0.5 L13.4909123,0.5 C13.2339273,7.55827941 7.55827941,13.2339273 0.5,13.4909123 L0.5,217.509088 C7.72419953,217.772114 13.5,223.711552 13.5,231 C13.5,231.503896 13.4723713,232.004413 13.4175634,232.5 L315.582437,232.5 C315.527629,232.004413 315.5,231.503896 315.5,231 C315.5,223.544156 321.544156,217.5 329,217.5 C329.16704,217.5 329.333725,217.503036 329.5,217.509094 Z" id="Combined-Shape" stroke="#F6D194"></path>
                <g id="Combined-Shape">
                    <use fill="url(#linearGradient-1)" fill-rule="evenodd" xlink:href="#path-2"></use>
                    <use fill-opacity="0.3" fill="#94F6A2" fill-rule="evenodd" xlink:href="#path-2"></use>
                    <path stroke="#F6D194" stroke-width="1" d="M315.580095,232.880256 C315.526842,232.409035 315.5,231.93322 315.5,231.454245 C315.5,224.259706 321.548285,218.435175 329,218.435175 C329.167041,218.435175 329.333725,218.438103 329.5,218.443944 L329.5,22.0103006 C329.333725,22.0161423 329.167041,22.0190701 329,22.0190701 C328.569944,22.0190701 328.142272,21.9996638 327.799506,21.961827 C327.276728,21.9999084 326.749849,22.0190701 326.220009,22.0190701 C317.223483,22.0190701 309.849138,16.4883236 309.512038,9.5 L19.9279801,9.5 C19.5908799,16.4883236 12.2165348,22.0190701 3.22000879,22.0190701 C2.30190134,22.0190701 1.39317373,21.9615345 0.5,21.8479377 L0.5,218.443942 C7.72039549,218.697546 13.5,224.421321 13.5,231.454245 C13.5,231.93322 13.473158,232.409035 13.4199049,232.880256 L315.580095,232.880256 Z"></path>
                </g>
                <g id="Combined-Shape">
                    <use fill="black" fill-opacity="1" filter="url(#filter-4)" xlink:href="#path-3"></use>
                    <use stroke="#F6D194" stroke-width="1" fill="#F6D194" fill-rule="evenodd" xlink:href="#path-3"></use>
                </g>
                <g id="checkRight">
                    <use fill="black" fill-opacity="1" filter="url(#filter-6)" xlink:href="#path-5"></use>
                    <use fill="#94F6A2" fill-rule="evenodd" xlink:href="#path-5"></use>
                </g>
            </g>
        </g>
    </g>
</svg>