<?xml version="1.0" encoding="UTF-8"?>
<svg width="411px" height="411px" viewBox="0 0 411 411" version="1.1" xmlns="http://www.w3.org/2000/svg" xmlns:xlink="http://www.w3.org/1999/xlink">
    <!-- Generator: Sketch 47 (45396) - http://www.bohemiancoding.com/sketch -->
    <title>circle1</title>
    <desc>Created with Sketch.</desc>
    <defs></defs>
    <g id="Page-1" stroke="none" stroke-width="1" fill="none" fill-rule="evenodd">
        <g id="iPhone-7" transform="translate(-173.000000, -103.000000)">
            <g id="timer" transform="translate(378.500000, 308.500000) rotate(90.000000) translate(-378.500000, -308.500000) translate(174.000000, 104.000000)">
                <g id="circle1">
                    <circle id="Oval-4" stroke="#F6D194" stroke-width="2.266" cx="204.661" cy="204.558" r="203.94"></circle>
                    <path d="M204.608753,392.996742 C307.669113,392.996742 391.216042,309.449813 391.216042,206.389454 C391.216042,103.329094 307.669113,19.782165 204.608753,19.782165 C137.153911,19.782165 78.0584973,55.5731328 45.2769434,109.200637 C44.0113159,111.271083 44.3161877,110.513816 43.1300388,112.636403 C40.7276565,116.935411 36.9591313,124.193541 34.8956007,128.693609 C34.3610122,129.859419 33.8380828,131.031688 33.3269617,132.210267 C30.936278,137.722872 28.8039293,143.373518 26.9451888,149.146931 C26.5190524,150.470549 26.1072971,151.800619 25.7101067,153.136958 C23.9772188,158.967224 22.5215703,164.916813 21.3584454,170.970439 C21.0750741,172.445279 20.8090656,173.926295 20.560641,175.413265 C19.6278817,180.996386 18.9430146,186.663447 18.5177385,192.40275 C18.3823032,194.230515 18.2731955,196.065606 18.1907933,197.907647 C18.0650218,200.719175 18.0014643,203.546892 18.0014643,206.389454 C18.0014643,209.399082 18.0727124,212.39207 18.2136138,215.366822 C18.2495809,216.12617 18.2900867,216.88433 18.3351045,217.641276 C24.1528384,315.462702 105.326273,392.996742 204.608753,392.996742 Z" id="Oval-7" stroke="#F8D69C" stroke-width="27.192" opacity="0.200000003" stroke-dasharray="20.39399921417236,4.532000098228455" transform="translate(204.608753, 206.389454) rotate(90.000000) translate(-204.608753, -206.389454) "></path>
                    <circle id="Oval-13" stroke="#AD9262" stroke-width="2.266" cx="204.435968" cy="204.332968" r="182.187968"></circle>
                </g>
            </g>
        </g>
    </g>
</svg>