<svg xmlns="http://www.w3.org/2000/svg" width="311" height="92" viewBox="0 0 311 92">
  <defs>
    <linearGradient id="btn-a" x1="50%" x2="50%" y1="0%" y2="100%">
      <stop offset="0%" stop-color="#FBEAC6"/>
      <stop offset="100%" stop-color="#F6D194"/>
    </linearGradient>
  </defs>
  <g fill="none" fill-rule="evenodd" transform="translate(0 1)">
    <path fill="url(#btn-a)" d="M16,9 L295,9 C303.836556,9 311,16.163444 311,25 L311,75 C311,83.836556 303.836556,91 295,91 L16,91 C7.163444,91 1.082166e-15,83.836556 0,75 L0,25 L0,25 C-1.082166e-15,16.163444 7.163444,9 16,9 L16,9 Z M19.2,12 L19.2,12 C10.8052718,12 4,18.8052718 4,27.2 L4,27.2 L4,72.8 C4,81.1947282 10.8052718,88 19.2,88 L19.2,88 L291.8,88 C300.194728,88 307,81.1947282 307,72.8 L307,72.8 L307,27.2 C307,18.8052718 300.194728,12 291.8,12 L291.8,12 L19.2,12 Z"/>
    <path fill="url(#btn-a)" d="M20,17 L292,17 C297.522847,17 302,21.4771525 302,27 L302,72 C302,77.5228475 297.522847,82 292,82 L20,82 C14.4771525,82 10,77.5228475 10,72 L10,27 L10,27 C10,21.4771525 14.4771525,17 20,17 L20,17 Z M17.4395006,36.3323988 L17.4395006,62.1367621 L18.4395006,62.1367621 L18.4395006,36.3323988 L17.4395006,36.3323988 Z M291.520133,36.3304905 L291.520133,62.1348537 L292.520133,62.1348537 L292.520133,36.3304905 L291.520133,36.3304905 Z M17.9223135,74.7687797 C19.5801601,74.7687797 20.9241103,73.4357404 20.9241103,71.7913532 C20.9241103,70.1469659 19.5801601,68.8139266 17.9223135,68.8139266 C16.2644669,68.8139266 14.9205166,70.1469659 14.9205166,71.7913532 C14.9205166,73.4357404 16.2644669,74.7687797 17.9223135,74.7687797 Z M18.0047915,30.8946571 C19.6626381,30.8946571 21.0065883,29.5616179 21.0065883,27.9172306 C21.0065883,26.2728433 19.6626381,24.9398041 18.0047915,24.9398041 C16.3469449,24.9398041 15.0029947,26.2728433 15.0029947,27.9172306 C15.0029947,29.5616179 16.3469449,30.8946571 18.0047915,30.8946571 Z M292.240585,74.6748226 C293.898431,74.6748226 295.242381,73.3417834 295.242381,71.6973961 C295.242381,70.0530088 293.898431,68.7199696 292.240585,68.7199696 C290.582738,68.7199696 289.238788,70.0530088 289.238788,71.6973961 C289.238788,73.3417834 290.582738,74.6748226 292.240585,74.6748226 Z M292.236002,30.6805408 C293.893849,30.6805408 295.237799,29.3475015 295.237799,27.7031143 C295.237799,26.058727 293.893849,24.7256877 292.236002,24.7256877 C290.578156,24.7256877 289.234206,26.058727 289.234206,27.7031143 C289.234206,29.3475015 290.578156,30.6805408 292.236002,30.6805408 Z"/>
    <polyline stroke="#FBEAC5" points="82 9.101 100.543 0 211.318 0 228.17 9.101"/>
  </g>
</svg>
