<?xml version="1.0" encoding="UTF-8"?>
<svg width="176px" height="182px" viewBox="0 0 176 182" version="1.1" xmlns="http://www.w3.org/2000/svg" xmlns:xlink="http://www.w3.org/1999/xlink">
    <!-- Generator: Sketch 47 (45396) - http://www.bohemiancoding.com/sketch -->
    <title>Group 3</title>
    <desc>Created with Sketch.</desc>
    <defs>
        <linearGradient x1="55.3234178%" y1="0%" x2="50%" y2="121.099648%" id="linearGradient-1">
            <stop stop-color="#F7CE89" offset="0%"></stop>
            <stop stop-color="#F6E2C1" offset="100%"></stop>
        </linearGradient>
        <path d="M87.1221794,0.317 C80.0348669,6.59873982 71.1605747,10.8030514 60.4993029,12.9299348 C49.8380311,15.0568182 39.0076516,14.783514 28.0081643,12.1100223 C26.0072123,18.4959984 23.6917481,23.9115208 21.0617717,28.3565895 C18.4317953,32.8016583 14.7140162,35.499696 9.9084343,36.4507026 C9.80220093,40.4400954 8.55588357,43.3037538 6.16948222,45.0416781 C3.78308088,46.7796023 1.86658681,47.6632812 0.42,47.6927148 C7.96684848,57.6495637 14.279655,71.5044921 19.3584196,89.2575 C24.4371841,107.010508 27.3204324,125.300727 28.0081643,144.128156 C43.0784585,149.205812 54.5203858,153.996279 62.333946,158.499556 C70.1475063,163.002833 78.2577283,169.553377 86.6646122,178.151187 L87.1221794,0.317 Z M87.1221794,0.317 C93.4172528,6.7053713 101.895425,10.9629986 112.556697,13.089882 C123.217969,15.2167654 134.048348,14.9434612 145.047836,12.2699695 C147.048788,18.6559456 149.364252,24.071468 151.994228,28.5165367 C154.624205,32.9616055 158.341984,35.6596432 163.147566,36.6106499 C163.253799,40.6000426 164.500116,43.4637011 166.886518,45.2016253 C169.272919,46.9395495 171.189413,47.8232284 172.636,47.852662 C165.089152,57.8095109 158.776345,71.6644393 153.69758,89.4174472 C148.618816,107.170455 145.735568,125.460674 145.047836,144.288103 C129.977541,149.36576 118.535614,154.156226 110.722054,158.659503 C102.908494,163.16278 94.8893465,169.660008 86.6646122,178.151187 L87.1221794,0.317 Z" id="path-2"></path>
        <filter x="-2.6%" y="-0.8%" width="103.5%" height="103.9%" filterUnits="objectBoundingBox" id="filter-4">
            <feOffset dx="0" dy="1" in="SourceAlpha" result="shadowOffsetOuter1"></feOffset>
            <feColorMatrix values="0 0 0 0 0.549019608   0 0 0 0 0.341176471   0 0 0 0 0.188235294  0 0 0 1 0" type="matrix" in="shadowOffsetOuter1" result="shadowMatrixOuter1"></feColorMatrix>
            <feOffset dx="-2" dy="2" in="SourceAlpha" result="shadowOffsetOuter2"></feOffset>
            <feGaussianBlur stdDeviation="0.5" in="shadowOffsetOuter2" result="shadowBlurOuter2"></feGaussianBlur>
            <feColorMatrix values="0 0 0 0 0   0 0 0 0 0   0 0 0 0 0  0 0 0 0.5 0" type="matrix" in="shadowBlurOuter2" result="shadowMatrixOuter2"></feColorMatrix>
            <feMerge>
                <feMergeNode in="shadowMatrixOuter1"></feMergeNode>
                <feMergeNode in="shadowMatrixOuter2"></feMergeNode>
            </feMerge>
        </filter>
    </defs>
    <g id="Page-1" stroke="none" stroke-width="1" fill="none" fill-rule="evenodd">
        <g id="iPhone-7" transform="translate(-287.000000, -222.000000)">
            <g id="Group-3" transform="translate(289.486241, 222.540412)">
                <mask id="mask-3" fill="white">
                    <use xlink:href="#path-2"></use>
                </mask>
                <g id="Combined-Shape">
                    <use fill="black" fill-opacity="1" filter="url(#filter-4)" xlink:href="#path-2"></use>
                    <use fill="url(#linearGradient-1)" fill-rule="evenodd" xlink:href="#path-2"></use>
                </g>
            </g>
        </g>
    </g>
</svg>